G04 #@! TF.GenerationSoftware,KiCad,Pcbnew,8.0.1*
G04 #@! TF.CreationDate,2024-04-14T22:29:55+02:00*
G04 #@! TF.ProjectId,ETH16CDAQ1,45544831-3643-4444-9151-312e6b696361,rev?*
G04 #@! TF.SameCoordinates,Original*
G04 #@! TF.FileFunction,Soldermask,Bot*
G04 #@! TF.FilePolarity,Negative*
%FSLAX46Y46*%
G04 Gerber Fmt 4.6, Leading zero omitted, Abs format (unit mm)*
G04 Created by KiCad (PCBNEW 8.0.1) date 2024-04-14 22:29:55*
%MOMM*%
%LPD*%
G01*
G04 APERTURE LIST*
G04 Aperture macros list*
%AMRoundRect*
0 Rectangle with rounded corners*
0 $1 Rounding radius*
0 $2 $3 $4 $5 $6 $7 $8 $9 X,Y pos of 4 corners*
0 Add a 4 corners polygon primitive as box body*
4,1,4,$2,$3,$4,$5,$6,$7,$8,$9,$2,$3,0*
0 Add four circle primitives for the rounded corners*
1,1,$1+$1,$2,$3*
1,1,$1+$1,$4,$5*
1,1,$1+$1,$6,$7*
1,1,$1+$1,$8,$9*
0 Add four rect primitives between the rounded corners*
20,1,$1+$1,$2,$3,$4,$5,0*
20,1,$1+$1,$4,$5,$6,$7,0*
20,1,$1+$1,$6,$7,$8,$9,0*
20,1,$1+$1,$8,$9,$2,$3,0*%
G04 Aperture macros list end*
%ADD10C,5.600000*%
%ADD11R,1.000000X1.000000*%
%ADD12C,1.000000*%
%ADD13RoundRect,0.250000X0.600000X0.600000X-0.600000X0.600000X-0.600000X-0.600000X0.600000X-0.600000X0*%
%ADD14C,1.700000*%
%ADD15C,4.000000*%
%ADD16RoundRect,0.102000X0.715000X0.715000X-0.715000X0.715000X-0.715000X-0.715000X0.715000X-0.715000X0*%
%ADD17C,1.634000*%
%ADD18C,0.600000*%
%ADD19C,2.200000*%
%ADD20R,2.600000X2.600000*%
%ADD21C,2.600000*%
%ADD22C,3.250000*%
%ADD23RoundRect,0.248000X0.552000X-0.552000X0.552000X0.552000X-0.552000X0.552000X-0.552000X-0.552000X0*%
%ADD24C,1.600000*%
%ADD25C,1.720000*%
%ADD26O,1.000000X1.000000*%
%ADD27RoundRect,0.237500X-0.300000X-0.237500X0.300000X-0.237500X0.300000X0.237500X-0.300000X0.237500X0*%
%ADD28RoundRect,0.237500X0.237500X-0.300000X0.237500X0.300000X-0.237500X0.300000X-0.237500X-0.300000X0*%
%ADD29RoundRect,0.112500X-0.237500X0.112500X-0.237500X-0.112500X0.237500X-0.112500X0.237500X0.112500X0*%
%ADD30RoundRect,0.250000X-0.650000X0.412500X-0.650000X-0.412500X0.650000X-0.412500X0.650000X0.412500X0*%
%ADD31RoundRect,0.150000X0.150000X0.200000X-0.150000X0.200000X-0.150000X-0.200000X0.150000X-0.200000X0*%
%ADD32RoundRect,0.237500X-0.237500X0.250000X-0.237500X-0.250000X0.237500X-0.250000X0.237500X0.250000X0*%
%ADD33RoundRect,0.237500X0.300000X0.237500X-0.300000X0.237500X-0.300000X-0.237500X0.300000X-0.237500X0*%
%ADD34RoundRect,0.237500X-0.237500X0.300000X-0.237500X-0.300000X0.237500X-0.300000X0.237500X0.300000X0*%
%ADD35RoundRect,0.150000X-0.587500X-0.150000X0.587500X-0.150000X0.587500X0.150000X-0.587500X0.150000X0*%
%ADD36R,2.000000X2.400000*%
%ADD37R,0.900000X0.400000*%
%ADD38RoundRect,0.237500X0.237500X-0.250000X0.237500X0.250000X-0.237500X0.250000X-0.237500X-0.250000X0*%
%ADD39RoundRect,0.150000X-0.150000X0.587500X-0.150000X-0.587500X0.150000X-0.587500X0.150000X0.587500X0*%
%ADD40RoundRect,0.250000X0.650000X-0.412500X0.650000X0.412500X-0.650000X0.412500X-0.650000X-0.412500X0*%
%ADD41RoundRect,0.237500X0.250000X0.237500X-0.250000X0.237500X-0.250000X-0.237500X0.250000X-0.237500X0*%
%ADD42RoundRect,0.100000X-0.712500X-0.100000X0.712500X-0.100000X0.712500X0.100000X-0.712500X0.100000X0*%
%ADD43RoundRect,0.250000X0.275000X0.350000X-0.275000X0.350000X-0.275000X-0.350000X0.275000X-0.350000X0*%
%ADD44RoundRect,0.250000X-0.412500X-0.650000X0.412500X-0.650000X0.412500X0.650000X-0.412500X0.650000X0*%
%ADD45RoundRect,0.250000X-1.450000X0.400000X-1.450000X-0.400000X1.450000X-0.400000X1.450000X0.400000X0*%
%ADD46RoundRect,0.112500X0.112500X0.237500X-0.112500X0.237500X-0.112500X-0.237500X0.112500X-0.237500X0*%
G04 APERTURE END LIST*
D10*
G04 #@! TO.C,H101*
X196500000Y-81500000D03*
G04 #@! TD*
D11*
G04 #@! TO.C,K415*
X119634000Y-110794800D03*
D12*
X121154000Y-110794800D03*
X122674000Y-110794800D03*
X124194000Y-110794800D03*
G04 #@! TD*
D13*
G04 #@! TO.C,J401*
X106680000Y-111887000D03*
D14*
X104140000Y-111887000D03*
X106680000Y-109347000D03*
X104140000Y-109347000D03*
X106680000Y-106807000D03*
X104140000Y-106807000D03*
X106680000Y-104267000D03*
X104140000Y-104267000D03*
X106680000Y-101727000D03*
X104140000Y-101727000D03*
X106680000Y-99187000D03*
X104140000Y-99187000D03*
X106680000Y-96647000D03*
X104140000Y-96647000D03*
X106680000Y-94107000D03*
X104140000Y-94107000D03*
X106680000Y-91567000D03*
X104140000Y-91567000D03*
X106680000Y-89027000D03*
X104140000Y-89027000D03*
D15*
X104880000Y-117792000D03*
X104880000Y-83122000D03*
G04 #@! TD*
D11*
G04 #@! TO.C,K404*
X111256000Y-102565200D03*
D12*
X112776000Y-102565200D03*
X114296000Y-102565200D03*
X115816000Y-102565200D03*
G04 #@! TD*
D11*
G04 #@! TO.C,K402*
X111256000Y-110794800D03*
D12*
X112776000Y-110794800D03*
X114296000Y-110794800D03*
X115816000Y-110794800D03*
G04 #@! TD*
D16*
G04 #@! TO.C,U502*
X179021000Y-110967000D03*
D17*
X176481000Y-110967000D03*
X168861000Y-110967000D03*
X163781000Y-110967000D03*
G04 #@! TD*
D18*
G04 #@! TO.C,U504*
X157599000Y-116955000D03*
X157599000Y-115455000D03*
X157099000Y-116205000D03*
X156599000Y-116955000D03*
X156599000Y-115455000D03*
G04 #@! TD*
D19*
G04 #@! TO.C,H103*
X113500000Y-81500000D03*
G04 #@! TD*
D20*
G04 #@! TO.C,J501*
X194818000Y-111887000D03*
D21*
X194818000Y-106887000D03*
G04 #@! TD*
D11*
G04 #@! TO.C,K412*
X119634000Y-98450400D03*
D12*
X121154000Y-98450400D03*
X122674000Y-98450400D03*
X124194000Y-98450400D03*
G04 #@! TD*
D11*
G04 #@! TO.C,K407*
X111256000Y-90229800D03*
D12*
X112776000Y-90229800D03*
X114296000Y-90229800D03*
X115816000Y-90229800D03*
G04 #@! TD*
D16*
G04 #@! TO.C,U501*
X178945200Y-118951000D03*
D17*
X176405200Y-118951000D03*
X171325200Y-118951000D03*
X168785200Y-118951000D03*
X166245200Y-118951000D03*
G04 #@! TD*
D15*
G04 #@! TO.C,HS101*
X158067000Y-87025000D03*
X131747000Y-99665000D03*
G04 #@! TD*
D22*
G04 #@! TO.C,J301*
X188580000Y-88265000D03*
X188580000Y-99695000D03*
D23*
X179690000Y-89535000D03*
D24*
X182230000Y-90805000D03*
X179690000Y-92075000D03*
X182230000Y-93345000D03*
X179690000Y-94615000D03*
X182230000Y-95885000D03*
X179690000Y-97155000D03*
X182230000Y-98425000D03*
D25*
X174860000Y-88515000D03*
X174860000Y-91055000D03*
X174860000Y-96905000D03*
X174860000Y-99445000D03*
D19*
X185530000Y-86080000D03*
X185530000Y-101880000D03*
G04 #@! TD*
D11*
G04 #@! TO.C,K403*
X111256000Y-106680000D03*
D12*
X112776000Y-106680000D03*
X114296000Y-106680000D03*
X115816000Y-106680000D03*
G04 #@! TD*
D11*
G04 #@! TO.C,K416*
X119637600Y-114909600D03*
D12*
X121157600Y-114909600D03*
X122677600Y-114909600D03*
X124197600Y-114909600D03*
G04 #@! TD*
D11*
G04 #@! TO.C,K405*
X111256000Y-98450400D03*
D12*
X112776000Y-98450400D03*
X114296000Y-98450400D03*
X115816000Y-98450400D03*
G04 #@! TD*
D11*
G04 #@! TO.C,K410*
X119634000Y-90220800D03*
D12*
X121154000Y-90220800D03*
X122674000Y-90220800D03*
X124194000Y-90220800D03*
G04 #@! TD*
D11*
G04 #@! TO.C,K409*
X119634000Y-86106000D03*
D12*
X121154000Y-86106000D03*
X122674000Y-86106000D03*
X124194000Y-86106000D03*
G04 #@! TD*
D11*
G04 #@! TO.C,K411*
X119637600Y-94335600D03*
D12*
X121157600Y-94335600D03*
X122677600Y-94335600D03*
X124197600Y-94335600D03*
G04 #@! TD*
D11*
G04 #@! TO.C,K418*
X119662500Y-119041900D03*
D12*
X121182500Y-119041900D03*
X122702500Y-119041900D03*
X124222500Y-119041900D03*
G04 #@! TD*
D11*
G04 #@! TO.C,K408*
X111256000Y-86106000D03*
D12*
X112776000Y-86106000D03*
X114296000Y-86106000D03*
X115816000Y-86106000D03*
G04 #@! TD*
D11*
G04 #@! TO.C,K413*
X119634000Y-102565200D03*
D12*
X121154000Y-102565200D03*
X122674000Y-102565200D03*
X124194000Y-102565200D03*
G04 #@! TD*
D11*
G04 #@! TO.C,K414*
X119637600Y-106680000D03*
D12*
X121157600Y-106680000D03*
X122677600Y-106680000D03*
X124197600Y-106680000D03*
G04 #@! TD*
D11*
G04 #@! TO.C,K406*
X111256000Y-94335600D03*
D12*
X112776000Y-94335600D03*
X114296000Y-94335600D03*
X115816000Y-94335600D03*
G04 #@! TD*
D11*
G04 #@! TO.C,J201*
X159248000Y-100189500D03*
D26*
X157978000Y-100189500D03*
X159248000Y-98919500D03*
X157978000Y-98919500D03*
X159248000Y-97649500D03*
X157978000Y-97649500D03*
X159248000Y-96379500D03*
X157978000Y-96379500D03*
X159248000Y-95109500D03*
X157978000Y-95109500D03*
G04 #@! TD*
D10*
G04 #@! TO.C,H102*
X196500000Y-119500000D03*
G04 #@! TD*
D11*
G04 #@! TO.C,K401*
X111256000Y-114909600D03*
D12*
X112776000Y-114909600D03*
X114296000Y-114909600D03*
X115816000Y-114909600D03*
G04 #@! TD*
D19*
G04 #@! TO.C,H104*
X113500000Y-119500000D03*
G04 #@! TD*
D11*
G04 #@! TO.C,K417*
X119611700Y-81957900D03*
D12*
X121131700Y-81957900D03*
X122651700Y-81957900D03*
X124171700Y-81957900D03*
G04 #@! TD*
D27*
G04 #@! TO.C,C209*
X148362500Y-83312000D03*
X150087500Y-83312000D03*
G04 #@! TD*
D28*
G04 #@! TO.C,C207*
X131318000Y-85571500D03*
X131318000Y-83846500D03*
G04 #@! TD*
D29*
G04 #@! TO.C,Q407*
X116824000Y-91552000D03*
X116824000Y-92852000D03*
X114824000Y-92202000D03*
G04 #@! TD*
D30*
G04 #@! TO.C,C503*
X171069000Y-113626500D03*
X171069000Y-116751500D03*
G04 #@! TD*
D27*
G04 #@! TO.C,C208*
X151156500Y-101092000D03*
X152881500Y-101092000D03*
G04 #@! TD*
D28*
G04 #@! TO.C,C220*
X133096000Y-89508500D03*
X133096000Y-87783500D03*
G04 #@! TD*
D31*
G04 #@! TO.C,D416*
X119696000Y-116332000D03*
X121096000Y-116332000D03*
G04 #@! TD*
D27*
G04 #@! TO.C,C215*
X141250500Y-84201000D03*
X142975500Y-84201000D03*
G04 #@! TD*
D29*
G04 #@! TO.C,Q404*
X116824000Y-103871000D03*
X116824000Y-105171000D03*
X114824000Y-104521000D03*
G04 #@! TD*
G04 #@! TO.C,Q411*
X125206000Y-95743000D03*
X125206000Y-97043000D03*
X123206000Y-96393000D03*
G04 #@! TD*
G04 #@! TO.C,Q410*
X125206000Y-91552000D03*
X125206000Y-92852000D03*
X123206000Y-92202000D03*
G04 #@! TD*
D32*
G04 #@! TO.C,R304*
X171958000Y-89638500D03*
X171958000Y-91463500D03*
G04 #@! TD*
D33*
G04 #@! TO.C,C401*
X139419500Y-113538000D03*
X137694500Y-113538000D03*
G04 #@! TD*
D31*
G04 #@! TO.C,D417*
X119696000Y-83439000D03*
X121096000Y-83439000D03*
G04 #@! TD*
D33*
G04 #@! TO.C,C402*
X139419500Y-115824000D03*
X137694500Y-115824000D03*
G04 #@! TD*
D31*
G04 #@! TO.C,D412*
X119696000Y-99872800D03*
X121096000Y-99872800D03*
G04 #@! TD*
G04 #@! TO.C,D403*
X111314000Y-108102400D03*
X112714000Y-108102400D03*
G04 #@! TD*
D29*
G04 #@! TO.C,Q403*
X116824000Y-108062000D03*
X116824000Y-109362000D03*
X114824000Y-108712000D03*
G04 #@! TD*
G04 #@! TO.C,Q406*
X116824000Y-95743000D03*
X116824000Y-97043000D03*
X114824000Y-96393000D03*
G04 #@! TD*
D28*
G04 #@! TO.C,C205*
X134620000Y-85571500D03*
X134620000Y-83846500D03*
G04 #@! TD*
D34*
G04 #@! TO.C,C201*
X137033000Y-99213500D03*
X137033000Y-100938500D03*
G04 #@! TD*
D31*
G04 #@! TO.C,D418*
X119696000Y-120523000D03*
X121096000Y-120523000D03*
G04 #@! TD*
D35*
G04 #@! TO.C,RN401*
X132793500Y-112075000D03*
X132793500Y-110175000D03*
X134668500Y-111125000D03*
G04 #@! TD*
D36*
G04 #@! TO.C,Y201*
X147161000Y-89916000D03*
X143161000Y-89916000D03*
G04 #@! TD*
D28*
G04 #@! TO.C,C202*
X133096000Y-85571500D03*
X133096000Y-83846500D03*
G04 #@! TD*
D27*
G04 #@! TO.C,C511*
X150648500Y-112776000D03*
X152373500Y-112776000D03*
G04 #@! TD*
D32*
G04 #@! TO.C,R305*
X176784000Y-97385500D03*
X176784000Y-99210500D03*
G04 #@! TD*
D37*
G04 #@! TO.C,RN202*
X126912000Y-116135000D03*
X126912000Y-115335000D03*
X126912000Y-114535000D03*
X126912000Y-113735000D03*
X128612000Y-113735000D03*
X128612000Y-114535000D03*
X128612000Y-115335000D03*
X128612000Y-116135000D03*
G04 #@! TD*
D34*
G04 #@! TO.C,C206*
X152527000Y-87379000D03*
X152527000Y-89104000D03*
G04 #@! TD*
D31*
G04 #@! TO.C,D409*
X119696000Y-87528400D03*
X121096000Y-87528400D03*
G04 #@! TD*
G04 #@! TO.C,D408*
X111314000Y-87528400D03*
X112714000Y-87528400D03*
G04 #@! TD*
D29*
G04 #@! TO.C,Q402*
X116824000Y-112126000D03*
X116824000Y-113426000D03*
X114824000Y-112776000D03*
G04 #@! TD*
D37*
G04 #@! TO.C,RN203*
X126912000Y-106737000D03*
X126912000Y-105937000D03*
X126912000Y-105137000D03*
X126912000Y-104337000D03*
X128612000Y-104337000D03*
X128612000Y-105137000D03*
X128612000Y-105937000D03*
X128612000Y-106737000D03*
G04 #@! TD*
D31*
G04 #@! TO.C,D405*
X111314000Y-99872800D03*
X112714000Y-99872800D03*
G04 #@! TD*
D29*
G04 #@! TO.C,Q409*
X125206000Y-87615000D03*
X125206000Y-88915000D03*
X123206000Y-88265000D03*
G04 #@! TD*
D28*
G04 #@! TO.C,C404*
X138557000Y-111733500D03*
X138557000Y-110008500D03*
G04 #@! TD*
D34*
G04 #@! TO.C,C309*
X176784000Y-93879500D03*
X176784000Y-95604500D03*
G04 #@! TD*
D38*
G04 #@! TO.C,R407*
X127381000Y-85621500D03*
X127381000Y-83796500D03*
G04 #@! TD*
D31*
G04 #@! TO.C,D414*
X119696000Y-108102400D03*
X121096000Y-108102400D03*
G04 #@! TD*
D32*
G04 #@! TO.C,R303*
X172974000Y-99544500D03*
X172974000Y-101369500D03*
G04 #@! TD*
D39*
G04 #@! TO.C,D501*
X185994000Y-117886000D03*
X187894000Y-117886000D03*
X186944000Y-119761000D03*
G04 #@! TD*
D29*
G04 #@! TO.C,Q405*
X116824000Y-99807000D03*
X116824000Y-101107000D03*
X114824000Y-100457000D03*
G04 #@! TD*
D40*
G04 #@! TO.C,C502*
X162306000Y-116751500D03*
X162306000Y-113626500D03*
G04 #@! TD*
D33*
G04 #@! TO.C,C217*
X149452500Y-101092000D03*
X147727500Y-101092000D03*
G04 #@! TD*
D41*
G04 #@! TO.C,R501*
X184173500Y-117983000D03*
X182348500Y-117983000D03*
G04 #@! TD*
D38*
G04 #@! TO.C,R306*
X176657000Y-88542500D03*
X176657000Y-86717500D03*
G04 #@! TD*
D42*
G04 #@! TO.C,U203*
X142159500Y-96225000D03*
X142159500Y-95575000D03*
X142159500Y-94925000D03*
X142159500Y-94275000D03*
X146384500Y-94275000D03*
X146384500Y-94925000D03*
X146384500Y-95575000D03*
X146384500Y-96225000D03*
G04 #@! TD*
D37*
G04 #@! TO.C,RN303*
X185332000Y-93910000D03*
X185332000Y-93110000D03*
X185332000Y-92310000D03*
X185332000Y-91510000D03*
X187032000Y-91510000D03*
X187032000Y-92310000D03*
X187032000Y-93110000D03*
X187032000Y-93910000D03*
G04 #@! TD*
D34*
G04 #@! TO.C,C310*
X167894000Y-100102500D03*
X167894000Y-101827500D03*
G04 #@! TD*
D43*
G04 #@! TO.C,FB201*
X139453000Y-85725000D03*
X137153000Y-85725000D03*
G04 #@! TD*
D27*
G04 #@! TO.C,C213*
X146203500Y-92583000D03*
X147928500Y-92583000D03*
G04 #@! TD*
D40*
G04 #@! TO.C,C506*
X164719000Y-116751500D03*
X164719000Y-113626500D03*
G04 #@! TD*
D31*
G04 #@! TO.C,D410*
X119696000Y-91643200D03*
X121096000Y-91643200D03*
G04 #@! TD*
D27*
G04 #@! TO.C,C218*
X141250500Y-85725000D03*
X142975500Y-85725000D03*
G04 #@! TD*
D40*
G04 #@! TO.C,C501*
X185293000Y-114338500D03*
X185293000Y-111213500D03*
G04 #@! TD*
D28*
G04 #@! TO.C,C302*
X167132000Y-92683500D03*
X167132000Y-90958500D03*
G04 #@! TD*
G04 #@! TO.C,C311*
X182245000Y-88365500D03*
X182245000Y-86640500D03*
G04 #@! TD*
D31*
G04 #@! TO.C,D411*
X119696000Y-95758000D03*
X121096000Y-95758000D03*
G04 #@! TD*
D37*
G04 #@! TO.C,RN204*
X126912000Y-95815000D03*
X126912000Y-95015000D03*
X126912000Y-94215000D03*
X126912000Y-93415000D03*
X128612000Y-93415000D03*
X128612000Y-94215000D03*
X128612000Y-95015000D03*
X128612000Y-95815000D03*
G04 #@! TD*
D28*
G04 #@! TO.C,C204*
X129794000Y-85571500D03*
X129794000Y-83846500D03*
G04 #@! TD*
D33*
G04 #@! TO.C,C214*
X144118500Y-92583000D03*
X142393500Y-92583000D03*
G04 #@! TD*
D34*
G04 #@! TO.C,C508*
X159639000Y-112929500D03*
X159639000Y-114654500D03*
G04 #@! TD*
D33*
G04 #@! TO.C,C210*
X146404500Y-85725000D03*
X144679500Y-85725000D03*
G04 #@! TD*
D37*
G04 #@! TO.C,RN205*
X126912000Y-91497000D03*
X126912000Y-90697000D03*
X126912000Y-89897000D03*
X126912000Y-89097000D03*
X128612000Y-89097000D03*
X128612000Y-89897000D03*
X128612000Y-90697000D03*
X128612000Y-91497000D03*
G04 #@! TD*
D41*
G04 #@! TO.C,R408*
X128801500Y-120523000D03*
X126976500Y-120523000D03*
G04 #@! TD*
D31*
G04 #@! TO.C,D413*
X119696000Y-103987600D03*
X121096000Y-103987600D03*
G04 #@! TD*
D38*
G04 #@! TO.C,R203*
X148336000Y-96162500D03*
X148336000Y-94337500D03*
G04 #@! TD*
D31*
G04 #@! TO.C,D415*
X119696000Y-112217200D03*
X121096000Y-112217200D03*
G04 #@! TD*
D44*
G04 #@! TO.C,C504*
X164680500Y-108712000D03*
X167805500Y-108712000D03*
G04 #@! TD*
D30*
G04 #@! TO.C,C509*
X152019000Y-106260500D03*
X152019000Y-109385500D03*
G04 #@! TD*
D28*
G04 #@! TO.C,C510*
X152527000Y-119607500D03*
X152527000Y-117882500D03*
G04 #@! TD*
D29*
G04 #@! TO.C,Q412*
X125206000Y-99807000D03*
X125206000Y-101107000D03*
X123206000Y-100457000D03*
G04 #@! TD*
D34*
G04 #@! TO.C,C305*
X167132000Y-94260500D03*
X167132000Y-95985500D03*
G04 #@! TD*
D31*
G04 #@! TO.C,D406*
X111314000Y-95758000D03*
X112714000Y-95758000D03*
G04 #@! TD*
D28*
G04 #@! TO.C,C221*
X134620000Y-89508500D03*
X134620000Y-87783500D03*
G04 #@! TD*
D29*
G04 #@! TO.C,Q413*
X125206000Y-103871000D03*
X125206000Y-105171000D03*
X123206000Y-104521000D03*
G04 #@! TD*
D31*
G04 #@! TO.C,D402*
X111314000Y-112166400D03*
X112714000Y-112166400D03*
G04 #@! TD*
G04 #@! TO.C,D407*
X111314000Y-91643200D03*
X112714000Y-91643200D03*
G04 #@! TD*
D30*
G04 #@! TO.C,C507*
X168656000Y-113626500D03*
X168656000Y-116751500D03*
G04 #@! TD*
D29*
G04 #@! TO.C,Q415*
X125206000Y-112126000D03*
X125206000Y-113426000D03*
X123206000Y-112776000D03*
G04 #@! TD*
D37*
G04 #@! TO.C,RN302*
X164553000Y-92526000D03*
X164553000Y-93326000D03*
X164553000Y-94126000D03*
X164553000Y-94926000D03*
X162853000Y-94926000D03*
X162853000Y-94126000D03*
X162853000Y-93326000D03*
X162853000Y-92526000D03*
G04 #@! TD*
D29*
G04 #@! TO.C,Q414*
X125206000Y-108062000D03*
X125206000Y-109362000D03*
X123206000Y-108712000D03*
G04 #@! TD*
D45*
G04 #@! TO.C,F501*
X190627000Y-112202000D03*
X190627000Y-116652000D03*
G04 #@! TD*
D29*
G04 #@! TO.C,Q408*
X116824000Y-87488000D03*
X116824000Y-88788000D03*
X114824000Y-88138000D03*
G04 #@! TD*
D31*
G04 #@! TO.C,D401*
X111314000Y-113588800D03*
X112714000Y-113588800D03*
G04 #@! TD*
D29*
G04 #@! TO.C,Q416*
X125206000Y-116317000D03*
X125206000Y-117617000D03*
X123206000Y-116967000D03*
G04 #@! TD*
D27*
G04 #@! TO.C,C211*
X148362500Y-85725000D03*
X150087500Y-85725000D03*
G04 #@! TD*
D38*
G04 #@! TO.C,R204*
X149860000Y-96162500D03*
X149860000Y-94337500D03*
G04 #@! TD*
D29*
G04 #@! TO.C,Q417*
X125206000Y-83424000D03*
X125206000Y-84724000D03*
X123206000Y-84074000D03*
G04 #@! TD*
D34*
G04 #@! TO.C,C216*
X138684000Y-99213500D03*
X138684000Y-100938500D03*
G04 #@! TD*
D41*
G04 #@! TO.C,R502*
X184173500Y-120396000D03*
X182348500Y-120396000D03*
G04 #@! TD*
D33*
G04 #@! TO.C,C303*
X164565500Y-90043000D03*
X162840500Y-90043000D03*
G04 #@! TD*
D31*
G04 #@! TO.C,D404*
X111314000Y-103987600D03*
X112714000Y-103987600D03*
G04 #@! TD*
D28*
G04 #@! TO.C,C304*
X170942000Y-86968500D03*
X170942000Y-85243500D03*
G04 #@! TD*
D33*
G04 #@! TO.C,C219*
X146912500Y-97917000D03*
X145187500Y-97917000D03*
G04 #@! TD*
D34*
G04 #@! TO.C,C203*
X137160000Y-87402500D03*
X137160000Y-89127500D03*
G04 #@! TD*
D28*
G04 #@! TO.C,C308*
X170076000Y-91413500D03*
X170076000Y-89688500D03*
G04 #@! TD*
D29*
G04 #@! TO.C,Q418*
X125206000Y-120508000D03*
X125206000Y-121808000D03*
X123206000Y-121158000D03*
G04 #@! TD*
D32*
G04 #@! TO.C,R201*
X163322000Y-85447500D03*
X163322000Y-87272500D03*
G04 #@! TD*
D35*
G04 #@! TO.C,RN402*
X132793500Y-115758000D03*
X132793500Y-113858000D03*
X134668500Y-114808000D03*
G04 #@! TD*
D28*
G04 #@! TO.C,C301*
X166878000Y-86968500D03*
X166878000Y-85243500D03*
G04 #@! TD*
D44*
G04 #@! TO.C,C505*
X164680500Y-106299000D03*
X167805500Y-106299000D03*
G04 #@! TD*
D46*
G04 #@! TO.C,Q401*
X110251000Y-118602000D03*
X108951000Y-118602000D03*
X109601000Y-116602000D03*
G04 #@! TD*
D34*
G04 #@! TO.C,C312*
X179705000Y-99594500D03*
X179705000Y-101319500D03*
G04 #@! TD*
M02*
