M48
; DRILL file {KiCad 8.0.1} date 2024-04-14T22:29:57+0200
; FORMAT={-:-/ absolute / inch / decimal}
; #@! TF.CreationDate,2024-04-14T22:29:57+02:00
; #@! TF.GenerationSoftware,Kicad,Pcbnew,8.0.1
; #@! TF.FileFunction,Plated,1,4,PTH
FMAT,2
INCH
; #@! TA.AperFunction,Plated,PTH,ViaDrill
T1C0.0079
; #@! TA.AperFunction,Plated,PTH,ComponentDrill
T2C0.0079
; #@! TA.AperFunction,Plated,PTH,ComponentDrill
T3C0.0118
; #@! TA.AperFunction,Plated,PTH,ComponentDrill
T4C0.0197
; #@! TA.AperFunction,Plated,PTH,ComponentDrill
T5C0.0256
; #@! TA.AperFunction,Plated,PTH,ComponentDrill
T6C0.0323
; #@! TA.AperFunction,Plated,PTH,ComponentDrill
T7C0.0354
; #@! TA.AperFunction,Plated,PTH,ComponentDrill
T8C0.0394
; #@! TA.AperFunction,Plated,PTH,ComponentDrill
T9C0.0402
; #@! TA.AperFunction,Plated,PTH,ComponentDrill
T10C0.0512
; #@! TA.AperFunction,Plated,PTH,ComponentDrill
T11C0.0630
; #@! TA.AperFunction,Plated,PTH,ComponentDrill
T12C0.1059
; #@! TA.AperFunction,Plated,PTH,ComponentDrill
T13C0.1252
; #@! TA.AperFunction,Plated,PTH,ComponentDrill
T14C0.1260
%
G90
G05
T1
X4.95Y-4.14
X4.955Y-4.4656
X4.96Y-3.48
X4.965Y-4.615
X4.975Y-4.795
X4.9994Y-3.9806
X4.9994Y-4.3056
X5.0Y-3.415
X5.005Y-3.64
X5.1155Y-3.6395
X5.146Y-3.369
X5.1676Y-3.5
X5.185Y-4.43
X5.19Y-4.54
X5.205Y-3.4966
X5.2424Y-3.4
X5.3Y-3.42
X5.335Y-4.605
X5.34Y-4.375
X5.345Y-3.365
X5.35Y-3.89
X5.37Y-4.47
X5.4028Y-3.9272
X5.429Y-3.974
X5.445Y-3.8325
X5.4494Y-3.6356
X5.45Y-3.42
X5.45Y-3.595
X5.45Y-3.675
X5.45Y-3.7144
X5.45Y-3.87
X5.455Y-3.455
X5.465Y-3.8128
X5.4697Y-3.6553
X5.4697Y-3.6947
X5.47Y-3.6159
X5.49Y-3.4781
X5.49Y-3.5175
X5.5Y-3.86
X5.505Y-4.41
X5.51Y-3.835
X5.5105Y-4.53
X5.52Y-3.88
X5.525Y-3.5199
X5.525Y-4.465
X5.5278Y-3.93
X5.53Y-4.33
X5.54Y-3.425
X5.54Y-4.38
X5.5475Y-3.91
X5.5672Y-3.93
X5.575Y-3.46
X5.5869Y-3.9119
X5.615Y-4.55
X5.62Y-3.905
X5.635Y-4.47
X5.64Y-3.925
X5.6478Y-3.7628
X5.65Y-4.5084
X5.6503Y-4.5582
X5.655Y-3.735
X5.66Y-3.905
X5.68Y-3.265
X5.68Y-3.925
X5.685Y-3.315
X5.69Y-3.445
X5.705Y-3.935
X5.735Y-3.905
X5.7398Y-3.4463
X5.7444Y-3.415
X5.765Y-4.465
X5.784Y-3.904
X5.785Y-3.435
X5.81Y-3.465
X5.8428Y-3.4172
X5.86Y-3.69
X5.8665Y-3.5115
X5.895Y-3.49
X5.9Y-3.44
X5.9Y-3.5766
X5.9Y-3.69
X5.9019Y-3.9331
X5.905Y-3.5372
X5.9215Y-4.025
X5.925Y-3.5569
X5.93Y-4.46
X5.935Y-3.495
X5.939Y-4.095
X5.939Y-4.125
X5.94Y-3.745
X5.94Y-3.9273
X5.96Y-3.43
X5.9678Y-3.9772
X5.974Y-4.095
X5.975Y-4.125
X6.005Y-4.62
X6.009Y-4.095
X6.009Y-4.125
X6.075Y-4.41
X6.075Y-4.44
X6.075Y-4.47
X6.075Y-4.65
X6.075Y-4.68
X6.075Y-4.71
X6.08Y-3.435
X6.29Y-4.575
X6.33Y-4.46
X6.34Y-3.535
X6.37Y-3.715
X6.3725Y-3.6875
X6.375Y-3.63
X6.375Y-3.66
X6.375Y-3.865
X6.415Y-3.485
X6.43Y-3.325
X6.4972Y-3.7372
X6.5Y-3.6428
X6.515Y-3.545
X6.5177Y-3.67
X6.5177Y-3.71
X6.5323Y-3.775
X6.5578Y-3.7434
X6.56Y-3.682
X6.56Y-4.46
X6.57Y-3.4525
X6.61Y-3.905
X6.62Y-3.805
X6.6594Y-3.7944
X6.66Y-3.905
X6.6766Y-3.8122
X6.685Y-4.07
X6.7Y-3.82
X6.705Y-3.845
X6.715Y-3.905
X6.715Y-4.07
X6.725Y-3.58
X6.7287Y-3.4463
X6.745Y-4.07
X6.7463Y-3.78
X6.77Y-3.58
X6.825Y-3.6
X6.8256Y-3.6967
X6.8256Y-3.7263
X7.255Y-4.55
X7.275Y-4.76
X7.295Y-4.55
X7.335Y-4.55
X7.3388Y-4.6412
X7.3974Y-4.7426
X7.465Y-4.55
X7.505Y-4.55
X7.5424Y-4.7426
X7.545Y-4.55
T2
X6.6306Y-3.6524
X6.6306Y-3.6918
X6.6306Y-3.7312
X6.67Y-3.6524
X6.67Y-3.6918
X6.67Y-3.7312
X6.7094Y-3.6524
X6.7094Y-3.6918
X6.7094Y-3.7312
T3
X6.1653Y-4.5455
X6.1653Y-4.6045
X6.185Y-4.575
X6.2047Y-4.5455
X6.2047Y-4.6045
T4
X4.3802Y-3.39
X4.3802Y-3.5524
X4.3802Y-3.714
X4.3802Y-3.876
X4.3802Y-4.038
X4.3802Y-4.2
X4.3802Y-4.362
X4.3802Y-4.524
X4.44Y-3.39
X4.44Y-3.5524
X4.44Y-3.714
X4.44Y-3.876
X4.44Y-4.038
X4.44Y-4.2
X4.44Y-4.362
X4.44Y-4.524
X4.4998Y-3.39
X4.4998Y-3.5524
X4.4998Y-3.714
X4.4998Y-3.876
X4.4998Y-4.038
X4.4998Y-4.2
X4.4998Y-4.362
X4.4998Y-4.524
X4.5597Y-3.39
X4.5597Y-3.5524
X4.5597Y-3.714
X4.5597Y-3.876
X4.5597Y-4.038
X4.5597Y-4.2
X4.5597Y-4.362
X4.5597Y-4.524
X4.7091Y-3.2267
X4.71Y-3.39
X4.71Y-3.552
X4.71Y-3.876
X4.71Y-4.038
X4.71Y-4.362
X4.7101Y-3.714
X4.7101Y-4.2
X4.7101Y-4.524
X4.7111Y-4.6867
X4.769Y-3.2267
X4.7698Y-3.39
X4.7698Y-3.552
X4.7698Y-3.876
X4.7698Y-4.038
X4.7698Y-4.362
X4.77Y-3.714
X4.77Y-4.2
X4.77Y-4.524
X4.771Y-4.6867
X4.8288Y-3.2267
X4.8297Y-3.39
X4.8297Y-3.552
X4.8297Y-3.876
X4.8297Y-4.038
X4.8297Y-4.362
X4.8298Y-3.714
X4.8298Y-4.2
X4.8298Y-4.524
X4.8308Y-4.6867
X4.8886Y-3.2267
X4.8895Y-3.39
X4.8895Y-3.552
X4.8895Y-3.876
X4.8895Y-4.038
X4.8895Y-4.362
X4.8897Y-3.714
X4.8897Y-4.2
X4.8897Y-4.524
X4.8906Y-4.6867
T5
X6.2196Y-3.7445
X6.2196Y-3.7945
X6.2196Y-3.8445
X6.2196Y-3.8945
X6.2196Y-3.9445
X6.2696Y-3.7445
X6.2696Y-3.7945
X6.2696Y-3.8445
X6.2696Y-3.8945
X6.2696Y-3.9445
T6
X6.4481Y-4.3688
X6.5451Y-4.6831
X6.6451Y-4.6831
X6.6481Y-4.3688
X6.7451Y-4.6831
X6.9451Y-4.6831
X6.9481Y-4.3688
X7.0451Y-4.6831
X7.0481Y-4.3688
T7
X7.0744Y-3.525
X7.0744Y-3.625
X7.0744Y-3.725
X7.0744Y-3.825
X7.1744Y-3.575
X7.1744Y-3.675
X7.1744Y-3.775
X7.1744Y-3.875
T8
X4.1Y-3.505
X4.1Y-3.605
X4.1Y-3.705
X4.1Y-3.805
X4.1Y-3.905
X4.1Y-4.005
X4.1Y-4.105
X4.1Y-4.205
X4.1Y-4.305
X4.1Y-4.405
X4.2Y-3.505
X4.2Y-3.605
X4.2Y-3.705
X4.2Y-3.805
X4.2Y-3.905
X4.2Y-4.005
X4.2Y-4.105
X4.2Y-4.205
X4.2Y-4.305
X4.2Y-4.405
T9
X6.8843Y-3.4848
X6.8843Y-3.5848
X6.8843Y-3.8152
X6.8843Y-3.9152
T10
X7.67Y-4.2081
X7.67Y-4.405
T11
X7.3043Y-3.389
X7.3043Y-4.011
T12
X4.1291Y-3.2725
X4.1291Y-4.6375
T13
X5.1869Y-3.9238
X6.2231Y-3.4262
T14
X7.7362Y-3.2087
X7.7362Y-4.7047
M30
