G04 #@! TF.GenerationSoftware,KiCad,Pcbnew,8.0.1*
G04 #@! TF.CreationDate,2024-04-14T22:29:54+02:00*
G04 #@! TF.ProjectId,ETH16CDAQ1,45544831-3643-4444-9151-312e6b696361,rev?*
G04 #@! TF.SameCoordinates,Original*
G04 #@! TF.FileFunction,Copper,L3,Inr*
G04 #@! TF.FilePolarity,Positive*
%FSLAX46Y46*%
G04 Gerber Fmt 4.6, Leading zero omitted, Abs format (unit mm)*
G04 Created by KiCad (PCBNEW 8.0.1) date 2024-04-14 22:29:54*
%MOMM*%
%LPD*%
G01*
G04 APERTURE LIST*
G04 Aperture macros list*
%AMRoundRect*
0 Rectangle with rounded corners*
0 $1 Rounding radius*
0 $2 $3 $4 $5 $6 $7 $8 $9 X,Y pos of 4 corners*
0 Add a 4 corners polygon primitive as box body*
4,1,4,$2,$3,$4,$5,$6,$7,$8,$9,$2,$3,0*
0 Add four circle primitives for the rounded corners*
1,1,$1+$1,$2,$3*
1,1,$1+$1,$4,$5*
1,1,$1+$1,$6,$7*
1,1,$1+$1,$8,$9*
0 Add four rect primitives between the rounded corners*
20,1,$1+$1,$2,$3,$4,$5,0*
20,1,$1+$1,$4,$5,$6,$7,0*
20,1,$1+$1,$6,$7,$8,$9,0*
20,1,$1+$1,$8,$9,$2,$3,0*%
G04 Aperture macros list end*
G04 #@! TA.AperFunction,ComponentPad*
%ADD10C,5.600000*%
G04 #@! TD*
G04 #@! TA.AperFunction,ComponentPad*
%ADD11R,1.000000X1.000000*%
G04 #@! TD*
G04 #@! TA.AperFunction,ComponentPad*
%ADD12C,1.000000*%
G04 #@! TD*
G04 #@! TA.AperFunction,ComponentPad*
%ADD13RoundRect,0.250000X0.600000X0.600000X-0.600000X0.600000X-0.600000X-0.600000X0.600000X-0.600000X0*%
G04 #@! TD*
G04 #@! TA.AperFunction,ComponentPad*
%ADD14C,1.700000*%
G04 #@! TD*
G04 #@! TA.AperFunction,ComponentPad*
%ADD15C,4.000000*%
G04 #@! TD*
G04 #@! TA.AperFunction,ComponentPad*
%ADD16R,1.430000X1.430000*%
G04 #@! TD*
G04 #@! TA.AperFunction,ComponentPad*
%ADD17C,1.430000*%
G04 #@! TD*
G04 #@! TA.AperFunction,ComponentPad*
%ADD18C,0.600000*%
G04 #@! TD*
G04 #@! TA.AperFunction,ComponentPad*
%ADD19R,2.600000X2.600000*%
G04 #@! TD*
G04 #@! TA.AperFunction,ComponentPad*
%ADD20C,2.600000*%
G04 #@! TD*
G04 #@! TA.AperFunction,HeatsinkPad*
%ADD21C,0.500000*%
G04 #@! TD*
G04 #@! TA.AperFunction,ComponentPad*
%ADD22RoundRect,0.248000X0.552000X-0.552000X0.552000X0.552000X-0.552000X0.552000X-0.552000X-0.552000X0*%
G04 #@! TD*
G04 #@! TA.AperFunction,ComponentPad*
%ADD23C,1.600000*%
G04 #@! TD*
G04 #@! TA.AperFunction,ComponentPad*
%ADD24C,1.720000*%
G04 #@! TD*
G04 #@! TA.AperFunction,ComponentPad*
%ADD25C,2.200000*%
G04 #@! TD*
G04 #@! TA.AperFunction,ComponentPad*
%ADD26O,1.000000X1.000000*%
G04 #@! TD*
G04 #@! TA.AperFunction,ViaPad*
%ADD27C,0.500000*%
G04 #@! TD*
G04 #@! TA.AperFunction,Conductor*
%ADD28C,0.889000*%
G04 #@! TD*
G04 #@! TA.AperFunction,Conductor*
%ADD29C,0.508000*%
G04 #@! TD*
G04 #@! TA.AperFunction,Conductor*
%ADD30C,0.635000*%
G04 #@! TD*
G04 APERTURE END LIST*
D10*
G04 #@! TO.N,N/C*
G04 #@! TO.C,H101*
X196500000Y-81500000D03*
G04 #@! TD*
D11*
G04 #@! TO.N,+5V*
G04 #@! TO.C,K415*
X119634000Y-110794800D03*
D12*
G04 #@! TO.N,/Analog/RLY_3*
X121154000Y-110794800D03*
G04 #@! TO.N,/Analog/AIN_3*
X122674000Y-110794800D03*
G04 #@! TO.N,/Analog/D-*
X124194000Y-110794800D03*
G04 #@! TD*
D13*
G04 #@! TO.N,GND2*
G04 #@! TO.C,J401*
X106680000Y-111887000D03*
D14*
X104140000Y-111887000D03*
G04 #@! TO.N,/Analog/AIN_1*
X106680000Y-109347000D03*
G04 #@! TO.N,/Analog/AIN_2*
X104140000Y-109347000D03*
G04 #@! TO.N,/Analog/AIN_3*
X106680000Y-106807000D03*
G04 #@! TO.N,/Analog/AIN_4*
X104140000Y-106807000D03*
G04 #@! TO.N,/Analog/AIN_5*
X106680000Y-104267000D03*
G04 #@! TO.N,/Analog/AIN_6*
X104140000Y-104267000D03*
G04 #@! TO.N,/Analog/AIN_7*
X106680000Y-101727000D03*
G04 #@! TO.N,/Analog/AIN_8*
X104140000Y-101727000D03*
G04 #@! TO.N,/Analog/AIN_9*
X106680000Y-99187000D03*
G04 #@! TO.N,/Analog/AIN_10*
X104140000Y-99187000D03*
G04 #@! TO.N,/Analog/AIN_11*
X106680000Y-96647000D03*
G04 #@! TO.N,/Analog/AIN_12*
X104140000Y-96647000D03*
G04 #@! TO.N,/Analog/AIN_13*
X106680000Y-94107000D03*
G04 #@! TO.N,/Analog/AIN_14*
X104140000Y-94107000D03*
G04 #@! TO.N,/Analog/AIN_15*
X106680000Y-91567000D03*
G04 #@! TO.N,/Analog/AIN_16*
X104140000Y-91567000D03*
G04 #@! TO.N,GND1*
X106680000Y-89027000D03*
X104140000Y-89027000D03*
D15*
G04 #@! TO.N,N/C*
X104880000Y-117792000D03*
X104880000Y-83122000D03*
G04 #@! TD*
D11*
G04 #@! TO.N,+5V*
G04 #@! TO.C,K404*
X111256000Y-102565200D03*
D12*
G04 #@! TO.N,/Analog/RLY_8*
X112776000Y-102565200D03*
G04 #@! TO.N,/Analog/AIN_8*
X114296000Y-102565200D03*
G04 #@! TO.N,/Analog/D+*
X115816000Y-102565200D03*
G04 #@! TD*
D11*
G04 #@! TO.N,+5V*
G04 #@! TO.C,K402*
X111256000Y-110794800D03*
D12*
G04 #@! TO.N,/Analog/RLY_4*
X112776000Y-110794800D03*
G04 #@! TO.N,/Analog/AIN_4*
X114296000Y-110794800D03*
G04 #@! TO.N,/Analog/D+*
X115816000Y-110794800D03*
G04 #@! TD*
D16*
G04 #@! TO.N,Net-(U501-+Vin)*
G04 #@! TO.C,U502*
X179021000Y-110967000D03*
D17*
G04 #@! TO.N,GNDPWR*
X176481000Y-110967000D03*
G04 #@! TO.N,GND*
X168861000Y-110967000D03*
G04 #@! TO.N,+5V*
X163781000Y-110967000D03*
G04 #@! TD*
D18*
G04 #@! TO.N,GND*
G04 #@! TO.C,U504*
X157599000Y-116955000D03*
X157599000Y-115455000D03*
X157099000Y-116205000D03*
X156599000Y-116955000D03*
X156599000Y-115455000D03*
G04 #@! TD*
D19*
G04 #@! TO.N,Net-(J501-Pin_1)*
G04 #@! TO.C,J501*
X194818000Y-111887000D03*
D20*
G04 #@! TO.N,GNDPWR*
X194818000Y-106887000D03*
G04 #@! TD*
D11*
G04 #@! TO.N,+5V*
G04 #@! TO.C,K412*
X119634000Y-98450400D03*
D12*
G04 #@! TO.N,/Analog/RLY_9*
X121154000Y-98450400D03*
G04 #@! TO.N,/Analog/AIN_9*
X122674000Y-98450400D03*
G04 #@! TO.N,/Analog/D-*
X124194000Y-98450400D03*
G04 #@! TD*
D11*
G04 #@! TO.N,+5V*
G04 #@! TO.C,K407*
X111256000Y-90229800D03*
D12*
G04 #@! TO.N,/Analog/RLY_14*
X112776000Y-90229800D03*
G04 #@! TO.N,/Analog/AIN_14*
X114296000Y-90229800D03*
G04 #@! TO.N,/Analog/D+*
X115816000Y-90229800D03*
G04 #@! TD*
D16*
G04 #@! TO.N,Net-(U501-+Vin)*
G04 #@! TO.C,U501*
X178945200Y-118951000D03*
D17*
G04 #@! TO.N,GNDPWR*
X176405200Y-118951000D03*
G04 #@! TO.N,Net-(U501--Vout)*
X171325200Y-118951000D03*
G04 #@! TO.N,GND*
X168785200Y-118951000D03*
G04 #@! TO.N,Net-(U501-+Vout)*
X166245200Y-118951000D03*
G04 #@! TD*
D15*
G04 #@! TO.N,N/C*
G04 #@! TO.C,HS101*
X158067000Y-87025000D03*
X131747000Y-99665000D03*
G04 #@! TD*
D21*
G04 #@! TO.N,GND*
G04 #@! TO.C,U301*
X170418000Y-92772000D03*
X169418000Y-92772000D03*
X168418000Y-92772000D03*
X170418000Y-93772000D03*
X169418000Y-93772000D03*
X168418000Y-93772000D03*
X170418000Y-94772000D03*
X169418000Y-94772000D03*
X168418000Y-94772000D03*
G04 #@! TD*
D22*
G04 #@! TO.N,/Ethernet/ETH_TXP*
G04 #@! TO.C,J301*
X179690000Y-89535000D03*
D23*
G04 #@! TO.N,VCCQ*
X182230000Y-90805000D03*
G04 #@! TO.N,/Ethernet/ETH_TXN*
X179690000Y-92075000D03*
G04 #@! TO.N,/Ethernet/ETH_RXP*
X182230000Y-93345000D03*
G04 #@! TO.N,VCCQ*
X179690000Y-94615000D03*
G04 #@! TO.N,/Ethernet/ETH_RXN*
X182230000Y-95885000D03*
G04 #@! TO.N,unconnected-(J301-NC-Pad7)*
X179690000Y-97155000D03*
G04 #@! TO.N,Earth*
X182230000Y-98425000D03*
D24*
G04 #@! TO.N,Net-(J301-Pad9)*
X174860000Y-88515000D03*
G04 #@! TO.N,/Ethernet/LED1*
X174860000Y-91055000D03*
G04 #@! TO.N,Net-(J301-Pad11)*
X174860000Y-96905000D03*
G04 #@! TO.N,/Ethernet/LED2*
X174860000Y-99445000D03*
D25*
G04 #@! TO.N,Earth*
X185530000Y-86080000D03*
X185530000Y-101880000D03*
G04 #@! TD*
D11*
G04 #@! TO.N,+5V*
G04 #@! TO.C,K403*
X111256000Y-106680000D03*
D12*
G04 #@! TO.N,/Analog/RLY_6*
X112776000Y-106680000D03*
G04 #@! TO.N,/Analog/AIN_6*
X114296000Y-106680000D03*
G04 #@! TO.N,/Analog/D+*
X115816000Y-106680000D03*
G04 #@! TD*
D11*
G04 #@! TO.N,+5V*
G04 #@! TO.C,K416*
X119637600Y-114909600D03*
D12*
G04 #@! TO.N,/Analog/RLY_1*
X121157600Y-114909600D03*
G04 #@! TO.N,/Analog/AIN_1*
X122677600Y-114909600D03*
G04 #@! TO.N,/Analog/D-*
X124197600Y-114909600D03*
G04 #@! TD*
D11*
G04 #@! TO.N,+5V*
G04 #@! TO.C,K405*
X111256000Y-98450400D03*
D12*
G04 #@! TO.N,/Analog/RLY_10*
X112776000Y-98450400D03*
G04 #@! TO.N,/Analog/AIN_10*
X114296000Y-98450400D03*
G04 #@! TO.N,/Analog/D+*
X115816000Y-98450400D03*
G04 #@! TD*
D11*
G04 #@! TO.N,+5V*
G04 #@! TO.C,K410*
X119634000Y-90220800D03*
D12*
G04 #@! TO.N,/Analog/RLY_13*
X121154000Y-90220800D03*
G04 #@! TO.N,/Analog/AIN_13*
X122674000Y-90220800D03*
G04 #@! TO.N,/Analog/D-*
X124194000Y-90220800D03*
G04 #@! TD*
D11*
G04 #@! TO.N,+5V*
G04 #@! TO.C,K409*
X119634000Y-86106000D03*
D12*
G04 #@! TO.N,/Analog/RLY_15*
X121154000Y-86106000D03*
G04 #@! TO.N,/Analog/AIN_15*
X122674000Y-86106000D03*
G04 #@! TO.N,/Analog/D-*
X124194000Y-86106000D03*
G04 #@! TD*
D11*
G04 #@! TO.N,+5V*
G04 #@! TO.C,K411*
X119637600Y-94335600D03*
D12*
G04 #@! TO.N,/Analog/RLY_11*
X121157600Y-94335600D03*
G04 #@! TO.N,/Analog/AIN_11*
X122677600Y-94335600D03*
G04 #@! TO.N,/Analog/D-*
X124197600Y-94335600D03*
G04 #@! TD*
D11*
G04 #@! TO.N,+5V*
G04 #@! TO.C,K418*
X119662500Y-119041900D03*
D12*
G04 #@! TO.N,/Analog/RLY_GND2*
X121182500Y-119041900D03*
G04 #@! TO.N,GND2*
X122702500Y-119041900D03*
G04 #@! TO.N,GND*
X124222500Y-119041900D03*
G04 #@! TD*
D11*
G04 #@! TO.N,+5V*
G04 #@! TO.C,K408*
X111256000Y-86106000D03*
D12*
G04 #@! TO.N,/Analog/RLY_16*
X112776000Y-86106000D03*
G04 #@! TO.N,/Analog/AIN_16*
X114296000Y-86106000D03*
G04 #@! TO.N,/Analog/D+*
X115816000Y-86106000D03*
G04 #@! TD*
D11*
G04 #@! TO.N,+5V*
G04 #@! TO.C,K413*
X119634000Y-102565200D03*
D12*
G04 #@! TO.N,/Analog/RLY_7*
X121154000Y-102565200D03*
G04 #@! TO.N,/Analog/AIN_7*
X122674000Y-102565200D03*
G04 #@! TO.N,/Analog/D-*
X124194000Y-102565200D03*
G04 #@! TD*
D11*
G04 #@! TO.N,+5V*
G04 #@! TO.C,K414*
X119637600Y-106680000D03*
D12*
G04 #@! TO.N,/Analog/RLY_5*
X121157600Y-106680000D03*
G04 #@! TO.N,/Analog/AIN_5*
X122677600Y-106680000D03*
G04 #@! TO.N,/Analog/D-*
X124197600Y-106680000D03*
G04 #@! TD*
D11*
G04 #@! TO.N,+5V*
G04 #@! TO.C,K406*
X111256000Y-94335600D03*
D12*
G04 #@! TO.N,/Analog/RLY_12*
X112776000Y-94335600D03*
G04 #@! TO.N,/Analog/AIN_12*
X114296000Y-94335600D03*
G04 #@! TO.N,/Analog/D+*
X115816000Y-94335600D03*
G04 #@! TD*
D11*
G04 #@! TO.N,+3.3V*
G04 #@! TO.C,J201*
X159248000Y-100189500D03*
D26*
G04 #@! TO.N,/MCU/TMS_SWDIO*
X157978000Y-100189500D03*
G04 #@! TO.N,GND*
X159248000Y-98919500D03*
G04 #@! TO.N,/MCU/TCK_SWCLK*
X157978000Y-98919500D03*
G04 #@! TO.N,GND*
X159248000Y-97649500D03*
G04 #@! TO.N,unconnected-(J201-Pin_6-Pad6)*
X157978000Y-97649500D03*
G04 #@! TO.N,unconnected-(J201-Pin_7-Pad7)*
X159248000Y-96379500D03*
G04 #@! TO.N,unconnected-(J201-Pin_8-Pad8)*
X157978000Y-96379500D03*
G04 #@! TO.N,unconnected-(J201-Pin_9-Pad9)*
X159248000Y-95109500D03*
G04 #@! TO.N,/MCU/NRST*
X157978000Y-95109500D03*
G04 #@! TD*
D10*
G04 #@! TO.N,N/C*
G04 #@! TO.C,H102*
X196500000Y-119500000D03*
G04 #@! TD*
D11*
G04 #@! TO.N,+5V*
G04 #@! TO.C,K401*
X111256000Y-114909600D03*
D12*
G04 #@! TO.N,/Analog/RLY_2*
X112776000Y-114909600D03*
G04 #@! TO.N,/Analog/AIN_2*
X114296000Y-114909600D03*
G04 #@! TO.N,/Analog/D+*
X115816000Y-114909600D03*
G04 #@! TD*
D11*
G04 #@! TO.N,+5V*
G04 #@! TO.C,K417*
X119611700Y-81957900D03*
D12*
G04 #@! TO.N,/Analog/RLY_GND1*
X121131700Y-81957900D03*
G04 #@! TO.N,GND1*
X122651700Y-81957900D03*
G04 #@! TO.N,GND*
X124171700Y-81957900D03*
G04 #@! TD*
D27*
G04 #@! TO.N,GND*
X126365000Y-121793000D03*
X146431000Y-113411000D03*
X143454000Y-95575000D03*
X126111000Y-117221000D03*
X127127000Y-92456000D03*
X150876000Y-99754500D03*
X125857000Y-113426000D03*
X161036000Y-89789000D03*
X137895500Y-100938500D03*
X136398000Y-113538000D03*
X143637000Y-94869000D03*
X146939000Y-87249000D03*
X138430000Y-86868000D03*
X126985000Y-109362000D03*
X127000000Y-86741000D03*
X160782000Y-113284000D03*
X140716000Y-111252000D03*
X150407000Y-102235000D03*
X135890000Y-98806000D03*
X134620000Y-86868000D03*
X144272000Y-82931000D03*
X146912500Y-99160500D03*
X154432000Y-87249000D03*
X125730000Y-105156000D03*
X150749000Y-88773000D03*
X132207000Y-88814000D03*
X126985000Y-101107000D03*
X166624000Y-113284000D03*
X125984000Y-88392000D03*
X149860000Y-87376000D03*
X141605000Y-87884000D03*
G04 #@! TO.N,+3.3V*
X150851000Y-104013000D03*
X162941000Y-88519000D03*
X145669000Y-99187000D03*
X166624000Y-93522000D03*
X138557000Y-87757000D03*
X169799000Y-103378000D03*
X137232000Y-99750000D03*
X152629000Y-104013000D03*
X148407000Y-86797000D03*
X150851000Y-104775000D03*
X151384000Y-87122000D03*
X152629000Y-104775000D03*
X171323000Y-103378000D03*
X129933000Y-92444000D03*
X151740000Y-104013000D03*
X161925000Y-98171000D03*
X151765000Y-104775000D03*
X151583000Y-101020000D03*
X170561000Y-103378000D03*
X145907000Y-86741000D03*
G04 #@! TO.N,+5V*
X133157000Y-86360000D03*
G04 #@! TO.N,+3.3VADC*
X139827000Y-112014000D03*
X130709500Y-85571500D03*
G04 #@! TO.N,VCOM*
X131257000Y-88900000D03*
X140462000Y-109982000D03*
G04 #@! TO.N,/MCU/NRST*
X169149924Y-96378404D03*
X144399000Y-84201000D03*
G04 #@! TO.N,Net-(U202-PH0)*
X145790268Y-87536620D03*
G04 #@! TO.N,Net-(U202-PH1)*
X144526000Y-87503000D03*
G04 #@! TO.N,VDDA*
X140716000Y-86995000D03*
G04 #@! TO.N,Net-(C216-Pad1)*
X138430000Y-98298000D03*
G04 #@! TO.N,Net-(C217-Pad1)*
X149907000Y-99902000D03*
G04 #@! TO.N,Net-(U301-XTAL1{slash}CLKIN)*
X166878000Y-87693000D03*
G04 #@! TO.N,Net-(U301-VDDCR)*
X165481000Y-90043000D03*
G04 #@! TO.N,Net-(U301-XTAL2)*
X170910000Y-87535000D03*
G04 #@! TO.N,VCCQ*
X170561000Y-99187000D03*
X170815000Y-90932000D03*
X167894000Y-99187000D03*
X171355500Y-96012000D03*
X169164000Y-99187000D03*
G04 #@! TO.N,VPP*
X154305000Y-118110000D03*
X154305000Y-119634000D03*
X154305000Y-118872000D03*
X140335000Y-113411000D03*
G04 #@! TO.N,VSS*
X154305000Y-112776000D03*
X154305000Y-112014000D03*
X154305000Y-113538000D03*
X139967250Y-115062000D03*
G04 #@! TO.N,Net-(D501-K)*
X186309000Y-115570000D03*
X185293000Y-115570000D03*
X184277000Y-115570000D03*
X187894000Y-120462000D03*
X191577000Y-120462000D03*
G04 #@! TO.N,Net-(U504-NR{slash}SS)*
X159766000Y-116205000D03*
G04 #@! TO.N,Net-(D501-A)*
X186406000Y-117886000D03*
G04 #@! TO.N,Net-(D502-K)*
X184785000Y-120904000D03*
G04 #@! TO.N,Net-(Q501-D)*
X191643000Y-115570000D03*
X189611000Y-115570000D03*
X190627000Y-115570000D03*
G04 #@! TO.N,/Ethernet/ETH_TXP*
X173370213Y-93897000D03*
G04 #@! TO.N,/Ethernet/ETH_TXN*
X173370213Y-94647000D03*
G04 #@! TO.N,/Ethernet/LED2*
X173355000Y-91440000D03*
G04 #@! TO.N,/MCU/MCU_DEF*
X163322000Y-84455000D03*
G04 #@! TO.N,/MCU/I2C1_SDA*
X148844000Y-93726000D03*
G04 #@! TO.N,/MCU/I2C1_SCL*
X149860000Y-93726000D03*
G04 #@! TO.N,/Ethernet/RMII_MDIO*
X149009803Y-89192803D03*
X166568095Y-95081457D03*
G04 #@! TO.N,Net-(U301-RBIAS)*
X171958000Y-90932000D03*
G04 #@! TO.N,Net-(U504-FBP)*
X152527000Y-117348000D03*
G04 #@! TO.N,Net-(U504-FBN)*
X150622000Y-113284000D03*
G04 #@! TO.N,/Ethernet/RMII_RXD0*
X150495000Y-90345000D03*
X161925000Y-92202000D03*
G04 #@! TO.N,/Ethernet/REF_CLK*
X149733000Y-88646000D03*
X161798000Y-94361000D03*
G04 #@! TO.N,/Ethernet/RMII_CRS_DV*
X161861500Y-93662500D03*
X149987000Y-89845000D03*
G04 #@! TO.N,/Ethernet/MODE2*
X165548500Y-94234000D03*
G04 #@! TO.N,/Ethernet/MODE0*
X165100000Y-92526000D03*
G04 #@! TO.N,/Ethernet/MODE1*
X165548500Y-93218000D03*
G04 #@! TO.N,/Ethernet/RMII_RXD1*
X149860000Y-90845000D03*
X161925000Y-92964000D03*
G04 #@! TO.N,/Ethernet/REFCLK0*
X165030000Y-94926000D03*
X165921500Y-95885000D03*
G04 #@! TO.N,/MCU/EEPROM_WP*
X150876000Y-95123000D03*
G04 #@! TO.N,/Ethernet/RMII_MDC*
X168148000Y-96647000D03*
X147574000Y-88011000D03*
G04 #@! TO.N,/Ethernet/RMII_TXEN*
X169585174Y-96829725D03*
X139954000Y-97409000D03*
G04 #@! TO.N,/Ethernet/RMII_TXD1*
X140208000Y-98552000D03*
X170307000Y-97663000D03*
G04 #@! TO.N,/Ethernet/RMII_TXD0*
X139700000Y-98044000D03*
X170180000Y-97028000D03*
G04 #@! TO.N,/Analog/SPI_MOSI*
X142748000Y-99187000D03*
X142621000Y-115570000D03*
G04 #@! TO.N,Net-(U401-IN1+)*
X135636000Y-111125000D03*
G04 #@! TO.N,/Analog/SPI_SCLK*
X143764000Y-99187000D03*
X143510000Y-114513000D03*
G04 #@! TO.N,/Analog/SPI_~{CS}*
X143129000Y-113538000D03*
X144272000Y-99695000D03*
G04 #@! TO.N,/Analog/SPI_MISO*
X143516971Y-115777544D03*
X143256000Y-99695000D03*
G04 #@! TO.N,Net-(U401-IN1-)*
X135509000Y-116967000D03*
G04 #@! TO.N,/Analog/D+*
X131699000Y-112522000D03*
G04 #@! TO.N,/Analog/D-*
X131826000Y-115316000D03*
G04 #@! TO.N,/MCU/RELAY5*
X138303000Y-97345000D03*
G04 #@! TO.N,/MCU/RELAY8*
X138930000Y-93845000D03*
G04 #@! TO.N,/MCU/RELAY7*
X138430000Y-94345000D03*
G04 #@! TO.N,/MCU/RELAY6*
X138811000Y-96845000D03*
G04 #@! TO.N,/MCU/RELAY9*
X138430000Y-93345000D03*
G04 #@! TO.N,/MCU/RELAY10*
X138930000Y-92845000D03*
G04 #@! TO.N,/MCU/RELAY11*
X138414000Y-92345000D03*
G04 #@! TO.N,/MCU/RELAY12*
X138938000Y-91845000D03*
G04 #@! TO.N,/MCU/RELAY14*
X139446000Y-89345000D03*
G04 #@! TO.N,/MCU/RELAY15*
X139446000Y-88345000D03*
G04 #@! TO.N,/MCU/RELAY13*
X138430000Y-91313000D03*
G04 #@! TO.N,/MCU/RELAY16*
X140335000Y-89404500D03*
G04 #@! TO.N,/MCU/RELAY3*
X140407000Y-99822000D03*
G04 #@! TO.N,/MCU/RELAY2*
X141407000Y-99822000D03*
G04 #@! TO.N,/MCU/RELAY4*
X140907000Y-99314000D03*
G04 #@! TO.N,/MCU/RELAY1*
X141907000Y-99362000D03*
G04 #@! TO.N,/Analog/GND1_CTR*
X135763000Y-85471000D03*
G04 #@! TO.N,/Analog/GND2_CTR*
X144907000Y-99949000D03*
G04 #@! TD*
D28*
G04 #@! TO.N,VCCQ*
X173926500Y-86614000D02*
X180594000Y-86614000D01*
D29*
X180975000Y-92060000D02*
X180975000Y-93330000D01*
D28*
X180594000Y-86614000D02*
X182230000Y-88250000D01*
X170815000Y-90932000D02*
X170815000Y-89725500D01*
D29*
X182230000Y-90805000D02*
X180975000Y-92060000D01*
D28*
X182230000Y-88250000D02*
X182230000Y-90805000D01*
X170815000Y-89725500D02*
X173926500Y-86614000D01*
D29*
X180975000Y-93330000D02*
X179690000Y-94615000D01*
D28*
G04 #@! TO.N,VPP*
X141351000Y-118110000D02*
X142113000Y-118872000D01*
X142113000Y-118872000D02*
X154305000Y-118872000D01*
X154305000Y-118872000D02*
X154305000Y-119634000D01*
X141351000Y-114427000D02*
X141351000Y-118110000D01*
X140335000Y-113411000D02*
X141351000Y-114427000D01*
G04 #@! TO.N,VSS*
X158369000Y-112776000D02*
X161036000Y-115443000D01*
X141986000Y-121539000D02*
X139967250Y-119520250D01*
X161036000Y-119888000D02*
X159385000Y-121539000D01*
X159385000Y-121539000D02*
X141986000Y-121539000D01*
X154305000Y-112776000D02*
X158369000Y-112776000D01*
X139967250Y-119520250D02*
X139967250Y-115062000D01*
X161036000Y-115443000D02*
X161036000Y-119888000D01*
D30*
G04 #@! TO.N,Net-(D501-K)*
X185293000Y-119126000D02*
X185293000Y-115570000D01*
X187894000Y-120462000D02*
X186629000Y-120462000D01*
X191577000Y-120462000D02*
X187894000Y-120462000D01*
X186629000Y-120462000D02*
X185293000Y-119126000D01*
D28*
G04 #@! TO.N,Earth*
X183414000Y-101880000D02*
X182230000Y-100696000D01*
X182230000Y-100696000D02*
X182230000Y-98425000D01*
X185530000Y-101880000D02*
X183414000Y-101880000D01*
G04 #@! TD*
G04 #@! TA.AperFunction,Conductor*
G04 #@! TO.N,VCCQ*
G36*
X171722306Y-90315306D02*
G01*
X171771581Y-90364581D01*
X171789887Y-90408775D01*
X171771581Y-90452969D01*
X171749999Y-90465778D01*
X171750335Y-90466513D01*
X171746267Y-90468370D01*
X171624226Y-90546801D01*
X171529225Y-90656438D01*
X171529222Y-90656443D01*
X171468958Y-90788402D01*
X171468957Y-90788405D01*
X171448312Y-90932000D01*
X171468957Y-91075594D01*
X171468958Y-91075597D01*
X171529222Y-91207556D01*
X171529225Y-91207561D01*
X171624226Y-91317198D01*
X171746263Y-91395626D01*
X171746268Y-91395629D01*
X171786108Y-91407327D01*
X171823354Y-91437339D01*
X171831000Y-91467294D01*
X171831000Y-100812112D01*
X171812694Y-100856306D01*
X171722306Y-100946694D01*
X171678112Y-100965000D01*
X166649888Y-100965000D01*
X166605694Y-100946694D01*
X166515306Y-100856306D01*
X166497000Y-100812112D01*
X166497000Y-98831888D01*
X166515306Y-98787694D01*
X166605694Y-98697306D01*
X166649888Y-98679000D01*
X168910000Y-98679000D01*
X169037000Y-98679000D01*
X169037000Y-97131148D01*
X169055306Y-97086954D01*
X169099500Y-97068648D01*
X169143694Y-97086954D01*
X169153863Y-97101601D01*
X169153982Y-97101525D01*
X169156117Y-97104848D01*
X169156352Y-97105186D01*
X169156394Y-97105279D01*
X169156399Y-97105286D01*
X169251400Y-97214923D01*
X169372681Y-97292865D01*
X169373442Y-97293354D01*
X169472859Y-97322545D01*
X169512635Y-97334224D01*
X169512637Y-97334225D01*
X169512638Y-97334225D01*
X169657710Y-97334225D01*
X169714900Y-97317432D01*
X169762460Y-97322545D01*
X169779742Y-97336471D01*
X169833173Y-97398133D01*
X169848280Y-97443520D01*
X169842791Y-97465025D01*
X169817958Y-97519402D01*
X169817957Y-97519405D01*
X169797312Y-97663000D01*
X169817957Y-97806594D01*
X169817958Y-97806597D01*
X169878222Y-97938556D01*
X169878225Y-97938561D01*
X169973226Y-98048198D01*
X170095263Y-98126626D01*
X170095268Y-98126629D01*
X170234461Y-98167499D01*
X170234463Y-98167500D01*
X170234464Y-98167500D01*
X170379537Y-98167500D01*
X170379537Y-98167499D01*
X170518732Y-98126629D01*
X170564535Y-98097192D01*
X170640773Y-98048198D01*
X170735774Y-97938561D01*
X170735777Y-97938558D01*
X170796042Y-97806596D01*
X170816688Y-97663000D01*
X170796042Y-97519404D01*
X170735777Y-97387442D01*
X170735774Y-97387438D01*
X170653826Y-97292865D01*
X170638719Y-97247477D01*
X170644206Y-97225977D01*
X170669042Y-97171596D01*
X170689688Y-97028000D01*
X170669042Y-96884404D01*
X170608777Y-96752442D01*
X170608774Y-96752438D01*
X170513773Y-96642801D01*
X170391736Y-96564373D01*
X170391727Y-96564369D01*
X170252538Y-96523500D01*
X170252536Y-96523500D01*
X170107464Y-96523500D01*
X170050270Y-96540292D01*
X170002709Y-96535177D01*
X169985430Y-96521252D01*
X169918949Y-96444529D01*
X169918948Y-96444528D01*
X169796910Y-96366098D01*
X169796901Y-96366094D01*
X169690252Y-96334779D01*
X169653005Y-96304764D01*
X169645996Y-96283705D01*
X169638966Y-96234809D01*
X169638965Y-96234806D01*
X169578701Y-96102846D01*
X169514363Y-96028596D01*
X169483697Y-95993205D01*
X169361660Y-95914777D01*
X169361651Y-95914773D01*
X169222462Y-95873904D01*
X169222460Y-95873904D01*
X169099500Y-95873904D01*
X169055306Y-95855598D01*
X169037000Y-95811404D01*
X169037000Y-95241306D01*
X169055306Y-95197112D01*
X169099500Y-95178806D01*
X169133287Y-95188727D01*
X169206268Y-95235629D01*
X169345461Y-95276499D01*
X169345463Y-95276500D01*
X169345464Y-95276500D01*
X169490537Y-95276500D01*
X169490537Y-95276499D01*
X169629732Y-95235629D01*
X169702711Y-95188728D01*
X169751773Y-95157198D01*
X169846774Y-95047561D01*
X169846777Y-95047558D01*
X169861148Y-95016090D01*
X169896158Y-94983494D01*
X169943963Y-94985201D01*
X169974852Y-95016090D01*
X169989222Y-95047556D01*
X169989225Y-95047561D01*
X170084226Y-95157198D01*
X170206263Y-95235626D01*
X170206268Y-95235629D01*
X170345461Y-95276499D01*
X170345463Y-95276500D01*
X170345464Y-95276500D01*
X170490537Y-95276500D01*
X170490537Y-95276499D01*
X170629732Y-95235629D01*
X170702711Y-95188728D01*
X170751773Y-95157198D01*
X170846774Y-95047561D01*
X170846777Y-95047558D01*
X170907042Y-94915596D01*
X170927688Y-94772000D01*
X170907042Y-94628404D01*
X170846777Y-94496442D01*
X170846774Y-94496438D01*
X170751773Y-94386801D01*
X170654951Y-94324578D01*
X170627669Y-94285285D01*
X170636163Y-94238210D01*
X170654951Y-94219422D01*
X170751773Y-94157198D01*
X170751775Y-94157196D01*
X170846777Y-94047558D01*
X170907042Y-93915596D01*
X170927688Y-93772000D01*
X170907042Y-93628404D01*
X170846777Y-93496442D01*
X170844278Y-93493558D01*
X170751773Y-93386801D01*
X170654951Y-93324578D01*
X170627669Y-93285285D01*
X170636163Y-93238210D01*
X170654951Y-93219422D01*
X170751773Y-93157198D01*
X170769445Y-93136804D01*
X170846777Y-93047558D01*
X170907042Y-92915596D01*
X170927688Y-92772000D01*
X170907042Y-92628404D01*
X170846777Y-92496442D01*
X170846774Y-92496438D01*
X170751773Y-92386801D01*
X170629736Y-92308373D01*
X170629727Y-92308369D01*
X170490538Y-92267500D01*
X170490536Y-92267500D01*
X170345464Y-92267500D01*
X170345462Y-92267500D01*
X170206272Y-92308369D01*
X170206263Y-92308373D01*
X170084226Y-92386801D01*
X169989225Y-92496438D01*
X169989223Y-92496440D01*
X169974852Y-92527910D01*
X169939841Y-92560505D01*
X169892036Y-92558798D01*
X169861148Y-92527910D01*
X169846776Y-92496440D01*
X169846774Y-92496438D01*
X169751773Y-92386801D01*
X169629736Y-92308373D01*
X169629727Y-92308369D01*
X169490538Y-92267500D01*
X169490536Y-92267500D01*
X169345464Y-92267500D01*
X169345462Y-92267500D01*
X169206272Y-92308369D01*
X169206268Y-92308371D01*
X169133290Y-92355271D01*
X169086214Y-92363764D01*
X169046921Y-92336482D01*
X169037000Y-92302692D01*
X169037000Y-90449888D01*
X169055306Y-90405694D01*
X169145694Y-90315306D01*
X169189888Y-90297000D01*
X171678112Y-90297000D01*
X171722306Y-90315306D01*
G37*
G04 #@! TD.AperFunction*
G04 #@! TD*
G04 #@! TA.AperFunction,Conductor*
G04 #@! TO.N,VPP*
G36*
X155847306Y-117620306D02*
G01*
X155937694Y-117710694D01*
X155956000Y-117754888D01*
X155956000Y-120243112D01*
X155937694Y-120287306D01*
X155847306Y-120377694D01*
X155803112Y-120396000D01*
X153568888Y-120396000D01*
X153524694Y-120377694D01*
X153434306Y-120287306D01*
X153416000Y-120243112D01*
X153416000Y-117754888D01*
X153434306Y-117710694D01*
X153524694Y-117620306D01*
X153568888Y-117602000D01*
X155803112Y-117602000D01*
X155847306Y-117620306D01*
G37*
G04 #@! TD.AperFunction*
G04 #@! TD*
G04 #@! TA.AperFunction,Conductor*
G04 #@! TO.N,+3.3V*
G36*
X168039306Y-78758306D02*
G01*
X168129694Y-78848694D01*
X168148000Y-78892888D01*
X168148000Y-92311689D01*
X168129694Y-92355883D01*
X168119292Y-92364266D01*
X168084225Y-92386803D01*
X168084224Y-92386804D01*
X167989225Y-92496438D01*
X167989222Y-92496443D01*
X167928958Y-92628402D01*
X167928957Y-92628405D01*
X167908312Y-92772000D01*
X167928957Y-92915594D01*
X167928958Y-92915597D01*
X167989222Y-93047556D01*
X167989225Y-93047561D01*
X168084225Y-93157197D01*
X168108026Y-93172492D01*
X168119289Y-93179730D01*
X168146571Y-93219023D01*
X168148000Y-93232309D01*
X168148000Y-93311689D01*
X168129694Y-93355883D01*
X168119292Y-93364266D01*
X168084225Y-93386803D01*
X168084224Y-93386804D01*
X167989225Y-93496438D01*
X167989222Y-93496443D01*
X167928958Y-93628402D01*
X167928957Y-93628405D01*
X167908312Y-93772000D01*
X167928957Y-93915594D01*
X167928958Y-93915597D01*
X167989222Y-94047556D01*
X167989225Y-94047561D01*
X168084225Y-94157197D01*
X168108026Y-94172492D01*
X168119289Y-94179730D01*
X168146571Y-94219023D01*
X168148000Y-94232309D01*
X168148000Y-94311689D01*
X168129694Y-94355883D01*
X168119292Y-94364266D01*
X168084225Y-94386803D01*
X168084224Y-94386804D01*
X167989225Y-94496438D01*
X167989222Y-94496443D01*
X167928958Y-94628402D01*
X167928957Y-94628405D01*
X167908312Y-94772000D01*
X167928957Y-94915594D01*
X167928958Y-94915597D01*
X167989222Y-95047556D01*
X167989225Y-95047561D01*
X168084225Y-95157197D01*
X168108026Y-95172492D01*
X168119289Y-95179730D01*
X168146571Y-95219023D01*
X168148000Y-95232309D01*
X168148000Y-96080000D01*
X168129694Y-96124194D01*
X168085500Y-96142500D01*
X168075462Y-96142500D01*
X167936272Y-96183369D01*
X167936263Y-96183373D01*
X167814226Y-96261801D01*
X167719225Y-96371438D01*
X167719222Y-96371443D01*
X167658958Y-96503402D01*
X167658957Y-96503405D01*
X167638312Y-96647000D01*
X167658957Y-96790594D01*
X167658958Y-96790597D01*
X167719222Y-96922556D01*
X167719225Y-96922561D01*
X167814226Y-97032198D01*
X167936263Y-97110626D01*
X167936268Y-97110629D01*
X168013967Y-97133443D01*
X168075461Y-97151499D01*
X168075463Y-97151500D01*
X168085500Y-97151500D01*
X168129694Y-97169806D01*
X168148000Y-97214000D01*
X168148000Y-97891112D01*
X168129694Y-97935306D01*
X168039306Y-98025694D01*
X167995112Y-98044000D01*
X166116000Y-98044000D01*
X166116000Y-101473000D01*
X168148000Y-101473000D01*
X171678112Y-101473000D01*
X171722306Y-101491306D01*
X171812694Y-101581694D01*
X171831000Y-101625888D01*
X171831000Y-109448112D01*
X171812694Y-109492306D01*
X171722306Y-109582694D01*
X171678112Y-109601000D01*
X165676000Y-109601000D01*
X165631806Y-109582694D01*
X165613500Y-109538500D01*
X165613500Y-106324893D01*
X165612919Y-106310116D01*
X165612308Y-106294562D01*
X165584079Y-106176979D01*
X165565773Y-106132785D01*
X165565770Y-106132777D01*
X165560341Y-106121003D01*
X165553068Y-106105227D01*
X165481991Y-106007397D01*
X165481989Y-106007394D01*
X165481984Y-106007389D01*
X165391618Y-105917024D01*
X165391603Y-105917009D01*
X165369319Y-105896410D01*
X165369312Y-105896406D01*
X165369309Y-105896403D01*
X165266215Y-105833227D01*
X165222021Y-105814921D01*
X165222013Y-105814918D01*
X165193551Y-105804418D01*
X165193541Y-105804415D01*
X165074123Y-105785501D01*
X165074113Y-105785500D01*
X165074112Y-105785500D01*
X165074110Y-105785500D01*
X147388000Y-105785500D01*
X147343806Y-105767194D01*
X147325500Y-105723000D01*
X147325500Y-103022893D01*
X147325500Y-103022888D01*
X147324308Y-102992562D01*
X147296079Y-102874979D01*
X147281460Y-102839688D01*
X147277770Y-102830777D01*
X147271323Y-102816795D01*
X147265068Y-102803227D01*
X147239217Y-102767645D01*
X147193989Y-102705394D01*
X147193984Y-102705389D01*
X147103618Y-102615024D01*
X147103603Y-102615009D01*
X147081319Y-102594410D01*
X147081312Y-102594406D01*
X147081309Y-102594403D01*
X146978215Y-102531227D01*
X146934021Y-102512921D01*
X146927624Y-102510561D01*
X146905551Y-102502418D01*
X146905541Y-102502415D01*
X146786123Y-102483501D01*
X146786113Y-102483500D01*
X146786112Y-102483500D01*
X146786110Y-102483500D01*
X135958000Y-102483500D01*
X135913806Y-102465194D01*
X135895500Y-102421000D01*
X135895500Y-102235000D01*
X149897312Y-102235000D01*
X149917957Y-102378594D01*
X149917958Y-102378597D01*
X149978222Y-102510556D01*
X149978225Y-102510561D01*
X150073226Y-102620198D01*
X150181030Y-102689479D01*
X150195268Y-102698629D01*
X150334461Y-102739499D01*
X150334463Y-102739500D01*
X150334464Y-102739500D01*
X150479537Y-102739500D01*
X150479537Y-102739499D01*
X150618732Y-102698629D01*
X150665328Y-102668683D01*
X150740773Y-102620198D01*
X150740775Y-102620196D01*
X150835777Y-102510558D01*
X150896042Y-102378596D01*
X150916688Y-102235000D01*
X150896042Y-102091404D01*
X150835777Y-101959442D01*
X150835774Y-101959438D01*
X150740773Y-101849801D01*
X150618736Y-101771373D01*
X150618727Y-101771369D01*
X150479538Y-101730500D01*
X150479536Y-101730500D01*
X150334464Y-101730500D01*
X150334462Y-101730500D01*
X150195272Y-101771369D01*
X150195263Y-101771373D01*
X150073226Y-101849801D01*
X149978225Y-101959438D01*
X149978222Y-101959443D01*
X149917958Y-102091402D01*
X149917957Y-102091405D01*
X149897312Y-102235000D01*
X135895500Y-102235000D01*
X135895500Y-100938500D01*
X137385812Y-100938500D01*
X137406457Y-101082094D01*
X137406458Y-101082097D01*
X137466722Y-101214056D01*
X137466725Y-101214061D01*
X137561726Y-101323698D01*
X137683763Y-101402126D01*
X137683768Y-101402129D01*
X137822961Y-101442999D01*
X137822963Y-101443000D01*
X137822964Y-101443000D01*
X137968037Y-101443000D01*
X137968037Y-101442999D01*
X138107232Y-101402129D01*
X138153035Y-101372692D01*
X138229273Y-101323698D01*
X138324274Y-101214061D01*
X138324277Y-101214058D01*
X138384542Y-101082096D01*
X138405188Y-100938500D01*
X138384542Y-100794904D01*
X138324277Y-100662942D01*
X138324239Y-100662898D01*
X138229273Y-100553301D01*
X138107236Y-100474873D01*
X138107227Y-100474869D01*
X137968038Y-100434000D01*
X137968036Y-100434000D01*
X137822964Y-100434000D01*
X137822962Y-100434000D01*
X137683772Y-100474869D01*
X137683763Y-100474873D01*
X137561726Y-100553301D01*
X137466725Y-100662938D01*
X137466722Y-100662943D01*
X137406458Y-100794902D01*
X137406457Y-100794905D01*
X137385812Y-100938500D01*
X135895500Y-100938500D01*
X135895500Y-99373000D01*
X135913806Y-99328806D01*
X135958000Y-99310500D01*
X135962537Y-99310500D01*
X135962537Y-99310499D01*
X136101732Y-99269629D01*
X136181439Y-99218404D01*
X136223773Y-99191198D01*
X136227411Y-99187000D01*
X136318777Y-99081558D01*
X136379042Y-98949596D01*
X136399688Y-98806000D01*
X136379042Y-98662404D01*
X136318777Y-98530442D01*
X136302753Y-98511949D01*
X136223773Y-98420801D01*
X136101736Y-98342373D01*
X136101727Y-98342369D01*
X135962538Y-98301500D01*
X135962536Y-98301500D01*
X135958000Y-98301500D01*
X135913806Y-98283194D01*
X135895500Y-98239000D01*
X135895500Y-97345000D01*
X137793312Y-97345000D01*
X137813957Y-97488594D01*
X137813958Y-97488597D01*
X137874222Y-97620556D01*
X137874225Y-97620561D01*
X137969226Y-97730198D01*
X138092982Y-97809731D01*
X138120264Y-97849024D01*
X138111770Y-97896099D01*
X138098863Y-97909025D01*
X138099602Y-97909878D01*
X138096224Y-97912804D01*
X138001225Y-98022438D01*
X138001222Y-98022443D01*
X137940958Y-98154402D01*
X137940957Y-98154405D01*
X137920312Y-98298000D01*
X137940957Y-98441594D01*
X137940958Y-98441597D01*
X138001222Y-98573556D01*
X138001225Y-98573561D01*
X138096226Y-98683198D01*
X138201027Y-98750549D01*
X138218268Y-98761629D01*
X138355094Y-98801804D01*
X138357461Y-98802499D01*
X138357463Y-98802500D01*
X138357464Y-98802500D01*
X138502537Y-98802500D01*
X138502537Y-98802499D01*
X138641732Y-98761629D01*
X138711672Y-98716681D01*
X138763773Y-98683198D01*
X138764378Y-98682500D01*
X138858777Y-98573558D01*
X138919042Y-98441596D01*
X138939688Y-98298000D01*
X138919042Y-98154404D01*
X138868622Y-98044000D01*
X139190312Y-98044000D01*
X139210957Y-98187594D01*
X139210958Y-98187597D01*
X139271222Y-98319556D01*
X139271225Y-98319561D01*
X139366226Y-98429198D01*
X139488263Y-98507626D01*
X139488268Y-98507629D01*
X139565967Y-98530443D01*
X139627461Y-98548499D01*
X139627463Y-98548500D01*
X139627464Y-98548500D01*
X139643652Y-98548500D01*
X139687846Y-98566806D01*
X139705516Y-98602105D01*
X139718957Y-98695594D01*
X139718958Y-98695597D01*
X139779222Y-98827556D01*
X139779225Y-98827561D01*
X139874226Y-98937198D01*
X139993005Y-99013532D01*
X139996268Y-99015629D01*
X140090866Y-99043405D01*
X140135461Y-99056499D01*
X140135463Y-99056500D01*
X140135464Y-99056500D01*
X140280536Y-99056500D01*
X140368001Y-99030818D01*
X140415561Y-99035931D01*
X140445576Y-99073177D01*
X140442460Y-99116748D01*
X140417959Y-99170399D01*
X140417957Y-99170405D01*
X140404516Y-99263895D01*
X140380107Y-99305034D01*
X140342652Y-99317500D01*
X140334462Y-99317500D01*
X140195272Y-99358369D01*
X140195263Y-99358373D01*
X140073226Y-99436801D01*
X139978225Y-99546438D01*
X139978222Y-99546443D01*
X139917958Y-99678402D01*
X139917957Y-99678405D01*
X139897312Y-99822000D01*
X139917957Y-99965594D01*
X139917958Y-99965597D01*
X139978222Y-100097556D01*
X139978225Y-100097561D01*
X140073226Y-100207198D01*
X140195263Y-100285626D01*
X140195268Y-100285629D01*
X140200605Y-100287196D01*
X140334461Y-100326499D01*
X140334463Y-100326500D01*
X140334464Y-100326500D01*
X140479537Y-100326500D01*
X140479537Y-100326499D01*
X140618732Y-100285629D01*
X140664535Y-100256192D01*
X140740773Y-100207198D01*
X140740775Y-100207196D01*
X140835777Y-100097558D01*
X140850148Y-100066090D01*
X140885158Y-100033494D01*
X140932963Y-100035201D01*
X140963852Y-100066090D01*
X140978222Y-100097556D01*
X140978225Y-100097561D01*
X141073226Y-100207198D01*
X141195263Y-100285626D01*
X141195268Y-100285629D01*
X141200605Y-100287196D01*
X141334461Y-100326499D01*
X141334463Y-100326500D01*
X141334464Y-100326500D01*
X141479537Y-100326500D01*
X141479537Y-100326499D01*
X141618732Y-100285629D01*
X141664535Y-100256192D01*
X141740773Y-100207198D01*
X141740775Y-100207196D01*
X141835777Y-100097558D01*
X141896042Y-99965596D01*
X141902583Y-99920105D01*
X141926992Y-99878966D01*
X141964447Y-99866500D01*
X141979537Y-99866500D01*
X141979537Y-99866499D01*
X142118732Y-99825629D01*
X142223334Y-99758405D01*
X142240773Y-99747198D01*
X142242587Y-99745105D01*
X142335777Y-99637558D01*
X142346690Y-99613661D01*
X142381697Y-99581065D01*
X142429502Y-99582771D01*
X142437331Y-99587046D01*
X142515929Y-99637558D01*
X142536268Y-99650629D01*
X142632123Y-99678774D01*
X142675461Y-99691499D01*
X142675463Y-99691500D01*
X142675464Y-99691500D01*
X142691652Y-99691500D01*
X142735846Y-99709806D01*
X142753516Y-99745105D01*
X142766957Y-99838594D01*
X142766958Y-99838597D01*
X142827222Y-99970556D01*
X142827225Y-99970561D01*
X142922226Y-100080198D01*
X143044263Y-100158626D01*
X143044268Y-100158629D01*
X143127634Y-100183107D01*
X143183461Y-100199499D01*
X143183463Y-100199500D01*
X143183464Y-100199500D01*
X143328537Y-100199500D01*
X143328537Y-100199499D01*
X143467732Y-100158629D01*
X143513535Y-100129192D01*
X143589773Y-100080198D01*
X143589775Y-100080196D01*
X143684777Y-99970558D01*
X143707148Y-99921571D01*
X143742158Y-99888976D01*
X143789963Y-99890683D01*
X143820852Y-99921572D01*
X143843222Y-99970556D01*
X143843225Y-99970561D01*
X143938226Y-100080198D01*
X144060263Y-100158626D01*
X144060268Y-100158629D01*
X144143634Y-100183107D01*
X144199461Y-100199499D01*
X144199463Y-100199500D01*
X144199464Y-100199500D01*
X144344536Y-100199500D01*
X144400363Y-100183107D01*
X144447922Y-100188219D01*
X144474822Y-100217111D01*
X144478223Y-100224558D01*
X144478225Y-100224561D01*
X144573226Y-100334198D01*
X144685731Y-100406500D01*
X144695268Y-100412629D01*
X144834461Y-100453499D01*
X144834463Y-100453500D01*
X144834464Y-100453500D01*
X144979537Y-100453500D01*
X144979537Y-100453499D01*
X145118732Y-100412629D01*
X145164535Y-100383192D01*
X145240773Y-100334198D01*
X145240775Y-100334196D01*
X145335777Y-100224558D01*
X145396042Y-100092596D01*
X145416688Y-99949000D01*
X145409930Y-99902000D01*
X149397312Y-99902000D01*
X149417957Y-100045594D01*
X149417958Y-100045597D01*
X149478222Y-100177556D01*
X149478225Y-100177561D01*
X149573226Y-100287198D01*
X149695263Y-100365626D01*
X149695268Y-100365629D01*
X149834461Y-100406499D01*
X149834463Y-100406500D01*
X149834464Y-100406500D01*
X149979537Y-100406500D01*
X149979537Y-100406499D01*
X150118732Y-100365629D01*
X150167642Y-100334196D01*
X150240773Y-100287198D01*
X150265208Y-100258999D01*
X150335777Y-100177558D01*
X150377954Y-100085202D01*
X150412963Y-100052608D01*
X150460768Y-100054315D01*
X150482039Y-100070238D01*
X150542226Y-100139698D01*
X150647259Y-100207198D01*
X150664268Y-100218129D01*
X150686157Y-100224556D01*
X150803461Y-100258999D01*
X150803463Y-100259000D01*
X150803464Y-100259000D01*
X150948537Y-100259000D01*
X150948537Y-100258999D01*
X151087732Y-100218129D01*
X151132279Y-100189500D01*
X157218726Y-100189500D01*
X157237762Y-100358450D01*
X157237763Y-100358454D01*
X157278499Y-100474873D01*
X157293919Y-100518939D01*
X157293921Y-100518943D01*
X157384374Y-100662898D01*
X157504601Y-100783125D01*
X157648556Y-100873578D01*
X157648559Y-100873579D01*
X157648563Y-100873582D01*
X157809046Y-100929737D01*
X157978000Y-100948774D01*
X158146954Y-100929737D01*
X158307437Y-100873582D01*
X158451400Y-100783124D01*
X158571624Y-100662900D01*
X158662082Y-100518937D01*
X158718237Y-100358454D01*
X158737274Y-100189500D01*
X158718237Y-100020546D01*
X158662082Y-99860063D01*
X158648593Y-99838596D01*
X158571625Y-99716101D01*
X158454218Y-99598694D01*
X158435912Y-99554500D01*
X158454218Y-99510306D01*
X158568806Y-99395718D01*
X158613000Y-99377412D01*
X158657194Y-99395718D01*
X158774601Y-99513125D01*
X158918556Y-99603578D01*
X158918559Y-99603579D01*
X158918563Y-99603582D01*
X159079046Y-99659737D01*
X159248000Y-99678774D01*
X159416954Y-99659737D01*
X159577437Y-99603582D01*
X159721400Y-99513124D01*
X159841624Y-99392900D01*
X159932082Y-99248937D01*
X159988237Y-99088454D01*
X160007274Y-98919500D01*
X159988237Y-98750546D01*
X159932082Y-98590063D01*
X159921711Y-98573558D01*
X159841625Y-98446101D01*
X159724218Y-98328694D01*
X159705912Y-98284500D01*
X159724218Y-98240306D01*
X159780404Y-98184120D01*
X159841624Y-98122900D01*
X159932082Y-97978937D01*
X159988237Y-97818454D01*
X160007274Y-97649500D01*
X159988237Y-97480546D01*
X159932082Y-97320063D01*
X159924898Y-97308630D01*
X159841625Y-97176101D01*
X159724218Y-97058694D01*
X159705912Y-97014500D01*
X159724218Y-96970306D01*
X159771968Y-96922556D01*
X159841624Y-96852900D01*
X159932082Y-96708937D01*
X159988237Y-96548454D01*
X160007274Y-96379500D01*
X159988237Y-96210546D01*
X159932082Y-96050063D01*
X159924898Y-96038630D01*
X159841625Y-95906101D01*
X159820524Y-95885000D01*
X165411812Y-95885000D01*
X165432457Y-96028594D01*
X165432458Y-96028597D01*
X165492722Y-96160556D01*
X165492725Y-96160561D01*
X165587726Y-96270198D01*
X165697119Y-96340500D01*
X165709768Y-96348629D01*
X165787467Y-96371443D01*
X165848961Y-96389499D01*
X165848963Y-96389500D01*
X165848964Y-96389500D01*
X165994037Y-96389500D01*
X165994037Y-96389499D01*
X166133232Y-96348629D01*
X166179035Y-96319192D01*
X166255273Y-96270198D01*
X166255275Y-96270196D01*
X166350277Y-96160558D01*
X166410542Y-96028596D01*
X166431188Y-95885000D01*
X166410542Y-95741404D01*
X166372244Y-95657543D01*
X166370537Y-95609739D01*
X166403133Y-95574728D01*
X166446703Y-95571612D01*
X166474684Y-95579827D01*
X166495558Y-95585957D01*
X166495559Y-95585957D01*
X166640632Y-95585957D01*
X166640632Y-95585956D01*
X166779827Y-95545086D01*
X166837225Y-95508198D01*
X166901868Y-95466655D01*
X166925886Y-95438937D01*
X166996872Y-95357015D01*
X167057137Y-95225053D01*
X167077783Y-95081457D01*
X167057137Y-94937861D01*
X166996872Y-94805899D01*
X166996869Y-94805895D01*
X166901868Y-94696258D01*
X166779831Y-94617830D01*
X166779822Y-94617826D01*
X166640633Y-94576957D01*
X166640631Y-94576957D01*
X166495559Y-94576957D01*
X166495557Y-94576957D01*
X166356367Y-94617826D01*
X166356358Y-94617830D01*
X166234321Y-94696258D01*
X166139320Y-94805895D01*
X166139317Y-94805900D01*
X166079053Y-94937859D01*
X166079052Y-94937862D01*
X166058407Y-95081457D01*
X166079052Y-95225051D01*
X166079053Y-95225054D01*
X166117350Y-95308913D01*
X166119057Y-95356718D01*
X166086461Y-95391728D01*
X166042890Y-95394844D01*
X165994038Y-95380500D01*
X165994036Y-95380500D01*
X165848964Y-95380500D01*
X165848962Y-95380500D01*
X165709772Y-95421369D01*
X165709763Y-95421373D01*
X165587726Y-95499801D01*
X165492725Y-95609438D01*
X165492722Y-95609443D01*
X165432458Y-95741402D01*
X165432457Y-95741405D01*
X165411812Y-95885000D01*
X159820524Y-95885000D01*
X159724218Y-95788694D01*
X159705912Y-95744500D01*
X159724218Y-95700306D01*
X159766981Y-95657543D01*
X159841624Y-95582900D01*
X159932082Y-95438937D01*
X159988237Y-95278454D01*
X160007274Y-95109500D01*
X159988237Y-94940546D01*
X159983147Y-94926000D01*
X164520312Y-94926000D01*
X164540957Y-95069594D01*
X164540958Y-95069597D01*
X164601222Y-95201556D01*
X164601225Y-95201561D01*
X164696226Y-95311198D01*
X164804063Y-95380500D01*
X164818268Y-95389629D01*
X164926373Y-95421371D01*
X164957461Y-95430499D01*
X164957463Y-95430500D01*
X164957464Y-95430500D01*
X165102537Y-95430500D01*
X165102537Y-95430499D01*
X165241732Y-95389629D01*
X165292942Y-95356718D01*
X165363773Y-95311198D01*
X165392146Y-95278454D01*
X165458777Y-95201558D01*
X165519042Y-95069596D01*
X165539688Y-94926000D01*
X165528393Y-94847442D01*
X165522995Y-94809894D01*
X165534825Y-94763545D01*
X165575965Y-94739136D01*
X165584859Y-94738500D01*
X165621037Y-94738500D01*
X165621037Y-94738499D01*
X165760232Y-94697629D01*
X165831873Y-94651588D01*
X165882273Y-94619198D01*
X165882878Y-94618500D01*
X165977277Y-94509558D01*
X166037542Y-94377596D01*
X166058188Y-94234000D01*
X166037542Y-94090404D01*
X165977277Y-93958442D01*
X165959615Y-93938059D01*
X165882273Y-93848801D01*
X165773003Y-93778578D01*
X165745721Y-93739285D01*
X165754215Y-93692210D01*
X165773003Y-93673422D01*
X165882273Y-93603198D01*
X165882275Y-93603196D01*
X165977277Y-93493558D01*
X166037542Y-93361596D01*
X166058188Y-93218000D01*
X166037542Y-93074404D01*
X165977277Y-92942442D01*
X165977274Y-92942438D01*
X165882273Y-92832801D01*
X165760236Y-92754373D01*
X165760227Y-92754369D01*
X165636244Y-92717964D01*
X165598997Y-92687949D01*
X165591988Y-92649103D01*
X165609688Y-92526000D01*
X165589042Y-92382404D01*
X165528777Y-92250442D01*
X165486802Y-92202000D01*
X165433773Y-92140801D01*
X165311736Y-92062373D01*
X165311727Y-92062369D01*
X165172538Y-92021500D01*
X165172536Y-92021500D01*
X165027464Y-92021500D01*
X165027462Y-92021500D01*
X164888272Y-92062369D01*
X164888263Y-92062373D01*
X164766226Y-92140801D01*
X164671225Y-92250438D01*
X164671222Y-92250443D01*
X164610958Y-92382402D01*
X164610957Y-92382405D01*
X164590312Y-92526000D01*
X164610957Y-92669594D01*
X164610958Y-92669597D01*
X164671222Y-92801556D01*
X164671225Y-92801561D01*
X164766226Y-92911198D01*
X164886662Y-92988597D01*
X164888268Y-92989629D01*
X164913120Y-92996926D01*
X165012255Y-93026035D01*
X165049502Y-93056050D01*
X165056511Y-93094897D01*
X165038812Y-93217999D01*
X165059457Y-93361594D01*
X165059458Y-93361597D01*
X165119722Y-93493556D01*
X165119725Y-93493561D01*
X165214726Y-93603198D01*
X165323996Y-93673422D01*
X165351278Y-93712715D01*
X165342784Y-93759790D01*
X165323996Y-93778578D01*
X165214726Y-93848801D01*
X165119725Y-93958438D01*
X165119722Y-93958443D01*
X165059458Y-94090402D01*
X165059457Y-94090405D01*
X165038812Y-94234000D01*
X165055505Y-94350106D01*
X165043675Y-94396455D01*
X165002535Y-94420864D01*
X164993641Y-94421500D01*
X164957462Y-94421500D01*
X164818272Y-94462369D01*
X164818263Y-94462373D01*
X164696226Y-94540801D01*
X164601225Y-94650438D01*
X164601222Y-94650443D01*
X164540958Y-94782402D01*
X164540957Y-94782405D01*
X164520312Y-94926000D01*
X159983147Y-94926000D01*
X159932082Y-94780063D01*
X159923650Y-94766644D01*
X159841625Y-94636101D01*
X159721398Y-94515874D01*
X159577443Y-94425421D01*
X159577439Y-94425419D01*
X159577438Y-94425418D01*
X159577437Y-94425418D01*
X159416954Y-94369263D01*
X159416950Y-94369262D01*
X159343622Y-94361000D01*
X161288312Y-94361000D01*
X161308957Y-94504594D01*
X161308958Y-94504597D01*
X161369222Y-94636556D01*
X161369225Y-94636561D01*
X161464226Y-94746198D01*
X161586263Y-94824626D01*
X161586268Y-94824629D01*
X161725461Y-94865499D01*
X161725463Y-94865500D01*
X161725464Y-94865500D01*
X161870537Y-94865500D01*
X161870537Y-94865499D01*
X162009732Y-94824629D01*
X162055535Y-94795192D01*
X162131773Y-94746198D01*
X162131775Y-94746196D01*
X162226777Y-94636558D01*
X162287042Y-94504596D01*
X162307688Y-94361000D01*
X162287042Y-94217404D01*
X162242813Y-94120556D01*
X162226780Y-94085448D01*
X162226777Y-94085443D01*
X162226777Y-94085442D01*
X162226773Y-94085438D01*
X162224732Y-94082262D01*
X162216234Y-94035187D01*
X162230073Y-94007537D01*
X162246485Y-93988597D01*
X162290277Y-93938058D01*
X162350542Y-93806096D01*
X162371188Y-93662500D01*
X162350542Y-93518904D01*
X162319277Y-93450443D01*
X162290280Y-93386948D01*
X162290277Y-93386943D01*
X162290277Y-93386942D01*
X162290273Y-93386938D01*
X162288232Y-93383762D01*
X162279734Y-93336687D01*
X162293573Y-93309037D01*
X162307970Y-93292422D01*
X162353777Y-93239558D01*
X162414042Y-93107596D01*
X162434688Y-92964000D01*
X162414042Y-92820404D01*
X162353777Y-92688442D01*
X162297874Y-92623927D01*
X162282768Y-92578542D01*
X162297874Y-92542072D01*
X162353777Y-92477558D01*
X162414042Y-92345596D01*
X162434688Y-92202000D01*
X162414042Y-92058404D01*
X162353777Y-91926442D01*
X162314192Y-91880758D01*
X162258773Y-91816801D01*
X162136736Y-91738373D01*
X162136727Y-91738369D01*
X161997538Y-91697500D01*
X161997536Y-91697500D01*
X161852464Y-91697500D01*
X161852462Y-91697500D01*
X161713272Y-91738369D01*
X161713263Y-91738373D01*
X161591226Y-91816801D01*
X161496225Y-91926438D01*
X161496222Y-91926443D01*
X161435958Y-92058402D01*
X161435957Y-92058405D01*
X161415312Y-92202000D01*
X161435957Y-92345594D01*
X161435958Y-92345597D01*
X161496222Y-92477556D01*
X161496225Y-92477561D01*
X161552123Y-92542071D01*
X161567230Y-92587459D01*
X161552123Y-92623929D01*
X161496225Y-92688438D01*
X161496222Y-92688443D01*
X161435958Y-92820402D01*
X161435957Y-92820405D01*
X161415312Y-92964000D01*
X161435957Y-93107594D01*
X161435958Y-93107597D01*
X161496223Y-93239559D01*
X161498270Y-93242744D01*
X161506764Y-93289819D01*
X161492926Y-93317463D01*
X161432725Y-93386938D01*
X161432722Y-93386943D01*
X161372458Y-93518902D01*
X161372457Y-93518905D01*
X161351812Y-93662500D01*
X161372457Y-93806094D01*
X161372458Y-93806097D01*
X161432723Y-93938059D01*
X161434770Y-93941244D01*
X161443264Y-93988319D01*
X161429426Y-94015963D01*
X161369225Y-94085438D01*
X161369222Y-94085443D01*
X161308958Y-94217402D01*
X161308957Y-94217405D01*
X161288312Y-94361000D01*
X159343622Y-94361000D01*
X159248000Y-94350226D01*
X159079049Y-94369262D01*
X159079045Y-94369263D01*
X158918560Y-94425419D01*
X158918556Y-94425421D01*
X158774601Y-94515874D01*
X158774600Y-94515875D01*
X158657194Y-94633282D01*
X158613000Y-94651588D01*
X158568806Y-94633282D01*
X158451398Y-94515874D01*
X158307443Y-94425421D01*
X158307439Y-94425419D01*
X158307438Y-94425418D01*
X158307437Y-94425418D01*
X158146954Y-94369263D01*
X158146950Y-94369262D01*
X157978000Y-94350226D01*
X157809049Y-94369262D01*
X157809045Y-94369263D01*
X157648560Y-94425419D01*
X157648556Y-94425421D01*
X157504601Y-94515874D01*
X157384374Y-94636101D01*
X157293921Y-94780056D01*
X157293919Y-94780060D01*
X157237763Y-94940545D01*
X157237762Y-94940549D01*
X157218726Y-95109500D01*
X157237762Y-95278450D01*
X157237763Y-95278454D01*
X157291282Y-95431405D01*
X157293919Y-95438939D01*
X157293921Y-95438943D01*
X157384374Y-95582898D01*
X157501782Y-95700306D01*
X157520088Y-95744500D01*
X157501782Y-95788694D01*
X157384375Y-95906100D01*
X157384374Y-95906101D01*
X157293921Y-96050056D01*
X157293919Y-96050060D01*
X157237763Y-96210545D01*
X157237762Y-96210549D01*
X157218726Y-96379500D01*
X157237762Y-96548450D01*
X157237763Y-96548454D01*
X157291282Y-96701405D01*
X157293919Y-96708939D01*
X157293921Y-96708943D01*
X157384374Y-96852898D01*
X157501782Y-96970306D01*
X157520088Y-97014500D01*
X157501782Y-97058694D01*
X157384375Y-97176100D01*
X157384374Y-97176101D01*
X157293921Y-97320056D01*
X157293919Y-97320060D01*
X157237763Y-97480545D01*
X157237762Y-97480549D01*
X157218726Y-97649500D01*
X157237762Y-97818450D01*
X157237763Y-97818454D01*
X157293251Y-97977032D01*
X157293919Y-97978939D01*
X157293921Y-97978943D01*
X157384374Y-98122898D01*
X157501782Y-98240306D01*
X157520088Y-98284500D01*
X157501782Y-98328694D01*
X157384375Y-98446100D01*
X157384374Y-98446101D01*
X157293921Y-98590056D01*
X157293919Y-98590060D01*
X157237763Y-98750545D01*
X157237762Y-98750549D01*
X157218726Y-98919500D01*
X157237762Y-99088450D01*
X157237763Y-99088454D01*
X157287771Y-99231371D01*
X157293919Y-99248939D01*
X157293921Y-99248943D01*
X157384374Y-99392898D01*
X157501782Y-99510306D01*
X157520088Y-99554500D01*
X157501782Y-99598694D01*
X157384375Y-99716100D01*
X157384374Y-99716101D01*
X157293921Y-99860056D01*
X157293919Y-99860060D01*
X157237763Y-100020545D01*
X157237762Y-100020549D01*
X157218726Y-100189500D01*
X151132279Y-100189500D01*
X151142227Y-100183107D01*
X151209773Y-100139698D01*
X151246288Y-100097558D01*
X151304777Y-100030058D01*
X151365042Y-99898096D01*
X151385688Y-99754500D01*
X151365042Y-99610904D01*
X151304777Y-99478942D01*
X151289137Y-99460892D01*
X151209773Y-99369301D01*
X151087736Y-99290873D01*
X151087727Y-99290869D01*
X150948538Y-99250000D01*
X150948536Y-99250000D01*
X150803464Y-99250000D01*
X150803462Y-99250000D01*
X150664272Y-99290869D01*
X150664263Y-99290873D01*
X150542226Y-99369301D01*
X150447225Y-99478938D01*
X150447223Y-99478940D01*
X150405046Y-99571296D01*
X150370035Y-99603891D01*
X150322230Y-99602184D01*
X150300960Y-99586261D01*
X150240773Y-99516801D01*
X150118736Y-99438373D01*
X150118727Y-99438369D01*
X149979538Y-99397500D01*
X149979536Y-99397500D01*
X149834464Y-99397500D01*
X149834462Y-99397500D01*
X149695272Y-99438369D01*
X149695263Y-99438373D01*
X149573226Y-99516801D01*
X149478225Y-99626438D01*
X149478222Y-99626443D01*
X149417958Y-99758402D01*
X149417957Y-99758405D01*
X149397312Y-99902000D01*
X145409930Y-99902000D01*
X145396042Y-99805404D01*
X145335777Y-99673442D01*
X145328462Y-99665000D01*
X145240773Y-99563801D01*
X145118736Y-99485373D01*
X145118727Y-99485369D01*
X144979538Y-99444500D01*
X144979536Y-99444500D01*
X144834464Y-99444500D01*
X144778635Y-99460892D01*
X144731074Y-99455778D01*
X144704177Y-99426887D01*
X144700777Y-99419442D01*
X144700773Y-99419438D01*
X144700773Y-99419436D01*
X144605773Y-99309801D01*
X144483736Y-99231373D01*
X144483727Y-99231369D01*
X144344538Y-99190500D01*
X144344536Y-99190500D01*
X144328348Y-99190500D01*
X144284154Y-99172194D01*
X144278300Y-99160500D01*
X146402812Y-99160500D01*
X146423457Y-99304094D01*
X146423458Y-99304097D01*
X146483722Y-99436056D01*
X146483725Y-99436061D01*
X146578726Y-99545698D01*
X146700763Y-99624126D01*
X146700768Y-99624129D01*
X146822040Y-99659737D01*
X146839961Y-99664999D01*
X146839963Y-99665000D01*
X146839964Y-99665000D01*
X146985037Y-99665000D01*
X146985037Y-99664999D01*
X147124232Y-99624129D01*
X147188586Y-99582771D01*
X147246273Y-99545698D01*
X147271310Y-99516804D01*
X147341277Y-99436058D01*
X147401542Y-99304096D01*
X147422188Y-99160500D01*
X147401542Y-99016904D01*
X147341277Y-98884942D01*
X147338246Y-98881444D01*
X147246273Y-98775301D01*
X147124236Y-98696873D01*
X147124227Y-98696869D01*
X146985038Y-98656000D01*
X146985036Y-98656000D01*
X146839964Y-98656000D01*
X146839962Y-98656000D01*
X146700772Y-98696869D01*
X146700763Y-98696873D01*
X146578726Y-98775301D01*
X146483725Y-98884938D01*
X146483722Y-98884943D01*
X146423458Y-99016902D01*
X146423457Y-99016905D01*
X146402812Y-99160500D01*
X144278300Y-99160500D01*
X144266484Y-99136895D01*
X144260304Y-99093912D01*
X144253042Y-99043404D01*
X144192777Y-98911442D01*
X144181451Y-98898371D01*
X144097773Y-98801801D01*
X143975736Y-98723373D01*
X143975727Y-98723369D01*
X143836538Y-98682500D01*
X143836536Y-98682500D01*
X143691464Y-98682500D01*
X143691462Y-98682500D01*
X143552272Y-98723369D01*
X143552263Y-98723373D01*
X143430226Y-98801801D01*
X143335225Y-98911438D01*
X143335222Y-98911443D01*
X143312852Y-98960427D01*
X143277842Y-98993023D01*
X143230037Y-98991316D01*
X143199148Y-98960427D01*
X143184706Y-98928804D01*
X143176777Y-98911442D01*
X143165451Y-98898371D01*
X143081773Y-98801801D01*
X142959736Y-98723373D01*
X142959727Y-98723369D01*
X142820538Y-98682500D01*
X142820536Y-98682500D01*
X142675464Y-98682500D01*
X142675462Y-98682500D01*
X142536272Y-98723369D01*
X142536263Y-98723373D01*
X142414226Y-98801801D01*
X142319225Y-98911438D01*
X142319221Y-98911444D01*
X142308308Y-98935339D01*
X142273296Y-98967934D01*
X142225492Y-98966225D01*
X142217667Y-98961952D01*
X142118736Y-98898373D01*
X142118727Y-98898369D01*
X141979538Y-98857500D01*
X141979536Y-98857500D01*
X141834464Y-98857500D01*
X141834462Y-98857500D01*
X141695272Y-98898369D01*
X141695263Y-98898373D01*
X141573226Y-98976801D01*
X141478225Y-99086438D01*
X141478222Y-99086442D01*
X141474811Y-99093912D01*
X141439799Y-99126506D01*
X141391994Y-99124797D01*
X141361108Y-99093909D01*
X141344023Y-99056499D01*
X141335777Y-99038442D01*
X141335774Y-99038438D01*
X141240773Y-98928801D01*
X141118736Y-98850373D01*
X141118727Y-98850369D01*
X140979538Y-98809500D01*
X140979536Y-98809500D01*
X140834464Y-98809500D01*
X140834462Y-98809500D01*
X140746999Y-98835181D01*
X140699438Y-98830068D01*
X140669423Y-98792821D01*
X140672538Y-98749250D01*
X140697042Y-98695596D01*
X140717688Y-98552000D01*
X140697042Y-98408404D01*
X140636777Y-98276442D01*
X140636774Y-98276438D01*
X140541773Y-98166801D01*
X140419736Y-98088373D01*
X140419727Y-98088369D01*
X140280538Y-98047500D01*
X140280536Y-98047500D01*
X140264348Y-98047500D01*
X140220154Y-98029194D01*
X140202484Y-97993895D01*
X140194060Y-97935306D01*
X140189130Y-97901019D01*
X140200960Y-97854672D01*
X140217200Y-97839551D01*
X140287775Y-97794196D01*
X140382777Y-97684558D01*
X140443042Y-97552596D01*
X140463688Y-97409000D01*
X140443042Y-97265404D01*
X140382777Y-97133442D01*
X140382774Y-97133438D01*
X140287773Y-97023801D01*
X140165736Y-96945373D01*
X140165727Y-96945369D01*
X140026538Y-96904500D01*
X140026536Y-96904500D01*
X139881464Y-96904500D01*
X139881462Y-96904500D01*
X139742272Y-96945369D01*
X139742263Y-96945373D01*
X139620226Y-97023801D01*
X139525225Y-97133438D01*
X139525222Y-97133443D01*
X139464958Y-97265402D01*
X139464957Y-97265405D01*
X139444312Y-97408999D01*
X139464869Y-97551977D01*
X139453039Y-97598327D01*
X139436796Y-97613450D01*
X139366223Y-97658805D01*
X139271225Y-97768438D01*
X139271222Y-97768443D01*
X139210958Y-97900402D01*
X139210957Y-97900405D01*
X139190312Y-98044000D01*
X138868622Y-98044000D01*
X138858777Y-98022442D01*
X138858774Y-98022438D01*
X138763773Y-97912801D01*
X138640017Y-97833268D01*
X138612735Y-97793975D01*
X138621229Y-97746900D01*
X138634150Y-97733994D01*
X138633396Y-97733124D01*
X138636770Y-97730198D01*
X138636775Y-97730196D01*
X138731777Y-97620558D01*
X138792042Y-97488596D01*
X138803486Y-97409000D01*
X138804334Y-97403105D01*
X138828743Y-97361966D01*
X138866198Y-97349500D01*
X138883537Y-97349500D01*
X138883537Y-97349499D01*
X139022732Y-97308629D01*
X139068535Y-97279192D01*
X139144773Y-97230198D01*
X139158809Y-97214000D01*
X139239777Y-97120558D01*
X139300042Y-96988596D01*
X139320688Y-96845000D01*
X139300042Y-96701404D01*
X139239777Y-96569442D01*
X139221591Y-96548454D01*
X139144773Y-96459801D01*
X139022736Y-96381373D01*
X139022727Y-96381369D01*
X138883538Y-96340500D01*
X138883536Y-96340500D01*
X138738464Y-96340500D01*
X138738462Y-96340500D01*
X138599272Y-96381369D01*
X138599263Y-96381373D01*
X138477226Y-96459801D01*
X138382225Y-96569438D01*
X138382222Y-96569443D01*
X138321958Y-96701402D01*
X138321957Y-96701405D01*
X138309666Y-96786895D01*
X138285257Y-96828034D01*
X138247802Y-96840500D01*
X138230462Y-96840500D01*
X138091272Y-96881369D01*
X138091263Y-96881373D01*
X137969226Y-96959801D01*
X137874225Y-97069438D01*
X137874222Y-97069443D01*
X137813958Y-97201402D01*
X137813957Y-97201405D01*
X137793312Y-97345000D01*
X135895500Y-97345000D01*
X135895500Y-95575000D01*
X142944312Y-95575000D01*
X142964957Y-95718594D01*
X142964958Y-95718597D01*
X143025222Y-95850556D01*
X143025225Y-95850561D01*
X143120226Y-95960198D01*
X143242263Y-96038626D01*
X143242268Y-96038629D01*
X143381461Y-96079499D01*
X143381463Y-96079500D01*
X143381464Y-96079500D01*
X143526537Y-96079500D01*
X143526537Y-96079499D01*
X143665732Y-96038629D01*
X143753901Y-95981966D01*
X143787773Y-95960198D01*
X143787775Y-95960196D01*
X143882777Y-95850558D01*
X143943042Y-95718596D01*
X143963688Y-95575000D01*
X143943042Y-95431404D01*
X143909265Y-95357444D01*
X143907559Y-95309641D01*
X143932328Y-95278904D01*
X143970775Y-95254196D01*
X144065777Y-95144558D01*
X144075622Y-95123000D01*
X150366312Y-95123000D01*
X150386957Y-95266594D01*
X150386958Y-95266597D01*
X150447222Y-95398556D01*
X150447225Y-95398561D01*
X150542226Y-95508198D01*
X150663222Y-95585957D01*
X150664268Y-95586629D01*
X150741967Y-95609443D01*
X150803461Y-95627499D01*
X150803463Y-95627500D01*
X150803464Y-95627500D01*
X150948537Y-95627500D01*
X150948537Y-95627499D01*
X151087732Y-95586629D01*
X151152374Y-95545086D01*
X151209773Y-95508198D01*
X151209775Y-95508196D01*
X151304777Y-95398558D01*
X151365042Y-95266596D01*
X151385688Y-95123000D01*
X151365042Y-94979404D01*
X151304777Y-94847442D01*
X151304774Y-94847438D01*
X151209773Y-94737801D01*
X151087736Y-94659373D01*
X151087727Y-94659369D01*
X150948538Y-94618500D01*
X150948536Y-94618500D01*
X150803464Y-94618500D01*
X150803462Y-94618500D01*
X150664272Y-94659369D01*
X150664263Y-94659373D01*
X150542226Y-94737801D01*
X150447225Y-94847438D01*
X150447222Y-94847443D01*
X150386958Y-94979402D01*
X150386957Y-94979405D01*
X150366312Y-95123000D01*
X144075622Y-95123000D01*
X144126042Y-95012596D01*
X144146688Y-94869000D01*
X144126042Y-94725404D01*
X144065777Y-94593442D01*
X144020166Y-94540804D01*
X143970773Y-94483801D01*
X143848736Y-94405373D01*
X143848727Y-94405369D01*
X143709538Y-94364500D01*
X143709536Y-94364500D01*
X143564464Y-94364500D01*
X143564462Y-94364500D01*
X143425272Y-94405369D01*
X143425263Y-94405373D01*
X143303226Y-94483801D01*
X143208225Y-94593438D01*
X143208222Y-94593443D01*
X143147958Y-94725402D01*
X143147957Y-94725405D01*
X143127312Y-94869000D01*
X143147957Y-95012594D01*
X143147958Y-95012597D01*
X143181733Y-95086554D01*
X143183440Y-95134359D01*
X143158672Y-95165095D01*
X143120223Y-95189805D01*
X143025225Y-95299438D01*
X143025222Y-95299443D01*
X142964958Y-95431402D01*
X142964957Y-95431405D01*
X142944312Y-95575000D01*
X135895500Y-95575000D01*
X135895500Y-92345000D01*
X137904312Y-92345000D01*
X137924957Y-92488594D01*
X137924958Y-92488597D01*
X137985222Y-92620556D01*
X137985225Y-92620561D01*
X138080226Y-92730198D01*
X138185048Y-92797563D01*
X138212330Y-92836856D01*
X138203836Y-92883931D01*
X138185048Y-92902719D01*
X138096226Y-92959801D01*
X138001225Y-93069438D01*
X138001222Y-93069443D01*
X137940958Y-93201402D01*
X137940957Y-93201405D01*
X137920312Y-93345000D01*
X137940957Y-93488594D01*
X137940958Y-93488597D01*
X138001222Y-93620556D01*
X138001225Y-93620561D01*
X138096226Y-93730198D01*
X138193048Y-93792422D01*
X138220330Y-93831715D01*
X138211836Y-93878790D01*
X138193048Y-93897578D01*
X138096226Y-93959801D01*
X138001225Y-94069438D01*
X138001222Y-94069443D01*
X137940958Y-94201402D01*
X137940957Y-94201405D01*
X137920312Y-94345000D01*
X137940957Y-94488594D01*
X137940958Y-94488597D01*
X138001222Y-94620556D01*
X138001225Y-94620561D01*
X138096226Y-94730198D01*
X138218263Y-94808626D01*
X138218268Y-94808629D01*
X138357461Y-94849499D01*
X138357463Y-94849500D01*
X138357464Y-94849500D01*
X138502537Y-94849500D01*
X138502537Y-94849499D01*
X138641732Y-94808629D01*
X138698727Y-94772000D01*
X138763773Y-94730198D01*
X138788251Y-94701949D01*
X138858777Y-94620558D01*
X138919042Y-94488596D01*
X138928125Y-94425421D01*
X138931334Y-94403105D01*
X138955743Y-94361966D01*
X138993198Y-94349500D01*
X139002537Y-94349500D01*
X139002537Y-94349499D01*
X139141732Y-94308629D01*
X139198727Y-94272000D01*
X139263773Y-94230198D01*
X139280130Y-94211321D01*
X139358777Y-94120558D01*
X139419042Y-93988596D01*
X139439688Y-93845000D01*
X139422578Y-93726000D01*
X148334312Y-93726000D01*
X148354957Y-93869594D01*
X148354958Y-93869597D01*
X148415222Y-94001556D01*
X148415225Y-94001561D01*
X148510226Y-94111198D01*
X148617506Y-94180142D01*
X148632268Y-94189629D01*
X148771461Y-94230499D01*
X148771463Y-94230500D01*
X148771464Y-94230500D01*
X148916537Y-94230500D01*
X148916537Y-94230499D01*
X149055732Y-94189629D01*
X149143599Y-94133160D01*
X149177773Y-94111198D01*
X149177775Y-94111196D01*
X149272777Y-94001558D01*
X149295148Y-93952571D01*
X149330158Y-93919976D01*
X149377963Y-93921683D01*
X149408851Y-93952571D01*
X149419234Y-93975306D01*
X149431222Y-94001556D01*
X149431225Y-94001561D01*
X149526226Y-94111198D01*
X149633506Y-94180142D01*
X149648268Y-94189629D01*
X149787461Y-94230499D01*
X149787463Y-94230500D01*
X149787464Y-94230500D01*
X149932537Y-94230500D01*
X149932537Y-94230499D01*
X150071732Y-94189629D01*
X150159599Y-94133160D01*
X150193773Y-94111198D01*
X150193775Y-94111196D01*
X150288777Y-94001558D01*
X150349042Y-93869596D01*
X150369688Y-93726000D01*
X150349042Y-93582404D01*
X150288777Y-93450442D01*
X150288774Y-93450438D01*
X150193773Y-93340801D01*
X150071736Y-93262373D01*
X150071727Y-93262369D01*
X149932538Y-93221500D01*
X149932536Y-93221500D01*
X149787464Y-93221500D01*
X149787462Y-93221500D01*
X149648272Y-93262369D01*
X149648263Y-93262373D01*
X149526226Y-93340801D01*
X149431225Y-93450438D01*
X149431222Y-93450443D01*
X149408852Y-93499427D01*
X149373842Y-93532023D01*
X149326037Y-93530316D01*
X149295148Y-93499427D01*
X149272777Y-93450443D01*
X149272777Y-93450442D01*
X149272774Y-93450438D01*
X149177773Y-93340801D01*
X149055736Y-93262373D01*
X149055727Y-93262369D01*
X148916538Y-93221500D01*
X148916536Y-93221500D01*
X148771464Y-93221500D01*
X148771462Y-93221500D01*
X148632272Y-93262369D01*
X148632263Y-93262373D01*
X148510226Y-93340801D01*
X148415225Y-93450438D01*
X148415222Y-93450443D01*
X148354958Y-93582402D01*
X148354957Y-93582405D01*
X148334312Y-93726000D01*
X139422578Y-93726000D01*
X139419042Y-93701404D01*
X139358777Y-93569442D01*
X139358774Y-93569438D01*
X139263773Y-93459801D01*
X139166951Y-93397578D01*
X139139669Y-93358285D01*
X139148163Y-93311210D01*
X139166951Y-93292422D01*
X139263773Y-93230198D01*
X139274343Y-93218000D01*
X139358777Y-93120558D01*
X139419042Y-92988596D01*
X139439688Y-92845000D01*
X139419042Y-92701404D01*
X139358777Y-92569442D01*
X139358774Y-92569438D01*
X139263773Y-92459801D01*
X139170951Y-92400148D01*
X139143669Y-92360855D01*
X139152163Y-92313780D01*
X139170947Y-92294994D01*
X139271775Y-92230196D01*
X139366777Y-92120558D01*
X139427042Y-91988596D01*
X139447688Y-91845000D01*
X139427042Y-91701404D01*
X139366777Y-91569442D01*
X139366774Y-91569438D01*
X139271773Y-91459801D01*
X139149736Y-91381373D01*
X139149727Y-91381369D01*
X139010538Y-91340500D01*
X139010536Y-91340500D01*
X138997799Y-91340500D01*
X138953605Y-91322194D01*
X138935935Y-91286895D01*
X138919042Y-91169405D01*
X138919041Y-91169402D01*
X138858777Y-91037443D01*
X138858777Y-91037442D01*
X138767411Y-90932000D01*
X138763773Y-90927801D01*
X138641736Y-90849373D01*
X138641727Y-90849369D01*
X138626847Y-90845000D01*
X149350312Y-90845000D01*
X149370957Y-90988594D01*
X149370958Y-90988597D01*
X149431222Y-91120556D01*
X149431225Y-91120561D01*
X149526226Y-91230198D01*
X149648263Y-91308626D01*
X149648268Y-91308629D01*
X149787461Y-91349499D01*
X149787463Y-91349500D01*
X149787464Y-91349500D01*
X149932537Y-91349500D01*
X149932537Y-91349499D01*
X150071732Y-91308629D01*
X150117535Y-91279192D01*
X150193773Y-91230198D01*
X150213391Y-91207558D01*
X150288777Y-91120558D01*
X150349042Y-90988596D01*
X150361334Y-90903105D01*
X150385743Y-90861966D01*
X150423198Y-90849500D01*
X150567537Y-90849500D01*
X150567537Y-90849499D01*
X150706732Y-90808629D01*
X150752535Y-90779192D01*
X150828773Y-90730198D01*
X150828775Y-90730196D01*
X150923777Y-90620558D01*
X150984042Y-90488596D01*
X151004688Y-90345000D01*
X150984042Y-90201404D01*
X150923777Y-90069442D01*
X150919545Y-90064558D01*
X150828773Y-89959801D01*
X150706736Y-89881373D01*
X150706727Y-89881369D01*
X150567538Y-89840500D01*
X150567536Y-89840500D01*
X150550198Y-89840500D01*
X150506004Y-89822194D01*
X150489388Y-89789000D01*
X160526312Y-89789000D01*
X160546957Y-89932594D01*
X160546958Y-89932597D01*
X160607222Y-90064556D01*
X160607225Y-90064561D01*
X160702226Y-90174198D01*
X160824263Y-90252626D01*
X160824268Y-90252629D01*
X160867334Y-90265274D01*
X160963461Y-90293499D01*
X160963463Y-90293500D01*
X160963464Y-90293500D01*
X161108537Y-90293500D01*
X161108537Y-90293499D01*
X161247732Y-90252629D01*
X161297260Y-90220799D01*
X161369773Y-90174198D01*
X161416250Y-90120561D01*
X161464777Y-90064558D01*
X161474622Y-90043000D01*
X164971312Y-90043000D01*
X164991957Y-90186594D01*
X164991958Y-90186597D01*
X165052222Y-90318556D01*
X165052225Y-90318561D01*
X165147226Y-90428198D01*
X165252855Y-90496081D01*
X165269268Y-90506629D01*
X165406094Y-90546804D01*
X165408461Y-90547499D01*
X165408463Y-90547500D01*
X165408464Y-90547500D01*
X165553537Y-90547500D01*
X165553537Y-90547499D01*
X165692732Y-90506629D01*
X165760375Y-90463157D01*
X165814773Y-90428198D01*
X165831604Y-90408774D01*
X165909777Y-90318558D01*
X165970042Y-90186596D01*
X165990688Y-90043000D01*
X165970042Y-89899404D01*
X165909777Y-89767442D01*
X165877505Y-89730198D01*
X165814773Y-89657801D01*
X165692736Y-89579373D01*
X165692727Y-89579369D01*
X165553538Y-89538500D01*
X165553536Y-89538500D01*
X165408464Y-89538500D01*
X165408462Y-89538500D01*
X165269272Y-89579369D01*
X165269263Y-89579373D01*
X165147226Y-89657801D01*
X165052225Y-89767438D01*
X165052222Y-89767443D01*
X164991958Y-89899402D01*
X164991957Y-89899405D01*
X164971312Y-90043000D01*
X161474622Y-90043000D01*
X161525042Y-89932596D01*
X161545688Y-89789000D01*
X161525042Y-89645404D01*
X161464777Y-89513442D01*
X161443248Y-89488596D01*
X161369773Y-89403801D01*
X161247736Y-89325373D01*
X161247727Y-89325369D01*
X161108538Y-89284500D01*
X161108536Y-89284500D01*
X160963464Y-89284500D01*
X160963462Y-89284500D01*
X160824272Y-89325369D01*
X160824263Y-89325373D01*
X160702226Y-89403801D01*
X160607225Y-89513438D01*
X160607222Y-89513443D01*
X160546958Y-89645402D01*
X160546957Y-89645405D01*
X160526312Y-89789000D01*
X150489388Y-89789000D01*
X150488334Y-89786895D01*
X150476042Y-89701405D01*
X150476041Y-89701402D01*
X150469315Y-89686674D01*
X150415777Y-89569442D01*
X150415774Y-89569438D01*
X150320773Y-89459801D01*
X150198736Y-89381373D01*
X150198727Y-89381369D01*
X150059538Y-89340500D01*
X150059536Y-89340500D01*
X149914464Y-89340500D01*
X149914462Y-89340500D01*
X149775272Y-89381369D01*
X149775263Y-89381373D01*
X149653226Y-89459801D01*
X149558225Y-89569438D01*
X149558222Y-89569443D01*
X149497958Y-89701402D01*
X149497957Y-89701405D01*
X149477312Y-89845000D01*
X149497957Y-89988594D01*
X149497958Y-89988597D01*
X149558222Y-90120556D01*
X149558225Y-90120561D01*
X149653226Y-90230198D01*
X149698001Y-90258973D01*
X149725283Y-90298266D01*
X149716789Y-90345341D01*
X149681820Y-90371519D01*
X149648270Y-90381370D01*
X149648263Y-90381373D01*
X149526226Y-90459801D01*
X149431225Y-90569438D01*
X149431222Y-90569443D01*
X149370958Y-90701402D01*
X149370957Y-90701405D01*
X149350312Y-90845000D01*
X138626847Y-90845000D01*
X138502538Y-90808500D01*
X138502536Y-90808500D01*
X138357464Y-90808500D01*
X138357462Y-90808500D01*
X138218272Y-90849369D01*
X138218263Y-90849373D01*
X138096226Y-90927801D01*
X138001225Y-91037438D01*
X138001222Y-91037443D01*
X137940958Y-91169402D01*
X137940957Y-91169405D01*
X137920312Y-91313000D01*
X137940957Y-91456594D01*
X137940958Y-91456597D01*
X138001222Y-91588556D01*
X138001225Y-91588561D01*
X138096226Y-91698198D01*
X138210607Y-91771706D01*
X138237889Y-91810999D01*
X138229395Y-91858074D01*
X138205768Y-91878549D01*
X138206028Y-91878954D01*
X138203219Y-91880758D01*
X138202789Y-91881132D01*
X138202270Y-91881369D01*
X138080226Y-91959801D01*
X137985225Y-92069438D01*
X137985222Y-92069443D01*
X137924958Y-92201402D01*
X137924957Y-92201405D01*
X137904312Y-92345000D01*
X135895500Y-92345000D01*
X135895500Y-89345000D01*
X138936312Y-89345000D01*
X138956957Y-89488594D01*
X138956958Y-89488597D01*
X139017222Y-89620556D01*
X139017225Y-89620561D01*
X139112226Y-89730198D01*
X139234263Y-89808626D01*
X139234268Y-89808629D01*
X139373461Y-89849499D01*
X139373463Y-89849500D01*
X139373464Y-89849500D01*
X139518537Y-89849500D01*
X139518537Y-89849499D01*
X139657732Y-89808629D01*
X139721826Y-89767438D01*
X139779773Y-89730198D01*
X139804723Y-89701405D01*
X139817487Y-89686673D01*
X139860262Y-89665262D01*
X139905650Y-89680369D01*
X139911955Y-89686674D01*
X140001226Y-89789698D01*
X140123263Y-89868126D01*
X140123268Y-89868129D01*
X140229776Y-89899402D01*
X140262461Y-89908999D01*
X140262463Y-89909000D01*
X140262464Y-89909000D01*
X140407537Y-89909000D01*
X140407537Y-89908999D01*
X140546732Y-89868129D01*
X140618208Y-89822194D01*
X140668773Y-89789698D01*
X140688058Y-89767442D01*
X140763777Y-89680058D01*
X140824042Y-89548096D01*
X140844688Y-89404500D01*
X140824042Y-89260904D01*
X140792941Y-89192803D01*
X148500115Y-89192803D01*
X148520760Y-89336397D01*
X148520761Y-89336400D01*
X148581025Y-89468359D01*
X148581028Y-89468364D01*
X148676029Y-89578001D01*
X148798066Y-89656429D01*
X148798071Y-89656432D01*
X148937264Y-89697302D01*
X148937266Y-89697303D01*
X148937267Y-89697303D01*
X149082340Y-89697303D01*
X149082340Y-89697302D01*
X149221535Y-89656432D01*
X149284636Y-89615879D01*
X149343576Y-89578001D01*
X149350992Y-89569443D01*
X149438580Y-89468361D01*
X149498845Y-89336399D01*
X149519491Y-89192803D01*
X149519491Y-89192801D01*
X149519491Y-89192597D01*
X149519536Y-89192488D01*
X149520127Y-89188378D01*
X149521176Y-89188528D01*
X149537797Y-89148403D01*
X149581991Y-89130097D01*
X149599599Y-89132629D01*
X149660461Y-89150499D01*
X149660463Y-89150500D01*
X149660464Y-89150500D01*
X149805537Y-89150500D01*
X149805537Y-89150499D01*
X149944732Y-89109629D01*
X150017560Y-89062825D01*
X150066773Y-89031198D01*
X150163870Y-88919143D01*
X150206645Y-88897731D01*
X150252033Y-88912838D01*
X150267956Y-88934109D01*
X150320222Y-89048556D01*
X150320225Y-89048561D01*
X150415226Y-89158198D01*
X150537263Y-89236626D01*
X150537268Y-89236629D01*
X150676461Y-89277499D01*
X150676463Y-89277500D01*
X150676464Y-89277500D01*
X150821537Y-89277500D01*
X150821537Y-89277499D01*
X150960732Y-89236629D01*
X151018975Y-89199198D01*
X151082773Y-89158198D01*
X151082775Y-89158196D01*
X151177777Y-89048558D01*
X151238042Y-88916596D01*
X151258688Y-88773000D01*
X151238042Y-88629404D01*
X151177777Y-88497442D01*
X151170112Y-88488596D01*
X151082773Y-88387801D01*
X150960736Y-88309373D01*
X150960727Y-88309369D01*
X150821538Y-88268500D01*
X150821536Y-88268500D01*
X150676464Y-88268500D01*
X150676462Y-88268500D01*
X150537272Y-88309369D01*
X150537263Y-88309373D01*
X150415226Y-88387801D01*
X150318129Y-88499856D01*
X150275353Y-88521268D01*
X150229966Y-88506161D01*
X150214044Y-88484892D01*
X150161777Y-88370442D01*
X150161774Y-88370438D01*
X150066773Y-88260801D01*
X149944736Y-88182373D01*
X149944727Y-88182369D01*
X149805538Y-88141500D01*
X149805536Y-88141500D01*
X149660464Y-88141500D01*
X149660462Y-88141500D01*
X149521272Y-88182369D01*
X149521263Y-88182373D01*
X149399226Y-88260801D01*
X149304225Y-88370438D01*
X149304222Y-88370443D01*
X149243958Y-88502402D01*
X149243957Y-88502405D01*
X149223312Y-88646001D01*
X149223312Y-88646205D01*
X149223267Y-88646313D01*
X149222676Y-88650425D01*
X149221626Y-88650274D01*
X149205006Y-88690399D01*
X149160812Y-88708705D01*
X149143205Y-88706174D01*
X149082339Y-88688303D01*
X148937267Y-88688303D01*
X148937265Y-88688303D01*
X148798075Y-88729172D01*
X148798066Y-88729176D01*
X148676029Y-88807604D01*
X148581028Y-88917241D01*
X148581025Y-88917246D01*
X148520761Y-89049205D01*
X148520760Y-89049208D01*
X148500115Y-89192803D01*
X140792941Y-89192803D01*
X140763777Y-89128942D01*
X140763774Y-89128938D01*
X140668773Y-89019301D01*
X140546736Y-88940873D01*
X140546727Y-88940869D01*
X140407538Y-88900000D01*
X140407536Y-88900000D01*
X140262464Y-88900000D01*
X140262462Y-88900000D01*
X140123272Y-88940869D01*
X140123263Y-88940873D01*
X140001226Y-89019301D01*
X139963513Y-89062825D01*
X139920737Y-89084237D01*
X139875350Y-89069130D01*
X139869045Y-89062825D01*
X139779773Y-88959801D01*
X139682951Y-88897578D01*
X139655669Y-88858285D01*
X139664163Y-88811210D01*
X139682951Y-88792422D01*
X139779773Y-88730198D01*
X139780659Y-88729176D01*
X139874777Y-88620558D01*
X139935042Y-88488596D01*
X139955688Y-88345000D01*
X139935042Y-88201404D01*
X139874777Y-88069442D01*
X139850235Y-88041119D01*
X139779773Y-87959801D01*
X139661824Y-87884000D01*
X141095312Y-87884000D01*
X141115957Y-88027594D01*
X141115958Y-88027597D01*
X141176222Y-88159556D01*
X141176225Y-88159561D01*
X141271226Y-88269198D01*
X141389177Y-88345000D01*
X141393268Y-88347629D01*
X141530094Y-88387804D01*
X141532461Y-88388499D01*
X141532463Y-88388500D01*
X141532464Y-88388500D01*
X141677537Y-88388500D01*
X141677537Y-88388499D01*
X141816732Y-88347629D01*
X141876265Y-88309369D01*
X141938773Y-88269198D01*
X141939378Y-88268500D01*
X142033777Y-88159558D01*
X142094042Y-88027596D01*
X142114688Y-87884000D01*
X142094042Y-87740404D01*
X142033777Y-87608442D01*
X142033774Y-87608438D01*
X141942411Y-87503000D01*
X144016312Y-87503000D01*
X144036957Y-87646594D01*
X144036958Y-87646597D01*
X144097222Y-87778556D01*
X144097225Y-87778561D01*
X144192226Y-87888198D01*
X144303648Y-87959804D01*
X144314268Y-87966629D01*
X144453461Y-88007499D01*
X144453463Y-88007500D01*
X144453464Y-88007500D01*
X144598537Y-88007500D01*
X144598537Y-88007499D01*
X144737732Y-87966629D01*
X144807462Y-87921816D01*
X144859773Y-87888198D01*
X144865689Y-87881371D01*
X144954777Y-87778558D01*
X145015042Y-87646596D01*
X145030854Y-87536620D01*
X145280580Y-87536620D01*
X145301225Y-87680214D01*
X145301226Y-87680217D01*
X145361490Y-87812176D01*
X145361493Y-87812181D01*
X145456494Y-87921818D01*
X145576015Y-87998629D01*
X145578536Y-88000249D01*
X145712215Y-88039500D01*
X145717729Y-88041119D01*
X145717731Y-88041120D01*
X145717732Y-88041120D01*
X145862805Y-88041120D01*
X145862805Y-88041119D01*
X146002000Y-88000249D01*
X146064938Y-87959801D01*
X146124041Y-87921818D01*
X146124043Y-87921816D01*
X146219045Y-87812178D01*
X146279310Y-87680216D01*
X146299956Y-87536620D01*
X146279310Y-87393024D01*
X146219045Y-87261062D01*
X146219042Y-87261058D01*
X146208594Y-87249000D01*
X146429312Y-87249000D01*
X146449957Y-87392594D01*
X146449958Y-87392597D01*
X146510222Y-87524556D01*
X146510225Y-87524561D01*
X146605226Y-87634198D01*
X146727263Y-87712626D01*
X146727268Y-87712629D01*
X146821866Y-87740405D01*
X146866461Y-87753499D01*
X146866463Y-87753500D01*
X146866464Y-87753500D01*
X147011535Y-87753500D01*
X147011536Y-87753500D01*
X147025086Y-87749521D01*
X147072647Y-87754631D01*
X147102664Y-87791876D01*
X147099550Y-87835450D01*
X147084957Y-87867405D01*
X147064312Y-88011000D01*
X147084957Y-88154594D01*
X147084958Y-88154597D01*
X147145222Y-88286556D01*
X147145225Y-88286561D01*
X147240226Y-88396198D01*
X147362263Y-88474626D01*
X147362268Y-88474629D01*
X147499094Y-88514804D01*
X147501461Y-88515499D01*
X147501463Y-88515500D01*
X147501464Y-88515500D01*
X147646537Y-88515500D01*
X147646537Y-88515499D01*
X147785732Y-88474629D01*
X147845265Y-88436369D01*
X147907773Y-88396198D01*
X147908378Y-88395500D01*
X148002777Y-88286558D01*
X148063042Y-88154596D01*
X148083688Y-88011000D01*
X148063042Y-87867404D01*
X148002777Y-87735442D01*
X148002774Y-87735438D01*
X147907773Y-87625801D01*
X147785736Y-87547373D01*
X147785727Y-87547369D01*
X147646538Y-87506500D01*
X147646536Y-87506500D01*
X147501464Y-87506500D01*
X147501462Y-87506500D01*
X147487910Y-87510479D01*
X147440348Y-87505366D01*
X147410334Y-87468119D01*
X147413450Y-87424547D01*
X147428042Y-87392596D01*
X147430428Y-87376000D01*
X149350312Y-87376000D01*
X149370957Y-87519594D01*
X149370958Y-87519597D01*
X149431222Y-87651556D01*
X149431225Y-87651561D01*
X149526226Y-87761198D01*
X149643550Y-87836597D01*
X149648268Y-87839629D01*
X149742866Y-87867405D01*
X149787461Y-87880499D01*
X149787463Y-87880500D01*
X149787464Y-87880500D01*
X149932537Y-87880500D01*
X149932537Y-87880499D01*
X150071732Y-87839629D01*
X150117535Y-87810192D01*
X150193773Y-87761198D01*
X150193775Y-87761196D01*
X150288777Y-87651558D01*
X150349042Y-87519596D01*
X150369688Y-87376000D01*
X150351428Y-87249000D01*
X153922312Y-87249000D01*
X153942957Y-87392594D01*
X153942958Y-87392597D01*
X154003222Y-87524556D01*
X154003225Y-87524561D01*
X154098226Y-87634198D01*
X154220263Y-87712626D01*
X154220268Y-87712629D01*
X154314866Y-87740405D01*
X154359461Y-87753499D01*
X154359463Y-87753500D01*
X154359464Y-87753500D01*
X154504537Y-87753500D01*
X154504537Y-87753499D01*
X154643732Y-87712629D01*
X154696688Y-87678596D01*
X154765773Y-87634198D01*
X154765775Y-87634196D01*
X154860777Y-87524558D01*
X154921042Y-87392596D01*
X154941688Y-87249000D01*
X154921042Y-87105404D01*
X154884324Y-87025002D01*
X155807663Y-87025002D01*
X155826991Y-87319894D01*
X155826993Y-87319911D01*
X155884648Y-87609760D01*
X155946468Y-87791876D01*
X155979645Y-87889611D01*
X156110357Y-88154669D01*
X156110358Y-88154671D01*
X156274549Y-88400400D01*
X156299459Y-88428804D01*
X156469407Y-88622593D01*
X156602030Y-88738900D01*
X156691599Y-88817450D01*
X156691601Y-88817451D01*
X156691603Y-88817453D01*
X156937331Y-88981643D01*
X157202389Y-89112355D01*
X157482241Y-89207352D01*
X157772097Y-89265008D01*
X157999518Y-89279914D01*
X158066998Y-89284337D01*
X158067000Y-89284337D01*
X158067002Y-89284337D01*
X158120618Y-89280822D01*
X158361903Y-89265008D01*
X158651759Y-89207352D01*
X158931611Y-89112355D01*
X159196669Y-88981643D01*
X159442397Y-88817453D01*
X159664593Y-88622593D01*
X159859453Y-88400397D01*
X160023643Y-88154669D01*
X160154355Y-87889611D01*
X160221095Y-87693000D01*
X166368312Y-87693000D01*
X166388957Y-87836594D01*
X166388958Y-87836597D01*
X166449222Y-87968556D01*
X166449225Y-87968561D01*
X166544226Y-88078198D01*
X166663106Y-88154597D01*
X166666268Y-88156629D01*
X166801493Y-88196334D01*
X166805461Y-88197499D01*
X166805463Y-88197500D01*
X166805464Y-88197500D01*
X166950537Y-88197500D01*
X166950537Y-88197499D01*
X167089732Y-88156629D01*
X167135535Y-88127192D01*
X167211773Y-88078198D01*
X167211775Y-88078196D01*
X167306777Y-87968558D01*
X167367042Y-87836596D01*
X167387688Y-87693000D01*
X167367042Y-87549404D01*
X167306777Y-87417442D01*
X167285248Y-87392596D01*
X167211773Y-87307801D01*
X167089736Y-87229373D01*
X167089727Y-87229369D01*
X166950538Y-87188500D01*
X166950536Y-87188500D01*
X166805464Y-87188500D01*
X166805462Y-87188500D01*
X166666272Y-87229369D01*
X166666263Y-87229373D01*
X166544226Y-87307801D01*
X166449225Y-87417438D01*
X166449222Y-87417443D01*
X166388958Y-87549402D01*
X166388957Y-87549405D01*
X166368312Y-87693000D01*
X160221095Y-87693000D01*
X160249352Y-87609759D01*
X160307008Y-87319903D01*
X160323191Y-87072993D01*
X160326337Y-87025002D01*
X160326337Y-87024997D01*
X160316276Y-86871500D01*
X160307008Y-86730097D01*
X160249352Y-86440241D01*
X160154355Y-86160389D01*
X160023643Y-85895332D01*
X159859453Y-85649603D01*
X159859451Y-85649601D01*
X159859450Y-85649599D01*
X159787411Y-85567455D01*
X159664593Y-85427407D01*
X159514687Y-85295943D01*
X159442400Y-85232549D01*
X159196671Y-85068358D01*
X159193917Y-85067000D01*
X158931611Y-84937645D01*
X158875583Y-84918626D01*
X158651760Y-84842648D01*
X158361911Y-84784993D01*
X158361894Y-84784991D01*
X158067002Y-84765663D01*
X158066998Y-84765663D01*
X157772105Y-84784991D01*
X157772088Y-84784993D01*
X157482239Y-84842648D01*
X157202391Y-84937644D01*
X156937329Y-85068358D01*
X156691599Y-85232549D01*
X156469407Y-85427407D01*
X156274549Y-85649599D01*
X156110358Y-85895329D01*
X155979644Y-86160391D01*
X155884648Y-86440239D01*
X155826993Y-86730088D01*
X155826991Y-86730105D01*
X155807663Y-87024997D01*
X155807663Y-87025002D01*
X154884324Y-87025002D01*
X154860777Y-86973442D01*
X154860774Y-86973438D01*
X154765773Y-86863801D01*
X154643736Y-86785373D01*
X154643727Y-86785369D01*
X154504538Y-86744500D01*
X154504536Y-86744500D01*
X154359464Y-86744500D01*
X154359462Y-86744500D01*
X154220272Y-86785369D01*
X154220263Y-86785373D01*
X154098226Y-86863801D01*
X154003225Y-86973438D01*
X154003222Y-86973443D01*
X153942958Y-87105402D01*
X153942957Y-87105405D01*
X153922312Y-87249000D01*
X150351428Y-87249000D01*
X150349042Y-87232404D01*
X150288777Y-87100442D01*
X150288774Y-87100438D01*
X150193773Y-86990801D01*
X150071736Y-86912373D01*
X150071727Y-86912369D01*
X149932538Y-86871500D01*
X149932536Y-86871500D01*
X149787464Y-86871500D01*
X149787462Y-86871500D01*
X149648272Y-86912369D01*
X149648263Y-86912373D01*
X149526226Y-86990801D01*
X149431225Y-87100438D01*
X149431222Y-87100443D01*
X149370958Y-87232402D01*
X149370957Y-87232405D01*
X149350312Y-87376000D01*
X147430428Y-87376000D01*
X147448688Y-87249000D01*
X147428042Y-87105404D01*
X147367777Y-86973442D01*
X147367774Y-86973438D01*
X147272773Y-86863801D01*
X147150736Y-86785373D01*
X147150727Y-86785369D01*
X147011538Y-86744500D01*
X147011536Y-86744500D01*
X146866464Y-86744500D01*
X146866462Y-86744500D01*
X146727272Y-86785369D01*
X146727263Y-86785373D01*
X146605226Y-86863801D01*
X146510225Y-86973438D01*
X146510222Y-86973443D01*
X146449958Y-87105402D01*
X146449957Y-87105405D01*
X146429312Y-87249000D01*
X146208594Y-87249000D01*
X146124041Y-87151421D01*
X146002004Y-87072993D01*
X146001995Y-87072989D01*
X145862806Y-87032120D01*
X145862804Y-87032120D01*
X145717732Y-87032120D01*
X145717730Y-87032120D01*
X145578540Y-87072989D01*
X145578531Y-87072993D01*
X145456494Y-87151421D01*
X145361493Y-87261058D01*
X145361490Y-87261063D01*
X145301226Y-87393022D01*
X145301225Y-87393025D01*
X145280580Y-87536620D01*
X145030854Y-87536620D01*
X145035688Y-87503000D01*
X145015042Y-87359404D01*
X144954777Y-87227442D01*
X144954774Y-87227438D01*
X144859773Y-87117801D01*
X144737736Y-87039373D01*
X144737727Y-87039369D01*
X144598538Y-86998500D01*
X144598536Y-86998500D01*
X144453464Y-86998500D01*
X144453462Y-86998500D01*
X144314272Y-87039369D01*
X144314263Y-87039373D01*
X144192226Y-87117801D01*
X144097225Y-87227438D01*
X144097222Y-87227443D01*
X144036958Y-87359402D01*
X144036957Y-87359405D01*
X144016312Y-87503000D01*
X141942411Y-87503000D01*
X141938773Y-87498801D01*
X141816736Y-87420373D01*
X141816727Y-87420369D01*
X141677538Y-87379500D01*
X141677536Y-87379500D01*
X141532464Y-87379500D01*
X141532462Y-87379500D01*
X141393272Y-87420369D01*
X141393263Y-87420373D01*
X141271226Y-87498801D01*
X141176225Y-87608438D01*
X141176222Y-87608443D01*
X141115958Y-87740402D01*
X141115957Y-87740405D01*
X141095312Y-87884000D01*
X139661824Y-87884000D01*
X139657736Y-87881373D01*
X139657727Y-87881369D01*
X139518538Y-87840500D01*
X139518536Y-87840500D01*
X139373464Y-87840500D01*
X139373462Y-87840500D01*
X139234272Y-87881369D01*
X139234263Y-87881373D01*
X139112226Y-87959801D01*
X139017225Y-88069438D01*
X139017222Y-88069443D01*
X138956958Y-88201402D01*
X138956957Y-88201405D01*
X138936312Y-88345000D01*
X138956957Y-88488594D01*
X138956958Y-88488597D01*
X139017222Y-88620556D01*
X139017225Y-88620561D01*
X139112226Y-88730198D01*
X139209048Y-88792422D01*
X139236330Y-88831715D01*
X139227836Y-88878790D01*
X139209048Y-88897578D01*
X139112226Y-88959801D01*
X139017225Y-89069438D01*
X139017222Y-89069443D01*
X138956958Y-89201402D01*
X138956957Y-89201405D01*
X138936312Y-89345000D01*
X135895500Y-89345000D01*
X135895500Y-86868000D01*
X137920312Y-86868000D01*
X137940957Y-87011594D01*
X137940958Y-87011597D01*
X138001222Y-87143556D01*
X138001225Y-87143561D01*
X138096226Y-87253198D01*
X138218263Y-87331626D01*
X138218268Y-87331629D01*
X138312866Y-87359405D01*
X138357461Y-87372499D01*
X138357463Y-87372500D01*
X138357464Y-87372500D01*
X138502537Y-87372500D01*
X138502537Y-87372499D01*
X138641732Y-87331629D01*
X138687535Y-87302192D01*
X138763773Y-87253198D01*
X138767411Y-87249000D01*
X138858777Y-87143558D01*
X138919042Y-87011596D01*
X138921428Y-86995000D01*
X140206312Y-86995000D01*
X140226957Y-87138594D01*
X140226958Y-87138597D01*
X140287222Y-87270556D01*
X140287225Y-87270561D01*
X140382226Y-87380198D01*
X140504263Y-87458626D01*
X140504268Y-87458629D01*
X140641094Y-87498804D01*
X140643461Y-87499499D01*
X140643463Y-87499500D01*
X140643464Y-87499500D01*
X140788537Y-87499500D01*
X140788537Y-87499499D01*
X140927732Y-87458629D01*
X140991826Y-87417438D01*
X141049773Y-87380198D01*
X141053411Y-87376000D01*
X141144777Y-87270558D01*
X141205042Y-87138596D01*
X141225688Y-86995000D01*
X141205042Y-86851404D01*
X141144777Y-86719442D01*
X141144774Y-86719438D01*
X141049773Y-86609801D01*
X140927736Y-86531373D01*
X140927727Y-86531369D01*
X140788538Y-86490500D01*
X140788536Y-86490500D01*
X140643464Y-86490500D01*
X140643462Y-86490500D01*
X140504272Y-86531369D01*
X140504263Y-86531373D01*
X140382226Y-86609801D01*
X140287225Y-86719438D01*
X140287222Y-86719443D01*
X140226958Y-86851402D01*
X140226957Y-86851405D01*
X140206312Y-86995000D01*
X138921428Y-86995000D01*
X138939688Y-86868000D01*
X138919042Y-86724404D01*
X138858777Y-86592442D01*
X138858774Y-86592438D01*
X138763773Y-86482801D01*
X138641736Y-86404373D01*
X138641727Y-86404369D01*
X138502538Y-86363500D01*
X138502536Y-86363500D01*
X138357464Y-86363500D01*
X138357462Y-86363500D01*
X138218272Y-86404369D01*
X138218263Y-86404373D01*
X138096226Y-86482801D01*
X138001225Y-86592438D01*
X138001222Y-86592443D01*
X137940958Y-86724402D01*
X137940957Y-86724405D01*
X137920312Y-86868000D01*
X135895500Y-86868000D01*
X135895500Y-86131893D01*
X135895500Y-86131888D01*
X135894308Y-86101562D01*
X135888171Y-86075999D01*
X135876045Y-86025489D01*
X135883528Y-85978243D01*
X135919209Y-85950931D01*
X135974732Y-85934629D01*
X136035879Y-85895332D01*
X136096773Y-85856198D01*
X136098328Y-85854404D01*
X136191777Y-85746558D01*
X136252042Y-85614596D01*
X136272688Y-85471000D01*
X136252042Y-85327404D01*
X136191777Y-85195442D01*
X136183859Y-85186304D01*
X136096773Y-85085801D01*
X135974736Y-85007373D01*
X135974727Y-85007369D01*
X135835538Y-84966500D01*
X135835536Y-84966500D01*
X135690464Y-84966500D01*
X135690462Y-84966500D01*
X135551272Y-85007369D01*
X135551263Y-85007373D01*
X135429226Y-85085801D01*
X135334225Y-85195438D01*
X135334222Y-85195443D01*
X135273958Y-85327402D01*
X135273957Y-85327405D01*
X135253312Y-85471000D01*
X135260516Y-85521106D01*
X135248686Y-85567455D01*
X135207546Y-85591864D01*
X135198652Y-85592500D01*
X132613888Y-85592500D01*
X132595692Y-85593215D01*
X132583558Y-85593692D01*
X132583557Y-85593692D01*
X132465984Y-85621919D01*
X132465982Y-85621920D01*
X132465980Y-85621920D01*
X132465979Y-85621921D01*
X132459090Y-85624774D01*
X132421777Y-85640229D01*
X132394229Y-85652931D01*
X132394224Y-85652933D01*
X132296394Y-85724010D01*
X132296389Y-85724015D01*
X132206024Y-85814381D01*
X132206011Y-85814394D01*
X132206009Y-85814397D01*
X132185410Y-85836681D01*
X132185409Y-85836683D01*
X132185403Y-85836690D01*
X132122227Y-85939784D01*
X132103918Y-85983986D01*
X132093418Y-86012448D01*
X132093415Y-86012458D01*
X132074501Y-86131876D01*
X132074500Y-86131890D01*
X132074500Y-88196341D01*
X132078900Y-88254487D01*
X132081075Y-88268776D01*
X132069626Y-88315221D01*
X132036895Y-88338147D01*
X131995267Y-88350370D01*
X131873226Y-88428801D01*
X131778225Y-88538438D01*
X131778223Y-88538441D01*
X131760996Y-88576163D01*
X131725985Y-88608759D01*
X131678180Y-88607051D01*
X131656910Y-88591128D01*
X131590773Y-88514801D01*
X131468736Y-88436373D01*
X131468727Y-88436369D01*
X131329538Y-88395500D01*
X131329536Y-88395500D01*
X131184464Y-88395500D01*
X131184462Y-88395500D01*
X131045272Y-88436369D01*
X131045263Y-88436373D01*
X130923226Y-88514801D01*
X130828225Y-88624438D01*
X130828222Y-88624443D01*
X130767958Y-88756402D01*
X130767957Y-88756405D01*
X130747312Y-88900000D01*
X130767957Y-89043594D01*
X130767958Y-89043597D01*
X130828222Y-89175556D01*
X130828225Y-89175561D01*
X130923226Y-89285198D01*
X131045263Y-89363626D01*
X131045268Y-89363629D01*
X131182094Y-89403804D01*
X131184461Y-89404499D01*
X131184463Y-89404500D01*
X131184464Y-89404500D01*
X131329537Y-89404500D01*
X131329537Y-89404499D01*
X131468732Y-89363629D01*
X131534692Y-89321239D01*
X131590773Y-89285198D01*
X131597332Y-89277629D01*
X131685777Y-89175558D01*
X131703003Y-89137837D01*
X131738013Y-89105242D01*
X131785818Y-89106949D01*
X131807089Y-89122872D01*
X131873226Y-89199198D01*
X131995067Y-89277500D01*
X131995268Y-89277629D01*
X132041574Y-89291225D01*
X132078820Y-89321239D01*
X132085697Y-89360970D01*
X132074500Y-89431662D01*
X132074500Y-92896000D01*
X132056194Y-92940194D01*
X132012000Y-92958500D01*
X127570500Y-92958500D01*
X127526306Y-92940194D01*
X127508000Y-92896000D01*
X127508000Y-92810006D01*
X127523265Y-92769078D01*
X127555777Y-92731558D01*
X127616042Y-92599596D01*
X127636688Y-92456000D01*
X127616042Y-92312404D01*
X127565622Y-92202000D01*
X127555778Y-92180444D01*
X127555776Y-92180441D01*
X127523265Y-92142920D01*
X127508000Y-92101992D01*
X127508000Y-86757211D01*
X127508636Y-86748317D01*
X127509688Y-86740999D01*
X127509688Y-86740998D01*
X127508636Y-86733681D01*
X127508000Y-86724788D01*
X127508000Y-85571500D01*
X130199812Y-85571500D01*
X130220457Y-85715094D01*
X130220458Y-85715097D01*
X130280722Y-85847056D01*
X130280725Y-85847061D01*
X130375726Y-85956698D01*
X130497763Y-86035126D01*
X130497768Y-86035129D01*
X130636961Y-86075999D01*
X130636963Y-86076000D01*
X130636964Y-86076000D01*
X130782037Y-86076000D01*
X130782037Y-86075999D01*
X130921232Y-86035129D01*
X130971983Y-86002513D01*
X131043273Y-85956698D01*
X131049026Y-85950059D01*
X131138277Y-85847058D01*
X131198542Y-85715096D01*
X131219188Y-85571500D01*
X131198542Y-85427904D01*
X131138277Y-85295942D01*
X131083345Y-85232547D01*
X131043273Y-85186301D01*
X130921236Y-85107873D01*
X130921227Y-85107869D01*
X130782038Y-85067000D01*
X130782036Y-85067000D01*
X130636964Y-85067000D01*
X130636962Y-85067000D01*
X130497772Y-85107869D01*
X130497763Y-85107873D01*
X130375726Y-85186301D01*
X130280725Y-85295938D01*
X130280722Y-85295943D01*
X130220458Y-85427902D01*
X130220457Y-85427905D01*
X130199812Y-85571500D01*
X127508000Y-85571500D01*
X127508000Y-84201000D01*
X143889312Y-84201000D01*
X143909957Y-84344594D01*
X143909958Y-84344597D01*
X143970222Y-84476556D01*
X143970225Y-84476561D01*
X144065226Y-84586198D01*
X144187263Y-84664626D01*
X144187268Y-84664629D01*
X144326461Y-84705499D01*
X144326463Y-84705500D01*
X144326464Y-84705500D01*
X144471537Y-84705500D01*
X144471537Y-84705499D01*
X144610732Y-84664629D01*
X144656535Y-84635192D01*
X144732773Y-84586198D01*
X144827774Y-84476561D01*
X144827777Y-84476558D01*
X144837622Y-84455000D01*
X162812312Y-84455000D01*
X162832957Y-84598594D01*
X162832958Y-84598597D01*
X162893222Y-84730556D01*
X162893225Y-84730561D01*
X162988226Y-84840198D01*
X163110263Y-84918626D01*
X163110268Y-84918629D01*
X163175032Y-84937645D01*
X163249461Y-84959499D01*
X163249463Y-84959500D01*
X163249464Y-84959500D01*
X163394537Y-84959500D01*
X163394537Y-84959499D01*
X163533732Y-84918629D01*
X163579535Y-84889192D01*
X163655773Y-84840198D01*
X163655775Y-84840196D01*
X163750777Y-84730558D01*
X163811042Y-84598596D01*
X163831688Y-84455000D01*
X163811042Y-84311404D01*
X163750777Y-84179442D01*
X163750774Y-84179438D01*
X163655773Y-84069801D01*
X163533736Y-83991373D01*
X163533727Y-83991369D01*
X163394538Y-83950500D01*
X163394536Y-83950500D01*
X163249464Y-83950500D01*
X163249462Y-83950500D01*
X163110272Y-83991369D01*
X163110263Y-83991373D01*
X162988226Y-84069801D01*
X162893225Y-84179438D01*
X162893222Y-84179443D01*
X162832958Y-84311402D01*
X162832957Y-84311405D01*
X162812312Y-84455000D01*
X144837622Y-84455000D01*
X144888042Y-84344596D01*
X144908688Y-84201000D01*
X144888042Y-84057404D01*
X144827777Y-83925442D01*
X144827774Y-83925438D01*
X144732773Y-83815801D01*
X144610736Y-83737373D01*
X144610727Y-83737369D01*
X144471538Y-83696500D01*
X144471536Y-83696500D01*
X144326464Y-83696500D01*
X144326462Y-83696500D01*
X144187272Y-83737369D01*
X144187263Y-83737373D01*
X144065226Y-83815801D01*
X143970225Y-83925438D01*
X143970222Y-83925443D01*
X143909958Y-84057402D01*
X143909957Y-84057405D01*
X143889312Y-84201000D01*
X127508000Y-84201000D01*
X127508000Y-82931000D01*
X143762312Y-82931000D01*
X143782957Y-83074594D01*
X143782958Y-83074597D01*
X143843222Y-83206556D01*
X143843225Y-83206561D01*
X143938226Y-83316198D01*
X144060263Y-83394626D01*
X144060268Y-83394629D01*
X144199461Y-83435499D01*
X144199463Y-83435500D01*
X144199464Y-83435500D01*
X144344537Y-83435500D01*
X144344537Y-83435499D01*
X144483732Y-83394629D01*
X144529535Y-83365192D01*
X144605773Y-83316198D01*
X144700774Y-83206561D01*
X144700777Y-83206558D01*
X144761042Y-83074596D01*
X144781688Y-82931000D01*
X144761042Y-82787404D01*
X144700777Y-82655442D01*
X144700774Y-82655438D01*
X144605773Y-82545801D01*
X144483736Y-82467373D01*
X144483727Y-82467369D01*
X144344538Y-82426500D01*
X144344536Y-82426500D01*
X144199464Y-82426500D01*
X144199462Y-82426500D01*
X144060272Y-82467369D01*
X144060263Y-82467373D01*
X143938226Y-82545801D01*
X143843225Y-82655438D01*
X143843222Y-82655443D01*
X143782958Y-82787402D01*
X143782957Y-82787405D01*
X143762312Y-82931000D01*
X127508000Y-82931000D01*
X127508000Y-78892888D01*
X127526306Y-78848694D01*
X127616694Y-78758306D01*
X127660888Y-78740000D01*
X167995112Y-78740000D01*
X168039306Y-78758306D01*
G37*
G04 #@! TD.AperFunction*
G04 #@! TD*
G04 #@! TA.AperFunction,Conductor*
G04 #@! TO.N,VSS*
G36*
X157625306Y-111651306D02*
G01*
X157715694Y-111741694D01*
X157734000Y-111785888D01*
X157734000Y-113893112D01*
X157715694Y-113937306D01*
X157625306Y-114027694D01*
X157581112Y-114046000D01*
X153949888Y-114046000D01*
X153905694Y-114027694D01*
X153815306Y-113937306D01*
X153797000Y-113893112D01*
X153797000Y-111785888D01*
X153815306Y-111741694D01*
X153905694Y-111651306D01*
X153949888Y-111633000D01*
X157581112Y-111633000D01*
X157625306Y-111651306D01*
G37*
G04 #@! TD.AperFunction*
G04 #@! TD*
G04 #@! TA.AperFunction,Conductor*
G04 #@! TO.N,+5V*
G36*
X112007875Y-80790306D02*
G01*
X112026181Y-80834500D01*
X112019369Y-80862874D01*
X112009347Y-80882543D01*
X112009343Y-80882551D01*
X111931107Y-81123336D01*
X111891500Y-81373406D01*
X111891500Y-81626593D01*
X111931107Y-81876663D01*
X112009343Y-82117448D01*
X112009344Y-82117451D01*
X112021947Y-82142185D01*
X112124287Y-82343038D01*
X112124290Y-82343042D01*
X112273104Y-82547867D01*
X112273111Y-82547875D01*
X112452124Y-82726888D01*
X112452132Y-82726895D01*
X112656962Y-82875713D01*
X112882550Y-82990656D01*
X113123342Y-83068894D01*
X113373408Y-83108500D01*
X113373410Y-83108500D01*
X113626590Y-83108500D01*
X113626592Y-83108500D01*
X113876658Y-83068894D01*
X114117450Y-82990656D01*
X114343038Y-82875713D01*
X114547868Y-82726895D01*
X114726895Y-82547868D01*
X114875713Y-82343038D01*
X114990656Y-82117450D01*
X115068894Y-81876658D01*
X115108500Y-81626592D01*
X115108500Y-81373408D01*
X115068894Y-81123342D01*
X114990656Y-80882550D01*
X114980631Y-80862874D01*
X114976878Y-80815186D01*
X115007945Y-80778812D01*
X115036319Y-80772000D01*
X120243112Y-80772000D01*
X120287306Y-80790306D01*
X120377694Y-80880694D01*
X120396000Y-80924888D01*
X120396000Y-81452421D01*
X120387627Y-81483670D01*
X120321973Y-81597388D01*
X120321973Y-81597389D01*
X120264713Y-81773614D01*
X120245344Y-81957900D01*
X120264713Y-82142185D01*
X120315828Y-82299500D01*
X120321974Y-82318413D01*
X120387627Y-82432129D01*
X120396000Y-82463377D01*
X120396000Y-85639146D01*
X120387627Y-85670395D01*
X120344273Y-85745487D01*
X120344273Y-85745489D01*
X120287013Y-85921714D01*
X120267644Y-86106000D01*
X120287013Y-86290285D01*
X120337660Y-86446160D01*
X120344274Y-86466513D01*
X120387627Y-86541604D01*
X120396000Y-86572852D01*
X120396000Y-89753946D01*
X120387627Y-89785195D01*
X120344273Y-89860287D01*
X120344273Y-89860289D01*
X120287013Y-90036514D01*
X120267644Y-90220800D01*
X120287013Y-90405085D01*
X120333895Y-90549372D01*
X120344274Y-90581313D01*
X120387627Y-90656404D01*
X120396000Y-90687652D01*
X120396000Y-93345000D01*
X120523000Y-93345000D01*
X120983578Y-93345000D01*
X121027772Y-93363306D01*
X121046078Y-93407500D01*
X121027772Y-93451694D01*
X120996572Y-93468634D01*
X120883705Y-93492623D01*
X120883689Y-93492629D01*
X120714423Y-93567992D01*
X120564508Y-93676911D01*
X120440522Y-93814614D01*
X120347872Y-93975091D01*
X120290613Y-94151314D01*
X120271244Y-94335600D01*
X120290613Y-94519885D01*
X120334787Y-94655838D01*
X120347874Y-94696113D01*
X120440523Y-94856587D01*
X120451700Y-94869000D01*
X120564508Y-94994288D01*
X120564511Y-94994290D01*
X120564512Y-94994291D01*
X120714422Y-95103207D01*
X120758878Y-95123000D01*
X120883689Y-95178570D01*
X120883693Y-95178571D01*
X120883701Y-95178575D01*
X120883704Y-95178575D01*
X120883705Y-95178576D01*
X121064951Y-95217100D01*
X121250249Y-95217100D01*
X121431494Y-95178576D01*
X121431493Y-95178576D01*
X121431499Y-95178575D01*
X121600778Y-95103207D01*
X121750688Y-94994291D01*
X121871154Y-94860499D01*
X121914329Y-94839906D01*
X121959420Y-94855873D01*
X121964039Y-94860492D01*
X121971700Y-94869000D01*
X122084508Y-94994288D01*
X122084511Y-94994290D01*
X122084512Y-94994291D01*
X122234422Y-95103207D01*
X122278878Y-95123000D01*
X122403689Y-95178570D01*
X122403693Y-95178571D01*
X122403701Y-95178575D01*
X122403704Y-95178575D01*
X122403705Y-95178576D01*
X122584951Y-95217100D01*
X122770249Y-95217100D01*
X122951494Y-95178576D01*
X122951493Y-95178576D01*
X122951499Y-95178575D01*
X123120778Y-95103207D01*
X123270688Y-94994291D01*
X123391154Y-94860499D01*
X123434329Y-94839906D01*
X123479420Y-94855873D01*
X123484039Y-94860492D01*
X123491700Y-94869000D01*
X123604508Y-94994288D01*
X123604511Y-94994290D01*
X123604512Y-94994291D01*
X123754422Y-95103207D01*
X123798878Y-95123000D01*
X123923689Y-95178570D01*
X123923693Y-95178571D01*
X123923701Y-95178575D01*
X123923704Y-95178575D01*
X123923705Y-95178576D01*
X124104951Y-95217100D01*
X124290249Y-95217100D01*
X124471494Y-95178576D01*
X124471493Y-95178576D01*
X124471499Y-95178575D01*
X124640778Y-95103207D01*
X124790688Y-94994291D01*
X124914677Y-94856587D01*
X125007326Y-94696113D01*
X125064587Y-94519884D01*
X125083956Y-94335600D01*
X125064587Y-94151316D01*
X125007326Y-93975087D01*
X124914677Y-93814613D01*
X124834890Y-93726000D01*
X124790691Y-93676911D01*
X124648718Y-93573762D01*
X124640778Y-93567993D01*
X124598955Y-93549372D01*
X124471510Y-93492629D01*
X124471494Y-93492623D01*
X124358628Y-93468634D01*
X124319205Y-93441540D01*
X124310488Y-93394506D01*
X124337582Y-93355083D01*
X124371622Y-93345000D01*
X132334000Y-93345000D01*
X132461000Y-93345000D01*
X132461000Y-89431664D01*
X132479306Y-89387470D01*
X132494452Y-89376324D01*
X132568368Y-89337531D01*
X132683156Y-89235838D01*
X132770272Y-89109628D01*
X132824653Y-88966238D01*
X132827737Y-88940838D01*
X132843138Y-88814003D01*
X132843138Y-88813996D01*
X132824654Y-88661769D01*
X132824653Y-88661766D01*
X132824653Y-88661762D01*
X132770272Y-88518372D01*
X132683156Y-88392162D01*
X132679022Y-88388500D01*
X132568368Y-88290469D01*
X132494454Y-88251675D01*
X132463830Y-88214927D01*
X132461000Y-88196334D01*
X132461000Y-86868003D01*
X133983862Y-86868003D01*
X134002345Y-87020230D01*
X134002346Y-87020233D01*
X134002347Y-87020238D01*
X134056728Y-87163628D01*
X134143844Y-87289838D01*
X134258632Y-87391531D01*
X134394422Y-87462799D01*
X134543322Y-87499500D01*
X134696678Y-87499500D01*
X134845578Y-87462799D01*
X134981368Y-87391531D01*
X135096156Y-87289838D01*
X135183272Y-87163628D01*
X135237653Y-87020238D01*
X135237654Y-87020230D01*
X135256138Y-86868003D01*
X135256138Y-86867996D01*
X135237654Y-86715769D01*
X135237653Y-86715766D01*
X135237653Y-86715762D01*
X135183272Y-86572372D01*
X135096156Y-86446162D01*
X135095264Y-86445372D01*
X134981367Y-86344468D01*
X134845580Y-86273202D01*
X134845579Y-86273201D01*
X134845578Y-86273201D01*
X134745385Y-86248505D01*
X134696679Y-86236500D01*
X134696678Y-86236500D01*
X134543322Y-86236500D01*
X134543320Y-86236500D01*
X134445907Y-86260510D01*
X134394422Y-86273201D01*
X134394421Y-86273201D01*
X134394419Y-86273202D01*
X134258632Y-86344468D01*
X134143845Y-86446160D01*
X134126376Y-86471469D01*
X134056728Y-86572372D01*
X134002347Y-86715762D01*
X134002346Y-86715764D01*
X134002346Y-86715766D01*
X134002345Y-86715769D01*
X133983862Y-86867996D01*
X133983862Y-86868003D01*
X132461000Y-86868003D01*
X132461000Y-86131888D01*
X132479306Y-86087694D01*
X132569694Y-85997306D01*
X132613888Y-85979000D01*
X135356112Y-85979000D01*
X135400306Y-85997306D01*
X135490694Y-86087694D01*
X135509000Y-86131888D01*
X135509000Y-98271732D01*
X135490694Y-98315926D01*
X135487945Y-98318514D01*
X135413845Y-98384160D01*
X135413844Y-98384162D01*
X135326728Y-98510372D01*
X135272347Y-98653762D01*
X135272346Y-98653764D01*
X135272346Y-98653766D01*
X135272345Y-98653769D01*
X135253862Y-98805996D01*
X135253862Y-98806003D01*
X135272345Y-98958230D01*
X135272346Y-98958233D01*
X135272347Y-98958238D01*
X135326728Y-99101628D01*
X135413844Y-99227838D01*
X135487945Y-99293485D01*
X135508886Y-99336493D01*
X135509000Y-99340267D01*
X135509000Y-102870000D01*
X146786112Y-102870000D01*
X146830306Y-102888306D01*
X146920694Y-102978694D01*
X146939000Y-103022888D01*
X146939000Y-106172000D01*
X165074112Y-106172000D01*
X165118306Y-106190306D01*
X165208694Y-106280694D01*
X165227000Y-106324888D01*
X165227000Y-111988112D01*
X165208694Y-112032306D01*
X165118306Y-112122694D01*
X165074112Y-112141000D01*
X160680888Y-112141000D01*
X160636694Y-112122694D01*
X160546306Y-112032306D01*
X160528000Y-111988112D01*
X160528000Y-111125000D01*
X160528000Y-110998000D01*
X160401000Y-110998000D01*
X153289000Y-110998000D01*
X153162000Y-110998000D01*
X153162000Y-111125000D01*
X153162000Y-111988112D01*
X153143694Y-112032306D01*
X153053306Y-112122694D01*
X153009112Y-112141000D01*
X140518265Y-112141000D01*
X140474071Y-112122694D01*
X140455765Y-112078500D01*
X140456221Y-112070966D01*
X140463138Y-112014002D01*
X140463138Y-112013998D01*
X140452599Y-111927202D01*
X140452282Y-111924594D01*
X140465127Y-111878516D01*
X140506792Y-111855017D01*
X140529280Y-111856376D01*
X140639322Y-111883500D01*
X140792678Y-111883500D01*
X140941578Y-111846799D01*
X141077368Y-111775531D01*
X141192156Y-111673838D01*
X141279272Y-111547628D01*
X141333653Y-111404238D01*
X141335687Y-111387483D01*
X141352138Y-111252003D01*
X141352138Y-111251996D01*
X141333654Y-111099769D01*
X141333653Y-111099766D01*
X141333653Y-111099762D01*
X141279272Y-110956372D01*
X141192156Y-110830162D01*
X141191264Y-110829372D01*
X141077367Y-110728468D01*
X140941580Y-110657202D01*
X140941579Y-110657201D01*
X140941578Y-110657201D01*
X140847457Y-110634002D01*
X140824515Y-110628347D01*
X140785986Y-110599996D01*
X140778789Y-110552705D01*
X140807140Y-110514176D01*
X140810405Y-110512333D01*
X140823368Y-110505531D01*
X140938156Y-110403838D01*
X141025272Y-110277628D01*
X141079653Y-110134238D01*
X141098138Y-109982000D01*
X141094474Y-109951825D01*
X141079654Y-109829769D01*
X141079653Y-109829766D01*
X141079653Y-109829762D01*
X141025272Y-109686372D01*
X140938156Y-109560162D01*
X140886318Y-109514238D01*
X140823367Y-109458468D01*
X140687580Y-109387202D01*
X140687579Y-109387201D01*
X140687578Y-109387201D01*
X140585319Y-109361996D01*
X140538679Y-109350500D01*
X140538678Y-109350500D01*
X140385322Y-109350500D01*
X140385320Y-109350500D01*
X140287907Y-109374510D01*
X140236422Y-109387201D01*
X140236421Y-109387201D01*
X140236419Y-109387202D01*
X140100632Y-109458468D01*
X139985845Y-109560160D01*
X139985844Y-109560162D01*
X139898728Y-109686372D01*
X139844347Y-109829762D01*
X139844346Y-109829764D01*
X139844346Y-109829766D01*
X139844345Y-109829769D01*
X139825862Y-109981996D01*
X139825862Y-109982003D01*
X139844345Y-110134230D01*
X139844346Y-110134233D01*
X139844347Y-110134238D01*
X139898728Y-110277628D01*
X139985844Y-110403838D01*
X140100632Y-110505531D01*
X140236422Y-110576799D01*
X140353483Y-110605652D01*
X140392012Y-110634002D01*
X140399210Y-110681293D01*
X140370860Y-110719822D01*
X140367574Y-110721676D01*
X140354631Y-110728469D01*
X140239845Y-110830160D01*
X140239844Y-110830162D01*
X140152728Y-110956372D01*
X140098347Y-111099762D01*
X140098346Y-111099764D01*
X140098346Y-111099766D01*
X140098345Y-111099769D01*
X140079862Y-111251996D01*
X140079862Y-111252003D01*
X140090717Y-111341405D01*
X140077872Y-111387483D01*
X140036206Y-111410982D01*
X140013716Y-111409622D01*
X139903681Y-111382500D01*
X139903678Y-111382500D01*
X139750322Y-111382500D01*
X139750320Y-111382500D01*
X139652907Y-111406510D01*
X139601422Y-111419201D01*
X139601421Y-111419201D01*
X139601419Y-111419202D01*
X139465632Y-111490468D01*
X139350845Y-111592160D01*
X139319363Y-111637770D01*
X139263728Y-111718372D01*
X139209347Y-111861762D01*
X139209346Y-111861764D01*
X139209346Y-111861766D01*
X139209345Y-111861769D01*
X139190862Y-112013996D01*
X139190862Y-112014002D01*
X139197779Y-112070966D01*
X139184934Y-112117045D01*
X139143269Y-112140544D01*
X139135735Y-112141000D01*
X132236147Y-112141000D01*
X132191953Y-112122694D01*
X132184711Y-112114004D01*
X132175158Y-112100164D01*
X132175154Y-112100160D01*
X132060367Y-111998468D01*
X131924580Y-111927202D01*
X131924579Y-111927201D01*
X131924578Y-111927201D01*
X131824385Y-111902505D01*
X131775679Y-111890500D01*
X131775678Y-111890500D01*
X131622322Y-111890500D01*
X131622320Y-111890500D01*
X131524907Y-111914510D01*
X131473422Y-111927201D01*
X131473421Y-111927201D01*
X131473419Y-111927202D01*
X131337632Y-111998468D01*
X131222845Y-112100160D01*
X131222841Y-112100164D01*
X131213289Y-112114004D01*
X131173118Y-112139976D01*
X131161853Y-112141000D01*
X120396000Y-112141000D01*
X120396000Y-112268000D01*
X120396000Y-114448981D01*
X120387627Y-114480230D01*
X120347873Y-114549087D01*
X120347873Y-114549089D01*
X120290613Y-114725314D01*
X120271244Y-114909600D01*
X120290613Y-115093885D01*
X120342642Y-115254013D01*
X120347874Y-115270113D01*
X120374367Y-115316000D01*
X120387627Y-115338967D01*
X120396000Y-115370217D01*
X120396000Y-118624411D01*
X120387627Y-118655660D01*
X120372773Y-118681387D01*
X120372773Y-118681389D01*
X120315513Y-118857614D01*
X120296144Y-119041900D01*
X120315513Y-119226185D01*
X120372773Y-119402410D01*
X120372774Y-119402414D01*
X120378453Y-119412250D01*
X120387626Y-119428139D01*
X120396000Y-119459387D01*
X120396000Y-121640112D01*
X120377694Y-121684306D01*
X120287306Y-121774694D01*
X120243112Y-121793000D01*
X109499888Y-121793000D01*
X109455694Y-121774694D01*
X109365306Y-121684306D01*
X109347000Y-121640112D01*
X109347000Y-119626592D01*
X111891500Y-119626592D01*
X111920470Y-119809507D01*
X111931107Y-119876663D01*
X112009343Y-120117448D01*
X112009344Y-120117451D01*
X112031965Y-120161846D01*
X112124287Y-120343038D01*
X112124290Y-120343042D01*
X112273104Y-120547867D01*
X112273111Y-120547875D01*
X112452124Y-120726888D01*
X112452132Y-120726895D01*
X112656962Y-120875713D01*
X112882550Y-120990656D01*
X113123342Y-121068894D01*
X113373408Y-121108500D01*
X113373410Y-121108500D01*
X113626590Y-121108500D01*
X113626592Y-121108500D01*
X113876658Y-121068894D01*
X114117450Y-120990656D01*
X114343038Y-120875713D01*
X114547868Y-120726895D01*
X114726895Y-120547868D01*
X114875713Y-120343038D01*
X114990656Y-120117450D01*
X115068894Y-119876658D01*
X115108500Y-119626592D01*
X115108500Y-119373408D01*
X115068894Y-119123342D01*
X114990656Y-118882550D01*
X114875713Y-118656962D01*
X114726895Y-118452132D01*
X114726888Y-118452124D01*
X114547875Y-118273111D01*
X114547867Y-118273104D01*
X114343042Y-118124290D01*
X114343038Y-118124287D01*
X114189391Y-118046000D01*
X114117451Y-118009344D01*
X114117448Y-118009343D01*
X113876663Y-117931107D01*
X113876659Y-117931106D01*
X113876658Y-117931106D01*
X113734668Y-117908617D01*
X113626593Y-117891500D01*
X113626592Y-117891500D01*
X113373408Y-117891500D01*
X113373406Y-117891500D01*
X113123336Y-117931107D01*
X112882551Y-118009343D01*
X112882548Y-118009344D01*
X112759139Y-118072225D01*
X112656962Y-118124287D01*
X112656959Y-118124288D01*
X112656957Y-118124290D01*
X112452132Y-118273104D01*
X112452124Y-118273111D01*
X112273111Y-118452124D01*
X112273104Y-118452132D01*
X112124290Y-118656957D01*
X112009344Y-118882548D01*
X112009343Y-118882551D01*
X111931107Y-119123336D01*
X111895398Y-119348799D01*
X111891500Y-119373408D01*
X111891500Y-119626592D01*
X109347000Y-119626592D01*
X109347000Y-114909600D01*
X111889644Y-114909600D01*
X111909013Y-115093885D01*
X111961042Y-115254013D01*
X111966274Y-115270113D01*
X112058923Y-115430587D01*
X112080905Y-115455000D01*
X112182908Y-115568288D01*
X112182911Y-115568290D01*
X112182912Y-115568291D01*
X112332822Y-115677207D01*
X112342395Y-115681469D01*
X112502089Y-115752570D01*
X112502093Y-115752571D01*
X112502101Y-115752575D01*
X112502104Y-115752575D01*
X112502105Y-115752576D01*
X112683351Y-115791100D01*
X112868649Y-115791100D01*
X113049894Y-115752576D01*
X113049893Y-115752576D01*
X113049899Y-115752575D01*
X113219178Y-115677207D01*
X113369088Y-115568291D01*
X113489554Y-115434499D01*
X113532729Y-115413906D01*
X113577820Y-115429873D01*
X113582439Y-115434492D01*
X113600905Y-115455000D01*
X113702908Y-115568288D01*
X113702911Y-115568290D01*
X113702912Y-115568291D01*
X113852822Y-115677207D01*
X113862395Y-115681469D01*
X114022089Y-115752570D01*
X114022093Y-115752571D01*
X114022101Y-115752575D01*
X114022104Y-115752575D01*
X114022105Y-115752576D01*
X114203351Y-115791100D01*
X114388649Y-115791100D01*
X114569894Y-115752576D01*
X114569893Y-115752576D01*
X114569899Y-115752575D01*
X114739178Y-115677207D01*
X114889088Y-115568291D01*
X115009554Y-115434499D01*
X115052729Y-115413906D01*
X115097820Y-115429873D01*
X115102439Y-115434492D01*
X115120905Y-115455000D01*
X115222908Y-115568288D01*
X115222911Y-115568290D01*
X115222912Y-115568291D01*
X115372822Y-115677207D01*
X115382395Y-115681469D01*
X115542089Y-115752570D01*
X115542093Y-115752571D01*
X115542101Y-115752575D01*
X115542104Y-115752575D01*
X115542105Y-115752576D01*
X115723351Y-115791100D01*
X115908649Y-115791100D01*
X116089894Y-115752576D01*
X116089893Y-115752576D01*
X116089899Y-115752575D01*
X116259178Y-115677207D01*
X116409088Y-115568291D01*
X116533077Y-115430587D01*
X116625726Y-115270113D01*
X116682987Y-115093884D01*
X116702356Y-114909600D01*
X116682987Y-114725316D01*
X116625726Y-114549087D01*
X116533077Y-114388613D01*
X116454182Y-114300991D01*
X116409091Y-114250911D01*
X116362928Y-114217372D01*
X116259178Y-114141993D01*
X116238528Y-114132799D01*
X116089910Y-114066629D01*
X116089894Y-114066623D01*
X115908649Y-114028100D01*
X115723351Y-114028100D01*
X115542105Y-114066623D01*
X115542089Y-114066629D01*
X115372823Y-114141992D01*
X115372822Y-114141993D01*
X115222912Y-114250909D01*
X115102445Y-114384700D01*
X115059271Y-114405293D01*
X115014179Y-114389326D01*
X115009560Y-114384707D01*
X114889088Y-114250909D01*
X114739178Y-114141993D01*
X114718528Y-114132799D01*
X114569910Y-114066629D01*
X114569894Y-114066623D01*
X114388649Y-114028100D01*
X114203351Y-114028100D01*
X114022105Y-114066623D01*
X114022089Y-114066629D01*
X113852823Y-114141992D01*
X113852822Y-114141993D01*
X113702912Y-114250909D01*
X113582445Y-114384700D01*
X113539271Y-114405293D01*
X113494179Y-114389326D01*
X113489560Y-114384707D01*
X113369088Y-114250909D01*
X113219178Y-114141993D01*
X113198528Y-114132799D01*
X113049910Y-114066629D01*
X113049894Y-114066623D01*
X112868649Y-114028100D01*
X112683351Y-114028100D01*
X112502105Y-114066623D01*
X112502089Y-114066629D01*
X112332823Y-114141992D01*
X112182908Y-114250911D01*
X112058922Y-114388614D01*
X112034273Y-114431308D01*
X111974145Y-114535455D01*
X111966272Y-114549091D01*
X111909013Y-114725314D01*
X111889644Y-114909600D01*
X109347000Y-114909600D01*
X109347000Y-110794800D01*
X111889644Y-110794800D01*
X111909013Y-110979085D01*
X111956425Y-111125003D01*
X111966274Y-111155313D01*
X112058923Y-111315787D01*
X112106211Y-111368306D01*
X112182908Y-111453488D01*
X112182911Y-111453490D01*
X112182912Y-111453491D01*
X112332822Y-111562407D01*
X112399653Y-111592162D01*
X112502089Y-111637770D01*
X112502093Y-111637771D01*
X112502101Y-111637775D01*
X112502104Y-111637775D01*
X112502105Y-111637776D01*
X112683351Y-111676300D01*
X112868649Y-111676300D01*
X112880232Y-111673838D01*
X113049899Y-111637775D01*
X113219178Y-111562407D01*
X113369088Y-111453491D01*
X113489554Y-111319699D01*
X113532729Y-111299106D01*
X113577820Y-111315073D01*
X113582439Y-111319692D01*
X113625629Y-111367659D01*
X113702908Y-111453488D01*
X113702911Y-111453490D01*
X113702912Y-111453491D01*
X113852822Y-111562407D01*
X113919653Y-111592162D01*
X114022089Y-111637770D01*
X114022093Y-111637771D01*
X114022101Y-111637775D01*
X114022104Y-111637775D01*
X114022105Y-111637776D01*
X114203351Y-111676300D01*
X114388649Y-111676300D01*
X114400232Y-111673838D01*
X114569899Y-111637775D01*
X114739178Y-111562407D01*
X114889088Y-111453491D01*
X115009554Y-111319699D01*
X115052729Y-111299106D01*
X115097820Y-111315073D01*
X115102439Y-111319692D01*
X115145629Y-111367659D01*
X115222908Y-111453488D01*
X115222911Y-111453490D01*
X115222912Y-111453491D01*
X115372822Y-111562407D01*
X115439653Y-111592162D01*
X115542089Y-111637770D01*
X115542093Y-111637771D01*
X115542101Y-111637775D01*
X115542104Y-111637775D01*
X115542105Y-111637776D01*
X115723351Y-111676300D01*
X115908649Y-111676300D01*
X115920232Y-111673838D01*
X116089899Y-111637775D01*
X116259178Y-111562407D01*
X116409088Y-111453491D01*
X116533077Y-111315787D01*
X116625726Y-111155313D01*
X116682987Y-110979084D01*
X116702356Y-110794800D01*
X120267644Y-110794800D01*
X120287013Y-110979085D01*
X120334425Y-111125003D01*
X120344274Y-111155313D01*
X120436923Y-111315787D01*
X120484211Y-111368306D01*
X120560908Y-111453488D01*
X120560911Y-111453490D01*
X120560912Y-111453491D01*
X120710822Y-111562407D01*
X120777653Y-111592162D01*
X120880089Y-111637770D01*
X120880093Y-111637771D01*
X120880101Y-111637775D01*
X120880104Y-111637775D01*
X120880105Y-111637776D01*
X121061351Y-111676300D01*
X121246649Y-111676300D01*
X121258232Y-111673838D01*
X121427899Y-111637775D01*
X121597178Y-111562407D01*
X121747088Y-111453491D01*
X121867554Y-111319699D01*
X121910729Y-111299106D01*
X121955820Y-111315073D01*
X121960439Y-111319692D01*
X122003629Y-111367659D01*
X122080908Y-111453488D01*
X122080911Y-111453490D01*
X122080912Y-111453491D01*
X122230822Y-111562407D01*
X122297653Y-111592162D01*
X122400089Y-111637770D01*
X122400093Y-111637771D01*
X122400101Y-111637775D01*
X122400104Y-111637775D01*
X122400105Y-111637776D01*
X122581351Y-111676300D01*
X122766649Y-111676300D01*
X122778232Y-111673838D01*
X122947899Y-111637775D01*
X123117178Y-111562407D01*
X123267088Y-111453491D01*
X123387554Y-111319699D01*
X123430729Y-111299106D01*
X123475820Y-111315073D01*
X123480439Y-111319692D01*
X123523629Y-111367659D01*
X123600908Y-111453488D01*
X123600911Y-111453490D01*
X123600912Y-111453491D01*
X123750822Y-111562407D01*
X123817653Y-111592162D01*
X123920089Y-111637770D01*
X123920093Y-111637771D01*
X123920101Y-111637775D01*
X123920104Y-111637775D01*
X123920105Y-111637776D01*
X124101351Y-111676300D01*
X124286649Y-111676300D01*
X124298232Y-111673838D01*
X124467899Y-111637775D01*
X124637178Y-111562407D01*
X124787088Y-111453491D01*
X124911077Y-111315787D01*
X125003726Y-111155313D01*
X125013574Y-111125003D01*
X134999862Y-111125003D01*
X135018345Y-111277230D01*
X135018346Y-111277233D01*
X135018347Y-111277238D01*
X135072728Y-111420628D01*
X135121082Y-111490681D01*
X135159845Y-111546839D01*
X135160736Y-111547628D01*
X135274632Y-111648531D01*
X135410422Y-111719799D01*
X135559322Y-111756500D01*
X135712678Y-111756500D01*
X135861578Y-111719799D01*
X135997368Y-111648531D01*
X136112156Y-111546838D01*
X136199272Y-111420628D01*
X136253653Y-111277238D01*
X136256717Y-111252003D01*
X136272138Y-111125003D01*
X136272138Y-111124996D01*
X136253654Y-110972769D01*
X136253653Y-110972766D01*
X136253653Y-110972762D01*
X136199272Y-110829372D01*
X136112156Y-110703162D01*
X135997368Y-110601469D01*
X135997367Y-110601468D01*
X135861580Y-110530202D01*
X135861579Y-110530201D01*
X135861578Y-110530201D01*
X135761385Y-110505505D01*
X135712679Y-110493500D01*
X135712678Y-110493500D01*
X135559322Y-110493500D01*
X135559320Y-110493500D01*
X135482963Y-110512321D01*
X135410422Y-110530201D01*
X135410421Y-110530201D01*
X135410419Y-110530202D01*
X135274632Y-110601468D01*
X135159845Y-110703160D01*
X135142376Y-110728469D01*
X135072728Y-110829372D01*
X135018347Y-110972762D01*
X135018346Y-110972764D01*
X135018346Y-110972766D01*
X135018345Y-110972769D01*
X134999862Y-111124996D01*
X134999862Y-111125003D01*
X125013574Y-111125003D01*
X125060987Y-110979084D01*
X125080356Y-110794800D01*
X125060987Y-110610516D01*
X125003726Y-110434287D01*
X124911077Y-110273813D01*
X124857906Y-110214760D01*
X124787091Y-110136111D01*
X124744529Y-110105188D01*
X124637178Y-110027193D01*
X124637176Y-110027192D01*
X124467910Y-109951829D01*
X124467894Y-109951823D01*
X124286649Y-109913300D01*
X124101351Y-109913300D01*
X123920105Y-109951823D01*
X123920089Y-109951829D01*
X123750823Y-110027192D01*
X123750822Y-110027193D01*
X123600912Y-110136109D01*
X123480445Y-110269900D01*
X123437271Y-110290493D01*
X123392179Y-110274526D01*
X123387560Y-110269907D01*
X123267088Y-110136109D01*
X123117178Y-110027193D01*
X123117176Y-110027192D01*
X122947910Y-109951829D01*
X122947894Y-109951823D01*
X122766649Y-109913300D01*
X122581351Y-109913300D01*
X122400105Y-109951823D01*
X122400089Y-109951829D01*
X122230823Y-110027192D01*
X122230822Y-110027193D01*
X122080912Y-110136109D01*
X121960445Y-110269900D01*
X121917271Y-110290493D01*
X121872179Y-110274526D01*
X121867560Y-110269907D01*
X121747088Y-110136109D01*
X121597178Y-110027193D01*
X121597176Y-110027192D01*
X121427910Y-109951829D01*
X121427894Y-109951823D01*
X121246649Y-109913300D01*
X121061351Y-109913300D01*
X120880105Y-109951823D01*
X120880089Y-109951829D01*
X120710823Y-110027192D01*
X120560908Y-110136111D01*
X120436922Y-110273814D01*
X120344272Y-110434291D01*
X120287013Y-110610514D01*
X120267644Y-110794800D01*
X116702356Y-110794800D01*
X116682987Y-110610516D01*
X116625726Y-110434287D01*
X116533077Y-110273813D01*
X116479906Y-110214760D01*
X116409091Y-110136111D01*
X116366529Y-110105188D01*
X116259178Y-110027193D01*
X116259176Y-110027192D01*
X116089910Y-109951829D01*
X116089894Y-109951823D01*
X115908649Y-109913300D01*
X115723351Y-109913300D01*
X115542105Y-109951823D01*
X115542089Y-109951829D01*
X115372823Y-110027192D01*
X115372822Y-110027193D01*
X115222912Y-110136109D01*
X115102445Y-110269900D01*
X115059271Y-110290493D01*
X115014179Y-110274526D01*
X115009560Y-110269907D01*
X114889088Y-110136109D01*
X114739178Y-110027193D01*
X114739176Y-110027192D01*
X114569910Y-109951829D01*
X114569894Y-109951823D01*
X114388649Y-109913300D01*
X114203351Y-109913300D01*
X114022105Y-109951823D01*
X114022089Y-109951829D01*
X113852823Y-110027192D01*
X113852822Y-110027193D01*
X113702912Y-110136109D01*
X113582445Y-110269900D01*
X113539271Y-110290493D01*
X113494179Y-110274526D01*
X113489560Y-110269907D01*
X113369088Y-110136109D01*
X113219178Y-110027193D01*
X113219176Y-110027192D01*
X113049910Y-109951829D01*
X113049894Y-109951823D01*
X112868649Y-109913300D01*
X112683351Y-109913300D01*
X112502105Y-109951823D01*
X112502089Y-109951829D01*
X112332823Y-110027192D01*
X112182908Y-110136111D01*
X112058922Y-110273814D01*
X111966272Y-110434291D01*
X111909013Y-110610514D01*
X111889644Y-110794800D01*
X109347000Y-110794800D01*
X109347000Y-109362003D01*
X126348862Y-109362003D01*
X126367345Y-109514230D01*
X126367346Y-109514233D01*
X126367347Y-109514238D01*
X126421728Y-109657628D01*
X126508844Y-109783838D01*
X126508845Y-109783839D01*
X126623632Y-109885531D01*
X126759422Y-109956799D01*
X126908322Y-109993500D01*
X127061678Y-109993500D01*
X127210578Y-109956799D01*
X127346368Y-109885531D01*
X127461156Y-109783838D01*
X127548272Y-109657628D01*
X127602653Y-109514238D01*
X127621138Y-109362000D01*
X127602653Y-109209762D01*
X127548272Y-109066372D01*
X127461156Y-108940162D01*
X127346368Y-108838469D01*
X127346367Y-108838468D01*
X127210580Y-108767202D01*
X127210579Y-108767201D01*
X127210578Y-108767201D01*
X127110385Y-108742505D01*
X127061679Y-108730500D01*
X127061678Y-108730500D01*
X126908322Y-108730500D01*
X126908320Y-108730500D01*
X126810907Y-108754510D01*
X126759422Y-108767201D01*
X126759421Y-108767201D01*
X126759419Y-108767202D01*
X126623632Y-108838468D01*
X126508845Y-108940160D01*
X126508844Y-108940162D01*
X126421728Y-109066372D01*
X126367347Y-109209762D01*
X126367346Y-109209764D01*
X126367346Y-109209766D01*
X126367345Y-109209769D01*
X126348862Y-109361996D01*
X126348862Y-109362003D01*
X109347000Y-109362003D01*
X109347000Y-106680000D01*
X111889644Y-106680000D01*
X111909013Y-106864284D01*
X111966274Y-107040513D01*
X112058923Y-107200987D01*
X112106211Y-107253506D01*
X112182908Y-107338688D01*
X112182911Y-107338690D01*
X112182912Y-107338691D01*
X112332822Y-107447607D01*
X112428462Y-107490188D01*
X112502089Y-107522970D01*
X112502093Y-107522971D01*
X112502101Y-107522975D01*
X112502104Y-107522975D01*
X112502105Y-107522976D01*
X112683351Y-107561500D01*
X112868649Y-107561500D01*
X113049894Y-107522976D01*
X113049893Y-107522976D01*
X113049899Y-107522975D01*
X113219178Y-107447607D01*
X113369088Y-107338691D01*
X113489554Y-107204899D01*
X113532729Y-107184306D01*
X113577820Y-107200273D01*
X113582439Y-107204892D01*
X113625629Y-107252859D01*
X113702908Y-107338688D01*
X113702911Y-107338690D01*
X113702912Y-107338691D01*
X113852822Y-107447607D01*
X113948462Y-107490188D01*
X114022089Y-107522970D01*
X114022093Y-107522971D01*
X114022101Y-107522975D01*
X114022104Y-107522975D01*
X114022105Y-107522976D01*
X114203351Y-107561500D01*
X114388649Y-107561500D01*
X114569894Y-107522976D01*
X114569893Y-107522976D01*
X114569899Y-107522975D01*
X114739178Y-107447607D01*
X114889088Y-107338691D01*
X115009554Y-107204899D01*
X115052729Y-107184306D01*
X115097820Y-107200273D01*
X115102439Y-107204892D01*
X115145629Y-107252859D01*
X115222908Y-107338688D01*
X115222911Y-107338690D01*
X115222912Y-107338691D01*
X115372822Y-107447607D01*
X115468462Y-107490188D01*
X115542089Y-107522970D01*
X115542093Y-107522971D01*
X115542101Y-107522975D01*
X115542104Y-107522975D01*
X115542105Y-107522976D01*
X115723351Y-107561500D01*
X115908649Y-107561500D01*
X116089894Y-107522976D01*
X116089893Y-107522976D01*
X116089899Y-107522975D01*
X116259178Y-107447607D01*
X116409088Y-107338691D01*
X116533077Y-107200987D01*
X116625726Y-107040513D01*
X116682987Y-106864284D01*
X116702356Y-106680000D01*
X120271244Y-106680000D01*
X120290613Y-106864284D01*
X120347874Y-107040513D01*
X120440523Y-107200987D01*
X120487811Y-107253506D01*
X120564508Y-107338688D01*
X120564511Y-107338690D01*
X120564512Y-107338691D01*
X120714422Y-107447607D01*
X120810062Y-107490188D01*
X120883689Y-107522970D01*
X120883693Y-107522971D01*
X120883701Y-107522975D01*
X120883704Y-107522975D01*
X120883705Y-107522976D01*
X121064951Y-107561500D01*
X121250249Y-107561500D01*
X121431494Y-107522976D01*
X121431493Y-107522976D01*
X121431499Y-107522975D01*
X121600778Y-107447607D01*
X121750688Y-107338691D01*
X121871154Y-107204899D01*
X121914329Y-107184306D01*
X121959420Y-107200273D01*
X121964039Y-107204892D01*
X122007229Y-107252859D01*
X122084508Y-107338688D01*
X122084511Y-107338690D01*
X122084512Y-107338691D01*
X122234422Y-107447607D01*
X122330062Y-107490188D01*
X122403689Y-107522970D01*
X122403693Y-107522971D01*
X122403701Y-107522975D01*
X122403704Y-107522975D01*
X122403705Y-107522976D01*
X122584951Y-107561500D01*
X122770249Y-107561500D01*
X122951494Y-107522976D01*
X122951493Y-107522976D01*
X122951499Y-107522975D01*
X123120778Y-107447607D01*
X123270688Y-107338691D01*
X123391154Y-107204899D01*
X123434329Y-107184306D01*
X123479420Y-107200273D01*
X123484039Y-107204892D01*
X123527229Y-107252859D01*
X123604508Y-107338688D01*
X123604511Y-107338690D01*
X123604512Y-107338691D01*
X123754422Y-107447607D01*
X123850062Y-107490188D01*
X123923689Y-107522970D01*
X123923693Y-107522971D01*
X123923701Y-107522975D01*
X123923704Y-107522975D01*
X123923705Y-107522976D01*
X124104951Y-107561500D01*
X124290249Y-107561500D01*
X124471494Y-107522976D01*
X124471493Y-107522976D01*
X124471499Y-107522975D01*
X124640778Y-107447607D01*
X124790688Y-107338691D01*
X124914677Y-107200987D01*
X125007326Y-107040513D01*
X125064587Y-106864284D01*
X125083956Y-106680000D01*
X125064587Y-106495716D01*
X125007326Y-106319487D01*
X124914677Y-106159013D01*
X124861506Y-106099960D01*
X124790691Y-106021311D01*
X124748129Y-105990388D01*
X124640778Y-105912393D01*
X124640776Y-105912392D01*
X124471510Y-105837029D01*
X124471494Y-105837023D01*
X124290249Y-105798500D01*
X124104951Y-105798500D01*
X123923705Y-105837023D01*
X123923689Y-105837029D01*
X123754423Y-105912392D01*
X123754422Y-105912393D01*
X123604512Y-106021309D01*
X123484045Y-106155100D01*
X123440871Y-106175693D01*
X123395779Y-106159726D01*
X123391160Y-106155107D01*
X123270688Y-106021309D01*
X123120778Y-105912393D01*
X123120776Y-105912392D01*
X122951510Y-105837029D01*
X122951494Y-105837023D01*
X122770249Y-105798500D01*
X122584951Y-105798500D01*
X122403705Y-105837023D01*
X122403689Y-105837029D01*
X122234423Y-105912392D01*
X122234422Y-105912393D01*
X122084512Y-106021309D01*
X121964045Y-106155100D01*
X121920871Y-106175693D01*
X121875779Y-106159726D01*
X121871160Y-106155107D01*
X121750688Y-106021309D01*
X121600778Y-105912393D01*
X121600776Y-105912392D01*
X121431510Y-105837029D01*
X121431494Y-105837023D01*
X121250249Y-105798500D01*
X121064951Y-105798500D01*
X120883705Y-105837023D01*
X120883689Y-105837029D01*
X120714423Y-105912392D01*
X120564508Y-106021311D01*
X120440522Y-106159014D01*
X120347872Y-106319491D01*
X120290613Y-106495714D01*
X120290613Y-106495716D01*
X120271244Y-106680000D01*
X116702356Y-106680000D01*
X116682987Y-106495716D01*
X116625726Y-106319487D01*
X116533077Y-106159013D01*
X116479906Y-106099960D01*
X116409091Y-106021311D01*
X116366529Y-105990388D01*
X116259178Y-105912393D01*
X116259176Y-105912392D01*
X116089910Y-105837029D01*
X116089894Y-105837023D01*
X115908649Y-105798500D01*
X115723351Y-105798500D01*
X115542105Y-105837023D01*
X115542089Y-105837029D01*
X115372823Y-105912392D01*
X115372822Y-105912393D01*
X115222912Y-106021309D01*
X115102445Y-106155100D01*
X115059271Y-106175693D01*
X115014179Y-106159726D01*
X115009560Y-106155107D01*
X114889088Y-106021309D01*
X114739178Y-105912393D01*
X114739176Y-105912392D01*
X114569910Y-105837029D01*
X114569894Y-105837023D01*
X114388649Y-105798500D01*
X114203351Y-105798500D01*
X114022105Y-105837023D01*
X114022089Y-105837029D01*
X113852823Y-105912392D01*
X113852822Y-105912393D01*
X113702912Y-106021309D01*
X113582445Y-106155100D01*
X113539271Y-106175693D01*
X113494179Y-106159726D01*
X113489560Y-106155107D01*
X113369088Y-106021309D01*
X113219178Y-105912393D01*
X113219176Y-105912392D01*
X113049910Y-105837029D01*
X113049894Y-105837023D01*
X112868649Y-105798500D01*
X112683351Y-105798500D01*
X112502105Y-105837023D01*
X112502089Y-105837029D01*
X112332823Y-105912392D01*
X112182908Y-106021311D01*
X112058922Y-106159014D01*
X111966272Y-106319491D01*
X111909013Y-106495714D01*
X111909013Y-106495716D01*
X111889644Y-106680000D01*
X109347000Y-106680000D01*
X109347000Y-105156003D01*
X125093862Y-105156003D01*
X125112345Y-105308230D01*
X125112346Y-105308233D01*
X125112347Y-105308238D01*
X125166728Y-105451628D01*
X125253844Y-105577838D01*
X125368632Y-105679531D01*
X125504422Y-105750799D01*
X125653322Y-105787500D01*
X125806678Y-105787500D01*
X125955578Y-105750799D01*
X126091368Y-105679531D01*
X126206156Y-105577838D01*
X126293272Y-105451628D01*
X126347653Y-105308238D01*
X126359119Y-105213808D01*
X126366138Y-105156003D01*
X126366138Y-105155996D01*
X126347654Y-105003769D01*
X126347653Y-105003766D01*
X126347653Y-105003762D01*
X126293272Y-104860372D01*
X126206156Y-104734162D01*
X126091368Y-104632469D01*
X126091367Y-104632468D01*
X125955580Y-104561202D01*
X125955579Y-104561201D01*
X125955578Y-104561201D01*
X125855385Y-104536505D01*
X125806679Y-104524500D01*
X125806678Y-104524500D01*
X125653322Y-104524500D01*
X125653320Y-104524500D01*
X125555907Y-104548510D01*
X125504422Y-104561201D01*
X125504421Y-104561201D01*
X125504419Y-104561202D01*
X125368632Y-104632468D01*
X125253845Y-104734160D01*
X125166728Y-104860372D01*
X125112347Y-105003762D01*
X125112346Y-105003764D01*
X125112346Y-105003766D01*
X125112345Y-105003769D01*
X125093862Y-105155996D01*
X125093862Y-105156003D01*
X109347000Y-105156003D01*
X109347000Y-102565200D01*
X111889644Y-102565200D01*
X111909013Y-102749485D01*
X111954119Y-102888306D01*
X111966274Y-102925713D01*
X112058923Y-103086187D01*
X112106211Y-103138706D01*
X112182908Y-103223888D01*
X112182911Y-103223890D01*
X112182912Y-103223891D01*
X112332822Y-103332807D01*
X112428462Y-103375388D01*
X112502089Y-103408170D01*
X112502093Y-103408171D01*
X112502101Y-103408175D01*
X112502104Y-103408175D01*
X112502105Y-103408176D01*
X112683351Y-103446700D01*
X112868649Y-103446700D01*
X113049894Y-103408176D01*
X113049893Y-103408176D01*
X113049899Y-103408175D01*
X113219178Y-103332807D01*
X113369088Y-103223891D01*
X113489554Y-103090099D01*
X113532729Y-103069506D01*
X113577820Y-103085473D01*
X113582439Y-103090092D01*
X113625629Y-103138059D01*
X113702908Y-103223888D01*
X113702911Y-103223890D01*
X113702912Y-103223891D01*
X113852822Y-103332807D01*
X113948462Y-103375388D01*
X114022089Y-103408170D01*
X114022093Y-103408171D01*
X114022101Y-103408175D01*
X114022104Y-103408175D01*
X114022105Y-103408176D01*
X114203351Y-103446700D01*
X114388649Y-103446700D01*
X114569894Y-103408176D01*
X114569893Y-103408176D01*
X114569899Y-103408175D01*
X114739178Y-103332807D01*
X114889088Y-103223891D01*
X115009554Y-103090099D01*
X115052729Y-103069506D01*
X115097820Y-103085473D01*
X115102439Y-103090092D01*
X115145629Y-103138059D01*
X115222908Y-103223888D01*
X115222911Y-103223890D01*
X115222912Y-103223891D01*
X115372822Y-103332807D01*
X115468462Y-103375388D01*
X115542089Y-103408170D01*
X115542093Y-103408171D01*
X115542101Y-103408175D01*
X115542104Y-103408175D01*
X115542105Y-103408176D01*
X115723351Y-103446700D01*
X115908649Y-103446700D01*
X116089894Y-103408176D01*
X116089893Y-103408176D01*
X116089899Y-103408175D01*
X116259178Y-103332807D01*
X116409088Y-103223891D01*
X116533077Y-103086187D01*
X116625726Y-102925713D01*
X116682987Y-102749484D01*
X116702356Y-102565200D01*
X120267644Y-102565200D01*
X120287013Y-102749485D01*
X120332119Y-102888306D01*
X120344274Y-102925713D01*
X120436923Y-103086187D01*
X120484211Y-103138706D01*
X120560908Y-103223888D01*
X120560911Y-103223890D01*
X120560912Y-103223891D01*
X120710822Y-103332807D01*
X120806462Y-103375388D01*
X120880089Y-103408170D01*
X120880093Y-103408171D01*
X120880101Y-103408175D01*
X120880104Y-103408175D01*
X120880105Y-103408176D01*
X121061351Y-103446700D01*
X121246649Y-103446700D01*
X121427894Y-103408176D01*
X121427893Y-103408176D01*
X121427899Y-103408175D01*
X121597178Y-103332807D01*
X121747088Y-103223891D01*
X121867554Y-103090099D01*
X121910729Y-103069506D01*
X121955820Y-103085473D01*
X121960439Y-103090092D01*
X122003629Y-103138059D01*
X122080908Y-103223888D01*
X122080911Y-103223890D01*
X122080912Y-103223891D01*
X122230822Y-103332807D01*
X122326462Y-103375388D01*
X122400089Y-103408170D01*
X122400093Y-103408171D01*
X122400101Y-103408175D01*
X122400104Y-103408175D01*
X122400105Y-103408176D01*
X122581351Y-103446700D01*
X122766649Y-103446700D01*
X122947894Y-103408176D01*
X122947893Y-103408176D01*
X122947899Y-103408175D01*
X123117178Y-103332807D01*
X123267088Y-103223891D01*
X123387554Y-103090099D01*
X123430729Y-103069506D01*
X123475820Y-103085473D01*
X123480439Y-103090092D01*
X123523629Y-103138059D01*
X123600908Y-103223888D01*
X123600911Y-103223890D01*
X123600912Y-103223891D01*
X123750822Y-103332807D01*
X123846462Y-103375388D01*
X123920089Y-103408170D01*
X123920093Y-103408171D01*
X123920101Y-103408175D01*
X123920104Y-103408175D01*
X123920105Y-103408176D01*
X124101351Y-103446700D01*
X124286649Y-103446700D01*
X124467894Y-103408176D01*
X124467893Y-103408176D01*
X124467899Y-103408175D01*
X124637178Y-103332807D01*
X124787088Y-103223891D01*
X124911077Y-103086187D01*
X125003726Y-102925713D01*
X125060987Y-102749484D01*
X125080356Y-102565200D01*
X125060987Y-102380916D01*
X125003726Y-102204687D01*
X124911077Y-102044213D01*
X124844515Y-101970288D01*
X124787091Y-101906511D01*
X124736750Y-101869936D01*
X124637178Y-101797593D01*
X124637176Y-101797592D01*
X124467910Y-101722229D01*
X124467894Y-101722223D01*
X124286649Y-101683700D01*
X124101351Y-101683700D01*
X123920105Y-101722223D01*
X123920089Y-101722229D01*
X123750823Y-101797592D01*
X123750822Y-101797593D01*
X123600912Y-101906509D01*
X123480445Y-102040300D01*
X123437271Y-102060893D01*
X123392179Y-102044926D01*
X123387560Y-102040307D01*
X123267088Y-101906509D01*
X123117178Y-101797593D01*
X123117176Y-101797592D01*
X122947910Y-101722229D01*
X122947894Y-101722223D01*
X122766649Y-101683700D01*
X122581351Y-101683700D01*
X122400105Y-101722223D01*
X122400089Y-101722229D01*
X122230823Y-101797592D01*
X122230822Y-101797593D01*
X122080912Y-101906509D01*
X121960445Y-102040300D01*
X121917271Y-102060893D01*
X121872179Y-102044926D01*
X121867560Y-102040307D01*
X121747088Y-101906509D01*
X121597178Y-101797593D01*
X121597176Y-101797592D01*
X121427910Y-101722229D01*
X121427894Y-101722223D01*
X121246649Y-101683700D01*
X121061351Y-101683700D01*
X120880105Y-101722223D01*
X120880089Y-101722229D01*
X120710823Y-101797592D01*
X120560908Y-101906511D01*
X120436922Y-102044214D01*
X120344272Y-102204691D01*
X120287013Y-102380914D01*
X120267644Y-102565200D01*
X116702356Y-102565200D01*
X116682987Y-102380916D01*
X116625726Y-102204687D01*
X116533077Y-102044213D01*
X116466515Y-101970288D01*
X116409091Y-101906511D01*
X116358750Y-101869936D01*
X116259178Y-101797593D01*
X116259176Y-101797592D01*
X116089910Y-101722229D01*
X116089894Y-101722223D01*
X115908649Y-101683700D01*
X115723351Y-101683700D01*
X115542105Y-101722223D01*
X115542089Y-101722229D01*
X115372823Y-101797592D01*
X115372822Y-101797593D01*
X115222912Y-101906509D01*
X115102445Y-102040300D01*
X115059271Y-102060893D01*
X115014179Y-102044926D01*
X115009560Y-102040307D01*
X114889088Y-101906509D01*
X114739178Y-101797593D01*
X114739176Y-101797592D01*
X114569910Y-101722229D01*
X114569894Y-101722223D01*
X114388649Y-101683700D01*
X114203351Y-101683700D01*
X114022105Y-101722223D01*
X114022089Y-101722229D01*
X113852823Y-101797592D01*
X113852822Y-101797593D01*
X113702912Y-101906509D01*
X113582445Y-102040300D01*
X113539271Y-102060893D01*
X113494179Y-102044926D01*
X113489560Y-102040307D01*
X113369088Y-101906509D01*
X113219178Y-101797593D01*
X113219176Y-101797592D01*
X113049910Y-101722229D01*
X113049894Y-101722223D01*
X112868649Y-101683700D01*
X112683351Y-101683700D01*
X112502105Y-101722223D01*
X112502089Y-101722229D01*
X112332823Y-101797592D01*
X112182908Y-101906511D01*
X112058922Y-102044214D01*
X111966272Y-102204691D01*
X111909013Y-102380914D01*
X111889644Y-102565200D01*
X109347000Y-102565200D01*
X109347000Y-101107003D01*
X126348862Y-101107003D01*
X126367345Y-101259230D01*
X126367346Y-101259233D01*
X126367347Y-101259238D01*
X126421728Y-101402628D01*
X126448793Y-101441838D01*
X126508845Y-101528839D01*
X126542241Y-101558425D01*
X126623632Y-101630531D01*
X126759422Y-101701799D01*
X126908322Y-101738500D01*
X127061678Y-101738500D01*
X127210578Y-101701799D01*
X127346368Y-101630531D01*
X127461156Y-101528838D01*
X127548272Y-101402628D01*
X127602653Y-101259238D01*
X127619817Y-101117879D01*
X127621138Y-101107003D01*
X127621138Y-101106996D01*
X127602654Y-100954769D01*
X127602653Y-100954766D01*
X127602653Y-100954762D01*
X127548272Y-100811372D01*
X127461156Y-100685162D01*
X127413420Y-100642872D01*
X127346367Y-100583468D01*
X127210580Y-100512202D01*
X127210579Y-100512201D01*
X127210578Y-100512201D01*
X127110385Y-100487505D01*
X127061679Y-100475500D01*
X127061678Y-100475500D01*
X126908322Y-100475500D01*
X126908320Y-100475500D01*
X126810907Y-100499510D01*
X126759422Y-100512201D01*
X126759421Y-100512201D01*
X126759419Y-100512202D01*
X126623632Y-100583468D01*
X126508845Y-100685160D01*
X126439060Y-100786262D01*
X126421728Y-100811372D01*
X126367347Y-100954762D01*
X126367346Y-100954764D01*
X126367346Y-100954766D01*
X126367345Y-100954769D01*
X126348862Y-101106996D01*
X126348862Y-101107003D01*
X109347000Y-101107003D01*
X109347000Y-99665002D01*
X129360390Y-99665002D01*
X129380807Y-99976506D01*
X129380809Y-99976523D01*
X129441711Y-100282699D01*
X129499691Y-100453500D01*
X129532452Y-100550013D01*
X129542060Y-100578315D01*
X129542063Y-100578323D01*
X129680136Y-100858307D01*
X129853577Y-101117879D01*
X129901249Y-101172238D01*
X130059412Y-101352588D01*
X130116471Y-101402627D01*
X130294120Y-101558422D01*
X130294122Y-101558423D01*
X130294124Y-101558425D01*
X130553695Y-101731865D01*
X130833684Y-101869940D01*
X131129300Y-101970288D01*
X131129299Y-101970288D01*
X131278313Y-101999928D01*
X131435485Y-102031192D01*
X131684697Y-102047526D01*
X131746998Y-102051610D01*
X131747000Y-102051610D01*
X131747002Y-102051610D01*
X131803639Y-102047897D01*
X132058515Y-102031192D01*
X132364700Y-101970288D01*
X132660316Y-101869940D01*
X132940305Y-101731865D01*
X133199876Y-101558425D01*
X133434588Y-101352588D01*
X133640425Y-101117876D01*
X133813865Y-100858305D01*
X133951940Y-100578316D01*
X134052288Y-100282700D01*
X134113192Y-99976515D01*
X134133610Y-99665000D01*
X134113192Y-99353485D01*
X134052288Y-99047300D01*
X133951940Y-98751684D01*
X133813865Y-98471695D01*
X133640425Y-98212124D01*
X133640423Y-98212122D01*
X133640422Y-98212120D01*
X133492984Y-98044000D01*
X133434588Y-97977412D01*
X133270812Y-97833784D01*
X133199879Y-97771577D01*
X132940307Y-97598136D01*
X132660323Y-97460063D01*
X132660319Y-97460061D01*
X132660316Y-97460060D01*
X132508397Y-97408490D01*
X132364698Y-97359711D01*
X132364700Y-97359711D01*
X132058523Y-97298809D01*
X132058506Y-97298807D01*
X131747002Y-97278390D01*
X131746998Y-97278390D01*
X131435493Y-97298807D01*
X131435476Y-97298809D01*
X131129300Y-97359711D01*
X130833684Y-97460060D01*
X130833676Y-97460063D01*
X130553692Y-97598136D01*
X130294120Y-97771577D01*
X130059412Y-97977412D01*
X129853577Y-98212120D01*
X129680136Y-98471692D01*
X129542063Y-98751676D01*
X129542060Y-98751684D01*
X129441711Y-99047300D01*
X129380809Y-99353476D01*
X129380807Y-99353493D01*
X129360390Y-99664997D01*
X129360390Y-99665002D01*
X109347000Y-99665002D01*
X109347000Y-98450400D01*
X111889644Y-98450400D01*
X111909013Y-98634685D01*
X111964678Y-98806003D01*
X111966274Y-98810913D01*
X112058923Y-98971387D01*
X112106211Y-99023906D01*
X112182908Y-99109088D01*
X112182911Y-99109090D01*
X112182912Y-99109091D01*
X112332822Y-99218007D01*
X112428462Y-99260588D01*
X112502089Y-99293370D01*
X112502093Y-99293371D01*
X112502101Y-99293375D01*
X112502104Y-99293375D01*
X112502105Y-99293376D01*
X112683351Y-99331900D01*
X112868649Y-99331900D01*
X113049894Y-99293376D01*
X113049893Y-99293376D01*
X113049899Y-99293375D01*
X113219178Y-99218007D01*
X113369088Y-99109091D01*
X113373867Y-99103784D01*
X113436014Y-99034762D01*
X113489554Y-98975299D01*
X113532729Y-98954706D01*
X113577820Y-98970673D01*
X113582439Y-98975292D01*
X113625629Y-99023259D01*
X113702908Y-99109088D01*
X113702911Y-99109090D01*
X113702912Y-99109091D01*
X113852822Y-99218007D01*
X113948462Y-99260588D01*
X114022089Y-99293370D01*
X114022093Y-99293371D01*
X114022101Y-99293375D01*
X114022104Y-99293375D01*
X114022105Y-99293376D01*
X114203351Y-99331900D01*
X114388649Y-99331900D01*
X114569894Y-99293376D01*
X114569893Y-99293376D01*
X114569899Y-99293375D01*
X114739178Y-99218007D01*
X114889088Y-99109091D01*
X114893867Y-99103784D01*
X114956014Y-99034762D01*
X115009554Y-98975299D01*
X115052729Y-98954706D01*
X115097820Y-98970673D01*
X115102439Y-98975292D01*
X115145629Y-99023259D01*
X115222908Y-99109088D01*
X115222911Y-99109090D01*
X115222912Y-99109091D01*
X115372822Y-99218007D01*
X115468462Y-99260588D01*
X115542089Y-99293370D01*
X115542093Y-99293371D01*
X115542101Y-99293375D01*
X115542104Y-99293375D01*
X115542105Y-99293376D01*
X115723351Y-99331900D01*
X115908649Y-99331900D01*
X116089894Y-99293376D01*
X116089893Y-99293376D01*
X116089899Y-99293375D01*
X116259178Y-99218007D01*
X116409088Y-99109091D01*
X116413867Y-99103784D01*
X116426735Y-99089491D01*
X116533077Y-98971387D01*
X116625726Y-98810913D01*
X116682987Y-98634684D01*
X116702356Y-98450400D01*
X120267644Y-98450400D01*
X120287013Y-98634685D01*
X120342678Y-98806003D01*
X120344274Y-98810913D01*
X120436923Y-98971387D01*
X120484211Y-99023906D01*
X120560908Y-99109088D01*
X120560911Y-99109090D01*
X120560912Y-99109091D01*
X120710822Y-99218007D01*
X120806462Y-99260588D01*
X120880089Y-99293370D01*
X120880093Y-99293371D01*
X120880101Y-99293375D01*
X120880104Y-99293375D01*
X120880105Y-99293376D01*
X121061351Y-99331900D01*
X121246649Y-99331900D01*
X121427894Y-99293376D01*
X121427893Y-99293376D01*
X121427899Y-99293375D01*
X121597178Y-99218007D01*
X121747088Y-99109091D01*
X121751867Y-99103784D01*
X121814014Y-99034762D01*
X121867554Y-98975299D01*
X121910729Y-98954706D01*
X121955820Y-98970673D01*
X121960439Y-98975292D01*
X122003629Y-99023259D01*
X122080908Y-99109088D01*
X122080911Y-99109090D01*
X122080912Y-99109091D01*
X122230822Y-99218007D01*
X122326462Y-99260588D01*
X122400089Y-99293370D01*
X122400093Y-99293371D01*
X122400101Y-99293375D01*
X122400104Y-99293375D01*
X122400105Y-99293376D01*
X122581351Y-99331900D01*
X122766649Y-99331900D01*
X122947894Y-99293376D01*
X122947893Y-99293376D01*
X122947899Y-99293375D01*
X123117178Y-99218007D01*
X123267088Y-99109091D01*
X123271867Y-99103784D01*
X123334014Y-99034762D01*
X123387554Y-98975299D01*
X123430729Y-98954706D01*
X123475820Y-98970673D01*
X123480439Y-98975292D01*
X123523629Y-99023259D01*
X123600908Y-99109088D01*
X123600911Y-99109090D01*
X123600912Y-99109091D01*
X123750822Y-99218007D01*
X123846462Y-99260588D01*
X123920089Y-99293370D01*
X123920093Y-99293371D01*
X123920101Y-99293375D01*
X123920104Y-99293375D01*
X123920105Y-99293376D01*
X124101351Y-99331900D01*
X124286649Y-99331900D01*
X124467894Y-99293376D01*
X124467893Y-99293376D01*
X124467899Y-99293375D01*
X124637178Y-99218007D01*
X124787088Y-99109091D01*
X124791867Y-99103784D01*
X124804735Y-99089491D01*
X124911077Y-98971387D01*
X125003726Y-98810913D01*
X125060987Y-98634684D01*
X125080356Y-98450400D01*
X125060987Y-98266116D01*
X125003726Y-98089887D01*
X124911077Y-97929413D01*
X124856259Y-97868531D01*
X124787091Y-97791711D01*
X124667231Y-97704628D01*
X124637178Y-97682793D01*
X124637176Y-97682792D01*
X124467910Y-97607429D01*
X124467894Y-97607423D01*
X124286649Y-97568900D01*
X124101351Y-97568900D01*
X123920105Y-97607423D01*
X123920089Y-97607429D01*
X123750823Y-97682792D01*
X123675867Y-97737251D01*
X123600912Y-97791709D01*
X123480445Y-97925500D01*
X123437271Y-97946093D01*
X123392179Y-97930126D01*
X123387560Y-97925507D01*
X123267088Y-97791709D01*
X123117178Y-97682793D01*
X123117176Y-97682792D01*
X122947910Y-97607429D01*
X122947894Y-97607423D01*
X122766649Y-97568900D01*
X122581351Y-97568900D01*
X122400105Y-97607423D01*
X122400089Y-97607429D01*
X122230823Y-97682792D01*
X122155867Y-97737251D01*
X122080912Y-97791709D01*
X121960445Y-97925500D01*
X121917271Y-97946093D01*
X121872179Y-97930126D01*
X121867560Y-97925507D01*
X121747088Y-97791709D01*
X121597178Y-97682793D01*
X121597176Y-97682792D01*
X121427910Y-97607429D01*
X121427894Y-97607423D01*
X121246649Y-97568900D01*
X121061351Y-97568900D01*
X120880105Y-97607423D01*
X120880089Y-97607429D01*
X120710823Y-97682792D01*
X120560908Y-97791711D01*
X120436922Y-97929414D01*
X120344272Y-98089891D01*
X120287013Y-98266114D01*
X120267644Y-98450400D01*
X116702356Y-98450400D01*
X116682987Y-98266116D01*
X116625726Y-98089887D01*
X116533077Y-97929413D01*
X116478259Y-97868531D01*
X116409091Y-97791711D01*
X116289231Y-97704628D01*
X116259178Y-97682793D01*
X116259176Y-97682792D01*
X116089910Y-97607429D01*
X116089894Y-97607423D01*
X115908649Y-97568900D01*
X115723351Y-97568900D01*
X115542105Y-97607423D01*
X115542089Y-97607429D01*
X115372823Y-97682792D01*
X115297867Y-97737251D01*
X115222912Y-97791709D01*
X115102445Y-97925500D01*
X115059271Y-97946093D01*
X115014179Y-97930126D01*
X115009560Y-97925507D01*
X114889088Y-97791709D01*
X114739178Y-97682793D01*
X114739176Y-97682792D01*
X114569910Y-97607429D01*
X114569894Y-97607423D01*
X114388649Y-97568900D01*
X114203351Y-97568900D01*
X114022105Y-97607423D01*
X114022089Y-97607429D01*
X113852823Y-97682792D01*
X113777867Y-97737251D01*
X113702912Y-97791709D01*
X113582445Y-97925500D01*
X113539271Y-97946093D01*
X113494179Y-97930126D01*
X113489560Y-97925507D01*
X113369088Y-97791709D01*
X113219178Y-97682793D01*
X113219176Y-97682792D01*
X113049910Y-97607429D01*
X113049894Y-97607423D01*
X112868649Y-97568900D01*
X112683351Y-97568900D01*
X112502105Y-97607423D01*
X112502089Y-97607429D01*
X112332823Y-97682792D01*
X112182908Y-97791711D01*
X112058922Y-97929414D01*
X111966272Y-98089891D01*
X111909013Y-98266114D01*
X111889644Y-98450400D01*
X109347000Y-98450400D01*
X109347000Y-94335600D01*
X111889644Y-94335600D01*
X111909013Y-94519885D01*
X111953187Y-94655838D01*
X111966274Y-94696113D01*
X112058923Y-94856587D01*
X112070100Y-94869000D01*
X112182908Y-94994288D01*
X112182911Y-94994290D01*
X112182912Y-94994291D01*
X112332822Y-95103207D01*
X112377278Y-95123000D01*
X112502089Y-95178570D01*
X112502093Y-95178571D01*
X112502101Y-95178575D01*
X112502104Y-95178575D01*
X112502105Y-95178576D01*
X112683351Y-95217100D01*
X112868649Y-95217100D01*
X113049894Y-95178576D01*
X113049893Y-95178576D01*
X113049899Y-95178575D01*
X113219178Y-95103207D01*
X113369088Y-94994291D01*
X113489554Y-94860499D01*
X113532729Y-94839906D01*
X113577820Y-94855873D01*
X113582439Y-94860492D01*
X113590100Y-94869000D01*
X113702908Y-94994288D01*
X113702911Y-94994290D01*
X113702912Y-94994291D01*
X113852822Y-95103207D01*
X113897278Y-95123000D01*
X114022089Y-95178570D01*
X114022093Y-95178571D01*
X114022101Y-95178575D01*
X114022104Y-95178575D01*
X114022105Y-95178576D01*
X114203351Y-95217100D01*
X114388649Y-95217100D01*
X114569894Y-95178576D01*
X114569893Y-95178576D01*
X114569899Y-95178575D01*
X114739178Y-95103207D01*
X114889088Y-94994291D01*
X115009554Y-94860499D01*
X115052729Y-94839906D01*
X115097820Y-94855873D01*
X115102439Y-94860492D01*
X115110100Y-94869000D01*
X115222908Y-94994288D01*
X115222911Y-94994290D01*
X115222912Y-94994291D01*
X115372822Y-95103207D01*
X115417278Y-95123000D01*
X115542089Y-95178570D01*
X115542093Y-95178571D01*
X115542101Y-95178575D01*
X115542104Y-95178575D01*
X115542105Y-95178576D01*
X115723351Y-95217100D01*
X115908649Y-95217100D01*
X116089894Y-95178576D01*
X116089893Y-95178576D01*
X116089899Y-95178575D01*
X116259178Y-95103207D01*
X116409088Y-94994291D01*
X116533077Y-94856587D01*
X116625726Y-94696113D01*
X116682987Y-94519884D01*
X116702356Y-94335600D01*
X116682987Y-94151316D01*
X116625726Y-93975087D01*
X116533077Y-93814613D01*
X116453290Y-93726000D01*
X116409091Y-93676911D01*
X116267118Y-93573762D01*
X116259178Y-93567993D01*
X116217355Y-93549372D01*
X116089910Y-93492629D01*
X116089894Y-93492623D01*
X115908649Y-93454100D01*
X115723351Y-93454100D01*
X115542105Y-93492623D01*
X115542089Y-93492629D01*
X115372823Y-93567992D01*
X115297867Y-93622451D01*
X115222912Y-93676909D01*
X115102445Y-93810700D01*
X115059271Y-93831293D01*
X115014179Y-93815326D01*
X115009560Y-93810707D01*
X114889088Y-93676909D01*
X114739178Y-93567993D01*
X114697355Y-93549372D01*
X114569910Y-93492629D01*
X114569894Y-93492623D01*
X114388649Y-93454100D01*
X114203351Y-93454100D01*
X114022105Y-93492623D01*
X114022089Y-93492629D01*
X113852823Y-93567992D01*
X113777867Y-93622451D01*
X113702912Y-93676909D01*
X113582445Y-93810700D01*
X113539271Y-93831293D01*
X113494179Y-93815326D01*
X113489560Y-93810707D01*
X113369088Y-93676909D01*
X113219178Y-93567993D01*
X113177355Y-93549372D01*
X113049910Y-93492629D01*
X113049894Y-93492623D01*
X112868649Y-93454100D01*
X112683351Y-93454100D01*
X112502105Y-93492623D01*
X112502089Y-93492629D01*
X112332823Y-93567992D01*
X112182908Y-93676911D01*
X112058922Y-93814614D01*
X111966272Y-93975091D01*
X111909013Y-94151314D01*
X111889644Y-94335600D01*
X109347000Y-94335600D01*
X109347000Y-90229800D01*
X111889644Y-90229800D01*
X111909013Y-90414085D01*
X111963349Y-90581313D01*
X111966274Y-90590313D01*
X112058923Y-90750787D01*
X112106211Y-90803306D01*
X112182908Y-90888488D01*
X112182911Y-90888490D01*
X112182912Y-90888491D01*
X112332822Y-90997407D01*
X112428462Y-91039988D01*
X112502089Y-91072770D01*
X112502093Y-91072771D01*
X112502101Y-91072775D01*
X112502104Y-91072775D01*
X112502105Y-91072776D01*
X112683351Y-91111300D01*
X112868649Y-91111300D01*
X113049894Y-91072776D01*
X113049893Y-91072776D01*
X113049899Y-91072775D01*
X113219178Y-90997407D01*
X113369088Y-90888491D01*
X113489554Y-90754699D01*
X113532729Y-90734106D01*
X113577820Y-90750073D01*
X113582439Y-90754692D01*
X113625629Y-90802659D01*
X113702908Y-90888488D01*
X113702911Y-90888490D01*
X113702912Y-90888491D01*
X113852822Y-90997407D01*
X113948462Y-91039988D01*
X114022089Y-91072770D01*
X114022093Y-91072771D01*
X114022101Y-91072775D01*
X114022104Y-91072775D01*
X114022105Y-91072776D01*
X114203351Y-91111300D01*
X114388649Y-91111300D01*
X114569894Y-91072776D01*
X114569893Y-91072776D01*
X114569899Y-91072775D01*
X114739178Y-90997407D01*
X114889088Y-90888491D01*
X115009554Y-90754699D01*
X115052729Y-90734106D01*
X115097820Y-90750073D01*
X115102439Y-90754692D01*
X115145629Y-90802659D01*
X115222908Y-90888488D01*
X115222911Y-90888490D01*
X115222912Y-90888491D01*
X115372822Y-90997407D01*
X115468462Y-91039988D01*
X115542089Y-91072770D01*
X115542093Y-91072771D01*
X115542101Y-91072775D01*
X115542104Y-91072775D01*
X115542105Y-91072776D01*
X115723351Y-91111300D01*
X115908649Y-91111300D01*
X116089894Y-91072776D01*
X116089893Y-91072776D01*
X116089899Y-91072775D01*
X116259178Y-90997407D01*
X116409088Y-90888491D01*
X116533077Y-90750787D01*
X116625726Y-90590313D01*
X116682987Y-90414084D01*
X116702356Y-90229800D01*
X116682987Y-90045516D01*
X116625726Y-89869287D01*
X116533077Y-89708813D01*
X116454156Y-89621162D01*
X116409091Y-89571111D01*
X116354571Y-89531500D01*
X116259178Y-89462193D01*
X116227752Y-89448201D01*
X116089910Y-89386829D01*
X116089894Y-89386823D01*
X115908649Y-89348300D01*
X115723351Y-89348300D01*
X115542105Y-89386823D01*
X115542089Y-89386829D01*
X115372823Y-89462192D01*
X115372822Y-89462193D01*
X115222912Y-89571109D01*
X115102445Y-89704900D01*
X115059271Y-89725493D01*
X115014179Y-89709526D01*
X115009560Y-89704907D01*
X114889088Y-89571109D01*
X114739178Y-89462193D01*
X114707752Y-89448201D01*
X114569910Y-89386829D01*
X114569894Y-89386823D01*
X114388649Y-89348300D01*
X114203351Y-89348300D01*
X114022105Y-89386823D01*
X114022089Y-89386829D01*
X113852823Y-89462192D01*
X113852822Y-89462193D01*
X113702912Y-89571109D01*
X113582445Y-89704900D01*
X113539271Y-89725493D01*
X113494179Y-89709526D01*
X113489560Y-89704907D01*
X113369088Y-89571109D01*
X113219178Y-89462193D01*
X113187752Y-89448201D01*
X113049910Y-89386829D01*
X113049894Y-89386823D01*
X112868649Y-89348300D01*
X112683351Y-89348300D01*
X112502105Y-89386823D01*
X112502089Y-89386829D01*
X112332823Y-89462192D01*
X112182908Y-89571111D01*
X112058922Y-89708814D01*
X112021196Y-89774158D01*
X111966711Y-89868531D01*
X111966272Y-89869291D01*
X111909013Y-90045514D01*
X111889644Y-90229800D01*
X109347000Y-90229800D01*
X109347000Y-86106000D01*
X111889644Y-86106000D01*
X111909013Y-86290285D01*
X111959660Y-86446160D01*
X111966274Y-86466513D01*
X112058923Y-86626987D01*
X112074928Y-86644762D01*
X112182908Y-86764688D01*
X112182911Y-86764690D01*
X112182912Y-86764691D01*
X112332822Y-86873607D01*
X112376914Y-86893238D01*
X112502089Y-86948970D01*
X112502093Y-86948971D01*
X112502101Y-86948975D01*
X112502104Y-86948975D01*
X112502105Y-86948976D01*
X112683351Y-86987500D01*
X112868649Y-86987500D01*
X112906433Y-86979469D01*
X113049899Y-86948975D01*
X113219178Y-86873607D01*
X113369088Y-86764691D01*
X113390420Y-86741000D01*
X113477072Y-86644762D01*
X113489554Y-86630899D01*
X113532729Y-86610306D01*
X113577820Y-86626273D01*
X113582439Y-86630892D01*
X113594928Y-86644762D01*
X113702908Y-86764688D01*
X113702911Y-86764690D01*
X113702912Y-86764691D01*
X113852822Y-86873607D01*
X113896914Y-86893238D01*
X114022089Y-86948970D01*
X114022093Y-86948971D01*
X114022101Y-86948975D01*
X114022104Y-86948975D01*
X114022105Y-86948976D01*
X114203351Y-86987500D01*
X114388649Y-86987500D01*
X114426433Y-86979469D01*
X114569899Y-86948975D01*
X114739178Y-86873607D01*
X114889088Y-86764691D01*
X114910420Y-86741000D01*
X114997072Y-86644762D01*
X115009554Y-86630899D01*
X115052729Y-86610306D01*
X115097820Y-86626273D01*
X115102439Y-86630892D01*
X115114928Y-86644762D01*
X115222908Y-86764688D01*
X115222911Y-86764690D01*
X115222912Y-86764691D01*
X115372822Y-86873607D01*
X115416914Y-86893238D01*
X115542089Y-86948970D01*
X115542093Y-86948971D01*
X115542101Y-86948975D01*
X115542104Y-86948975D01*
X115542105Y-86948976D01*
X115723351Y-86987500D01*
X115908649Y-86987500D01*
X115946433Y-86979469D01*
X116089899Y-86948975D01*
X116259178Y-86873607D01*
X116409088Y-86764691D01*
X116533077Y-86626987D01*
X116625726Y-86466513D01*
X116682987Y-86290284D01*
X116702356Y-86106000D01*
X116682987Y-85921716D01*
X116625726Y-85745487D01*
X116533077Y-85585013D01*
X116479906Y-85525960D01*
X116409091Y-85447311D01*
X116366529Y-85416388D01*
X116259178Y-85338393D01*
X116256975Y-85337412D01*
X116089910Y-85263029D01*
X116089894Y-85263023D01*
X115908649Y-85224500D01*
X115723351Y-85224500D01*
X115542105Y-85263023D01*
X115542089Y-85263029D01*
X115372823Y-85338392D01*
X115372822Y-85338393D01*
X115222912Y-85447309D01*
X115102445Y-85581100D01*
X115059271Y-85601693D01*
X115014179Y-85585726D01*
X115009560Y-85581107D01*
X114889088Y-85447309D01*
X114739178Y-85338393D01*
X114736975Y-85337412D01*
X114569910Y-85263029D01*
X114569894Y-85263023D01*
X114388649Y-85224500D01*
X114203351Y-85224500D01*
X114022105Y-85263023D01*
X114022089Y-85263029D01*
X113852823Y-85338392D01*
X113852822Y-85338393D01*
X113702912Y-85447309D01*
X113582445Y-85581100D01*
X113539271Y-85601693D01*
X113494179Y-85585726D01*
X113489560Y-85581107D01*
X113369088Y-85447309D01*
X113219178Y-85338393D01*
X113216975Y-85337412D01*
X113049910Y-85263029D01*
X113049894Y-85263023D01*
X112868649Y-85224500D01*
X112683351Y-85224500D01*
X112502105Y-85263023D01*
X112502089Y-85263029D01*
X112332823Y-85338392D01*
X112182908Y-85447311D01*
X112058922Y-85585014D01*
X111966272Y-85745491D01*
X111909013Y-85921714D01*
X111889644Y-86106000D01*
X109347000Y-86106000D01*
X109347000Y-80924888D01*
X109365306Y-80880694D01*
X109455694Y-80790306D01*
X109499888Y-80772000D01*
X111963681Y-80772000D01*
X112007875Y-80790306D01*
G37*
G04 #@! TD.AperFunction*
G04 #@! TD*
G04 #@! TA.AperFunction,Conductor*
G04 #@! TO.N,Earth*
G36*
X182959996Y-98727362D02*
G01*
X182966321Y-98733701D01*
X182966914Y-98740764D01*
X182676572Y-100015898D01*
X182671394Y-100023203D01*
X182665164Y-100025000D01*
X181794836Y-100025000D01*
X181786563Y-100021573D01*
X181783428Y-100015898D01*
X181669428Y-99515231D01*
X181493085Y-98740762D01*
X181494590Y-98731936D01*
X181500001Y-98727362D01*
X182225512Y-98425864D01*
X182234461Y-98425854D01*
X182959996Y-98727362D01*
G37*
G04 #@! TD.AperFunction*
G04 #@! TD*
G04 #@! TA.AperFunction,Conductor*
G04 #@! TO.N,Net-(D501-K)*
G36*
X187597306Y-112540306D02*
G01*
X187687694Y-112630694D01*
X187706000Y-112674888D01*
X187706000Y-116306112D01*
X187687694Y-116350306D01*
X187597306Y-116440694D01*
X187553112Y-116459000D01*
X185039000Y-116459000D01*
X182651888Y-116459000D01*
X182607694Y-116440694D01*
X182517306Y-116350306D01*
X182499000Y-116306112D01*
X182499000Y-112674888D01*
X182517306Y-112630694D01*
X182607694Y-112540306D01*
X182651888Y-112522000D01*
X187553112Y-112522000D01*
X187597306Y-112540306D01*
G37*
G04 #@! TD.AperFunction*
G04 #@! TD*
M02*
