G04 #@! TF.GenerationSoftware,KiCad,Pcbnew,8.0.1*
G04 #@! TF.CreationDate,2024-04-14T22:29:54+02:00*
G04 #@! TF.ProjectId,ETH16CDAQ1,45544831-3643-4444-9151-312e6b696361,rev?*
G04 #@! TF.SameCoordinates,Original*
G04 #@! TF.FileFunction,Legend,Top*
G04 #@! TF.FilePolarity,Positive*
%FSLAX46Y46*%
G04 Gerber Fmt 4.6, Leading zero omitted, Abs format (unit mm)*
G04 Created by KiCad (PCBNEW 8.0.1) date 2024-04-14 22:29:54*
%MOMM*%
%LPD*%
G01*
G04 APERTURE LIST*
%ADD10C,0.500000*%
%ADD11C,0.120000*%
%ADD12C,0.150000*%
%ADD13C,0.300000*%
%ADD14C,0.200000*%
%ADD15C,0.100000*%
%ADD16C,0.127000*%
G04 APERTURE END LIST*
D10*
X198755000Y-116713000D02*
X198755000Y-115443000D01*
X198120000Y-116078000D02*
X199390000Y-116078000D01*
D11*
X115918804Y-119808331D02*
X115918804Y-119208331D01*
X115918804Y-119208331D02*
X116118804Y-119636902D01*
X116118804Y-119636902D02*
X116318804Y-119208331D01*
X116318804Y-119208331D02*
X116318804Y-119808331D01*
X116575946Y-119265474D02*
X116604518Y-119236902D01*
X116604518Y-119236902D02*
X116661661Y-119208331D01*
X116661661Y-119208331D02*
X116804518Y-119208331D01*
X116804518Y-119208331D02*
X116861661Y-119236902D01*
X116861661Y-119236902D02*
X116890232Y-119265474D01*
X116890232Y-119265474D02*
X116918803Y-119322617D01*
X116918803Y-119322617D02*
X116918803Y-119379760D01*
X116918803Y-119379760D02*
X116890232Y-119465474D01*
X116890232Y-119465474D02*
X116547375Y-119808331D01*
X116547375Y-119808331D02*
X116918803Y-119808331D01*
D12*
X131988160Y-120488292D02*
X132254826Y-120488292D01*
X132369112Y-120907340D02*
X131988160Y-120907340D01*
X131988160Y-120907340D02*
X131988160Y-120107340D01*
X131988160Y-120107340D02*
X132369112Y-120107340D01*
X132597684Y-120107340D02*
X133054827Y-120107340D01*
X132826255Y-120907340D02*
X132826255Y-120107340D01*
X133321494Y-120907340D02*
X133321494Y-120107340D01*
X133321494Y-120488292D02*
X133778637Y-120488292D01*
X133778637Y-120907340D02*
X133778637Y-120107340D01*
X134578636Y-120907340D02*
X134121493Y-120907340D01*
X134350065Y-120907340D02*
X134350065Y-120107340D01*
X134350065Y-120107340D02*
X134273874Y-120221625D01*
X134273874Y-120221625D02*
X134197684Y-120297816D01*
X134197684Y-120297816D02*
X134121493Y-120335911D01*
X135264351Y-120107340D02*
X135111970Y-120107340D01*
X135111970Y-120107340D02*
X135035779Y-120145435D01*
X135035779Y-120145435D02*
X134997684Y-120183530D01*
X134997684Y-120183530D02*
X134921494Y-120297816D01*
X134921494Y-120297816D02*
X134883398Y-120450197D01*
X134883398Y-120450197D02*
X134883398Y-120754959D01*
X134883398Y-120754959D02*
X134921494Y-120831149D01*
X134921494Y-120831149D02*
X134959589Y-120869245D01*
X134959589Y-120869245D02*
X135035779Y-120907340D01*
X135035779Y-120907340D02*
X135188160Y-120907340D01*
X135188160Y-120907340D02*
X135264351Y-120869245D01*
X135264351Y-120869245D02*
X135302446Y-120831149D01*
X135302446Y-120831149D02*
X135340541Y-120754959D01*
X135340541Y-120754959D02*
X135340541Y-120564483D01*
X135340541Y-120564483D02*
X135302446Y-120488292D01*
X135302446Y-120488292D02*
X135264351Y-120450197D01*
X135264351Y-120450197D02*
X135188160Y-120412102D01*
X135188160Y-120412102D02*
X135035779Y-120412102D01*
X135035779Y-120412102D02*
X134959589Y-120450197D01*
X134959589Y-120450197D02*
X134921494Y-120488292D01*
X134921494Y-120488292D02*
X134883398Y-120564483D01*
X136140542Y-120831149D02*
X136102446Y-120869245D01*
X136102446Y-120869245D02*
X135988161Y-120907340D01*
X135988161Y-120907340D02*
X135911970Y-120907340D01*
X135911970Y-120907340D02*
X135797684Y-120869245D01*
X135797684Y-120869245D02*
X135721494Y-120793054D01*
X135721494Y-120793054D02*
X135683399Y-120716864D01*
X135683399Y-120716864D02*
X135645303Y-120564483D01*
X135645303Y-120564483D02*
X135645303Y-120450197D01*
X135645303Y-120450197D02*
X135683399Y-120297816D01*
X135683399Y-120297816D02*
X135721494Y-120221625D01*
X135721494Y-120221625D02*
X135797684Y-120145435D01*
X135797684Y-120145435D02*
X135911970Y-120107340D01*
X135911970Y-120107340D02*
X135988161Y-120107340D01*
X135988161Y-120107340D02*
X136102446Y-120145435D01*
X136102446Y-120145435D02*
X136140542Y-120183530D01*
X136483399Y-120907340D02*
X136483399Y-120107340D01*
X136483399Y-120107340D02*
X136673875Y-120107340D01*
X136673875Y-120107340D02*
X136788161Y-120145435D01*
X136788161Y-120145435D02*
X136864351Y-120221625D01*
X136864351Y-120221625D02*
X136902446Y-120297816D01*
X136902446Y-120297816D02*
X136940542Y-120450197D01*
X136940542Y-120450197D02*
X136940542Y-120564483D01*
X136940542Y-120564483D02*
X136902446Y-120716864D01*
X136902446Y-120716864D02*
X136864351Y-120793054D01*
X136864351Y-120793054D02*
X136788161Y-120869245D01*
X136788161Y-120869245D02*
X136673875Y-120907340D01*
X136673875Y-120907340D02*
X136483399Y-120907340D01*
X137245303Y-120678768D02*
X137626256Y-120678768D01*
X137169113Y-120907340D02*
X137435780Y-120107340D01*
X137435780Y-120107340D02*
X137702446Y-120907340D01*
X138502446Y-120983530D02*
X138426256Y-120945435D01*
X138426256Y-120945435D02*
X138350065Y-120869245D01*
X138350065Y-120869245D02*
X138235779Y-120754959D01*
X138235779Y-120754959D02*
X138159589Y-120716864D01*
X138159589Y-120716864D02*
X138083398Y-120716864D01*
X138121494Y-120907340D02*
X138045303Y-120869245D01*
X138045303Y-120869245D02*
X137969113Y-120793054D01*
X137969113Y-120793054D02*
X137931017Y-120640673D01*
X137931017Y-120640673D02*
X137931017Y-120374006D01*
X137931017Y-120374006D02*
X137969113Y-120221625D01*
X137969113Y-120221625D02*
X138045303Y-120145435D01*
X138045303Y-120145435D02*
X138121494Y-120107340D01*
X138121494Y-120107340D02*
X138273875Y-120107340D01*
X138273875Y-120107340D02*
X138350065Y-120145435D01*
X138350065Y-120145435D02*
X138426256Y-120221625D01*
X138426256Y-120221625D02*
X138464351Y-120374006D01*
X138464351Y-120374006D02*
X138464351Y-120640673D01*
X138464351Y-120640673D02*
X138426256Y-120793054D01*
X138426256Y-120793054D02*
X138350065Y-120869245D01*
X138350065Y-120869245D02*
X138273875Y-120907340D01*
X138273875Y-120907340D02*
X138121494Y-120907340D01*
X139226255Y-120907340D02*
X138769112Y-120907340D01*
X138997684Y-120907340D02*
X138997684Y-120107340D01*
X138997684Y-120107340D02*
X138921493Y-120221625D01*
X138921493Y-120221625D02*
X138845303Y-120297816D01*
X138845303Y-120297816D02*
X138769112Y-120335911D01*
X140064351Y-120107340D02*
X140331018Y-120907340D01*
X140331018Y-120907340D02*
X140597684Y-120107340D01*
X141283398Y-120907340D02*
X140826255Y-120907340D01*
X141054827Y-120907340D02*
X141054827Y-120107340D01*
X141054827Y-120107340D02*
X140978636Y-120221625D01*
X140978636Y-120221625D02*
X140902446Y-120297816D01*
X140902446Y-120297816D02*
X140826255Y-120335911D01*
X141626256Y-120831149D02*
X141664351Y-120869245D01*
X141664351Y-120869245D02*
X141626256Y-120907340D01*
X141626256Y-120907340D02*
X141588160Y-120869245D01*
X141588160Y-120869245D02*
X141626256Y-120831149D01*
X141626256Y-120831149D02*
X141626256Y-120907340D01*
X142159589Y-120107340D02*
X142235779Y-120107340D01*
X142235779Y-120107340D02*
X142311970Y-120145435D01*
X142311970Y-120145435D02*
X142350065Y-120183530D01*
X142350065Y-120183530D02*
X142388160Y-120259721D01*
X142388160Y-120259721D02*
X142426255Y-120412102D01*
X142426255Y-120412102D02*
X142426255Y-120602578D01*
X142426255Y-120602578D02*
X142388160Y-120754959D01*
X142388160Y-120754959D02*
X142350065Y-120831149D01*
X142350065Y-120831149D02*
X142311970Y-120869245D01*
X142311970Y-120869245D02*
X142235779Y-120907340D01*
X142235779Y-120907340D02*
X142159589Y-120907340D01*
X142159589Y-120907340D02*
X142083398Y-120869245D01*
X142083398Y-120869245D02*
X142045303Y-120831149D01*
X142045303Y-120831149D02*
X142007208Y-120754959D01*
X142007208Y-120754959D02*
X141969112Y-120602578D01*
X141969112Y-120602578D02*
X141969112Y-120412102D01*
X141969112Y-120412102D02*
X142007208Y-120259721D01*
X142007208Y-120259721D02*
X142045303Y-120183530D01*
X142045303Y-120183530D02*
X142083398Y-120145435D01*
X142083398Y-120145435D02*
X142159589Y-120107340D01*
X142921494Y-120107340D02*
X142997684Y-120107340D01*
X142997684Y-120107340D02*
X143073875Y-120145435D01*
X143073875Y-120145435D02*
X143111970Y-120183530D01*
X143111970Y-120183530D02*
X143150065Y-120259721D01*
X143150065Y-120259721D02*
X143188160Y-120412102D01*
X143188160Y-120412102D02*
X143188160Y-120602578D01*
X143188160Y-120602578D02*
X143150065Y-120754959D01*
X143150065Y-120754959D02*
X143111970Y-120831149D01*
X143111970Y-120831149D02*
X143073875Y-120869245D01*
X143073875Y-120869245D02*
X142997684Y-120907340D01*
X142997684Y-120907340D02*
X142921494Y-120907340D01*
X142921494Y-120907340D02*
X142845303Y-120869245D01*
X142845303Y-120869245D02*
X142807208Y-120831149D01*
X142807208Y-120831149D02*
X142769113Y-120754959D01*
X142769113Y-120754959D02*
X142731017Y-120602578D01*
X142731017Y-120602578D02*
X142731017Y-120412102D01*
X142731017Y-120412102D02*
X142769113Y-120259721D01*
X142769113Y-120259721D02*
X142807208Y-120183530D01*
X142807208Y-120183530D02*
X142845303Y-120145435D01*
X142845303Y-120145435D02*
X142921494Y-120107340D01*
X131988160Y-122195295D02*
X131988160Y-121395295D01*
X131988160Y-121395295D02*
X132178636Y-121395295D01*
X132178636Y-121395295D02*
X132292922Y-121433390D01*
X132292922Y-121433390D02*
X132369112Y-121509580D01*
X132369112Y-121509580D02*
X132407207Y-121585771D01*
X132407207Y-121585771D02*
X132445303Y-121738152D01*
X132445303Y-121738152D02*
X132445303Y-121852438D01*
X132445303Y-121852438D02*
X132407207Y-122004819D01*
X132407207Y-122004819D02*
X132369112Y-122081009D01*
X132369112Y-122081009D02*
X132292922Y-122157200D01*
X132292922Y-122157200D02*
X132178636Y-122195295D01*
X132178636Y-122195295D02*
X131988160Y-122195295D01*
X133092922Y-122157200D02*
X133016731Y-122195295D01*
X133016731Y-122195295D02*
X132864350Y-122195295D01*
X132864350Y-122195295D02*
X132788160Y-122157200D01*
X132788160Y-122157200D02*
X132750064Y-122081009D01*
X132750064Y-122081009D02*
X132750064Y-121776247D01*
X132750064Y-121776247D02*
X132788160Y-121700057D01*
X132788160Y-121700057D02*
X132864350Y-121661961D01*
X132864350Y-121661961D02*
X133016731Y-121661961D01*
X133016731Y-121661961D02*
X133092922Y-121700057D01*
X133092922Y-121700057D02*
X133131017Y-121776247D01*
X133131017Y-121776247D02*
X133131017Y-121852438D01*
X133131017Y-121852438D02*
X132750064Y-121928628D01*
X133359588Y-121661961D02*
X133664350Y-121661961D01*
X133473874Y-122195295D02*
X133473874Y-121509580D01*
X133473874Y-121509580D02*
X133511969Y-121433390D01*
X133511969Y-121433390D02*
X133588159Y-121395295D01*
X133588159Y-121395295D02*
X133664350Y-121395295D01*
X134273874Y-122195295D02*
X134273874Y-121776247D01*
X134273874Y-121776247D02*
X134235779Y-121700057D01*
X134235779Y-121700057D02*
X134159588Y-121661961D01*
X134159588Y-121661961D02*
X134007207Y-121661961D01*
X134007207Y-121661961D02*
X133931017Y-121700057D01*
X134273874Y-122157200D02*
X134197683Y-122195295D01*
X134197683Y-122195295D02*
X134007207Y-122195295D01*
X134007207Y-122195295D02*
X133931017Y-122157200D01*
X133931017Y-122157200D02*
X133892921Y-122081009D01*
X133892921Y-122081009D02*
X133892921Y-122004819D01*
X133892921Y-122004819D02*
X133931017Y-121928628D01*
X133931017Y-121928628D02*
X134007207Y-121890533D01*
X134007207Y-121890533D02*
X134197683Y-121890533D01*
X134197683Y-121890533D02*
X134273874Y-121852438D01*
X134997684Y-121661961D02*
X134997684Y-122195295D01*
X134654827Y-121661961D02*
X134654827Y-122081009D01*
X134654827Y-122081009D02*
X134692922Y-122157200D01*
X134692922Y-122157200D02*
X134769112Y-122195295D01*
X134769112Y-122195295D02*
X134883398Y-122195295D01*
X134883398Y-122195295D02*
X134959589Y-122157200D01*
X134959589Y-122157200D02*
X134997684Y-122119104D01*
X135492922Y-122195295D02*
X135416732Y-122157200D01*
X135416732Y-122157200D02*
X135378637Y-122081009D01*
X135378637Y-122081009D02*
X135378637Y-121395295D01*
X135683399Y-121661961D02*
X135988161Y-121661961D01*
X135797685Y-121395295D02*
X135797685Y-122081009D01*
X135797685Y-122081009D02*
X135835780Y-122157200D01*
X135835780Y-122157200D02*
X135911970Y-122195295D01*
X135911970Y-122195295D02*
X135988161Y-122195295D01*
X136864352Y-122195295D02*
X136864352Y-121395295D01*
X137245304Y-122195295D02*
X137245304Y-121395295D01*
X137245304Y-121395295D02*
X137550066Y-121395295D01*
X137550066Y-121395295D02*
X137626256Y-121433390D01*
X137626256Y-121433390D02*
X137664351Y-121471485D01*
X137664351Y-121471485D02*
X137702447Y-121547676D01*
X137702447Y-121547676D02*
X137702447Y-121661961D01*
X137702447Y-121661961D02*
X137664351Y-121738152D01*
X137664351Y-121738152D02*
X137626256Y-121776247D01*
X137626256Y-121776247D02*
X137550066Y-121814342D01*
X137550066Y-121814342D02*
X137245304Y-121814342D01*
X138654828Y-122119104D02*
X138692923Y-122157200D01*
X138692923Y-122157200D02*
X138654828Y-122195295D01*
X138654828Y-122195295D02*
X138616732Y-122157200D01*
X138616732Y-122157200D02*
X138654828Y-122119104D01*
X138654828Y-122119104D02*
X138654828Y-122195295D01*
X138654828Y-121700057D02*
X138692923Y-121738152D01*
X138692923Y-121738152D02*
X138654828Y-121776247D01*
X138654828Y-121776247D02*
X138616732Y-121738152D01*
X138616732Y-121738152D02*
X138654828Y-121700057D01*
X138654828Y-121700057D02*
X138654828Y-121776247D01*
X140064351Y-122195295D02*
X139607208Y-122195295D01*
X139835780Y-122195295D02*
X139835780Y-121395295D01*
X139835780Y-121395295D02*
X139759589Y-121509580D01*
X139759589Y-121509580D02*
X139683399Y-121585771D01*
X139683399Y-121585771D02*
X139607208Y-121623866D01*
X140445304Y-122195295D02*
X140597685Y-122195295D01*
X140597685Y-122195295D02*
X140673875Y-122157200D01*
X140673875Y-122157200D02*
X140711971Y-122119104D01*
X140711971Y-122119104D02*
X140788161Y-122004819D01*
X140788161Y-122004819D02*
X140826256Y-121852438D01*
X140826256Y-121852438D02*
X140826256Y-121547676D01*
X140826256Y-121547676D02*
X140788161Y-121471485D01*
X140788161Y-121471485D02*
X140750066Y-121433390D01*
X140750066Y-121433390D02*
X140673875Y-121395295D01*
X140673875Y-121395295D02*
X140521494Y-121395295D01*
X140521494Y-121395295D02*
X140445304Y-121433390D01*
X140445304Y-121433390D02*
X140407209Y-121471485D01*
X140407209Y-121471485D02*
X140369113Y-121547676D01*
X140369113Y-121547676D02*
X140369113Y-121738152D01*
X140369113Y-121738152D02*
X140407209Y-121814342D01*
X140407209Y-121814342D02*
X140445304Y-121852438D01*
X140445304Y-121852438D02*
X140521494Y-121890533D01*
X140521494Y-121890533D02*
X140673875Y-121890533D01*
X140673875Y-121890533D02*
X140750066Y-121852438D01*
X140750066Y-121852438D02*
X140788161Y-121814342D01*
X140788161Y-121814342D02*
X140826256Y-121738152D01*
X141131018Y-121471485D02*
X141169114Y-121433390D01*
X141169114Y-121433390D02*
X141245304Y-121395295D01*
X141245304Y-121395295D02*
X141435780Y-121395295D01*
X141435780Y-121395295D02*
X141511971Y-121433390D01*
X141511971Y-121433390D02*
X141550066Y-121471485D01*
X141550066Y-121471485D02*
X141588161Y-121547676D01*
X141588161Y-121547676D02*
X141588161Y-121623866D01*
X141588161Y-121623866D02*
X141550066Y-121738152D01*
X141550066Y-121738152D02*
X141092923Y-122195295D01*
X141092923Y-122195295D02*
X141588161Y-122195295D01*
X141931019Y-122119104D02*
X141969114Y-122157200D01*
X141969114Y-122157200D02*
X141931019Y-122195295D01*
X141931019Y-122195295D02*
X141892923Y-122157200D01*
X141892923Y-122157200D02*
X141931019Y-122119104D01*
X141931019Y-122119104D02*
X141931019Y-122195295D01*
X142731018Y-122195295D02*
X142273875Y-122195295D01*
X142502447Y-122195295D02*
X142502447Y-121395295D01*
X142502447Y-121395295D02*
X142426256Y-121509580D01*
X142426256Y-121509580D02*
X142350066Y-121585771D01*
X142350066Y-121585771D02*
X142273875Y-121623866D01*
X143416733Y-121395295D02*
X143264352Y-121395295D01*
X143264352Y-121395295D02*
X143188161Y-121433390D01*
X143188161Y-121433390D02*
X143150066Y-121471485D01*
X143150066Y-121471485D02*
X143073876Y-121585771D01*
X143073876Y-121585771D02*
X143035780Y-121738152D01*
X143035780Y-121738152D02*
X143035780Y-122042914D01*
X143035780Y-122042914D02*
X143073876Y-122119104D01*
X143073876Y-122119104D02*
X143111971Y-122157200D01*
X143111971Y-122157200D02*
X143188161Y-122195295D01*
X143188161Y-122195295D02*
X143340542Y-122195295D01*
X143340542Y-122195295D02*
X143416733Y-122157200D01*
X143416733Y-122157200D02*
X143454828Y-122119104D01*
X143454828Y-122119104D02*
X143492923Y-122042914D01*
X143492923Y-122042914D02*
X143492923Y-121852438D01*
X143492923Y-121852438D02*
X143454828Y-121776247D01*
X143454828Y-121776247D02*
X143416733Y-121738152D01*
X143416733Y-121738152D02*
X143340542Y-121700057D01*
X143340542Y-121700057D02*
X143188161Y-121700057D01*
X143188161Y-121700057D02*
X143111971Y-121738152D01*
X143111971Y-121738152D02*
X143073876Y-121776247D01*
X143073876Y-121776247D02*
X143035780Y-121852438D01*
X143950066Y-121738152D02*
X143873876Y-121700057D01*
X143873876Y-121700057D02*
X143835781Y-121661961D01*
X143835781Y-121661961D02*
X143797685Y-121585771D01*
X143797685Y-121585771D02*
X143797685Y-121547676D01*
X143797685Y-121547676D02*
X143835781Y-121471485D01*
X143835781Y-121471485D02*
X143873876Y-121433390D01*
X143873876Y-121433390D02*
X143950066Y-121395295D01*
X143950066Y-121395295D02*
X144102447Y-121395295D01*
X144102447Y-121395295D02*
X144178638Y-121433390D01*
X144178638Y-121433390D02*
X144216733Y-121471485D01*
X144216733Y-121471485D02*
X144254828Y-121547676D01*
X144254828Y-121547676D02*
X144254828Y-121585771D01*
X144254828Y-121585771D02*
X144216733Y-121661961D01*
X144216733Y-121661961D02*
X144178638Y-121700057D01*
X144178638Y-121700057D02*
X144102447Y-121738152D01*
X144102447Y-121738152D02*
X143950066Y-121738152D01*
X143950066Y-121738152D02*
X143873876Y-121776247D01*
X143873876Y-121776247D02*
X143835781Y-121814342D01*
X143835781Y-121814342D02*
X143797685Y-121890533D01*
X143797685Y-121890533D02*
X143797685Y-122042914D01*
X143797685Y-122042914D02*
X143835781Y-122119104D01*
X143835781Y-122119104D02*
X143873876Y-122157200D01*
X143873876Y-122157200D02*
X143950066Y-122195295D01*
X143950066Y-122195295D02*
X144102447Y-122195295D01*
X144102447Y-122195295D02*
X144178638Y-122157200D01*
X144178638Y-122157200D02*
X144216733Y-122119104D01*
X144216733Y-122119104D02*
X144254828Y-122042914D01*
X144254828Y-122042914D02*
X144254828Y-121890533D01*
X144254828Y-121890533D02*
X144216733Y-121814342D01*
X144216733Y-121814342D02*
X144178638Y-121776247D01*
X144178638Y-121776247D02*
X144102447Y-121738152D01*
X144597686Y-122119104D02*
X144635781Y-122157200D01*
X144635781Y-122157200D02*
X144597686Y-122195295D01*
X144597686Y-122195295D02*
X144559590Y-122157200D01*
X144559590Y-122157200D02*
X144597686Y-122119104D01*
X144597686Y-122119104D02*
X144597686Y-122195295D01*
X145397685Y-122195295D02*
X144940542Y-122195295D01*
X145169114Y-122195295D02*
X145169114Y-121395295D01*
X145169114Y-121395295D02*
X145092923Y-121509580D01*
X145092923Y-121509580D02*
X145016733Y-121585771D01*
X145016733Y-121585771D02*
X144940542Y-121623866D01*
X145740543Y-122119104D02*
X145778638Y-122157200D01*
X145778638Y-122157200D02*
X145740543Y-122195295D01*
X145740543Y-122195295D02*
X145702447Y-122157200D01*
X145702447Y-122157200D02*
X145740543Y-122119104D01*
X145740543Y-122119104D02*
X145740543Y-122195295D01*
X146540542Y-122195295D02*
X146083399Y-122195295D01*
X146311971Y-122195295D02*
X146311971Y-121395295D01*
X146311971Y-121395295D02*
X146235780Y-121509580D01*
X146235780Y-121509580D02*
X146159590Y-121585771D01*
X146159590Y-121585771D02*
X146083399Y-121623866D01*
X146921495Y-122195295D02*
X147073876Y-122195295D01*
X147073876Y-122195295D02*
X147150066Y-122157200D01*
X147150066Y-122157200D02*
X147188162Y-122119104D01*
X147188162Y-122119104D02*
X147264352Y-122004819D01*
X147264352Y-122004819D02*
X147302447Y-121852438D01*
X147302447Y-121852438D02*
X147302447Y-121547676D01*
X147302447Y-121547676D02*
X147264352Y-121471485D01*
X147264352Y-121471485D02*
X147226257Y-121433390D01*
X147226257Y-121433390D02*
X147150066Y-121395295D01*
X147150066Y-121395295D02*
X146997685Y-121395295D01*
X146997685Y-121395295D02*
X146921495Y-121433390D01*
X146921495Y-121433390D02*
X146883400Y-121471485D01*
X146883400Y-121471485D02*
X146845304Y-121547676D01*
X146845304Y-121547676D02*
X146845304Y-121738152D01*
X146845304Y-121738152D02*
X146883400Y-121814342D01*
X146883400Y-121814342D02*
X146921495Y-121852438D01*
X146921495Y-121852438D02*
X146997685Y-121890533D01*
X146997685Y-121890533D02*
X147150066Y-121890533D01*
X147150066Y-121890533D02*
X147226257Y-121852438D01*
X147226257Y-121852438D02*
X147264352Y-121814342D01*
X147264352Y-121814342D02*
X147302447Y-121738152D01*
D11*
X115918804Y-81835331D02*
X115918804Y-81235331D01*
X115918804Y-81235331D02*
X116118804Y-81663902D01*
X116118804Y-81663902D02*
X116318804Y-81235331D01*
X116318804Y-81235331D02*
X116318804Y-81835331D01*
X116575946Y-81292474D02*
X116604518Y-81263902D01*
X116604518Y-81263902D02*
X116661661Y-81235331D01*
X116661661Y-81235331D02*
X116804518Y-81235331D01*
X116804518Y-81235331D02*
X116861661Y-81263902D01*
X116861661Y-81263902D02*
X116890232Y-81292474D01*
X116890232Y-81292474D02*
X116918803Y-81349617D01*
X116918803Y-81349617D02*
X116918803Y-81406760D01*
X116918803Y-81406760D02*
X116890232Y-81492474D01*
X116890232Y-81492474D02*
X116547375Y-81835331D01*
X116547375Y-81835331D02*
X116918803Y-81835331D01*
D13*
X136625857Y-79834828D02*
X137125857Y-81334828D01*
X137125857Y-81334828D02*
X137625857Y-79834828D01*
X138411571Y-79834828D02*
X138697285Y-79834828D01*
X138697285Y-79834828D02*
X138840142Y-79906257D01*
X138840142Y-79906257D02*
X138982999Y-80049114D01*
X138982999Y-80049114D02*
X139054428Y-80334828D01*
X139054428Y-80334828D02*
X139054428Y-80834828D01*
X139054428Y-80834828D02*
X138982999Y-81120542D01*
X138982999Y-81120542D02*
X138840142Y-81263400D01*
X138840142Y-81263400D02*
X138697285Y-81334828D01*
X138697285Y-81334828D02*
X138411571Y-81334828D01*
X138411571Y-81334828D02*
X138268714Y-81263400D01*
X138268714Y-81263400D02*
X138125856Y-81120542D01*
X138125856Y-81120542D02*
X138054428Y-80834828D01*
X138054428Y-80834828D02*
X138054428Y-80334828D01*
X138054428Y-80334828D02*
X138125856Y-80049114D01*
X138125856Y-80049114D02*
X138268714Y-79906257D01*
X138268714Y-79906257D02*
X138411571Y-79834828D01*
X140411571Y-81334828D02*
X139697285Y-81334828D01*
X139697285Y-81334828D02*
X139697285Y-79834828D01*
X140697286Y-79834828D02*
X141554429Y-79834828D01*
X141125857Y-81334828D02*
X141125857Y-79834828D01*
X141983000Y-80906257D02*
X142697286Y-80906257D01*
X141840143Y-81334828D02*
X142340143Y-79834828D01*
X142340143Y-79834828D02*
X142840143Y-81334828D01*
X144125857Y-79906257D02*
X143983000Y-79834828D01*
X143983000Y-79834828D02*
X143768714Y-79834828D01*
X143768714Y-79834828D02*
X143554428Y-79906257D01*
X143554428Y-79906257D02*
X143411571Y-80049114D01*
X143411571Y-80049114D02*
X143340142Y-80191971D01*
X143340142Y-80191971D02*
X143268714Y-80477685D01*
X143268714Y-80477685D02*
X143268714Y-80691971D01*
X143268714Y-80691971D02*
X143340142Y-80977685D01*
X143340142Y-80977685D02*
X143411571Y-81120542D01*
X143411571Y-81120542D02*
X143554428Y-81263400D01*
X143554428Y-81263400D02*
X143768714Y-81334828D01*
X143768714Y-81334828D02*
X143911571Y-81334828D01*
X143911571Y-81334828D02*
X144125857Y-81263400D01*
X144125857Y-81263400D02*
X144197285Y-81191971D01*
X144197285Y-81191971D02*
X144197285Y-80691971D01*
X144197285Y-80691971D02*
X143911571Y-80691971D01*
X144840142Y-80549114D02*
X145340142Y-80549114D01*
X145554428Y-81334828D02*
X144840142Y-81334828D01*
X144840142Y-81334828D02*
X144840142Y-79834828D01*
X144840142Y-79834828D02*
X145554428Y-79834828D01*
X147340142Y-81334828D02*
X147340142Y-79834828D01*
X147340142Y-79834828D02*
X147840142Y-80906257D01*
X147840142Y-80906257D02*
X148340142Y-79834828D01*
X148340142Y-79834828D02*
X148340142Y-81334828D01*
X149054428Y-80549114D02*
X149554428Y-80549114D01*
X149768714Y-81334828D02*
X149054428Y-81334828D01*
X149054428Y-81334828D02*
X149054428Y-79834828D01*
X149054428Y-79834828D02*
X149768714Y-79834828D01*
X150340143Y-80906257D02*
X151054429Y-80906257D01*
X150197286Y-81334828D02*
X150697286Y-79834828D01*
X150697286Y-79834828D02*
X151197286Y-81334828D01*
X151625857Y-81263400D02*
X151840143Y-81334828D01*
X151840143Y-81334828D02*
X152197285Y-81334828D01*
X152197285Y-81334828D02*
X152340143Y-81263400D01*
X152340143Y-81263400D02*
X152411571Y-81191971D01*
X152411571Y-81191971D02*
X152483000Y-81049114D01*
X152483000Y-81049114D02*
X152483000Y-80906257D01*
X152483000Y-80906257D02*
X152411571Y-80763400D01*
X152411571Y-80763400D02*
X152340143Y-80691971D01*
X152340143Y-80691971D02*
X152197285Y-80620542D01*
X152197285Y-80620542D02*
X151911571Y-80549114D01*
X151911571Y-80549114D02*
X151768714Y-80477685D01*
X151768714Y-80477685D02*
X151697285Y-80406257D01*
X151697285Y-80406257D02*
X151625857Y-80263400D01*
X151625857Y-80263400D02*
X151625857Y-80120542D01*
X151625857Y-80120542D02*
X151697285Y-79977685D01*
X151697285Y-79977685D02*
X151768714Y-79906257D01*
X151768714Y-79906257D02*
X151911571Y-79834828D01*
X151911571Y-79834828D02*
X152268714Y-79834828D01*
X152268714Y-79834828D02*
X152483000Y-79906257D01*
X153125856Y-79834828D02*
X153125856Y-81049114D01*
X153125856Y-81049114D02*
X153197285Y-81191971D01*
X153197285Y-81191971D02*
X153268714Y-81263400D01*
X153268714Y-81263400D02*
X153411571Y-81334828D01*
X153411571Y-81334828D02*
X153697285Y-81334828D01*
X153697285Y-81334828D02*
X153840142Y-81263400D01*
X153840142Y-81263400D02*
X153911571Y-81191971D01*
X153911571Y-81191971D02*
X153982999Y-81049114D01*
X153982999Y-81049114D02*
X153982999Y-79834828D01*
X155554428Y-81334828D02*
X155054428Y-80620542D01*
X154697285Y-81334828D02*
X154697285Y-79834828D01*
X154697285Y-79834828D02*
X155268714Y-79834828D01*
X155268714Y-79834828D02*
X155411571Y-79906257D01*
X155411571Y-79906257D02*
X155483000Y-79977685D01*
X155483000Y-79977685D02*
X155554428Y-80120542D01*
X155554428Y-80120542D02*
X155554428Y-80334828D01*
X155554428Y-80334828D02*
X155483000Y-80477685D01*
X155483000Y-80477685D02*
X155411571Y-80549114D01*
X155411571Y-80549114D02*
X155268714Y-80620542D01*
X155268714Y-80620542D02*
X154697285Y-80620542D01*
X156197285Y-80549114D02*
X156697285Y-80549114D01*
X156911571Y-81334828D02*
X156197285Y-81334828D01*
X156197285Y-81334828D02*
X156197285Y-79834828D01*
X156197285Y-79834828D02*
X156911571Y-79834828D01*
X157554428Y-81334828D02*
X157554428Y-79834828D01*
X157554428Y-79834828D02*
X158054428Y-80906257D01*
X158054428Y-80906257D02*
X158554428Y-79834828D01*
X158554428Y-79834828D02*
X158554428Y-81334828D01*
X159268714Y-80549114D02*
X159768714Y-80549114D01*
X159983000Y-81334828D02*
X159268714Y-81334828D01*
X159268714Y-81334828D02*
X159268714Y-79834828D01*
X159268714Y-79834828D02*
X159983000Y-79834828D01*
X160625857Y-81334828D02*
X160625857Y-79834828D01*
X160625857Y-79834828D02*
X161483000Y-81334828D01*
X161483000Y-81334828D02*
X161483000Y-79834828D01*
X161983001Y-79834828D02*
X162840144Y-79834828D01*
X162411572Y-81334828D02*
X162411572Y-79834828D01*
D14*
X188589266Y-112660326D02*
X188589266Y-111898422D01*
X188970219Y-112279374D02*
X188208314Y-112279374D01*
X188065457Y-111469850D02*
X188017838Y-111422231D01*
X188017838Y-111422231D02*
X187970219Y-111326993D01*
X187970219Y-111326993D02*
X187970219Y-111088898D01*
X187970219Y-111088898D02*
X188017838Y-110993660D01*
X188017838Y-110993660D02*
X188065457Y-110946041D01*
X188065457Y-110946041D02*
X188160695Y-110898422D01*
X188160695Y-110898422D02*
X188255933Y-110898422D01*
X188255933Y-110898422D02*
X188398790Y-110946041D01*
X188398790Y-110946041D02*
X188970219Y-111517469D01*
X188970219Y-111517469D02*
X188970219Y-110898422D01*
X188303552Y-110041279D02*
X188970219Y-110041279D01*
X187922600Y-110279374D02*
X188636885Y-110517469D01*
X188636885Y-110517469D02*
X188636885Y-109898422D01*
X187970219Y-108898421D02*
X188970219Y-108565088D01*
X188970219Y-108565088D02*
X187970219Y-108231755D01*
X188970219Y-107898421D02*
X187970219Y-107898421D01*
X187970219Y-107898421D02*
X187970219Y-107660326D01*
X187970219Y-107660326D02*
X188017838Y-107517469D01*
X188017838Y-107517469D02*
X188113076Y-107422231D01*
X188113076Y-107422231D02*
X188208314Y-107374612D01*
X188208314Y-107374612D02*
X188398790Y-107326993D01*
X188398790Y-107326993D02*
X188541647Y-107326993D01*
X188541647Y-107326993D02*
X188732123Y-107374612D01*
X188732123Y-107374612D02*
X188827361Y-107422231D01*
X188827361Y-107422231D02*
X188922600Y-107517469D01*
X188922600Y-107517469D02*
X188970219Y-107660326D01*
X188970219Y-107660326D02*
X188970219Y-107898421D01*
X188874980Y-106326993D02*
X188922600Y-106374612D01*
X188922600Y-106374612D02*
X188970219Y-106517469D01*
X188970219Y-106517469D02*
X188970219Y-106612707D01*
X188970219Y-106612707D02*
X188922600Y-106755564D01*
X188922600Y-106755564D02*
X188827361Y-106850802D01*
X188827361Y-106850802D02*
X188732123Y-106898421D01*
X188732123Y-106898421D02*
X188541647Y-106946040D01*
X188541647Y-106946040D02*
X188398790Y-106946040D01*
X188398790Y-106946040D02*
X188208314Y-106898421D01*
X188208314Y-106898421D02*
X188113076Y-106850802D01*
X188113076Y-106850802D02*
X188017838Y-106755564D01*
X188017838Y-106755564D02*
X187970219Y-106612707D01*
X187970219Y-106612707D02*
X187970219Y-106517469D01*
X187970219Y-106517469D02*
X188017838Y-106374612D01*
X188017838Y-106374612D02*
X188065457Y-106326993D01*
D11*
X172042045Y-102290428D02*
X172042045Y-102490428D01*
X172356331Y-102490428D02*
X171756331Y-102490428D01*
X171756331Y-102490428D02*
X171756331Y-102204714D01*
X172042045Y-101776142D02*
X172070617Y-101690428D01*
X172070617Y-101690428D02*
X172099188Y-101661857D01*
X172099188Y-101661857D02*
X172156331Y-101633285D01*
X172156331Y-101633285D02*
X172242045Y-101633285D01*
X172242045Y-101633285D02*
X172299188Y-101661857D01*
X172299188Y-101661857D02*
X172327760Y-101690428D01*
X172327760Y-101690428D02*
X172356331Y-101747571D01*
X172356331Y-101747571D02*
X172356331Y-101976142D01*
X172356331Y-101976142D02*
X171756331Y-101976142D01*
X171756331Y-101976142D02*
X171756331Y-101776142D01*
X171756331Y-101776142D02*
X171784902Y-101719000D01*
X171784902Y-101719000D02*
X171813474Y-101690428D01*
X171813474Y-101690428D02*
X171870617Y-101661857D01*
X171870617Y-101661857D02*
X171927760Y-101661857D01*
X171927760Y-101661857D02*
X171984902Y-101690428D01*
X171984902Y-101690428D02*
X172013474Y-101719000D01*
X172013474Y-101719000D02*
X172042045Y-101776142D01*
X172042045Y-101776142D02*
X172042045Y-101976142D01*
X171756331Y-101433285D02*
X171756331Y-101061857D01*
X171756331Y-101061857D02*
X171984902Y-101261857D01*
X171984902Y-101261857D02*
X171984902Y-101176142D01*
X171984902Y-101176142D02*
X172013474Y-101119000D01*
X172013474Y-101119000D02*
X172042045Y-101090428D01*
X172042045Y-101090428D02*
X172099188Y-101061857D01*
X172099188Y-101061857D02*
X172242045Y-101061857D01*
X172242045Y-101061857D02*
X172299188Y-101090428D01*
X172299188Y-101090428D02*
X172327760Y-101119000D01*
X172327760Y-101119000D02*
X172356331Y-101176142D01*
X172356331Y-101176142D02*
X172356331Y-101347571D01*
X172356331Y-101347571D02*
X172327760Y-101404714D01*
X172327760Y-101404714D02*
X172299188Y-101433285D01*
X171756331Y-100690428D02*
X171756331Y-100633285D01*
X171756331Y-100633285D02*
X171784902Y-100576142D01*
X171784902Y-100576142D02*
X171813474Y-100547571D01*
X171813474Y-100547571D02*
X171870617Y-100518999D01*
X171870617Y-100518999D02*
X171984902Y-100490428D01*
X171984902Y-100490428D02*
X172127760Y-100490428D01*
X172127760Y-100490428D02*
X172242045Y-100518999D01*
X172242045Y-100518999D02*
X172299188Y-100547571D01*
X172299188Y-100547571D02*
X172327760Y-100576142D01*
X172327760Y-100576142D02*
X172356331Y-100633285D01*
X172356331Y-100633285D02*
X172356331Y-100690428D01*
X172356331Y-100690428D02*
X172327760Y-100747571D01*
X172327760Y-100747571D02*
X172299188Y-100776142D01*
X172299188Y-100776142D02*
X172242045Y-100804713D01*
X172242045Y-100804713D02*
X172127760Y-100833285D01*
X172127760Y-100833285D02*
X171984902Y-100833285D01*
X171984902Y-100833285D02*
X171870617Y-100804713D01*
X171870617Y-100804713D02*
X171813474Y-100776142D01*
X171813474Y-100776142D02*
X171784902Y-100747571D01*
X171784902Y-100747571D02*
X171756331Y-100690428D01*
X172356331Y-99918999D02*
X172356331Y-100261856D01*
X172356331Y-100090427D02*
X171756331Y-100090427D01*
X171756331Y-100090427D02*
X171842045Y-100147570D01*
X171842045Y-100147570D02*
X171899188Y-100204713D01*
X171899188Y-100204713D02*
X171927760Y-100261856D01*
X163031571Y-99712331D02*
X162831571Y-99426617D01*
X162688714Y-99712331D02*
X162688714Y-99112331D01*
X162688714Y-99112331D02*
X162917285Y-99112331D01*
X162917285Y-99112331D02*
X162974428Y-99140902D01*
X162974428Y-99140902D02*
X163002999Y-99169474D01*
X163002999Y-99169474D02*
X163031571Y-99226617D01*
X163031571Y-99226617D02*
X163031571Y-99312331D01*
X163031571Y-99312331D02*
X163002999Y-99369474D01*
X163002999Y-99369474D02*
X162974428Y-99398045D01*
X162974428Y-99398045D02*
X162917285Y-99426617D01*
X162917285Y-99426617D02*
X162688714Y-99426617D01*
X163231571Y-99112331D02*
X163602999Y-99112331D01*
X163602999Y-99112331D02*
X163402999Y-99340902D01*
X163402999Y-99340902D02*
X163488714Y-99340902D01*
X163488714Y-99340902D02*
X163545857Y-99369474D01*
X163545857Y-99369474D02*
X163574428Y-99398045D01*
X163574428Y-99398045D02*
X163602999Y-99455188D01*
X163602999Y-99455188D02*
X163602999Y-99598045D01*
X163602999Y-99598045D02*
X163574428Y-99655188D01*
X163574428Y-99655188D02*
X163545857Y-99683760D01*
X163545857Y-99683760D02*
X163488714Y-99712331D01*
X163488714Y-99712331D02*
X163317285Y-99712331D01*
X163317285Y-99712331D02*
X163260142Y-99683760D01*
X163260142Y-99683760D02*
X163231571Y-99655188D01*
X163974428Y-99112331D02*
X164031571Y-99112331D01*
X164031571Y-99112331D02*
X164088714Y-99140902D01*
X164088714Y-99140902D02*
X164117286Y-99169474D01*
X164117286Y-99169474D02*
X164145857Y-99226617D01*
X164145857Y-99226617D02*
X164174428Y-99340902D01*
X164174428Y-99340902D02*
X164174428Y-99483760D01*
X164174428Y-99483760D02*
X164145857Y-99598045D01*
X164145857Y-99598045D02*
X164117286Y-99655188D01*
X164117286Y-99655188D02*
X164088714Y-99683760D01*
X164088714Y-99683760D02*
X164031571Y-99712331D01*
X164031571Y-99712331D02*
X163974428Y-99712331D01*
X163974428Y-99712331D02*
X163917286Y-99683760D01*
X163917286Y-99683760D02*
X163888714Y-99655188D01*
X163888714Y-99655188D02*
X163860143Y-99598045D01*
X163860143Y-99598045D02*
X163831571Y-99483760D01*
X163831571Y-99483760D02*
X163831571Y-99340902D01*
X163831571Y-99340902D02*
X163860143Y-99226617D01*
X163860143Y-99226617D02*
X163888714Y-99169474D01*
X163888714Y-99169474D02*
X163917286Y-99140902D01*
X163917286Y-99140902D02*
X163974428Y-99112331D01*
X164403000Y-99169474D02*
X164431572Y-99140902D01*
X164431572Y-99140902D02*
X164488715Y-99112331D01*
X164488715Y-99112331D02*
X164631572Y-99112331D01*
X164631572Y-99112331D02*
X164688715Y-99140902D01*
X164688715Y-99140902D02*
X164717286Y-99169474D01*
X164717286Y-99169474D02*
X164745857Y-99226617D01*
X164745857Y-99226617D02*
X164745857Y-99283760D01*
X164745857Y-99283760D02*
X164717286Y-99369474D01*
X164717286Y-99369474D02*
X164374429Y-99712331D01*
X164374429Y-99712331D02*
X164745857Y-99712331D01*
X157951571Y-90003188D02*
X157922999Y-90031760D01*
X157922999Y-90031760D02*
X157837285Y-90060331D01*
X157837285Y-90060331D02*
X157780142Y-90060331D01*
X157780142Y-90060331D02*
X157694428Y-90031760D01*
X157694428Y-90031760D02*
X157637285Y-89974617D01*
X157637285Y-89974617D02*
X157608714Y-89917474D01*
X157608714Y-89917474D02*
X157580142Y-89803188D01*
X157580142Y-89803188D02*
X157580142Y-89717474D01*
X157580142Y-89717474D02*
X157608714Y-89603188D01*
X157608714Y-89603188D02*
X157637285Y-89546045D01*
X157637285Y-89546045D02*
X157694428Y-89488902D01*
X157694428Y-89488902D02*
X157780142Y-89460331D01*
X157780142Y-89460331D02*
X157837285Y-89460331D01*
X157837285Y-89460331D02*
X157922999Y-89488902D01*
X157922999Y-89488902D02*
X157951571Y-89517474D01*
X158180142Y-89517474D02*
X158208714Y-89488902D01*
X158208714Y-89488902D02*
X158265857Y-89460331D01*
X158265857Y-89460331D02*
X158408714Y-89460331D01*
X158408714Y-89460331D02*
X158465857Y-89488902D01*
X158465857Y-89488902D02*
X158494428Y-89517474D01*
X158494428Y-89517474D02*
X158522999Y-89574617D01*
X158522999Y-89574617D02*
X158522999Y-89631760D01*
X158522999Y-89631760D02*
X158494428Y-89717474D01*
X158494428Y-89717474D02*
X158151571Y-90060331D01*
X158151571Y-90060331D02*
X158522999Y-90060331D01*
X159094428Y-90060331D02*
X158751571Y-90060331D01*
X158923000Y-90060331D02*
X158923000Y-89460331D01*
X158923000Y-89460331D02*
X158865857Y-89546045D01*
X158865857Y-89546045D02*
X158808714Y-89603188D01*
X158808714Y-89603188D02*
X158751571Y-89631760D01*
X159323000Y-89517474D02*
X159351572Y-89488902D01*
X159351572Y-89488902D02*
X159408715Y-89460331D01*
X159408715Y-89460331D02*
X159551572Y-89460331D01*
X159551572Y-89460331D02*
X159608715Y-89488902D01*
X159608715Y-89488902D02*
X159637286Y-89517474D01*
X159637286Y-89517474D02*
X159665857Y-89574617D01*
X159665857Y-89574617D02*
X159665857Y-89631760D01*
X159665857Y-89631760D02*
X159637286Y-89717474D01*
X159637286Y-89717474D02*
X159294429Y-90060331D01*
X159294429Y-90060331D02*
X159665857Y-90060331D01*
X151855571Y-121175331D02*
X151655571Y-120889617D01*
X151512714Y-121175331D02*
X151512714Y-120575331D01*
X151512714Y-120575331D02*
X151741285Y-120575331D01*
X151741285Y-120575331D02*
X151798428Y-120603902D01*
X151798428Y-120603902D02*
X151826999Y-120632474D01*
X151826999Y-120632474D02*
X151855571Y-120689617D01*
X151855571Y-120689617D02*
X151855571Y-120775331D01*
X151855571Y-120775331D02*
X151826999Y-120832474D01*
X151826999Y-120832474D02*
X151798428Y-120861045D01*
X151798428Y-120861045D02*
X151741285Y-120889617D01*
X151741285Y-120889617D02*
X151512714Y-120889617D01*
X152398428Y-120575331D02*
X152112714Y-120575331D01*
X152112714Y-120575331D02*
X152084142Y-120861045D01*
X152084142Y-120861045D02*
X152112714Y-120832474D01*
X152112714Y-120832474D02*
X152169857Y-120803902D01*
X152169857Y-120803902D02*
X152312714Y-120803902D01*
X152312714Y-120803902D02*
X152369857Y-120832474D01*
X152369857Y-120832474D02*
X152398428Y-120861045D01*
X152398428Y-120861045D02*
X152426999Y-120918188D01*
X152426999Y-120918188D02*
X152426999Y-121061045D01*
X152426999Y-121061045D02*
X152398428Y-121118188D01*
X152398428Y-121118188D02*
X152369857Y-121146760D01*
X152369857Y-121146760D02*
X152312714Y-121175331D01*
X152312714Y-121175331D02*
X152169857Y-121175331D01*
X152169857Y-121175331D02*
X152112714Y-121146760D01*
X152112714Y-121146760D02*
X152084142Y-121118188D01*
X152798428Y-120575331D02*
X152855571Y-120575331D01*
X152855571Y-120575331D02*
X152912714Y-120603902D01*
X152912714Y-120603902D02*
X152941286Y-120632474D01*
X152941286Y-120632474D02*
X152969857Y-120689617D01*
X152969857Y-120689617D02*
X152998428Y-120803902D01*
X152998428Y-120803902D02*
X152998428Y-120946760D01*
X152998428Y-120946760D02*
X152969857Y-121061045D01*
X152969857Y-121061045D02*
X152941286Y-121118188D01*
X152941286Y-121118188D02*
X152912714Y-121146760D01*
X152912714Y-121146760D02*
X152855571Y-121175331D01*
X152855571Y-121175331D02*
X152798428Y-121175331D01*
X152798428Y-121175331D02*
X152741286Y-121146760D01*
X152741286Y-121146760D02*
X152712714Y-121118188D01*
X152712714Y-121118188D02*
X152684143Y-121061045D01*
X152684143Y-121061045D02*
X152655571Y-120946760D01*
X152655571Y-120946760D02*
X152655571Y-120803902D01*
X152655571Y-120803902D02*
X152684143Y-120689617D01*
X152684143Y-120689617D02*
X152712714Y-120632474D01*
X152712714Y-120632474D02*
X152741286Y-120603902D01*
X152741286Y-120603902D02*
X152798428Y-120575331D01*
X153198429Y-120575331D02*
X153569857Y-120575331D01*
X153569857Y-120575331D02*
X153369857Y-120803902D01*
X153369857Y-120803902D02*
X153455572Y-120803902D01*
X153455572Y-120803902D02*
X153512715Y-120832474D01*
X153512715Y-120832474D02*
X153541286Y-120861045D01*
X153541286Y-120861045D02*
X153569857Y-120918188D01*
X153569857Y-120918188D02*
X153569857Y-121061045D01*
X153569857Y-121061045D02*
X153541286Y-121118188D01*
X153541286Y-121118188D02*
X153512715Y-121146760D01*
X153512715Y-121146760D02*
X153455572Y-121175331D01*
X153455572Y-121175331D02*
X153284143Y-121175331D01*
X153284143Y-121175331D02*
X153227000Y-121146760D01*
X153227000Y-121146760D02*
X153198429Y-121118188D01*
X186315428Y-121740474D02*
X186258285Y-121711902D01*
X186258285Y-121711902D02*
X186201142Y-121654760D01*
X186201142Y-121654760D02*
X186115428Y-121569045D01*
X186115428Y-121569045D02*
X186058285Y-121540474D01*
X186058285Y-121540474D02*
X186001142Y-121540474D01*
X186029713Y-121683331D02*
X185972571Y-121654760D01*
X185972571Y-121654760D02*
X185915428Y-121597617D01*
X185915428Y-121597617D02*
X185886856Y-121483331D01*
X185886856Y-121483331D02*
X185886856Y-121283331D01*
X185886856Y-121283331D02*
X185915428Y-121169045D01*
X185915428Y-121169045D02*
X185972571Y-121111902D01*
X185972571Y-121111902D02*
X186029713Y-121083331D01*
X186029713Y-121083331D02*
X186143999Y-121083331D01*
X186143999Y-121083331D02*
X186201142Y-121111902D01*
X186201142Y-121111902D02*
X186258285Y-121169045D01*
X186258285Y-121169045D02*
X186286856Y-121283331D01*
X186286856Y-121283331D02*
X186286856Y-121483331D01*
X186286856Y-121483331D02*
X186258285Y-121597617D01*
X186258285Y-121597617D02*
X186201142Y-121654760D01*
X186201142Y-121654760D02*
X186143999Y-121683331D01*
X186143999Y-121683331D02*
X186029713Y-121683331D01*
X186829713Y-121083331D02*
X186543999Y-121083331D01*
X186543999Y-121083331D02*
X186515427Y-121369045D01*
X186515427Y-121369045D02*
X186543999Y-121340474D01*
X186543999Y-121340474D02*
X186601142Y-121311902D01*
X186601142Y-121311902D02*
X186743999Y-121311902D01*
X186743999Y-121311902D02*
X186801142Y-121340474D01*
X186801142Y-121340474D02*
X186829713Y-121369045D01*
X186829713Y-121369045D02*
X186858284Y-121426188D01*
X186858284Y-121426188D02*
X186858284Y-121569045D01*
X186858284Y-121569045D02*
X186829713Y-121626188D01*
X186829713Y-121626188D02*
X186801142Y-121654760D01*
X186801142Y-121654760D02*
X186743999Y-121683331D01*
X186743999Y-121683331D02*
X186601142Y-121683331D01*
X186601142Y-121683331D02*
X186543999Y-121654760D01*
X186543999Y-121654760D02*
X186515427Y-121626188D01*
X187229713Y-121083331D02*
X187286856Y-121083331D01*
X187286856Y-121083331D02*
X187343999Y-121111902D01*
X187343999Y-121111902D02*
X187372571Y-121140474D01*
X187372571Y-121140474D02*
X187401142Y-121197617D01*
X187401142Y-121197617D02*
X187429713Y-121311902D01*
X187429713Y-121311902D02*
X187429713Y-121454760D01*
X187429713Y-121454760D02*
X187401142Y-121569045D01*
X187401142Y-121569045D02*
X187372571Y-121626188D01*
X187372571Y-121626188D02*
X187343999Y-121654760D01*
X187343999Y-121654760D02*
X187286856Y-121683331D01*
X187286856Y-121683331D02*
X187229713Y-121683331D01*
X187229713Y-121683331D02*
X187172571Y-121654760D01*
X187172571Y-121654760D02*
X187143999Y-121626188D01*
X187143999Y-121626188D02*
X187115428Y-121569045D01*
X187115428Y-121569045D02*
X187086856Y-121454760D01*
X187086856Y-121454760D02*
X187086856Y-121311902D01*
X187086856Y-121311902D02*
X187115428Y-121197617D01*
X187115428Y-121197617D02*
X187143999Y-121140474D01*
X187143999Y-121140474D02*
X187172571Y-121111902D01*
X187172571Y-121111902D02*
X187229713Y-121083331D01*
X187658285Y-121140474D02*
X187686857Y-121111902D01*
X187686857Y-121111902D02*
X187744000Y-121083331D01*
X187744000Y-121083331D02*
X187886857Y-121083331D01*
X187886857Y-121083331D02*
X187944000Y-121111902D01*
X187944000Y-121111902D02*
X187972571Y-121140474D01*
X187972571Y-121140474D02*
X188001142Y-121197617D01*
X188001142Y-121197617D02*
X188001142Y-121254760D01*
X188001142Y-121254760D02*
X187972571Y-121340474D01*
X187972571Y-121340474D02*
X187629714Y-121683331D01*
X187629714Y-121683331D02*
X188001142Y-121683331D01*
X129338331Y-87769571D02*
X129824045Y-87769571D01*
X129824045Y-87769571D02*
X129881188Y-87741000D01*
X129881188Y-87741000D02*
X129909760Y-87712429D01*
X129909760Y-87712429D02*
X129938331Y-87655286D01*
X129938331Y-87655286D02*
X129938331Y-87541000D01*
X129938331Y-87541000D02*
X129909760Y-87483857D01*
X129909760Y-87483857D02*
X129881188Y-87455286D01*
X129881188Y-87455286D02*
X129824045Y-87426714D01*
X129824045Y-87426714D02*
X129338331Y-87426714D01*
X129395474Y-87169572D02*
X129366902Y-87141000D01*
X129366902Y-87141000D02*
X129338331Y-87083858D01*
X129338331Y-87083858D02*
X129338331Y-86941000D01*
X129338331Y-86941000D02*
X129366902Y-86883858D01*
X129366902Y-86883858D02*
X129395474Y-86855286D01*
X129395474Y-86855286D02*
X129452617Y-86826715D01*
X129452617Y-86826715D02*
X129509760Y-86826715D01*
X129509760Y-86826715D02*
X129595474Y-86855286D01*
X129595474Y-86855286D02*
X129938331Y-87198143D01*
X129938331Y-87198143D02*
X129938331Y-86826715D01*
X129338331Y-86455286D02*
X129338331Y-86398143D01*
X129338331Y-86398143D02*
X129366902Y-86341000D01*
X129366902Y-86341000D02*
X129395474Y-86312429D01*
X129395474Y-86312429D02*
X129452617Y-86283857D01*
X129452617Y-86283857D02*
X129566902Y-86255286D01*
X129566902Y-86255286D02*
X129709760Y-86255286D01*
X129709760Y-86255286D02*
X129824045Y-86283857D01*
X129824045Y-86283857D02*
X129881188Y-86312429D01*
X129881188Y-86312429D02*
X129909760Y-86341000D01*
X129909760Y-86341000D02*
X129938331Y-86398143D01*
X129938331Y-86398143D02*
X129938331Y-86455286D01*
X129938331Y-86455286D02*
X129909760Y-86512429D01*
X129909760Y-86512429D02*
X129881188Y-86541000D01*
X129881188Y-86541000D02*
X129824045Y-86569571D01*
X129824045Y-86569571D02*
X129709760Y-86598143D01*
X129709760Y-86598143D02*
X129566902Y-86598143D01*
X129566902Y-86598143D02*
X129452617Y-86569571D01*
X129452617Y-86569571D02*
X129395474Y-86541000D01*
X129395474Y-86541000D02*
X129366902Y-86512429D01*
X129366902Y-86512429D02*
X129338331Y-86455286D01*
X129938331Y-85683857D02*
X129938331Y-86026714D01*
X129938331Y-85855285D02*
X129338331Y-85855285D01*
X129338331Y-85855285D02*
X129424045Y-85912428D01*
X129424045Y-85912428D02*
X129481188Y-85969571D01*
X129481188Y-85969571D02*
X129509760Y-86026714D01*
X140806571Y-107181188D02*
X140777999Y-107209760D01*
X140777999Y-107209760D02*
X140692285Y-107238331D01*
X140692285Y-107238331D02*
X140635142Y-107238331D01*
X140635142Y-107238331D02*
X140549428Y-107209760D01*
X140549428Y-107209760D02*
X140492285Y-107152617D01*
X140492285Y-107152617D02*
X140463714Y-107095474D01*
X140463714Y-107095474D02*
X140435142Y-106981188D01*
X140435142Y-106981188D02*
X140435142Y-106895474D01*
X140435142Y-106895474D02*
X140463714Y-106781188D01*
X140463714Y-106781188D02*
X140492285Y-106724045D01*
X140492285Y-106724045D02*
X140549428Y-106666902D01*
X140549428Y-106666902D02*
X140635142Y-106638331D01*
X140635142Y-106638331D02*
X140692285Y-106638331D01*
X140692285Y-106638331D02*
X140777999Y-106666902D01*
X140777999Y-106666902D02*
X140806571Y-106695474D01*
X141320857Y-106838331D02*
X141320857Y-107238331D01*
X141177999Y-106609760D02*
X141035142Y-107038331D01*
X141035142Y-107038331D02*
X141406571Y-107038331D01*
X141749428Y-106638331D02*
X141806571Y-106638331D01*
X141806571Y-106638331D02*
X141863714Y-106666902D01*
X141863714Y-106666902D02*
X141892286Y-106695474D01*
X141892286Y-106695474D02*
X141920857Y-106752617D01*
X141920857Y-106752617D02*
X141949428Y-106866902D01*
X141949428Y-106866902D02*
X141949428Y-107009760D01*
X141949428Y-107009760D02*
X141920857Y-107124045D01*
X141920857Y-107124045D02*
X141892286Y-107181188D01*
X141892286Y-107181188D02*
X141863714Y-107209760D01*
X141863714Y-107209760D02*
X141806571Y-107238331D01*
X141806571Y-107238331D02*
X141749428Y-107238331D01*
X141749428Y-107238331D02*
X141692286Y-107209760D01*
X141692286Y-107209760D02*
X141663714Y-107181188D01*
X141663714Y-107181188D02*
X141635143Y-107124045D01*
X141635143Y-107124045D02*
X141606571Y-107009760D01*
X141606571Y-107009760D02*
X141606571Y-106866902D01*
X141606571Y-106866902D02*
X141635143Y-106752617D01*
X141635143Y-106752617D02*
X141663714Y-106695474D01*
X141663714Y-106695474D02*
X141692286Y-106666902D01*
X141692286Y-106666902D02*
X141749428Y-106638331D01*
X142492286Y-106638331D02*
X142206572Y-106638331D01*
X142206572Y-106638331D02*
X142178000Y-106924045D01*
X142178000Y-106924045D02*
X142206572Y-106895474D01*
X142206572Y-106895474D02*
X142263715Y-106866902D01*
X142263715Y-106866902D02*
X142406572Y-106866902D01*
X142406572Y-106866902D02*
X142463715Y-106895474D01*
X142463715Y-106895474D02*
X142492286Y-106924045D01*
X142492286Y-106924045D02*
X142520857Y-106981188D01*
X142520857Y-106981188D02*
X142520857Y-107124045D01*
X142520857Y-107124045D02*
X142492286Y-107181188D01*
X142492286Y-107181188D02*
X142463715Y-107209760D01*
X142463715Y-107209760D02*
X142406572Y-107238331D01*
X142406572Y-107238331D02*
X142263715Y-107238331D01*
X142263715Y-107238331D02*
X142206572Y-107209760D01*
X142206572Y-107209760D02*
X142178000Y-107181188D01*
X132678571Y-111396331D02*
X132478571Y-111110617D01*
X132335714Y-111396331D02*
X132335714Y-110796331D01*
X132335714Y-110796331D02*
X132564285Y-110796331D01*
X132564285Y-110796331D02*
X132621428Y-110824902D01*
X132621428Y-110824902D02*
X132649999Y-110853474D01*
X132649999Y-110853474D02*
X132678571Y-110910617D01*
X132678571Y-110910617D02*
X132678571Y-110996331D01*
X132678571Y-110996331D02*
X132649999Y-111053474D01*
X132649999Y-111053474D02*
X132621428Y-111082045D01*
X132621428Y-111082045D02*
X132564285Y-111110617D01*
X132564285Y-111110617D02*
X132335714Y-111110617D01*
X133192857Y-110996331D02*
X133192857Y-111396331D01*
X133049999Y-110767760D02*
X132907142Y-111196331D01*
X132907142Y-111196331D02*
X133278571Y-111196331D01*
X133621428Y-110796331D02*
X133678571Y-110796331D01*
X133678571Y-110796331D02*
X133735714Y-110824902D01*
X133735714Y-110824902D02*
X133764286Y-110853474D01*
X133764286Y-110853474D02*
X133792857Y-110910617D01*
X133792857Y-110910617D02*
X133821428Y-111024902D01*
X133821428Y-111024902D02*
X133821428Y-111167760D01*
X133821428Y-111167760D02*
X133792857Y-111282045D01*
X133792857Y-111282045D02*
X133764286Y-111339188D01*
X133764286Y-111339188D02*
X133735714Y-111367760D01*
X133735714Y-111367760D02*
X133678571Y-111396331D01*
X133678571Y-111396331D02*
X133621428Y-111396331D01*
X133621428Y-111396331D02*
X133564286Y-111367760D01*
X133564286Y-111367760D02*
X133535714Y-111339188D01*
X133535714Y-111339188D02*
X133507143Y-111282045D01*
X133507143Y-111282045D02*
X133478571Y-111167760D01*
X133478571Y-111167760D02*
X133478571Y-111024902D01*
X133478571Y-111024902D02*
X133507143Y-110910617D01*
X133507143Y-110910617D02*
X133535714Y-110853474D01*
X133535714Y-110853474D02*
X133564286Y-110824902D01*
X133564286Y-110824902D02*
X133621428Y-110796331D01*
X134392857Y-111396331D02*
X134050000Y-111396331D01*
X134221429Y-111396331D02*
X134221429Y-110796331D01*
X134221429Y-110796331D02*
X134164286Y-110882045D01*
X134164286Y-110882045D02*
X134107143Y-110939188D01*
X134107143Y-110939188D02*
X134050000Y-110967760D01*
X149750331Y-119416428D02*
X149464617Y-119616428D01*
X149750331Y-119759285D02*
X149150331Y-119759285D01*
X149150331Y-119759285D02*
X149150331Y-119530714D01*
X149150331Y-119530714D02*
X149178902Y-119473571D01*
X149178902Y-119473571D02*
X149207474Y-119445000D01*
X149207474Y-119445000D02*
X149264617Y-119416428D01*
X149264617Y-119416428D02*
X149350331Y-119416428D01*
X149350331Y-119416428D02*
X149407474Y-119445000D01*
X149407474Y-119445000D02*
X149436045Y-119473571D01*
X149436045Y-119473571D02*
X149464617Y-119530714D01*
X149464617Y-119530714D02*
X149464617Y-119759285D01*
X149150331Y-118873571D02*
X149150331Y-119159285D01*
X149150331Y-119159285D02*
X149436045Y-119187857D01*
X149436045Y-119187857D02*
X149407474Y-119159285D01*
X149407474Y-119159285D02*
X149378902Y-119102143D01*
X149378902Y-119102143D02*
X149378902Y-118959285D01*
X149378902Y-118959285D02*
X149407474Y-118902143D01*
X149407474Y-118902143D02*
X149436045Y-118873571D01*
X149436045Y-118873571D02*
X149493188Y-118845000D01*
X149493188Y-118845000D02*
X149636045Y-118845000D01*
X149636045Y-118845000D02*
X149693188Y-118873571D01*
X149693188Y-118873571D02*
X149721760Y-118902143D01*
X149721760Y-118902143D02*
X149750331Y-118959285D01*
X149750331Y-118959285D02*
X149750331Y-119102143D01*
X149750331Y-119102143D02*
X149721760Y-119159285D01*
X149721760Y-119159285D02*
X149693188Y-119187857D01*
X149150331Y-118473571D02*
X149150331Y-118416428D01*
X149150331Y-118416428D02*
X149178902Y-118359285D01*
X149178902Y-118359285D02*
X149207474Y-118330714D01*
X149207474Y-118330714D02*
X149264617Y-118302142D01*
X149264617Y-118302142D02*
X149378902Y-118273571D01*
X149378902Y-118273571D02*
X149521760Y-118273571D01*
X149521760Y-118273571D02*
X149636045Y-118302142D01*
X149636045Y-118302142D02*
X149693188Y-118330714D01*
X149693188Y-118330714D02*
X149721760Y-118359285D01*
X149721760Y-118359285D02*
X149750331Y-118416428D01*
X149750331Y-118416428D02*
X149750331Y-118473571D01*
X149750331Y-118473571D02*
X149721760Y-118530714D01*
X149721760Y-118530714D02*
X149693188Y-118559285D01*
X149693188Y-118559285D02*
X149636045Y-118587856D01*
X149636045Y-118587856D02*
X149521760Y-118616428D01*
X149521760Y-118616428D02*
X149378902Y-118616428D01*
X149378902Y-118616428D02*
X149264617Y-118587856D01*
X149264617Y-118587856D02*
X149207474Y-118559285D01*
X149207474Y-118559285D02*
X149178902Y-118530714D01*
X149178902Y-118530714D02*
X149150331Y-118473571D01*
X149350331Y-117759285D02*
X149750331Y-117759285D01*
X149121760Y-117902142D02*
X149550331Y-118044999D01*
X149550331Y-118044999D02*
X149550331Y-117673570D01*
X151728571Y-111777331D02*
X151528571Y-111491617D01*
X151385714Y-111777331D02*
X151385714Y-111177331D01*
X151385714Y-111177331D02*
X151614285Y-111177331D01*
X151614285Y-111177331D02*
X151671428Y-111205902D01*
X151671428Y-111205902D02*
X151699999Y-111234474D01*
X151699999Y-111234474D02*
X151728571Y-111291617D01*
X151728571Y-111291617D02*
X151728571Y-111377331D01*
X151728571Y-111377331D02*
X151699999Y-111434474D01*
X151699999Y-111434474D02*
X151671428Y-111463045D01*
X151671428Y-111463045D02*
X151614285Y-111491617D01*
X151614285Y-111491617D02*
X151385714Y-111491617D01*
X152271428Y-111177331D02*
X151985714Y-111177331D01*
X151985714Y-111177331D02*
X151957142Y-111463045D01*
X151957142Y-111463045D02*
X151985714Y-111434474D01*
X151985714Y-111434474D02*
X152042857Y-111405902D01*
X152042857Y-111405902D02*
X152185714Y-111405902D01*
X152185714Y-111405902D02*
X152242857Y-111434474D01*
X152242857Y-111434474D02*
X152271428Y-111463045D01*
X152271428Y-111463045D02*
X152299999Y-111520188D01*
X152299999Y-111520188D02*
X152299999Y-111663045D01*
X152299999Y-111663045D02*
X152271428Y-111720188D01*
X152271428Y-111720188D02*
X152242857Y-111748760D01*
X152242857Y-111748760D02*
X152185714Y-111777331D01*
X152185714Y-111777331D02*
X152042857Y-111777331D01*
X152042857Y-111777331D02*
X151985714Y-111748760D01*
X151985714Y-111748760D02*
X151957142Y-111720188D01*
X152671428Y-111177331D02*
X152728571Y-111177331D01*
X152728571Y-111177331D02*
X152785714Y-111205902D01*
X152785714Y-111205902D02*
X152814286Y-111234474D01*
X152814286Y-111234474D02*
X152842857Y-111291617D01*
X152842857Y-111291617D02*
X152871428Y-111405902D01*
X152871428Y-111405902D02*
X152871428Y-111548760D01*
X152871428Y-111548760D02*
X152842857Y-111663045D01*
X152842857Y-111663045D02*
X152814286Y-111720188D01*
X152814286Y-111720188D02*
X152785714Y-111748760D01*
X152785714Y-111748760D02*
X152728571Y-111777331D01*
X152728571Y-111777331D02*
X152671428Y-111777331D01*
X152671428Y-111777331D02*
X152614286Y-111748760D01*
X152614286Y-111748760D02*
X152585714Y-111720188D01*
X152585714Y-111720188D02*
X152557143Y-111663045D01*
X152557143Y-111663045D02*
X152528571Y-111548760D01*
X152528571Y-111548760D02*
X152528571Y-111405902D01*
X152528571Y-111405902D02*
X152557143Y-111291617D01*
X152557143Y-111291617D02*
X152585714Y-111234474D01*
X152585714Y-111234474D02*
X152614286Y-111205902D01*
X152614286Y-111205902D02*
X152671428Y-111177331D01*
X153385715Y-111177331D02*
X153271429Y-111177331D01*
X153271429Y-111177331D02*
X153214286Y-111205902D01*
X153214286Y-111205902D02*
X153185715Y-111234474D01*
X153185715Y-111234474D02*
X153128572Y-111320188D01*
X153128572Y-111320188D02*
X153100000Y-111434474D01*
X153100000Y-111434474D02*
X153100000Y-111663045D01*
X153100000Y-111663045D02*
X153128572Y-111720188D01*
X153128572Y-111720188D02*
X153157143Y-111748760D01*
X153157143Y-111748760D02*
X153214286Y-111777331D01*
X153214286Y-111777331D02*
X153328572Y-111777331D01*
X153328572Y-111777331D02*
X153385715Y-111748760D01*
X153385715Y-111748760D02*
X153414286Y-111720188D01*
X153414286Y-111720188D02*
X153442857Y-111663045D01*
X153442857Y-111663045D02*
X153442857Y-111520188D01*
X153442857Y-111520188D02*
X153414286Y-111463045D01*
X153414286Y-111463045D02*
X153385715Y-111434474D01*
X153385715Y-111434474D02*
X153328572Y-111405902D01*
X153328572Y-111405902D02*
X153214286Y-111405902D01*
X153214286Y-111405902D02*
X153157143Y-111434474D01*
X153157143Y-111434474D02*
X153128572Y-111463045D01*
X153128572Y-111463045D02*
X153100000Y-111520188D01*
X162717285Y-91711331D02*
X162517285Y-91425617D01*
X162374428Y-91711331D02*
X162374428Y-91111331D01*
X162374428Y-91111331D02*
X162602999Y-91111331D01*
X162602999Y-91111331D02*
X162660142Y-91139902D01*
X162660142Y-91139902D02*
X162688713Y-91168474D01*
X162688713Y-91168474D02*
X162717285Y-91225617D01*
X162717285Y-91225617D02*
X162717285Y-91311331D01*
X162717285Y-91311331D02*
X162688713Y-91368474D01*
X162688713Y-91368474D02*
X162660142Y-91397045D01*
X162660142Y-91397045D02*
X162602999Y-91425617D01*
X162602999Y-91425617D02*
X162374428Y-91425617D01*
X162974428Y-91711331D02*
X162974428Y-91111331D01*
X162974428Y-91111331D02*
X163317285Y-91711331D01*
X163317285Y-91711331D02*
X163317285Y-91111331D01*
X163545856Y-91111331D02*
X163917284Y-91111331D01*
X163917284Y-91111331D02*
X163717284Y-91339902D01*
X163717284Y-91339902D02*
X163802999Y-91339902D01*
X163802999Y-91339902D02*
X163860142Y-91368474D01*
X163860142Y-91368474D02*
X163888713Y-91397045D01*
X163888713Y-91397045D02*
X163917284Y-91454188D01*
X163917284Y-91454188D02*
X163917284Y-91597045D01*
X163917284Y-91597045D02*
X163888713Y-91654188D01*
X163888713Y-91654188D02*
X163860142Y-91682760D01*
X163860142Y-91682760D02*
X163802999Y-91711331D01*
X163802999Y-91711331D02*
X163631570Y-91711331D01*
X163631570Y-91711331D02*
X163574427Y-91682760D01*
X163574427Y-91682760D02*
X163545856Y-91654188D01*
X164288713Y-91111331D02*
X164345856Y-91111331D01*
X164345856Y-91111331D02*
X164402999Y-91139902D01*
X164402999Y-91139902D02*
X164431571Y-91168474D01*
X164431571Y-91168474D02*
X164460142Y-91225617D01*
X164460142Y-91225617D02*
X164488713Y-91339902D01*
X164488713Y-91339902D02*
X164488713Y-91482760D01*
X164488713Y-91482760D02*
X164460142Y-91597045D01*
X164460142Y-91597045D02*
X164431571Y-91654188D01*
X164431571Y-91654188D02*
X164402999Y-91682760D01*
X164402999Y-91682760D02*
X164345856Y-91711331D01*
X164345856Y-91711331D02*
X164288713Y-91711331D01*
X164288713Y-91711331D02*
X164231571Y-91682760D01*
X164231571Y-91682760D02*
X164202999Y-91654188D01*
X164202999Y-91654188D02*
X164174428Y-91597045D01*
X164174428Y-91597045D02*
X164145856Y-91482760D01*
X164145856Y-91482760D02*
X164145856Y-91339902D01*
X164145856Y-91339902D02*
X164174428Y-91225617D01*
X164174428Y-91225617D02*
X164202999Y-91168474D01*
X164202999Y-91168474D02*
X164231571Y-91139902D01*
X164231571Y-91139902D02*
X164288713Y-91111331D01*
X165060142Y-91711331D02*
X164717285Y-91711331D01*
X164888714Y-91711331D02*
X164888714Y-91111331D01*
X164888714Y-91111331D02*
X164831571Y-91197045D01*
X164831571Y-91197045D02*
X164774428Y-91254188D01*
X164774428Y-91254188D02*
X164717285Y-91282760D01*
X157951571Y-93997331D02*
X157751571Y-93711617D01*
X157608714Y-93997331D02*
X157608714Y-93397331D01*
X157608714Y-93397331D02*
X157837285Y-93397331D01*
X157837285Y-93397331D02*
X157894428Y-93425902D01*
X157894428Y-93425902D02*
X157922999Y-93454474D01*
X157922999Y-93454474D02*
X157951571Y-93511617D01*
X157951571Y-93511617D02*
X157951571Y-93597331D01*
X157951571Y-93597331D02*
X157922999Y-93654474D01*
X157922999Y-93654474D02*
X157894428Y-93683045D01*
X157894428Y-93683045D02*
X157837285Y-93711617D01*
X157837285Y-93711617D02*
X157608714Y-93711617D01*
X158180142Y-93454474D02*
X158208714Y-93425902D01*
X158208714Y-93425902D02*
X158265857Y-93397331D01*
X158265857Y-93397331D02*
X158408714Y-93397331D01*
X158408714Y-93397331D02*
X158465857Y-93425902D01*
X158465857Y-93425902D02*
X158494428Y-93454474D01*
X158494428Y-93454474D02*
X158522999Y-93511617D01*
X158522999Y-93511617D02*
X158522999Y-93568760D01*
X158522999Y-93568760D02*
X158494428Y-93654474D01*
X158494428Y-93654474D02*
X158151571Y-93997331D01*
X158151571Y-93997331D02*
X158522999Y-93997331D01*
X158894428Y-93397331D02*
X158951571Y-93397331D01*
X158951571Y-93397331D02*
X159008714Y-93425902D01*
X159008714Y-93425902D02*
X159037286Y-93454474D01*
X159037286Y-93454474D02*
X159065857Y-93511617D01*
X159065857Y-93511617D02*
X159094428Y-93625902D01*
X159094428Y-93625902D02*
X159094428Y-93768760D01*
X159094428Y-93768760D02*
X159065857Y-93883045D01*
X159065857Y-93883045D02*
X159037286Y-93940188D01*
X159037286Y-93940188D02*
X159008714Y-93968760D01*
X159008714Y-93968760D02*
X158951571Y-93997331D01*
X158951571Y-93997331D02*
X158894428Y-93997331D01*
X158894428Y-93997331D02*
X158837286Y-93968760D01*
X158837286Y-93968760D02*
X158808714Y-93940188D01*
X158808714Y-93940188D02*
X158780143Y-93883045D01*
X158780143Y-93883045D02*
X158751571Y-93768760D01*
X158751571Y-93768760D02*
X158751571Y-93625902D01*
X158751571Y-93625902D02*
X158780143Y-93511617D01*
X158780143Y-93511617D02*
X158808714Y-93454474D01*
X158808714Y-93454474D02*
X158837286Y-93425902D01*
X158837286Y-93425902D02*
X158894428Y-93397331D01*
X159323000Y-93454474D02*
X159351572Y-93425902D01*
X159351572Y-93425902D02*
X159408715Y-93397331D01*
X159408715Y-93397331D02*
X159551572Y-93397331D01*
X159551572Y-93397331D02*
X159608715Y-93425902D01*
X159608715Y-93425902D02*
X159637286Y-93454474D01*
X159637286Y-93454474D02*
X159665857Y-93511617D01*
X159665857Y-93511617D02*
X159665857Y-93568760D01*
X159665857Y-93568760D02*
X159637286Y-93654474D01*
X159637286Y-93654474D02*
X159294429Y-93997331D01*
X159294429Y-93997331D02*
X159665857Y-93997331D01*
X126407731Y-111834485D02*
X125807731Y-111834485D01*
X126407731Y-111491628D02*
X126064874Y-111748771D01*
X125807731Y-111491628D02*
X126150588Y-111834485D01*
X126007731Y-110977343D02*
X126407731Y-110977343D01*
X125779160Y-111120200D02*
X126207731Y-111263057D01*
X126207731Y-111263057D02*
X126207731Y-110891628D01*
X126407731Y-110348771D02*
X126407731Y-110691628D01*
X126407731Y-110520199D02*
X125807731Y-110520199D01*
X125807731Y-110520199D02*
X125893445Y-110577342D01*
X125893445Y-110577342D02*
X125950588Y-110634485D01*
X125950588Y-110634485D02*
X125979160Y-110691628D01*
X125807731Y-109805913D02*
X125807731Y-110091627D01*
X125807731Y-110091627D02*
X126093445Y-110120199D01*
X126093445Y-110120199D02*
X126064874Y-110091627D01*
X126064874Y-110091627D02*
X126036302Y-110034485D01*
X126036302Y-110034485D02*
X126036302Y-109891627D01*
X126036302Y-109891627D02*
X126064874Y-109834485D01*
X126064874Y-109834485D02*
X126093445Y-109805913D01*
X126093445Y-109805913D02*
X126150588Y-109777342D01*
X126150588Y-109777342D02*
X126293445Y-109777342D01*
X126293445Y-109777342D02*
X126350588Y-109805913D01*
X126350588Y-109805913D02*
X126379160Y-109834485D01*
X126379160Y-109834485D02*
X126407731Y-109891627D01*
X126407731Y-109891627D02*
X126407731Y-110034485D01*
X126407731Y-110034485D02*
X126379160Y-110091627D01*
X126379160Y-110091627D02*
X126350588Y-110120199D01*
X132805571Y-114190331D02*
X132605571Y-113904617D01*
X132462714Y-114190331D02*
X132462714Y-113590331D01*
X132462714Y-113590331D02*
X132691285Y-113590331D01*
X132691285Y-113590331D02*
X132748428Y-113618902D01*
X132748428Y-113618902D02*
X132776999Y-113647474D01*
X132776999Y-113647474D02*
X132805571Y-113704617D01*
X132805571Y-113704617D02*
X132805571Y-113790331D01*
X132805571Y-113790331D02*
X132776999Y-113847474D01*
X132776999Y-113847474D02*
X132748428Y-113876045D01*
X132748428Y-113876045D02*
X132691285Y-113904617D01*
X132691285Y-113904617D02*
X132462714Y-113904617D01*
X133319857Y-113790331D02*
X133319857Y-114190331D01*
X133176999Y-113561760D02*
X133034142Y-113990331D01*
X133034142Y-113990331D02*
X133405571Y-113990331D01*
X133748428Y-113590331D02*
X133805571Y-113590331D01*
X133805571Y-113590331D02*
X133862714Y-113618902D01*
X133862714Y-113618902D02*
X133891286Y-113647474D01*
X133891286Y-113647474D02*
X133919857Y-113704617D01*
X133919857Y-113704617D02*
X133948428Y-113818902D01*
X133948428Y-113818902D02*
X133948428Y-113961760D01*
X133948428Y-113961760D02*
X133919857Y-114076045D01*
X133919857Y-114076045D02*
X133891286Y-114133188D01*
X133891286Y-114133188D02*
X133862714Y-114161760D01*
X133862714Y-114161760D02*
X133805571Y-114190331D01*
X133805571Y-114190331D02*
X133748428Y-114190331D01*
X133748428Y-114190331D02*
X133691286Y-114161760D01*
X133691286Y-114161760D02*
X133662714Y-114133188D01*
X133662714Y-114133188D02*
X133634143Y-114076045D01*
X133634143Y-114076045D02*
X133605571Y-113961760D01*
X133605571Y-113961760D02*
X133605571Y-113818902D01*
X133605571Y-113818902D02*
X133634143Y-113704617D01*
X133634143Y-113704617D02*
X133662714Y-113647474D01*
X133662714Y-113647474D02*
X133691286Y-113618902D01*
X133691286Y-113618902D02*
X133748428Y-113590331D01*
X134177000Y-113647474D02*
X134205572Y-113618902D01*
X134205572Y-113618902D02*
X134262715Y-113590331D01*
X134262715Y-113590331D02*
X134405572Y-113590331D01*
X134405572Y-113590331D02*
X134462715Y-113618902D01*
X134462715Y-113618902D02*
X134491286Y-113647474D01*
X134491286Y-113647474D02*
X134519857Y-113704617D01*
X134519857Y-113704617D02*
X134519857Y-113761760D01*
X134519857Y-113761760D02*
X134491286Y-113847474D01*
X134491286Y-113847474D02*
X134148429Y-114190331D01*
X134148429Y-114190331D02*
X134519857Y-114190331D01*
X169378188Y-101636428D02*
X169406760Y-101665000D01*
X169406760Y-101665000D02*
X169435331Y-101750714D01*
X169435331Y-101750714D02*
X169435331Y-101807857D01*
X169435331Y-101807857D02*
X169406760Y-101893571D01*
X169406760Y-101893571D02*
X169349617Y-101950714D01*
X169349617Y-101950714D02*
X169292474Y-101979285D01*
X169292474Y-101979285D02*
X169178188Y-102007857D01*
X169178188Y-102007857D02*
X169092474Y-102007857D01*
X169092474Y-102007857D02*
X168978188Y-101979285D01*
X168978188Y-101979285D02*
X168921045Y-101950714D01*
X168921045Y-101950714D02*
X168863902Y-101893571D01*
X168863902Y-101893571D02*
X168835331Y-101807857D01*
X168835331Y-101807857D02*
X168835331Y-101750714D01*
X168835331Y-101750714D02*
X168863902Y-101665000D01*
X168863902Y-101665000D02*
X168892474Y-101636428D01*
X168835331Y-101436428D02*
X168835331Y-101065000D01*
X168835331Y-101065000D02*
X169063902Y-101265000D01*
X169063902Y-101265000D02*
X169063902Y-101179285D01*
X169063902Y-101179285D02*
X169092474Y-101122143D01*
X169092474Y-101122143D02*
X169121045Y-101093571D01*
X169121045Y-101093571D02*
X169178188Y-101065000D01*
X169178188Y-101065000D02*
X169321045Y-101065000D01*
X169321045Y-101065000D02*
X169378188Y-101093571D01*
X169378188Y-101093571D02*
X169406760Y-101122143D01*
X169406760Y-101122143D02*
X169435331Y-101179285D01*
X169435331Y-101179285D02*
X169435331Y-101350714D01*
X169435331Y-101350714D02*
X169406760Y-101407857D01*
X169406760Y-101407857D02*
X169378188Y-101436428D01*
X168835331Y-100693571D02*
X168835331Y-100636428D01*
X168835331Y-100636428D02*
X168863902Y-100579285D01*
X168863902Y-100579285D02*
X168892474Y-100550714D01*
X168892474Y-100550714D02*
X168949617Y-100522142D01*
X168949617Y-100522142D02*
X169063902Y-100493571D01*
X169063902Y-100493571D02*
X169206760Y-100493571D01*
X169206760Y-100493571D02*
X169321045Y-100522142D01*
X169321045Y-100522142D02*
X169378188Y-100550714D01*
X169378188Y-100550714D02*
X169406760Y-100579285D01*
X169406760Y-100579285D02*
X169435331Y-100636428D01*
X169435331Y-100636428D02*
X169435331Y-100693571D01*
X169435331Y-100693571D02*
X169406760Y-100750714D01*
X169406760Y-100750714D02*
X169378188Y-100779285D01*
X169378188Y-100779285D02*
X169321045Y-100807856D01*
X169321045Y-100807856D02*
X169206760Y-100836428D01*
X169206760Y-100836428D02*
X169063902Y-100836428D01*
X169063902Y-100836428D02*
X168949617Y-100807856D01*
X168949617Y-100807856D02*
X168892474Y-100779285D01*
X168892474Y-100779285D02*
X168863902Y-100750714D01*
X168863902Y-100750714D02*
X168835331Y-100693571D01*
X168835331Y-100293570D02*
X168835331Y-99893570D01*
X168835331Y-99893570D02*
X169435331Y-100150713D01*
X153998331Y-94373571D02*
X154484045Y-94373571D01*
X154484045Y-94373571D02*
X154541188Y-94345000D01*
X154541188Y-94345000D02*
X154569760Y-94316429D01*
X154569760Y-94316429D02*
X154598331Y-94259286D01*
X154598331Y-94259286D02*
X154598331Y-94145000D01*
X154598331Y-94145000D02*
X154569760Y-94087857D01*
X154569760Y-94087857D02*
X154541188Y-94059286D01*
X154541188Y-94059286D02*
X154484045Y-94030714D01*
X154484045Y-94030714D02*
X153998331Y-94030714D01*
X154055474Y-93773572D02*
X154026902Y-93745000D01*
X154026902Y-93745000D02*
X153998331Y-93687858D01*
X153998331Y-93687858D02*
X153998331Y-93545000D01*
X153998331Y-93545000D02*
X154026902Y-93487858D01*
X154026902Y-93487858D02*
X154055474Y-93459286D01*
X154055474Y-93459286D02*
X154112617Y-93430715D01*
X154112617Y-93430715D02*
X154169760Y-93430715D01*
X154169760Y-93430715D02*
X154255474Y-93459286D01*
X154255474Y-93459286D02*
X154598331Y-93802143D01*
X154598331Y-93802143D02*
X154598331Y-93430715D01*
X153998331Y-93059286D02*
X153998331Y-93002143D01*
X153998331Y-93002143D02*
X154026902Y-92945000D01*
X154026902Y-92945000D02*
X154055474Y-92916429D01*
X154055474Y-92916429D02*
X154112617Y-92887857D01*
X154112617Y-92887857D02*
X154226902Y-92859286D01*
X154226902Y-92859286D02*
X154369760Y-92859286D01*
X154369760Y-92859286D02*
X154484045Y-92887857D01*
X154484045Y-92887857D02*
X154541188Y-92916429D01*
X154541188Y-92916429D02*
X154569760Y-92945000D01*
X154569760Y-92945000D02*
X154598331Y-93002143D01*
X154598331Y-93002143D02*
X154598331Y-93059286D01*
X154598331Y-93059286D02*
X154569760Y-93116429D01*
X154569760Y-93116429D02*
X154541188Y-93145000D01*
X154541188Y-93145000D02*
X154484045Y-93173571D01*
X154484045Y-93173571D02*
X154369760Y-93202143D01*
X154369760Y-93202143D02*
X154226902Y-93202143D01*
X154226902Y-93202143D02*
X154112617Y-93173571D01*
X154112617Y-93173571D02*
X154055474Y-93145000D01*
X154055474Y-93145000D02*
X154026902Y-93116429D01*
X154026902Y-93116429D02*
X153998331Y-93059286D01*
X154055474Y-92630714D02*
X154026902Y-92602142D01*
X154026902Y-92602142D02*
X153998331Y-92545000D01*
X153998331Y-92545000D02*
X153998331Y-92402142D01*
X153998331Y-92402142D02*
X154026902Y-92345000D01*
X154026902Y-92345000D02*
X154055474Y-92316428D01*
X154055474Y-92316428D02*
X154112617Y-92287857D01*
X154112617Y-92287857D02*
X154169760Y-92287857D01*
X154169760Y-92287857D02*
X154255474Y-92316428D01*
X154255474Y-92316428D02*
X154598331Y-92659285D01*
X154598331Y-92659285D02*
X154598331Y-92287857D01*
X184621571Y-108221331D02*
X184335857Y-108221331D01*
X184335857Y-108221331D02*
X184335857Y-107621331D01*
X185107285Y-107621331D02*
X184821571Y-107621331D01*
X184821571Y-107621331D02*
X184792999Y-107907045D01*
X184792999Y-107907045D02*
X184821571Y-107878474D01*
X184821571Y-107878474D02*
X184878714Y-107849902D01*
X184878714Y-107849902D02*
X185021571Y-107849902D01*
X185021571Y-107849902D02*
X185078714Y-107878474D01*
X185078714Y-107878474D02*
X185107285Y-107907045D01*
X185107285Y-107907045D02*
X185135856Y-107964188D01*
X185135856Y-107964188D02*
X185135856Y-108107045D01*
X185135856Y-108107045D02*
X185107285Y-108164188D01*
X185107285Y-108164188D02*
X185078714Y-108192760D01*
X185078714Y-108192760D02*
X185021571Y-108221331D01*
X185021571Y-108221331D02*
X184878714Y-108221331D01*
X184878714Y-108221331D02*
X184821571Y-108192760D01*
X184821571Y-108192760D02*
X184792999Y-108164188D01*
X185507285Y-107621331D02*
X185564428Y-107621331D01*
X185564428Y-107621331D02*
X185621571Y-107649902D01*
X185621571Y-107649902D02*
X185650143Y-107678474D01*
X185650143Y-107678474D02*
X185678714Y-107735617D01*
X185678714Y-107735617D02*
X185707285Y-107849902D01*
X185707285Y-107849902D02*
X185707285Y-107992760D01*
X185707285Y-107992760D02*
X185678714Y-108107045D01*
X185678714Y-108107045D02*
X185650143Y-108164188D01*
X185650143Y-108164188D02*
X185621571Y-108192760D01*
X185621571Y-108192760D02*
X185564428Y-108221331D01*
X185564428Y-108221331D02*
X185507285Y-108221331D01*
X185507285Y-108221331D02*
X185450143Y-108192760D01*
X185450143Y-108192760D02*
X185421571Y-108164188D01*
X185421571Y-108164188D02*
X185393000Y-108107045D01*
X185393000Y-108107045D02*
X185364428Y-107992760D01*
X185364428Y-107992760D02*
X185364428Y-107849902D01*
X185364428Y-107849902D02*
X185393000Y-107735617D01*
X185393000Y-107735617D02*
X185421571Y-107678474D01*
X185421571Y-107678474D02*
X185450143Y-107649902D01*
X185450143Y-107649902D02*
X185507285Y-107621331D01*
X186278714Y-108221331D02*
X185935857Y-108221331D01*
X186107286Y-108221331D02*
X186107286Y-107621331D01*
X186107286Y-107621331D02*
X186050143Y-107707045D01*
X186050143Y-107707045D02*
X185993000Y-107764188D01*
X185993000Y-107764188D02*
X185935857Y-107792760D01*
X108637331Y-121421429D02*
X109065902Y-121421429D01*
X109065902Y-121421429D02*
X109151617Y-121450000D01*
X109151617Y-121450000D02*
X109208760Y-121507143D01*
X109208760Y-121507143D02*
X109237331Y-121592857D01*
X109237331Y-121592857D02*
X109237331Y-121650000D01*
X108837331Y-120878572D02*
X109237331Y-120878572D01*
X108608760Y-121021429D02*
X109037331Y-121164286D01*
X109037331Y-121164286D02*
X109037331Y-120792857D01*
X108637331Y-120450000D02*
X108637331Y-120392857D01*
X108637331Y-120392857D02*
X108665902Y-120335714D01*
X108665902Y-120335714D02*
X108694474Y-120307143D01*
X108694474Y-120307143D02*
X108751617Y-120278571D01*
X108751617Y-120278571D02*
X108865902Y-120250000D01*
X108865902Y-120250000D02*
X109008760Y-120250000D01*
X109008760Y-120250000D02*
X109123045Y-120278571D01*
X109123045Y-120278571D02*
X109180188Y-120307143D01*
X109180188Y-120307143D02*
X109208760Y-120335714D01*
X109208760Y-120335714D02*
X109237331Y-120392857D01*
X109237331Y-120392857D02*
X109237331Y-120450000D01*
X109237331Y-120450000D02*
X109208760Y-120507143D01*
X109208760Y-120507143D02*
X109180188Y-120535714D01*
X109180188Y-120535714D02*
X109123045Y-120564285D01*
X109123045Y-120564285D02*
X109008760Y-120592857D01*
X109008760Y-120592857D02*
X108865902Y-120592857D01*
X108865902Y-120592857D02*
X108751617Y-120564285D01*
X108751617Y-120564285D02*
X108694474Y-120535714D01*
X108694474Y-120535714D02*
X108665902Y-120507143D01*
X108665902Y-120507143D02*
X108637331Y-120450000D01*
X109237331Y-119678571D02*
X109237331Y-120021428D01*
X109237331Y-119849999D02*
X108637331Y-119849999D01*
X108637331Y-119849999D02*
X108723045Y-119907142D01*
X108723045Y-119907142D02*
X108780188Y-119964285D01*
X108780188Y-119964285D02*
X108808760Y-120021428D01*
X118000331Y-103477885D02*
X117400331Y-103477885D01*
X118000331Y-103135028D02*
X117657474Y-103392171D01*
X117400331Y-103135028D02*
X117743188Y-103477885D01*
X117600331Y-102620743D02*
X118000331Y-102620743D01*
X117371760Y-102763600D02*
X117800331Y-102906457D01*
X117800331Y-102906457D02*
X117800331Y-102535028D01*
X117400331Y-102192171D02*
X117400331Y-102135028D01*
X117400331Y-102135028D02*
X117428902Y-102077885D01*
X117428902Y-102077885D02*
X117457474Y-102049314D01*
X117457474Y-102049314D02*
X117514617Y-102020742D01*
X117514617Y-102020742D02*
X117628902Y-101992171D01*
X117628902Y-101992171D02*
X117771760Y-101992171D01*
X117771760Y-101992171D02*
X117886045Y-102020742D01*
X117886045Y-102020742D02*
X117943188Y-102049314D01*
X117943188Y-102049314D02*
X117971760Y-102077885D01*
X117971760Y-102077885D02*
X118000331Y-102135028D01*
X118000331Y-102135028D02*
X118000331Y-102192171D01*
X118000331Y-102192171D02*
X117971760Y-102249314D01*
X117971760Y-102249314D02*
X117943188Y-102277885D01*
X117943188Y-102277885D02*
X117886045Y-102306456D01*
X117886045Y-102306456D02*
X117771760Y-102335028D01*
X117771760Y-102335028D02*
X117628902Y-102335028D01*
X117628902Y-102335028D02*
X117514617Y-102306456D01*
X117514617Y-102306456D02*
X117457474Y-102277885D01*
X117457474Y-102277885D02*
X117428902Y-102249314D01*
X117428902Y-102249314D02*
X117400331Y-102192171D01*
X117600331Y-101477885D02*
X118000331Y-101477885D01*
X117371760Y-101620742D02*
X117800331Y-101763599D01*
X117800331Y-101763599D02*
X117800331Y-101392170D01*
X160234188Y-113193428D02*
X160262760Y-113222000D01*
X160262760Y-113222000D02*
X160291331Y-113307714D01*
X160291331Y-113307714D02*
X160291331Y-113364857D01*
X160291331Y-113364857D02*
X160262760Y-113450571D01*
X160262760Y-113450571D02*
X160205617Y-113507714D01*
X160205617Y-113507714D02*
X160148474Y-113536285D01*
X160148474Y-113536285D02*
X160034188Y-113564857D01*
X160034188Y-113564857D02*
X159948474Y-113564857D01*
X159948474Y-113564857D02*
X159834188Y-113536285D01*
X159834188Y-113536285D02*
X159777045Y-113507714D01*
X159777045Y-113507714D02*
X159719902Y-113450571D01*
X159719902Y-113450571D02*
X159691331Y-113364857D01*
X159691331Y-113364857D02*
X159691331Y-113307714D01*
X159691331Y-113307714D02*
X159719902Y-113222000D01*
X159719902Y-113222000D02*
X159748474Y-113193428D01*
X159691331Y-112650571D02*
X159691331Y-112936285D01*
X159691331Y-112936285D02*
X159977045Y-112964857D01*
X159977045Y-112964857D02*
X159948474Y-112936285D01*
X159948474Y-112936285D02*
X159919902Y-112879143D01*
X159919902Y-112879143D02*
X159919902Y-112736285D01*
X159919902Y-112736285D02*
X159948474Y-112679143D01*
X159948474Y-112679143D02*
X159977045Y-112650571D01*
X159977045Y-112650571D02*
X160034188Y-112622000D01*
X160034188Y-112622000D02*
X160177045Y-112622000D01*
X160177045Y-112622000D02*
X160234188Y-112650571D01*
X160234188Y-112650571D02*
X160262760Y-112679143D01*
X160262760Y-112679143D02*
X160291331Y-112736285D01*
X160291331Y-112736285D02*
X160291331Y-112879143D01*
X160291331Y-112879143D02*
X160262760Y-112936285D01*
X160262760Y-112936285D02*
X160234188Y-112964857D01*
X160291331Y-112050571D02*
X160291331Y-112393428D01*
X160291331Y-112221999D02*
X159691331Y-112221999D01*
X159691331Y-112221999D02*
X159777045Y-112279142D01*
X159777045Y-112279142D02*
X159834188Y-112336285D01*
X159834188Y-112336285D02*
X159862760Y-112393428D01*
X159691331Y-111850570D02*
X159691331Y-111479142D01*
X159691331Y-111479142D02*
X159919902Y-111679142D01*
X159919902Y-111679142D02*
X159919902Y-111593427D01*
X159919902Y-111593427D02*
X159948474Y-111536285D01*
X159948474Y-111536285D02*
X159977045Y-111507713D01*
X159977045Y-111507713D02*
X160034188Y-111479142D01*
X160034188Y-111479142D02*
X160177045Y-111479142D01*
X160177045Y-111479142D02*
X160234188Y-111507713D01*
X160234188Y-111507713D02*
X160262760Y-111536285D01*
X160262760Y-111536285D02*
X160291331Y-111593427D01*
X160291331Y-111593427D02*
X160291331Y-111764856D01*
X160291331Y-111764856D02*
X160262760Y-111821999D01*
X160262760Y-111821999D02*
X160234188Y-111850570D01*
X118000331Y-111707485D02*
X117400331Y-111707485D01*
X118000331Y-111364628D02*
X117657474Y-111621771D01*
X117400331Y-111364628D02*
X117743188Y-111707485D01*
X117600331Y-110850343D02*
X118000331Y-110850343D01*
X117371760Y-110993200D02*
X117800331Y-111136057D01*
X117800331Y-111136057D02*
X117800331Y-110764628D01*
X117400331Y-110421771D02*
X117400331Y-110364628D01*
X117400331Y-110364628D02*
X117428902Y-110307485D01*
X117428902Y-110307485D02*
X117457474Y-110278914D01*
X117457474Y-110278914D02*
X117514617Y-110250342D01*
X117514617Y-110250342D02*
X117628902Y-110221771D01*
X117628902Y-110221771D02*
X117771760Y-110221771D01*
X117771760Y-110221771D02*
X117886045Y-110250342D01*
X117886045Y-110250342D02*
X117943188Y-110278914D01*
X117943188Y-110278914D02*
X117971760Y-110307485D01*
X117971760Y-110307485D02*
X118000331Y-110364628D01*
X118000331Y-110364628D02*
X118000331Y-110421771D01*
X118000331Y-110421771D02*
X117971760Y-110478914D01*
X117971760Y-110478914D02*
X117943188Y-110507485D01*
X117943188Y-110507485D02*
X117886045Y-110536056D01*
X117886045Y-110536056D02*
X117771760Y-110564628D01*
X117771760Y-110564628D02*
X117628902Y-110564628D01*
X117628902Y-110564628D02*
X117514617Y-110536056D01*
X117514617Y-110536056D02*
X117457474Y-110507485D01*
X117457474Y-110507485D02*
X117428902Y-110478914D01*
X117428902Y-110478914D02*
X117400331Y-110421771D01*
X117457474Y-109993199D02*
X117428902Y-109964627D01*
X117428902Y-109964627D02*
X117400331Y-109907485D01*
X117400331Y-109907485D02*
X117400331Y-109764627D01*
X117400331Y-109764627D02*
X117428902Y-109707485D01*
X117428902Y-109707485D02*
X117457474Y-109678913D01*
X117457474Y-109678913D02*
X117514617Y-109650342D01*
X117514617Y-109650342D02*
X117571760Y-109650342D01*
X117571760Y-109650342D02*
X117657474Y-109678913D01*
X117657474Y-109678913D02*
X118000331Y-110021770D01*
X118000331Y-110021770D02*
X118000331Y-109650342D01*
X170167428Y-104192331D02*
X170167428Y-104678045D01*
X170167428Y-104678045D02*
X170195999Y-104735188D01*
X170195999Y-104735188D02*
X170224571Y-104763760D01*
X170224571Y-104763760D02*
X170281713Y-104792331D01*
X170281713Y-104792331D02*
X170395999Y-104792331D01*
X170395999Y-104792331D02*
X170453142Y-104763760D01*
X170453142Y-104763760D02*
X170481713Y-104735188D01*
X170481713Y-104735188D02*
X170510285Y-104678045D01*
X170510285Y-104678045D02*
X170510285Y-104192331D01*
X171081713Y-104192331D02*
X170795999Y-104192331D01*
X170795999Y-104192331D02*
X170767427Y-104478045D01*
X170767427Y-104478045D02*
X170795999Y-104449474D01*
X170795999Y-104449474D02*
X170853142Y-104420902D01*
X170853142Y-104420902D02*
X170995999Y-104420902D01*
X170995999Y-104420902D02*
X171053142Y-104449474D01*
X171053142Y-104449474D02*
X171081713Y-104478045D01*
X171081713Y-104478045D02*
X171110284Y-104535188D01*
X171110284Y-104535188D02*
X171110284Y-104678045D01*
X171110284Y-104678045D02*
X171081713Y-104735188D01*
X171081713Y-104735188D02*
X171053142Y-104763760D01*
X171053142Y-104763760D02*
X170995999Y-104792331D01*
X170995999Y-104792331D02*
X170853142Y-104792331D01*
X170853142Y-104792331D02*
X170795999Y-104763760D01*
X170795999Y-104763760D02*
X170767427Y-104735188D01*
X171481713Y-104192331D02*
X171538856Y-104192331D01*
X171538856Y-104192331D02*
X171595999Y-104220902D01*
X171595999Y-104220902D02*
X171624571Y-104249474D01*
X171624571Y-104249474D02*
X171653142Y-104306617D01*
X171653142Y-104306617D02*
X171681713Y-104420902D01*
X171681713Y-104420902D02*
X171681713Y-104563760D01*
X171681713Y-104563760D02*
X171653142Y-104678045D01*
X171653142Y-104678045D02*
X171624571Y-104735188D01*
X171624571Y-104735188D02*
X171595999Y-104763760D01*
X171595999Y-104763760D02*
X171538856Y-104792331D01*
X171538856Y-104792331D02*
X171481713Y-104792331D01*
X171481713Y-104792331D02*
X171424571Y-104763760D01*
X171424571Y-104763760D02*
X171395999Y-104735188D01*
X171395999Y-104735188D02*
X171367428Y-104678045D01*
X171367428Y-104678045D02*
X171338856Y-104563760D01*
X171338856Y-104563760D02*
X171338856Y-104420902D01*
X171338856Y-104420902D02*
X171367428Y-104306617D01*
X171367428Y-104306617D02*
X171395999Y-104249474D01*
X171395999Y-104249474D02*
X171424571Y-104220902D01*
X171424571Y-104220902D02*
X171481713Y-104192331D01*
X171910285Y-104249474D02*
X171938857Y-104220902D01*
X171938857Y-104220902D02*
X171996000Y-104192331D01*
X171996000Y-104192331D02*
X172138857Y-104192331D01*
X172138857Y-104192331D02*
X172196000Y-104220902D01*
X172196000Y-104220902D02*
X172224571Y-104249474D01*
X172224571Y-104249474D02*
X172253142Y-104306617D01*
X172253142Y-104306617D02*
X172253142Y-104363760D01*
X172253142Y-104363760D02*
X172224571Y-104449474D01*
X172224571Y-104449474D02*
X171881714Y-104792331D01*
X171881714Y-104792331D02*
X172253142Y-104792331D01*
X153976331Y-117233571D02*
X154462045Y-117233571D01*
X154462045Y-117233571D02*
X154519188Y-117205000D01*
X154519188Y-117205000D02*
X154547760Y-117176429D01*
X154547760Y-117176429D02*
X154576331Y-117119286D01*
X154576331Y-117119286D02*
X154576331Y-117005000D01*
X154576331Y-117005000D02*
X154547760Y-116947857D01*
X154547760Y-116947857D02*
X154519188Y-116919286D01*
X154519188Y-116919286D02*
X154462045Y-116890714D01*
X154462045Y-116890714D02*
X153976331Y-116890714D01*
X153976331Y-116319286D02*
X153976331Y-116605000D01*
X153976331Y-116605000D02*
X154262045Y-116633572D01*
X154262045Y-116633572D02*
X154233474Y-116605000D01*
X154233474Y-116605000D02*
X154204902Y-116547858D01*
X154204902Y-116547858D02*
X154204902Y-116405000D01*
X154204902Y-116405000D02*
X154233474Y-116347858D01*
X154233474Y-116347858D02*
X154262045Y-116319286D01*
X154262045Y-116319286D02*
X154319188Y-116290715D01*
X154319188Y-116290715D02*
X154462045Y-116290715D01*
X154462045Y-116290715D02*
X154519188Y-116319286D01*
X154519188Y-116319286D02*
X154547760Y-116347858D01*
X154547760Y-116347858D02*
X154576331Y-116405000D01*
X154576331Y-116405000D02*
X154576331Y-116547858D01*
X154576331Y-116547858D02*
X154547760Y-116605000D01*
X154547760Y-116605000D02*
X154519188Y-116633572D01*
X153976331Y-115919286D02*
X153976331Y-115862143D01*
X153976331Y-115862143D02*
X154004902Y-115805000D01*
X154004902Y-115805000D02*
X154033474Y-115776429D01*
X154033474Y-115776429D02*
X154090617Y-115747857D01*
X154090617Y-115747857D02*
X154204902Y-115719286D01*
X154204902Y-115719286D02*
X154347760Y-115719286D01*
X154347760Y-115719286D02*
X154462045Y-115747857D01*
X154462045Y-115747857D02*
X154519188Y-115776429D01*
X154519188Y-115776429D02*
X154547760Y-115805000D01*
X154547760Y-115805000D02*
X154576331Y-115862143D01*
X154576331Y-115862143D02*
X154576331Y-115919286D01*
X154576331Y-115919286D02*
X154547760Y-115976429D01*
X154547760Y-115976429D02*
X154519188Y-116005000D01*
X154519188Y-116005000D02*
X154462045Y-116033571D01*
X154462045Y-116033571D02*
X154347760Y-116062143D01*
X154347760Y-116062143D02*
X154204902Y-116062143D01*
X154204902Y-116062143D02*
X154090617Y-116033571D01*
X154090617Y-116033571D02*
X154033474Y-116005000D01*
X154033474Y-116005000D02*
X154004902Y-115976429D01*
X154004902Y-115976429D02*
X153976331Y-115919286D01*
X154176331Y-115205000D02*
X154576331Y-115205000D01*
X153947760Y-115347857D02*
X154376331Y-115490714D01*
X154376331Y-115490714D02*
X154376331Y-115119285D01*
X194046570Y-103089331D02*
X194046570Y-103517902D01*
X194046570Y-103517902D02*
X194017999Y-103603617D01*
X194017999Y-103603617D02*
X193960856Y-103660760D01*
X193960856Y-103660760D02*
X193875142Y-103689331D01*
X193875142Y-103689331D02*
X193817999Y-103689331D01*
X194617999Y-103089331D02*
X194332285Y-103089331D01*
X194332285Y-103089331D02*
X194303713Y-103375045D01*
X194303713Y-103375045D02*
X194332285Y-103346474D01*
X194332285Y-103346474D02*
X194389428Y-103317902D01*
X194389428Y-103317902D02*
X194532285Y-103317902D01*
X194532285Y-103317902D02*
X194589428Y-103346474D01*
X194589428Y-103346474D02*
X194617999Y-103375045D01*
X194617999Y-103375045D02*
X194646570Y-103432188D01*
X194646570Y-103432188D02*
X194646570Y-103575045D01*
X194646570Y-103575045D02*
X194617999Y-103632188D01*
X194617999Y-103632188D02*
X194589428Y-103660760D01*
X194589428Y-103660760D02*
X194532285Y-103689331D01*
X194532285Y-103689331D02*
X194389428Y-103689331D01*
X194389428Y-103689331D02*
X194332285Y-103660760D01*
X194332285Y-103660760D02*
X194303713Y-103632188D01*
X195017999Y-103089331D02*
X195075142Y-103089331D01*
X195075142Y-103089331D02*
X195132285Y-103117902D01*
X195132285Y-103117902D02*
X195160857Y-103146474D01*
X195160857Y-103146474D02*
X195189428Y-103203617D01*
X195189428Y-103203617D02*
X195217999Y-103317902D01*
X195217999Y-103317902D02*
X195217999Y-103460760D01*
X195217999Y-103460760D02*
X195189428Y-103575045D01*
X195189428Y-103575045D02*
X195160857Y-103632188D01*
X195160857Y-103632188D02*
X195132285Y-103660760D01*
X195132285Y-103660760D02*
X195075142Y-103689331D01*
X195075142Y-103689331D02*
X195017999Y-103689331D01*
X195017999Y-103689331D02*
X194960857Y-103660760D01*
X194960857Y-103660760D02*
X194932285Y-103632188D01*
X194932285Y-103632188D02*
X194903714Y-103575045D01*
X194903714Y-103575045D02*
X194875142Y-103460760D01*
X194875142Y-103460760D02*
X194875142Y-103317902D01*
X194875142Y-103317902D02*
X194903714Y-103203617D01*
X194903714Y-103203617D02*
X194932285Y-103146474D01*
X194932285Y-103146474D02*
X194960857Y-103117902D01*
X194960857Y-103117902D02*
X195017999Y-103089331D01*
X195789428Y-103689331D02*
X195446571Y-103689331D01*
X195618000Y-103689331D02*
X195618000Y-103089331D01*
X195618000Y-103089331D02*
X195560857Y-103175045D01*
X195560857Y-103175045D02*
X195503714Y-103232188D01*
X195503714Y-103232188D02*
X195446571Y-103260760D01*
X189998428Y-121740474D02*
X189941285Y-121711902D01*
X189941285Y-121711902D02*
X189884142Y-121654760D01*
X189884142Y-121654760D02*
X189798428Y-121569045D01*
X189798428Y-121569045D02*
X189741285Y-121540474D01*
X189741285Y-121540474D02*
X189684142Y-121540474D01*
X189712713Y-121683331D02*
X189655571Y-121654760D01*
X189655571Y-121654760D02*
X189598428Y-121597617D01*
X189598428Y-121597617D02*
X189569856Y-121483331D01*
X189569856Y-121483331D02*
X189569856Y-121283331D01*
X189569856Y-121283331D02*
X189598428Y-121169045D01*
X189598428Y-121169045D02*
X189655571Y-121111902D01*
X189655571Y-121111902D02*
X189712713Y-121083331D01*
X189712713Y-121083331D02*
X189826999Y-121083331D01*
X189826999Y-121083331D02*
X189884142Y-121111902D01*
X189884142Y-121111902D02*
X189941285Y-121169045D01*
X189941285Y-121169045D02*
X189969856Y-121283331D01*
X189969856Y-121283331D02*
X189969856Y-121483331D01*
X189969856Y-121483331D02*
X189941285Y-121597617D01*
X189941285Y-121597617D02*
X189884142Y-121654760D01*
X189884142Y-121654760D02*
X189826999Y-121683331D01*
X189826999Y-121683331D02*
X189712713Y-121683331D01*
X190512713Y-121083331D02*
X190226999Y-121083331D01*
X190226999Y-121083331D02*
X190198427Y-121369045D01*
X190198427Y-121369045D02*
X190226999Y-121340474D01*
X190226999Y-121340474D02*
X190284142Y-121311902D01*
X190284142Y-121311902D02*
X190426999Y-121311902D01*
X190426999Y-121311902D02*
X190484142Y-121340474D01*
X190484142Y-121340474D02*
X190512713Y-121369045D01*
X190512713Y-121369045D02*
X190541284Y-121426188D01*
X190541284Y-121426188D02*
X190541284Y-121569045D01*
X190541284Y-121569045D02*
X190512713Y-121626188D01*
X190512713Y-121626188D02*
X190484142Y-121654760D01*
X190484142Y-121654760D02*
X190426999Y-121683331D01*
X190426999Y-121683331D02*
X190284142Y-121683331D01*
X190284142Y-121683331D02*
X190226999Y-121654760D01*
X190226999Y-121654760D02*
X190198427Y-121626188D01*
X190912713Y-121083331D02*
X190969856Y-121083331D01*
X190969856Y-121083331D02*
X191026999Y-121111902D01*
X191026999Y-121111902D02*
X191055571Y-121140474D01*
X191055571Y-121140474D02*
X191084142Y-121197617D01*
X191084142Y-121197617D02*
X191112713Y-121311902D01*
X191112713Y-121311902D02*
X191112713Y-121454760D01*
X191112713Y-121454760D02*
X191084142Y-121569045D01*
X191084142Y-121569045D02*
X191055571Y-121626188D01*
X191055571Y-121626188D02*
X191026999Y-121654760D01*
X191026999Y-121654760D02*
X190969856Y-121683331D01*
X190969856Y-121683331D02*
X190912713Y-121683331D01*
X190912713Y-121683331D02*
X190855571Y-121654760D01*
X190855571Y-121654760D02*
X190826999Y-121626188D01*
X190826999Y-121626188D02*
X190798428Y-121569045D01*
X190798428Y-121569045D02*
X190769856Y-121454760D01*
X190769856Y-121454760D02*
X190769856Y-121311902D01*
X190769856Y-121311902D02*
X190798428Y-121197617D01*
X190798428Y-121197617D02*
X190826999Y-121140474D01*
X190826999Y-121140474D02*
X190855571Y-121111902D01*
X190855571Y-121111902D02*
X190912713Y-121083331D01*
X191684142Y-121683331D02*
X191341285Y-121683331D01*
X191512714Y-121683331D02*
X191512714Y-121083331D01*
X191512714Y-121083331D02*
X191455571Y-121169045D01*
X191455571Y-121169045D02*
X191398428Y-121226188D01*
X191398428Y-121226188D02*
X191341285Y-121254760D01*
X129878331Y-95981714D02*
X129592617Y-96181714D01*
X129878331Y-96324571D02*
X129278331Y-96324571D01*
X129278331Y-96324571D02*
X129278331Y-96096000D01*
X129278331Y-96096000D02*
X129306902Y-96038857D01*
X129306902Y-96038857D02*
X129335474Y-96010286D01*
X129335474Y-96010286D02*
X129392617Y-95981714D01*
X129392617Y-95981714D02*
X129478331Y-95981714D01*
X129478331Y-95981714D02*
X129535474Y-96010286D01*
X129535474Y-96010286D02*
X129564045Y-96038857D01*
X129564045Y-96038857D02*
X129592617Y-96096000D01*
X129592617Y-96096000D02*
X129592617Y-96324571D01*
X129878331Y-95724571D02*
X129278331Y-95724571D01*
X129278331Y-95724571D02*
X129878331Y-95381714D01*
X129878331Y-95381714D02*
X129278331Y-95381714D01*
X129335474Y-95124572D02*
X129306902Y-95096000D01*
X129306902Y-95096000D02*
X129278331Y-95038858D01*
X129278331Y-95038858D02*
X129278331Y-94896000D01*
X129278331Y-94896000D02*
X129306902Y-94838858D01*
X129306902Y-94838858D02*
X129335474Y-94810286D01*
X129335474Y-94810286D02*
X129392617Y-94781715D01*
X129392617Y-94781715D02*
X129449760Y-94781715D01*
X129449760Y-94781715D02*
X129535474Y-94810286D01*
X129535474Y-94810286D02*
X129878331Y-95153143D01*
X129878331Y-95153143D02*
X129878331Y-94781715D01*
X129278331Y-94410286D02*
X129278331Y-94353143D01*
X129278331Y-94353143D02*
X129306902Y-94296000D01*
X129306902Y-94296000D02*
X129335474Y-94267429D01*
X129335474Y-94267429D02*
X129392617Y-94238857D01*
X129392617Y-94238857D02*
X129506902Y-94210286D01*
X129506902Y-94210286D02*
X129649760Y-94210286D01*
X129649760Y-94210286D02*
X129764045Y-94238857D01*
X129764045Y-94238857D02*
X129821188Y-94267429D01*
X129821188Y-94267429D02*
X129849760Y-94296000D01*
X129849760Y-94296000D02*
X129878331Y-94353143D01*
X129878331Y-94353143D02*
X129878331Y-94410286D01*
X129878331Y-94410286D02*
X129849760Y-94467429D01*
X129849760Y-94467429D02*
X129821188Y-94496000D01*
X129821188Y-94496000D02*
X129764045Y-94524571D01*
X129764045Y-94524571D02*
X129649760Y-94553143D01*
X129649760Y-94553143D02*
X129506902Y-94553143D01*
X129506902Y-94553143D02*
X129392617Y-94524571D01*
X129392617Y-94524571D02*
X129335474Y-94496000D01*
X129335474Y-94496000D02*
X129306902Y-94467429D01*
X129306902Y-94467429D02*
X129278331Y-94410286D01*
X129878331Y-93638857D02*
X129878331Y-93981714D01*
X129878331Y-93810285D02*
X129278331Y-93810285D01*
X129278331Y-93810285D02*
X129364045Y-93867428D01*
X129364045Y-93867428D02*
X129421188Y-93924571D01*
X129421188Y-93924571D02*
X129449760Y-93981714D01*
X126407731Y-99464685D02*
X125807731Y-99464685D01*
X126407731Y-99121828D02*
X126064874Y-99378971D01*
X125807731Y-99121828D02*
X126150588Y-99464685D01*
X126007731Y-98607543D02*
X126407731Y-98607543D01*
X125779160Y-98750400D02*
X126207731Y-98893257D01*
X126207731Y-98893257D02*
X126207731Y-98521828D01*
X126407731Y-97978971D02*
X126407731Y-98321828D01*
X126407731Y-98150399D02*
X125807731Y-98150399D01*
X125807731Y-98150399D02*
X125893445Y-98207542D01*
X125893445Y-98207542D02*
X125950588Y-98264685D01*
X125950588Y-98264685D02*
X125979160Y-98321828D01*
X125864874Y-97750399D02*
X125836302Y-97721827D01*
X125836302Y-97721827D02*
X125807731Y-97664685D01*
X125807731Y-97664685D02*
X125807731Y-97521827D01*
X125807731Y-97521827D02*
X125836302Y-97464685D01*
X125836302Y-97464685D02*
X125864874Y-97436113D01*
X125864874Y-97436113D02*
X125922017Y-97407542D01*
X125922017Y-97407542D02*
X125979160Y-97407542D01*
X125979160Y-97407542D02*
X126064874Y-97436113D01*
X126064874Y-97436113D02*
X126407731Y-97778970D01*
X126407731Y-97778970D02*
X126407731Y-97407542D01*
X132678571Y-108602331D02*
X132478571Y-108316617D01*
X132335714Y-108602331D02*
X132335714Y-108002331D01*
X132335714Y-108002331D02*
X132564285Y-108002331D01*
X132564285Y-108002331D02*
X132621428Y-108030902D01*
X132621428Y-108030902D02*
X132649999Y-108059474D01*
X132649999Y-108059474D02*
X132678571Y-108116617D01*
X132678571Y-108116617D02*
X132678571Y-108202331D01*
X132678571Y-108202331D02*
X132649999Y-108259474D01*
X132649999Y-108259474D02*
X132621428Y-108288045D01*
X132621428Y-108288045D02*
X132564285Y-108316617D01*
X132564285Y-108316617D02*
X132335714Y-108316617D01*
X133192857Y-108202331D02*
X133192857Y-108602331D01*
X133049999Y-107973760D02*
X132907142Y-108402331D01*
X132907142Y-108402331D02*
X133278571Y-108402331D01*
X133621428Y-108002331D02*
X133678571Y-108002331D01*
X133678571Y-108002331D02*
X133735714Y-108030902D01*
X133735714Y-108030902D02*
X133764286Y-108059474D01*
X133764286Y-108059474D02*
X133792857Y-108116617D01*
X133792857Y-108116617D02*
X133821428Y-108230902D01*
X133821428Y-108230902D02*
X133821428Y-108373760D01*
X133821428Y-108373760D02*
X133792857Y-108488045D01*
X133792857Y-108488045D02*
X133764286Y-108545188D01*
X133764286Y-108545188D02*
X133735714Y-108573760D01*
X133735714Y-108573760D02*
X133678571Y-108602331D01*
X133678571Y-108602331D02*
X133621428Y-108602331D01*
X133621428Y-108602331D02*
X133564286Y-108573760D01*
X133564286Y-108573760D02*
X133535714Y-108545188D01*
X133535714Y-108545188D02*
X133507143Y-108488045D01*
X133507143Y-108488045D02*
X133478571Y-108373760D01*
X133478571Y-108373760D02*
X133478571Y-108230902D01*
X133478571Y-108230902D02*
X133507143Y-108116617D01*
X133507143Y-108116617D02*
X133535714Y-108059474D01*
X133535714Y-108059474D02*
X133564286Y-108030902D01*
X133564286Y-108030902D02*
X133621428Y-108002331D01*
X134021429Y-108002331D02*
X134392857Y-108002331D01*
X134392857Y-108002331D02*
X134192857Y-108230902D01*
X134192857Y-108230902D02*
X134278572Y-108230902D01*
X134278572Y-108230902D02*
X134335715Y-108259474D01*
X134335715Y-108259474D02*
X134364286Y-108288045D01*
X134364286Y-108288045D02*
X134392857Y-108345188D01*
X134392857Y-108345188D02*
X134392857Y-108488045D01*
X134392857Y-108488045D02*
X134364286Y-108545188D01*
X134364286Y-108545188D02*
X134335715Y-108573760D01*
X134335715Y-108573760D02*
X134278572Y-108602331D01*
X134278572Y-108602331D02*
X134107143Y-108602331D01*
X134107143Y-108602331D02*
X134050000Y-108573760D01*
X134050000Y-108573760D02*
X134021429Y-108545188D01*
X149912331Y-108216571D02*
X150398045Y-108216571D01*
X150398045Y-108216571D02*
X150455188Y-108188000D01*
X150455188Y-108188000D02*
X150483760Y-108159429D01*
X150483760Y-108159429D02*
X150512331Y-108102286D01*
X150512331Y-108102286D02*
X150512331Y-107988000D01*
X150512331Y-107988000D02*
X150483760Y-107930857D01*
X150483760Y-107930857D02*
X150455188Y-107902286D01*
X150455188Y-107902286D02*
X150398045Y-107873714D01*
X150398045Y-107873714D02*
X149912331Y-107873714D01*
X149912331Y-107302286D02*
X149912331Y-107588000D01*
X149912331Y-107588000D02*
X150198045Y-107616572D01*
X150198045Y-107616572D02*
X150169474Y-107588000D01*
X150169474Y-107588000D02*
X150140902Y-107530858D01*
X150140902Y-107530858D02*
X150140902Y-107388000D01*
X150140902Y-107388000D02*
X150169474Y-107330858D01*
X150169474Y-107330858D02*
X150198045Y-107302286D01*
X150198045Y-107302286D02*
X150255188Y-107273715D01*
X150255188Y-107273715D02*
X150398045Y-107273715D01*
X150398045Y-107273715D02*
X150455188Y-107302286D01*
X150455188Y-107302286D02*
X150483760Y-107330858D01*
X150483760Y-107330858D02*
X150512331Y-107388000D01*
X150512331Y-107388000D02*
X150512331Y-107530858D01*
X150512331Y-107530858D02*
X150483760Y-107588000D01*
X150483760Y-107588000D02*
X150455188Y-107616572D01*
X149912331Y-106902286D02*
X149912331Y-106845143D01*
X149912331Y-106845143D02*
X149940902Y-106788000D01*
X149940902Y-106788000D02*
X149969474Y-106759429D01*
X149969474Y-106759429D02*
X150026617Y-106730857D01*
X150026617Y-106730857D02*
X150140902Y-106702286D01*
X150140902Y-106702286D02*
X150283760Y-106702286D01*
X150283760Y-106702286D02*
X150398045Y-106730857D01*
X150398045Y-106730857D02*
X150455188Y-106759429D01*
X150455188Y-106759429D02*
X150483760Y-106788000D01*
X150483760Y-106788000D02*
X150512331Y-106845143D01*
X150512331Y-106845143D02*
X150512331Y-106902286D01*
X150512331Y-106902286D02*
X150483760Y-106959429D01*
X150483760Y-106959429D02*
X150455188Y-106988000D01*
X150455188Y-106988000D02*
X150398045Y-107016571D01*
X150398045Y-107016571D02*
X150283760Y-107045143D01*
X150283760Y-107045143D02*
X150140902Y-107045143D01*
X150140902Y-107045143D02*
X150026617Y-107016571D01*
X150026617Y-107016571D02*
X149969474Y-106988000D01*
X149969474Y-106988000D02*
X149940902Y-106959429D01*
X149940902Y-106959429D02*
X149912331Y-106902286D01*
X149912331Y-106502285D02*
X149912331Y-106130857D01*
X149912331Y-106130857D02*
X150140902Y-106330857D01*
X150140902Y-106330857D02*
X150140902Y-106245142D01*
X150140902Y-106245142D02*
X150169474Y-106188000D01*
X150169474Y-106188000D02*
X150198045Y-106159428D01*
X150198045Y-106159428D02*
X150255188Y-106130857D01*
X150255188Y-106130857D02*
X150398045Y-106130857D01*
X150398045Y-106130857D02*
X150455188Y-106159428D01*
X150455188Y-106159428D02*
X150483760Y-106188000D01*
X150483760Y-106188000D02*
X150512331Y-106245142D01*
X150512331Y-106245142D02*
X150512331Y-106416571D01*
X150512331Y-106416571D02*
X150483760Y-106473714D01*
X150483760Y-106473714D02*
X150455188Y-106502285D01*
X118000331Y-91142485D02*
X117400331Y-91142485D01*
X118000331Y-90799628D02*
X117657474Y-91056771D01*
X117400331Y-90799628D02*
X117743188Y-91142485D01*
X117600331Y-90285343D02*
X118000331Y-90285343D01*
X117371760Y-90428200D02*
X117800331Y-90571057D01*
X117800331Y-90571057D02*
X117800331Y-90199628D01*
X117400331Y-89856771D02*
X117400331Y-89799628D01*
X117400331Y-89799628D02*
X117428902Y-89742485D01*
X117428902Y-89742485D02*
X117457474Y-89713914D01*
X117457474Y-89713914D02*
X117514617Y-89685342D01*
X117514617Y-89685342D02*
X117628902Y-89656771D01*
X117628902Y-89656771D02*
X117771760Y-89656771D01*
X117771760Y-89656771D02*
X117886045Y-89685342D01*
X117886045Y-89685342D02*
X117943188Y-89713914D01*
X117943188Y-89713914D02*
X117971760Y-89742485D01*
X117971760Y-89742485D02*
X118000331Y-89799628D01*
X118000331Y-89799628D02*
X118000331Y-89856771D01*
X118000331Y-89856771D02*
X117971760Y-89913914D01*
X117971760Y-89913914D02*
X117943188Y-89942485D01*
X117943188Y-89942485D02*
X117886045Y-89971056D01*
X117886045Y-89971056D02*
X117771760Y-89999628D01*
X117771760Y-89999628D02*
X117628902Y-89999628D01*
X117628902Y-89999628D02*
X117514617Y-89971056D01*
X117514617Y-89971056D02*
X117457474Y-89942485D01*
X117457474Y-89942485D02*
X117428902Y-89913914D01*
X117428902Y-89913914D02*
X117400331Y-89856771D01*
X117400331Y-89456770D02*
X117400331Y-89056770D01*
X117400331Y-89056770D02*
X118000331Y-89313913D01*
X170116628Y-120702331D02*
X170116628Y-121188045D01*
X170116628Y-121188045D02*
X170145199Y-121245188D01*
X170145199Y-121245188D02*
X170173771Y-121273760D01*
X170173771Y-121273760D02*
X170230913Y-121302331D01*
X170230913Y-121302331D02*
X170345199Y-121302331D01*
X170345199Y-121302331D02*
X170402342Y-121273760D01*
X170402342Y-121273760D02*
X170430913Y-121245188D01*
X170430913Y-121245188D02*
X170459485Y-121188045D01*
X170459485Y-121188045D02*
X170459485Y-120702331D01*
X171030913Y-120702331D02*
X170745199Y-120702331D01*
X170745199Y-120702331D02*
X170716627Y-120988045D01*
X170716627Y-120988045D02*
X170745199Y-120959474D01*
X170745199Y-120959474D02*
X170802342Y-120930902D01*
X170802342Y-120930902D02*
X170945199Y-120930902D01*
X170945199Y-120930902D02*
X171002342Y-120959474D01*
X171002342Y-120959474D02*
X171030913Y-120988045D01*
X171030913Y-120988045D02*
X171059484Y-121045188D01*
X171059484Y-121045188D02*
X171059484Y-121188045D01*
X171059484Y-121188045D02*
X171030913Y-121245188D01*
X171030913Y-121245188D02*
X171002342Y-121273760D01*
X171002342Y-121273760D02*
X170945199Y-121302331D01*
X170945199Y-121302331D02*
X170802342Y-121302331D01*
X170802342Y-121302331D02*
X170745199Y-121273760D01*
X170745199Y-121273760D02*
X170716627Y-121245188D01*
X171430913Y-120702331D02*
X171488056Y-120702331D01*
X171488056Y-120702331D02*
X171545199Y-120730902D01*
X171545199Y-120730902D02*
X171573771Y-120759474D01*
X171573771Y-120759474D02*
X171602342Y-120816617D01*
X171602342Y-120816617D02*
X171630913Y-120930902D01*
X171630913Y-120930902D02*
X171630913Y-121073760D01*
X171630913Y-121073760D02*
X171602342Y-121188045D01*
X171602342Y-121188045D02*
X171573771Y-121245188D01*
X171573771Y-121245188D02*
X171545199Y-121273760D01*
X171545199Y-121273760D02*
X171488056Y-121302331D01*
X171488056Y-121302331D02*
X171430913Y-121302331D01*
X171430913Y-121302331D02*
X171373771Y-121273760D01*
X171373771Y-121273760D02*
X171345199Y-121245188D01*
X171345199Y-121245188D02*
X171316628Y-121188045D01*
X171316628Y-121188045D02*
X171288056Y-121073760D01*
X171288056Y-121073760D02*
X171288056Y-120930902D01*
X171288056Y-120930902D02*
X171316628Y-120816617D01*
X171316628Y-120816617D02*
X171345199Y-120759474D01*
X171345199Y-120759474D02*
X171373771Y-120730902D01*
X171373771Y-120730902D02*
X171430913Y-120702331D01*
X172202342Y-121302331D02*
X171859485Y-121302331D01*
X172030914Y-121302331D02*
X172030914Y-120702331D01*
X172030914Y-120702331D02*
X171973771Y-120788045D01*
X171973771Y-120788045D02*
X171916628Y-120845188D01*
X171916628Y-120845188D02*
X171859485Y-120873760D01*
X143592714Y-104290331D02*
X143592714Y-103690331D01*
X143592714Y-103976045D02*
X143935571Y-103976045D01*
X143935571Y-104290331D02*
X143935571Y-103690331D01*
X144192713Y-104261760D02*
X144278428Y-104290331D01*
X144278428Y-104290331D02*
X144421285Y-104290331D01*
X144421285Y-104290331D02*
X144478428Y-104261760D01*
X144478428Y-104261760D02*
X144506999Y-104233188D01*
X144506999Y-104233188D02*
X144535570Y-104176045D01*
X144535570Y-104176045D02*
X144535570Y-104118902D01*
X144535570Y-104118902D02*
X144506999Y-104061760D01*
X144506999Y-104061760D02*
X144478428Y-104033188D01*
X144478428Y-104033188D02*
X144421285Y-104004617D01*
X144421285Y-104004617D02*
X144306999Y-103976045D01*
X144306999Y-103976045D02*
X144249856Y-103947474D01*
X144249856Y-103947474D02*
X144221285Y-103918902D01*
X144221285Y-103918902D02*
X144192713Y-103861760D01*
X144192713Y-103861760D02*
X144192713Y-103804617D01*
X144192713Y-103804617D02*
X144221285Y-103747474D01*
X144221285Y-103747474D02*
X144249856Y-103718902D01*
X144249856Y-103718902D02*
X144306999Y-103690331D01*
X144306999Y-103690331D02*
X144449856Y-103690331D01*
X144449856Y-103690331D02*
X144535570Y-103718902D01*
X145106999Y-104290331D02*
X144764142Y-104290331D01*
X144935571Y-104290331D02*
X144935571Y-103690331D01*
X144935571Y-103690331D02*
X144878428Y-103776045D01*
X144878428Y-103776045D02*
X144821285Y-103833188D01*
X144821285Y-103833188D02*
X144764142Y-103861760D01*
X145478428Y-103690331D02*
X145535571Y-103690331D01*
X145535571Y-103690331D02*
X145592714Y-103718902D01*
X145592714Y-103718902D02*
X145621286Y-103747474D01*
X145621286Y-103747474D02*
X145649857Y-103804617D01*
X145649857Y-103804617D02*
X145678428Y-103918902D01*
X145678428Y-103918902D02*
X145678428Y-104061760D01*
X145678428Y-104061760D02*
X145649857Y-104176045D01*
X145649857Y-104176045D02*
X145621286Y-104233188D01*
X145621286Y-104233188D02*
X145592714Y-104261760D01*
X145592714Y-104261760D02*
X145535571Y-104290331D01*
X145535571Y-104290331D02*
X145478428Y-104290331D01*
X145478428Y-104290331D02*
X145421286Y-104261760D01*
X145421286Y-104261760D02*
X145392714Y-104233188D01*
X145392714Y-104233188D02*
X145364143Y-104176045D01*
X145364143Y-104176045D02*
X145335571Y-104061760D01*
X145335571Y-104061760D02*
X145335571Y-103918902D01*
X145335571Y-103918902D02*
X145364143Y-103804617D01*
X145364143Y-103804617D02*
X145392714Y-103747474D01*
X145392714Y-103747474D02*
X145421286Y-103718902D01*
X145421286Y-103718902D02*
X145478428Y-103690331D01*
X146249857Y-104290331D02*
X145907000Y-104290331D01*
X146078429Y-104290331D02*
X146078429Y-103690331D01*
X146078429Y-103690331D02*
X146021286Y-103776045D01*
X146021286Y-103776045D02*
X145964143Y-103833188D01*
X145964143Y-103833188D02*
X145907000Y-103861760D01*
X131192714Y-89806331D02*
X131192714Y-89206331D01*
X131192714Y-89206331D02*
X131335571Y-89206331D01*
X131335571Y-89206331D02*
X131421285Y-89234902D01*
X131421285Y-89234902D02*
X131478428Y-89292045D01*
X131478428Y-89292045D02*
X131506999Y-89349188D01*
X131506999Y-89349188D02*
X131535571Y-89463474D01*
X131535571Y-89463474D02*
X131535571Y-89549188D01*
X131535571Y-89549188D02*
X131506999Y-89663474D01*
X131506999Y-89663474D02*
X131478428Y-89720617D01*
X131478428Y-89720617D02*
X131421285Y-89777760D01*
X131421285Y-89777760D02*
X131335571Y-89806331D01*
X131335571Y-89806331D02*
X131192714Y-89806331D01*
X131764142Y-89263474D02*
X131792714Y-89234902D01*
X131792714Y-89234902D02*
X131849857Y-89206331D01*
X131849857Y-89206331D02*
X131992714Y-89206331D01*
X131992714Y-89206331D02*
X132049857Y-89234902D01*
X132049857Y-89234902D02*
X132078428Y-89263474D01*
X132078428Y-89263474D02*
X132106999Y-89320617D01*
X132106999Y-89320617D02*
X132106999Y-89377760D01*
X132106999Y-89377760D02*
X132078428Y-89463474D01*
X132078428Y-89463474D02*
X131735571Y-89806331D01*
X131735571Y-89806331D02*
X132106999Y-89806331D01*
X132478428Y-89206331D02*
X132535571Y-89206331D01*
X132535571Y-89206331D02*
X132592714Y-89234902D01*
X132592714Y-89234902D02*
X132621286Y-89263474D01*
X132621286Y-89263474D02*
X132649857Y-89320617D01*
X132649857Y-89320617D02*
X132678428Y-89434902D01*
X132678428Y-89434902D02*
X132678428Y-89577760D01*
X132678428Y-89577760D02*
X132649857Y-89692045D01*
X132649857Y-89692045D02*
X132621286Y-89749188D01*
X132621286Y-89749188D02*
X132592714Y-89777760D01*
X132592714Y-89777760D02*
X132535571Y-89806331D01*
X132535571Y-89806331D02*
X132478428Y-89806331D01*
X132478428Y-89806331D02*
X132421286Y-89777760D01*
X132421286Y-89777760D02*
X132392714Y-89749188D01*
X132392714Y-89749188D02*
X132364143Y-89692045D01*
X132364143Y-89692045D02*
X132335571Y-89577760D01*
X132335571Y-89577760D02*
X132335571Y-89434902D01*
X132335571Y-89434902D02*
X132364143Y-89320617D01*
X132364143Y-89320617D02*
X132392714Y-89263474D01*
X132392714Y-89263474D02*
X132421286Y-89234902D01*
X132421286Y-89234902D02*
X132478428Y-89206331D01*
X133249857Y-89806331D02*
X132907000Y-89806331D01*
X133078429Y-89806331D02*
X133078429Y-89206331D01*
X133078429Y-89206331D02*
X133021286Y-89292045D01*
X133021286Y-89292045D02*
X132964143Y-89349188D01*
X132964143Y-89349188D02*
X132907000Y-89377760D01*
X136958331Y-114566571D02*
X137444045Y-114566571D01*
X137444045Y-114566571D02*
X137501188Y-114538000D01*
X137501188Y-114538000D02*
X137529760Y-114509429D01*
X137529760Y-114509429D02*
X137558331Y-114452286D01*
X137558331Y-114452286D02*
X137558331Y-114338000D01*
X137558331Y-114338000D02*
X137529760Y-114280857D01*
X137529760Y-114280857D02*
X137501188Y-114252286D01*
X137501188Y-114252286D02*
X137444045Y-114223714D01*
X137444045Y-114223714D02*
X136958331Y-114223714D01*
X137158331Y-113680858D02*
X137558331Y-113680858D01*
X136929760Y-113823715D02*
X137358331Y-113966572D01*
X137358331Y-113966572D02*
X137358331Y-113595143D01*
X136958331Y-113252286D02*
X136958331Y-113195143D01*
X136958331Y-113195143D02*
X136986902Y-113138000D01*
X136986902Y-113138000D02*
X137015474Y-113109429D01*
X137015474Y-113109429D02*
X137072617Y-113080857D01*
X137072617Y-113080857D02*
X137186902Y-113052286D01*
X137186902Y-113052286D02*
X137329760Y-113052286D01*
X137329760Y-113052286D02*
X137444045Y-113080857D01*
X137444045Y-113080857D02*
X137501188Y-113109429D01*
X137501188Y-113109429D02*
X137529760Y-113138000D01*
X137529760Y-113138000D02*
X137558331Y-113195143D01*
X137558331Y-113195143D02*
X137558331Y-113252286D01*
X137558331Y-113252286D02*
X137529760Y-113309429D01*
X137529760Y-113309429D02*
X137501188Y-113338000D01*
X137501188Y-113338000D02*
X137444045Y-113366571D01*
X137444045Y-113366571D02*
X137329760Y-113395143D01*
X137329760Y-113395143D02*
X137186902Y-113395143D01*
X137186902Y-113395143D02*
X137072617Y-113366571D01*
X137072617Y-113366571D02*
X137015474Y-113338000D01*
X137015474Y-113338000D02*
X136986902Y-113309429D01*
X136986902Y-113309429D02*
X136958331Y-113252286D01*
X137558331Y-112480857D02*
X137558331Y-112823714D01*
X137558331Y-112652285D02*
X136958331Y-112652285D01*
X136958331Y-112652285D02*
X137044045Y-112709428D01*
X137044045Y-112709428D02*
X137101188Y-112766571D01*
X137101188Y-112766571D02*
X137129760Y-112823714D01*
X167881428Y-90349331D02*
X167881428Y-90835045D01*
X167881428Y-90835045D02*
X167909999Y-90892188D01*
X167909999Y-90892188D02*
X167938571Y-90920760D01*
X167938571Y-90920760D02*
X167995713Y-90949331D01*
X167995713Y-90949331D02*
X168109999Y-90949331D01*
X168109999Y-90949331D02*
X168167142Y-90920760D01*
X168167142Y-90920760D02*
X168195713Y-90892188D01*
X168195713Y-90892188D02*
X168224285Y-90835045D01*
X168224285Y-90835045D02*
X168224285Y-90349331D01*
X168452856Y-90349331D02*
X168824284Y-90349331D01*
X168824284Y-90349331D02*
X168624284Y-90577902D01*
X168624284Y-90577902D02*
X168709999Y-90577902D01*
X168709999Y-90577902D02*
X168767142Y-90606474D01*
X168767142Y-90606474D02*
X168795713Y-90635045D01*
X168795713Y-90635045D02*
X168824284Y-90692188D01*
X168824284Y-90692188D02*
X168824284Y-90835045D01*
X168824284Y-90835045D02*
X168795713Y-90892188D01*
X168795713Y-90892188D02*
X168767142Y-90920760D01*
X168767142Y-90920760D02*
X168709999Y-90949331D01*
X168709999Y-90949331D02*
X168538570Y-90949331D01*
X168538570Y-90949331D02*
X168481427Y-90920760D01*
X168481427Y-90920760D02*
X168452856Y-90892188D01*
X169195713Y-90349331D02*
X169252856Y-90349331D01*
X169252856Y-90349331D02*
X169309999Y-90377902D01*
X169309999Y-90377902D02*
X169338571Y-90406474D01*
X169338571Y-90406474D02*
X169367142Y-90463617D01*
X169367142Y-90463617D02*
X169395713Y-90577902D01*
X169395713Y-90577902D02*
X169395713Y-90720760D01*
X169395713Y-90720760D02*
X169367142Y-90835045D01*
X169367142Y-90835045D02*
X169338571Y-90892188D01*
X169338571Y-90892188D02*
X169309999Y-90920760D01*
X169309999Y-90920760D02*
X169252856Y-90949331D01*
X169252856Y-90949331D02*
X169195713Y-90949331D01*
X169195713Y-90949331D02*
X169138571Y-90920760D01*
X169138571Y-90920760D02*
X169109999Y-90892188D01*
X169109999Y-90892188D02*
X169081428Y-90835045D01*
X169081428Y-90835045D02*
X169052856Y-90720760D01*
X169052856Y-90720760D02*
X169052856Y-90577902D01*
X169052856Y-90577902D02*
X169081428Y-90463617D01*
X169081428Y-90463617D02*
X169109999Y-90406474D01*
X169109999Y-90406474D02*
X169138571Y-90377902D01*
X169138571Y-90377902D02*
X169195713Y-90349331D01*
X169967142Y-90949331D02*
X169624285Y-90949331D01*
X169795714Y-90949331D02*
X169795714Y-90349331D01*
X169795714Y-90349331D02*
X169738571Y-90435045D01*
X169738571Y-90435045D02*
X169681428Y-90492188D01*
X169681428Y-90492188D02*
X169624285Y-90520760D01*
X149750331Y-114336428D02*
X149464617Y-114536428D01*
X149750331Y-114679285D02*
X149150331Y-114679285D01*
X149150331Y-114679285D02*
X149150331Y-114450714D01*
X149150331Y-114450714D02*
X149178902Y-114393571D01*
X149178902Y-114393571D02*
X149207474Y-114365000D01*
X149207474Y-114365000D02*
X149264617Y-114336428D01*
X149264617Y-114336428D02*
X149350331Y-114336428D01*
X149350331Y-114336428D02*
X149407474Y-114365000D01*
X149407474Y-114365000D02*
X149436045Y-114393571D01*
X149436045Y-114393571D02*
X149464617Y-114450714D01*
X149464617Y-114450714D02*
X149464617Y-114679285D01*
X149150331Y-113793571D02*
X149150331Y-114079285D01*
X149150331Y-114079285D02*
X149436045Y-114107857D01*
X149436045Y-114107857D02*
X149407474Y-114079285D01*
X149407474Y-114079285D02*
X149378902Y-114022143D01*
X149378902Y-114022143D02*
X149378902Y-113879285D01*
X149378902Y-113879285D02*
X149407474Y-113822143D01*
X149407474Y-113822143D02*
X149436045Y-113793571D01*
X149436045Y-113793571D02*
X149493188Y-113765000D01*
X149493188Y-113765000D02*
X149636045Y-113765000D01*
X149636045Y-113765000D02*
X149693188Y-113793571D01*
X149693188Y-113793571D02*
X149721760Y-113822143D01*
X149721760Y-113822143D02*
X149750331Y-113879285D01*
X149750331Y-113879285D02*
X149750331Y-114022143D01*
X149750331Y-114022143D02*
X149721760Y-114079285D01*
X149721760Y-114079285D02*
X149693188Y-114107857D01*
X149150331Y-113393571D02*
X149150331Y-113336428D01*
X149150331Y-113336428D02*
X149178902Y-113279285D01*
X149178902Y-113279285D02*
X149207474Y-113250714D01*
X149207474Y-113250714D02*
X149264617Y-113222142D01*
X149264617Y-113222142D02*
X149378902Y-113193571D01*
X149378902Y-113193571D02*
X149521760Y-113193571D01*
X149521760Y-113193571D02*
X149636045Y-113222142D01*
X149636045Y-113222142D02*
X149693188Y-113250714D01*
X149693188Y-113250714D02*
X149721760Y-113279285D01*
X149721760Y-113279285D02*
X149750331Y-113336428D01*
X149750331Y-113336428D02*
X149750331Y-113393571D01*
X149750331Y-113393571D02*
X149721760Y-113450714D01*
X149721760Y-113450714D02*
X149693188Y-113479285D01*
X149693188Y-113479285D02*
X149636045Y-113507856D01*
X149636045Y-113507856D02*
X149521760Y-113536428D01*
X149521760Y-113536428D02*
X149378902Y-113536428D01*
X149378902Y-113536428D02*
X149264617Y-113507856D01*
X149264617Y-113507856D02*
X149207474Y-113479285D01*
X149207474Y-113479285D02*
X149178902Y-113450714D01*
X149178902Y-113450714D02*
X149150331Y-113393571D01*
X149150331Y-112650713D02*
X149150331Y-112936427D01*
X149150331Y-112936427D02*
X149436045Y-112964999D01*
X149436045Y-112964999D02*
X149407474Y-112936427D01*
X149407474Y-112936427D02*
X149378902Y-112879285D01*
X149378902Y-112879285D02*
X149378902Y-112736427D01*
X149378902Y-112736427D02*
X149407474Y-112679285D01*
X149407474Y-112679285D02*
X149436045Y-112650713D01*
X149436045Y-112650713D02*
X149493188Y-112622142D01*
X149493188Y-112622142D02*
X149636045Y-112622142D01*
X149636045Y-112622142D02*
X149693188Y-112650713D01*
X149693188Y-112650713D02*
X149721760Y-112679285D01*
X149721760Y-112679285D02*
X149750331Y-112736427D01*
X149750331Y-112736427D02*
X149750331Y-112879285D01*
X149750331Y-112879285D02*
X149721760Y-112936427D01*
X149721760Y-112936427D02*
X149693188Y-112964999D01*
X163793571Y-89095188D02*
X163764999Y-89123760D01*
X163764999Y-89123760D02*
X163679285Y-89152331D01*
X163679285Y-89152331D02*
X163622142Y-89152331D01*
X163622142Y-89152331D02*
X163536428Y-89123760D01*
X163536428Y-89123760D02*
X163479285Y-89066617D01*
X163479285Y-89066617D02*
X163450714Y-89009474D01*
X163450714Y-89009474D02*
X163422142Y-88895188D01*
X163422142Y-88895188D02*
X163422142Y-88809474D01*
X163422142Y-88809474D02*
X163450714Y-88695188D01*
X163450714Y-88695188D02*
X163479285Y-88638045D01*
X163479285Y-88638045D02*
X163536428Y-88580902D01*
X163536428Y-88580902D02*
X163622142Y-88552331D01*
X163622142Y-88552331D02*
X163679285Y-88552331D01*
X163679285Y-88552331D02*
X163764999Y-88580902D01*
X163764999Y-88580902D02*
X163793571Y-88609474D01*
X163993571Y-88552331D02*
X164364999Y-88552331D01*
X164364999Y-88552331D02*
X164164999Y-88780902D01*
X164164999Y-88780902D02*
X164250714Y-88780902D01*
X164250714Y-88780902D02*
X164307857Y-88809474D01*
X164307857Y-88809474D02*
X164336428Y-88838045D01*
X164336428Y-88838045D02*
X164364999Y-88895188D01*
X164364999Y-88895188D02*
X164364999Y-89038045D01*
X164364999Y-89038045D02*
X164336428Y-89095188D01*
X164336428Y-89095188D02*
X164307857Y-89123760D01*
X164307857Y-89123760D02*
X164250714Y-89152331D01*
X164250714Y-89152331D02*
X164079285Y-89152331D01*
X164079285Y-89152331D02*
X164022142Y-89123760D01*
X164022142Y-89123760D02*
X163993571Y-89095188D01*
X164736428Y-88552331D02*
X164793571Y-88552331D01*
X164793571Y-88552331D02*
X164850714Y-88580902D01*
X164850714Y-88580902D02*
X164879286Y-88609474D01*
X164879286Y-88609474D02*
X164907857Y-88666617D01*
X164907857Y-88666617D02*
X164936428Y-88780902D01*
X164936428Y-88780902D02*
X164936428Y-88923760D01*
X164936428Y-88923760D02*
X164907857Y-89038045D01*
X164907857Y-89038045D02*
X164879286Y-89095188D01*
X164879286Y-89095188D02*
X164850714Y-89123760D01*
X164850714Y-89123760D02*
X164793571Y-89152331D01*
X164793571Y-89152331D02*
X164736428Y-89152331D01*
X164736428Y-89152331D02*
X164679286Y-89123760D01*
X164679286Y-89123760D02*
X164650714Y-89095188D01*
X164650714Y-89095188D02*
X164622143Y-89038045D01*
X164622143Y-89038045D02*
X164593571Y-88923760D01*
X164593571Y-88923760D02*
X164593571Y-88780902D01*
X164593571Y-88780902D02*
X164622143Y-88666617D01*
X164622143Y-88666617D02*
X164650714Y-88609474D01*
X164650714Y-88609474D02*
X164679286Y-88580902D01*
X164679286Y-88580902D02*
X164736428Y-88552331D01*
X165450715Y-88552331D02*
X165336429Y-88552331D01*
X165336429Y-88552331D02*
X165279286Y-88580902D01*
X165279286Y-88580902D02*
X165250715Y-88609474D01*
X165250715Y-88609474D02*
X165193572Y-88695188D01*
X165193572Y-88695188D02*
X165165000Y-88809474D01*
X165165000Y-88809474D02*
X165165000Y-89038045D01*
X165165000Y-89038045D02*
X165193572Y-89095188D01*
X165193572Y-89095188D02*
X165222143Y-89123760D01*
X165222143Y-89123760D02*
X165279286Y-89152331D01*
X165279286Y-89152331D02*
X165393572Y-89152331D01*
X165393572Y-89152331D02*
X165450715Y-89123760D01*
X165450715Y-89123760D02*
X165479286Y-89095188D01*
X165479286Y-89095188D02*
X165507857Y-89038045D01*
X165507857Y-89038045D02*
X165507857Y-88895188D01*
X165507857Y-88895188D02*
X165479286Y-88838045D01*
X165479286Y-88838045D02*
X165450715Y-88809474D01*
X165450715Y-88809474D02*
X165393572Y-88780902D01*
X165393572Y-88780902D02*
X165279286Y-88780902D01*
X165279286Y-88780902D02*
X165222143Y-88809474D01*
X165222143Y-88809474D02*
X165193572Y-88838045D01*
X165193572Y-88838045D02*
X165165000Y-88895188D01*
X178933570Y-84380331D02*
X178933570Y-84808902D01*
X178933570Y-84808902D02*
X178904999Y-84894617D01*
X178904999Y-84894617D02*
X178847856Y-84951760D01*
X178847856Y-84951760D02*
X178762142Y-84980331D01*
X178762142Y-84980331D02*
X178704999Y-84980331D01*
X179162142Y-84380331D02*
X179533570Y-84380331D01*
X179533570Y-84380331D02*
X179333570Y-84608902D01*
X179333570Y-84608902D02*
X179419285Y-84608902D01*
X179419285Y-84608902D02*
X179476428Y-84637474D01*
X179476428Y-84637474D02*
X179504999Y-84666045D01*
X179504999Y-84666045D02*
X179533570Y-84723188D01*
X179533570Y-84723188D02*
X179533570Y-84866045D01*
X179533570Y-84866045D02*
X179504999Y-84923188D01*
X179504999Y-84923188D02*
X179476428Y-84951760D01*
X179476428Y-84951760D02*
X179419285Y-84980331D01*
X179419285Y-84980331D02*
X179247856Y-84980331D01*
X179247856Y-84980331D02*
X179190713Y-84951760D01*
X179190713Y-84951760D02*
X179162142Y-84923188D01*
X179904999Y-84380331D02*
X179962142Y-84380331D01*
X179962142Y-84380331D02*
X180019285Y-84408902D01*
X180019285Y-84408902D02*
X180047857Y-84437474D01*
X180047857Y-84437474D02*
X180076428Y-84494617D01*
X180076428Y-84494617D02*
X180104999Y-84608902D01*
X180104999Y-84608902D02*
X180104999Y-84751760D01*
X180104999Y-84751760D02*
X180076428Y-84866045D01*
X180076428Y-84866045D02*
X180047857Y-84923188D01*
X180047857Y-84923188D02*
X180019285Y-84951760D01*
X180019285Y-84951760D02*
X179962142Y-84980331D01*
X179962142Y-84980331D02*
X179904999Y-84980331D01*
X179904999Y-84980331D02*
X179847857Y-84951760D01*
X179847857Y-84951760D02*
X179819285Y-84923188D01*
X179819285Y-84923188D02*
X179790714Y-84866045D01*
X179790714Y-84866045D02*
X179762142Y-84751760D01*
X179762142Y-84751760D02*
X179762142Y-84608902D01*
X179762142Y-84608902D02*
X179790714Y-84494617D01*
X179790714Y-84494617D02*
X179819285Y-84437474D01*
X179819285Y-84437474D02*
X179847857Y-84408902D01*
X179847857Y-84408902D02*
X179904999Y-84380331D01*
X180676428Y-84980331D02*
X180333571Y-84980331D01*
X180505000Y-84980331D02*
X180505000Y-84380331D01*
X180505000Y-84380331D02*
X180447857Y-84466045D01*
X180447857Y-84466045D02*
X180390714Y-84523188D01*
X180390714Y-84523188D02*
X180333571Y-84551760D01*
X118000331Y-107592685D02*
X117400331Y-107592685D01*
X118000331Y-107249828D02*
X117657474Y-107506971D01*
X117400331Y-107249828D02*
X117743188Y-107592685D01*
X117600331Y-106735543D02*
X118000331Y-106735543D01*
X117371760Y-106878400D02*
X117800331Y-107021257D01*
X117800331Y-107021257D02*
X117800331Y-106649828D01*
X117400331Y-106306971D02*
X117400331Y-106249828D01*
X117400331Y-106249828D02*
X117428902Y-106192685D01*
X117428902Y-106192685D02*
X117457474Y-106164114D01*
X117457474Y-106164114D02*
X117514617Y-106135542D01*
X117514617Y-106135542D02*
X117628902Y-106106971D01*
X117628902Y-106106971D02*
X117771760Y-106106971D01*
X117771760Y-106106971D02*
X117886045Y-106135542D01*
X117886045Y-106135542D02*
X117943188Y-106164114D01*
X117943188Y-106164114D02*
X117971760Y-106192685D01*
X117971760Y-106192685D02*
X118000331Y-106249828D01*
X118000331Y-106249828D02*
X118000331Y-106306971D01*
X118000331Y-106306971D02*
X117971760Y-106364114D01*
X117971760Y-106364114D02*
X117943188Y-106392685D01*
X117943188Y-106392685D02*
X117886045Y-106421256D01*
X117886045Y-106421256D02*
X117771760Y-106449828D01*
X117771760Y-106449828D02*
X117628902Y-106449828D01*
X117628902Y-106449828D02*
X117514617Y-106421256D01*
X117514617Y-106421256D02*
X117457474Y-106392685D01*
X117457474Y-106392685D02*
X117428902Y-106364114D01*
X117428902Y-106364114D02*
X117400331Y-106306971D01*
X117400331Y-105906970D02*
X117400331Y-105535542D01*
X117400331Y-105535542D02*
X117628902Y-105735542D01*
X117628902Y-105735542D02*
X117628902Y-105649827D01*
X117628902Y-105649827D02*
X117657474Y-105592685D01*
X117657474Y-105592685D02*
X117686045Y-105564113D01*
X117686045Y-105564113D02*
X117743188Y-105535542D01*
X117743188Y-105535542D02*
X117886045Y-105535542D01*
X117886045Y-105535542D02*
X117943188Y-105564113D01*
X117943188Y-105564113D02*
X117971760Y-105592685D01*
X117971760Y-105592685D02*
X118000331Y-105649827D01*
X118000331Y-105649827D02*
X118000331Y-105821256D01*
X118000331Y-105821256D02*
X117971760Y-105878399D01*
X117971760Y-105878399D02*
X117943188Y-105906970D01*
X126407731Y-116457285D02*
X125807731Y-116457285D01*
X126407731Y-116114428D02*
X126064874Y-116371571D01*
X125807731Y-116114428D02*
X126150588Y-116457285D01*
X126007731Y-115600143D02*
X126407731Y-115600143D01*
X125779160Y-115743000D02*
X126207731Y-115885857D01*
X126207731Y-115885857D02*
X126207731Y-115514428D01*
X126407731Y-114971571D02*
X126407731Y-115314428D01*
X126407731Y-115142999D02*
X125807731Y-115142999D01*
X125807731Y-115142999D02*
X125893445Y-115200142D01*
X125893445Y-115200142D02*
X125950588Y-115257285D01*
X125950588Y-115257285D02*
X125979160Y-115314428D01*
X125807731Y-114457285D02*
X125807731Y-114571570D01*
X125807731Y-114571570D02*
X125836302Y-114628713D01*
X125836302Y-114628713D02*
X125864874Y-114657285D01*
X125864874Y-114657285D02*
X125950588Y-114714427D01*
X125950588Y-114714427D02*
X126064874Y-114742999D01*
X126064874Y-114742999D02*
X126293445Y-114742999D01*
X126293445Y-114742999D02*
X126350588Y-114714427D01*
X126350588Y-114714427D02*
X126379160Y-114685856D01*
X126379160Y-114685856D02*
X126407731Y-114628713D01*
X126407731Y-114628713D02*
X126407731Y-114514427D01*
X126407731Y-114514427D02*
X126379160Y-114457285D01*
X126379160Y-114457285D02*
X126350588Y-114428713D01*
X126350588Y-114428713D02*
X126293445Y-114400142D01*
X126293445Y-114400142D02*
X126150588Y-114400142D01*
X126150588Y-114400142D02*
X126093445Y-114428713D01*
X126093445Y-114428713D02*
X126064874Y-114457285D01*
X126064874Y-114457285D02*
X126036302Y-114514427D01*
X126036302Y-114514427D02*
X126036302Y-114628713D01*
X126036302Y-114628713D02*
X126064874Y-114685856D01*
X126064874Y-114685856D02*
X126093445Y-114714427D01*
X126093445Y-114714427D02*
X126150588Y-114742999D01*
X118000331Y-99363085D02*
X117400331Y-99363085D01*
X118000331Y-99020228D02*
X117657474Y-99277371D01*
X117400331Y-99020228D02*
X117743188Y-99363085D01*
X117600331Y-98505943D02*
X118000331Y-98505943D01*
X117371760Y-98648800D02*
X117800331Y-98791657D01*
X117800331Y-98791657D02*
X117800331Y-98420228D01*
X117400331Y-98077371D02*
X117400331Y-98020228D01*
X117400331Y-98020228D02*
X117428902Y-97963085D01*
X117428902Y-97963085D02*
X117457474Y-97934514D01*
X117457474Y-97934514D02*
X117514617Y-97905942D01*
X117514617Y-97905942D02*
X117628902Y-97877371D01*
X117628902Y-97877371D02*
X117771760Y-97877371D01*
X117771760Y-97877371D02*
X117886045Y-97905942D01*
X117886045Y-97905942D02*
X117943188Y-97934514D01*
X117943188Y-97934514D02*
X117971760Y-97963085D01*
X117971760Y-97963085D02*
X118000331Y-98020228D01*
X118000331Y-98020228D02*
X118000331Y-98077371D01*
X118000331Y-98077371D02*
X117971760Y-98134514D01*
X117971760Y-98134514D02*
X117943188Y-98163085D01*
X117943188Y-98163085D02*
X117886045Y-98191656D01*
X117886045Y-98191656D02*
X117771760Y-98220228D01*
X117771760Y-98220228D02*
X117628902Y-98220228D01*
X117628902Y-98220228D02*
X117514617Y-98191656D01*
X117514617Y-98191656D02*
X117457474Y-98163085D01*
X117457474Y-98163085D02*
X117428902Y-98134514D01*
X117428902Y-98134514D02*
X117400331Y-98077371D01*
X117400331Y-97334513D02*
X117400331Y-97620227D01*
X117400331Y-97620227D02*
X117686045Y-97648799D01*
X117686045Y-97648799D02*
X117657474Y-97620227D01*
X117657474Y-97620227D02*
X117628902Y-97563085D01*
X117628902Y-97563085D02*
X117628902Y-97420227D01*
X117628902Y-97420227D02*
X117657474Y-97363085D01*
X117657474Y-97363085D02*
X117686045Y-97334513D01*
X117686045Y-97334513D02*
X117743188Y-97305942D01*
X117743188Y-97305942D02*
X117886045Y-97305942D01*
X117886045Y-97305942D02*
X117943188Y-97334513D01*
X117943188Y-97334513D02*
X117971760Y-97363085D01*
X117971760Y-97363085D02*
X118000331Y-97420227D01*
X118000331Y-97420227D02*
X118000331Y-97563085D01*
X118000331Y-97563085D02*
X117971760Y-97620227D01*
X117971760Y-97620227D02*
X117943188Y-97648799D01*
X126407731Y-91209685D02*
X125807731Y-91209685D01*
X126407731Y-90866828D02*
X126064874Y-91123971D01*
X125807731Y-90866828D02*
X126150588Y-91209685D01*
X126007731Y-90352543D02*
X126407731Y-90352543D01*
X125779160Y-90495400D02*
X126207731Y-90638257D01*
X126207731Y-90638257D02*
X126207731Y-90266828D01*
X126407731Y-89723971D02*
X126407731Y-90066828D01*
X126407731Y-89895399D02*
X125807731Y-89895399D01*
X125807731Y-89895399D02*
X125893445Y-89952542D01*
X125893445Y-89952542D02*
X125950588Y-90009685D01*
X125950588Y-90009685D02*
X125979160Y-90066828D01*
X125807731Y-89352542D02*
X125807731Y-89295399D01*
X125807731Y-89295399D02*
X125836302Y-89238256D01*
X125836302Y-89238256D02*
X125864874Y-89209685D01*
X125864874Y-89209685D02*
X125922017Y-89181113D01*
X125922017Y-89181113D02*
X126036302Y-89152542D01*
X126036302Y-89152542D02*
X126179160Y-89152542D01*
X126179160Y-89152542D02*
X126293445Y-89181113D01*
X126293445Y-89181113D02*
X126350588Y-89209685D01*
X126350588Y-89209685D02*
X126379160Y-89238256D01*
X126379160Y-89238256D02*
X126407731Y-89295399D01*
X126407731Y-89295399D02*
X126407731Y-89352542D01*
X126407731Y-89352542D02*
X126379160Y-89409685D01*
X126379160Y-89409685D02*
X126350588Y-89438256D01*
X126350588Y-89438256D02*
X126293445Y-89466827D01*
X126293445Y-89466827D02*
X126179160Y-89495399D01*
X126179160Y-89495399D02*
X126036302Y-89495399D01*
X126036302Y-89495399D02*
X125922017Y-89466827D01*
X125922017Y-89466827D02*
X125864874Y-89438256D01*
X125864874Y-89438256D02*
X125836302Y-89409685D01*
X125836302Y-89409685D02*
X125807731Y-89352542D01*
X126407731Y-87094885D02*
X125807731Y-87094885D01*
X126407731Y-86752028D02*
X126064874Y-87009171D01*
X125807731Y-86752028D02*
X126150588Y-87094885D01*
X126007731Y-86237743D02*
X126407731Y-86237743D01*
X125779160Y-86380600D02*
X126207731Y-86523457D01*
X126207731Y-86523457D02*
X126207731Y-86152028D01*
X125807731Y-85809171D02*
X125807731Y-85752028D01*
X125807731Y-85752028D02*
X125836302Y-85694885D01*
X125836302Y-85694885D02*
X125864874Y-85666314D01*
X125864874Y-85666314D02*
X125922017Y-85637742D01*
X125922017Y-85637742D02*
X126036302Y-85609171D01*
X126036302Y-85609171D02*
X126179160Y-85609171D01*
X126179160Y-85609171D02*
X126293445Y-85637742D01*
X126293445Y-85637742D02*
X126350588Y-85666314D01*
X126350588Y-85666314D02*
X126379160Y-85694885D01*
X126379160Y-85694885D02*
X126407731Y-85752028D01*
X126407731Y-85752028D02*
X126407731Y-85809171D01*
X126407731Y-85809171D02*
X126379160Y-85866314D01*
X126379160Y-85866314D02*
X126350588Y-85894885D01*
X126350588Y-85894885D02*
X126293445Y-85923456D01*
X126293445Y-85923456D02*
X126179160Y-85952028D01*
X126179160Y-85952028D02*
X126036302Y-85952028D01*
X126036302Y-85952028D02*
X125922017Y-85923456D01*
X125922017Y-85923456D02*
X125864874Y-85894885D01*
X125864874Y-85894885D02*
X125836302Y-85866314D01*
X125836302Y-85866314D02*
X125807731Y-85809171D01*
X126407731Y-85323456D02*
X126407731Y-85209170D01*
X126407731Y-85209170D02*
X126379160Y-85152027D01*
X126379160Y-85152027D02*
X126350588Y-85123456D01*
X126350588Y-85123456D02*
X126264874Y-85066313D01*
X126264874Y-85066313D02*
X126150588Y-85037742D01*
X126150588Y-85037742D02*
X125922017Y-85037742D01*
X125922017Y-85037742D02*
X125864874Y-85066313D01*
X125864874Y-85066313D02*
X125836302Y-85094885D01*
X125836302Y-85094885D02*
X125807731Y-85152027D01*
X125807731Y-85152027D02*
X125807731Y-85266313D01*
X125807731Y-85266313D02*
X125836302Y-85323456D01*
X125836302Y-85323456D02*
X125864874Y-85352027D01*
X125864874Y-85352027D02*
X125922017Y-85380599D01*
X125922017Y-85380599D02*
X126064874Y-85380599D01*
X126064874Y-85380599D02*
X126122017Y-85352027D01*
X126122017Y-85352027D02*
X126150588Y-85323456D01*
X126150588Y-85323456D02*
X126179160Y-85266313D01*
X126179160Y-85266313D02*
X126179160Y-85152027D01*
X126179160Y-85152027D02*
X126150588Y-85094885D01*
X126150588Y-85094885D02*
X126122017Y-85066313D01*
X126122017Y-85066313D02*
X126064874Y-85037742D01*
X126407731Y-95324485D02*
X125807731Y-95324485D01*
X126407731Y-94981628D02*
X126064874Y-95238771D01*
X125807731Y-94981628D02*
X126150588Y-95324485D01*
X126007731Y-94467343D02*
X126407731Y-94467343D01*
X125779160Y-94610200D02*
X126207731Y-94753057D01*
X126207731Y-94753057D02*
X126207731Y-94381628D01*
X126407731Y-93838771D02*
X126407731Y-94181628D01*
X126407731Y-94010199D02*
X125807731Y-94010199D01*
X125807731Y-94010199D02*
X125893445Y-94067342D01*
X125893445Y-94067342D02*
X125950588Y-94124485D01*
X125950588Y-94124485D02*
X125979160Y-94181628D01*
X126407731Y-93267342D02*
X126407731Y-93610199D01*
X126407731Y-93438770D02*
X125807731Y-93438770D01*
X125807731Y-93438770D02*
X125893445Y-93495913D01*
X125893445Y-93495913D02*
X125950588Y-93553056D01*
X125950588Y-93553056D02*
X125979160Y-93610199D01*
X126407731Y-120013285D02*
X125807731Y-120013285D01*
X126407731Y-119670428D02*
X126064874Y-119927571D01*
X125807731Y-119670428D02*
X126150588Y-120013285D01*
X126007731Y-119156143D02*
X126407731Y-119156143D01*
X125779160Y-119299000D02*
X126207731Y-119441857D01*
X126207731Y-119441857D02*
X126207731Y-119070428D01*
X126407731Y-118527571D02*
X126407731Y-118870428D01*
X126407731Y-118698999D02*
X125807731Y-118698999D01*
X125807731Y-118698999D02*
X125893445Y-118756142D01*
X125893445Y-118756142D02*
X125950588Y-118813285D01*
X125950588Y-118813285D02*
X125979160Y-118870428D01*
X126064874Y-118184713D02*
X126036302Y-118241856D01*
X126036302Y-118241856D02*
X126007731Y-118270427D01*
X126007731Y-118270427D02*
X125950588Y-118298999D01*
X125950588Y-118298999D02*
X125922017Y-118298999D01*
X125922017Y-118298999D02*
X125864874Y-118270427D01*
X125864874Y-118270427D02*
X125836302Y-118241856D01*
X125836302Y-118241856D02*
X125807731Y-118184713D01*
X125807731Y-118184713D02*
X125807731Y-118070427D01*
X125807731Y-118070427D02*
X125836302Y-118013285D01*
X125836302Y-118013285D02*
X125864874Y-117984713D01*
X125864874Y-117984713D02*
X125922017Y-117956142D01*
X125922017Y-117956142D02*
X125950588Y-117956142D01*
X125950588Y-117956142D02*
X126007731Y-117984713D01*
X126007731Y-117984713D02*
X126036302Y-118013285D01*
X126036302Y-118013285D02*
X126064874Y-118070427D01*
X126064874Y-118070427D02*
X126064874Y-118184713D01*
X126064874Y-118184713D02*
X126093445Y-118241856D01*
X126093445Y-118241856D02*
X126122017Y-118270427D01*
X126122017Y-118270427D02*
X126179160Y-118298999D01*
X126179160Y-118298999D02*
X126293445Y-118298999D01*
X126293445Y-118298999D02*
X126350588Y-118270427D01*
X126350588Y-118270427D02*
X126379160Y-118241856D01*
X126379160Y-118241856D02*
X126407731Y-118184713D01*
X126407731Y-118184713D02*
X126407731Y-118070427D01*
X126407731Y-118070427D02*
X126379160Y-118013285D01*
X126379160Y-118013285D02*
X126350588Y-117984713D01*
X126350588Y-117984713D02*
X126293445Y-117956142D01*
X126293445Y-117956142D02*
X126179160Y-117956142D01*
X126179160Y-117956142D02*
X126122017Y-117984713D01*
X126122017Y-117984713D02*
X126093445Y-118013285D01*
X126093445Y-118013285D02*
X126064874Y-118070427D01*
X118000331Y-87018685D02*
X117400331Y-87018685D01*
X118000331Y-86675828D02*
X117657474Y-86932971D01*
X117400331Y-86675828D02*
X117743188Y-87018685D01*
X117600331Y-86161543D02*
X118000331Y-86161543D01*
X117371760Y-86304400D02*
X117800331Y-86447257D01*
X117800331Y-86447257D02*
X117800331Y-86075828D01*
X117400331Y-85732971D02*
X117400331Y-85675828D01*
X117400331Y-85675828D02*
X117428902Y-85618685D01*
X117428902Y-85618685D02*
X117457474Y-85590114D01*
X117457474Y-85590114D02*
X117514617Y-85561542D01*
X117514617Y-85561542D02*
X117628902Y-85532971D01*
X117628902Y-85532971D02*
X117771760Y-85532971D01*
X117771760Y-85532971D02*
X117886045Y-85561542D01*
X117886045Y-85561542D02*
X117943188Y-85590114D01*
X117943188Y-85590114D02*
X117971760Y-85618685D01*
X117971760Y-85618685D02*
X118000331Y-85675828D01*
X118000331Y-85675828D02*
X118000331Y-85732971D01*
X118000331Y-85732971D02*
X117971760Y-85790114D01*
X117971760Y-85790114D02*
X117943188Y-85818685D01*
X117943188Y-85818685D02*
X117886045Y-85847256D01*
X117886045Y-85847256D02*
X117771760Y-85875828D01*
X117771760Y-85875828D02*
X117628902Y-85875828D01*
X117628902Y-85875828D02*
X117514617Y-85847256D01*
X117514617Y-85847256D02*
X117457474Y-85818685D01*
X117457474Y-85818685D02*
X117428902Y-85790114D01*
X117428902Y-85790114D02*
X117400331Y-85732971D01*
X117657474Y-85190113D02*
X117628902Y-85247256D01*
X117628902Y-85247256D02*
X117600331Y-85275827D01*
X117600331Y-85275827D02*
X117543188Y-85304399D01*
X117543188Y-85304399D02*
X117514617Y-85304399D01*
X117514617Y-85304399D02*
X117457474Y-85275827D01*
X117457474Y-85275827D02*
X117428902Y-85247256D01*
X117428902Y-85247256D02*
X117400331Y-85190113D01*
X117400331Y-85190113D02*
X117400331Y-85075827D01*
X117400331Y-85075827D02*
X117428902Y-85018685D01*
X117428902Y-85018685D02*
X117457474Y-84990113D01*
X117457474Y-84990113D02*
X117514617Y-84961542D01*
X117514617Y-84961542D02*
X117543188Y-84961542D01*
X117543188Y-84961542D02*
X117600331Y-84990113D01*
X117600331Y-84990113D02*
X117628902Y-85018685D01*
X117628902Y-85018685D02*
X117657474Y-85075827D01*
X117657474Y-85075827D02*
X117657474Y-85190113D01*
X117657474Y-85190113D02*
X117686045Y-85247256D01*
X117686045Y-85247256D02*
X117714617Y-85275827D01*
X117714617Y-85275827D02*
X117771760Y-85304399D01*
X117771760Y-85304399D02*
X117886045Y-85304399D01*
X117886045Y-85304399D02*
X117943188Y-85275827D01*
X117943188Y-85275827D02*
X117971760Y-85247256D01*
X117971760Y-85247256D02*
X118000331Y-85190113D01*
X118000331Y-85190113D02*
X118000331Y-85075827D01*
X118000331Y-85075827D02*
X117971760Y-85018685D01*
X117971760Y-85018685D02*
X117943188Y-84990113D01*
X117943188Y-84990113D02*
X117886045Y-84961542D01*
X117886045Y-84961542D02*
X117771760Y-84961542D01*
X117771760Y-84961542D02*
X117714617Y-84990113D01*
X117714617Y-84990113D02*
X117686045Y-85018685D01*
X117686045Y-85018685D02*
X117657474Y-85075827D01*
X126407731Y-103554085D02*
X125807731Y-103554085D01*
X126407731Y-103211228D02*
X126064874Y-103468371D01*
X125807731Y-103211228D02*
X126150588Y-103554085D01*
X126007731Y-102696943D02*
X126407731Y-102696943D01*
X125779160Y-102839800D02*
X126207731Y-102982657D01*
X126207731Y-102982657D02*
X126207731Y-102611228D01*
X126407731Y-102068371D02*
X126407731Y-102411228D01*
X126407731Y-102239799D02*
X125807731Y-102239799D01*
X125807731Y-102239799D02*
X125893445Y-102296942D01*
X125893445Y-102296942D02*
X125950588Y-102354085D01*
X125950588Y-102354085D02*
X125979160Y-102411228D01*
X125807731Y-101868370D02*
X125807731Y-101496942D01*
X125807731Y-101496942D02*
X126036302Y-101696942D01*
X126036302Y-101696942D02*
X126036302Y-101611227D01*
X126036302Y-101611227D02*
X126064874Y-101554085D01*
X126064874Y-101554085D02*
X126093445Y-101525513D01*
X126093445Y-101525513D02*
X126150588Y-101496942D01*
X126150588Y-101496942D02*
X126293445Y-101496942D01*
X126293445Y-101496942D02*
X126350588Y-101525513D01*
X126350588Y-101525513D02*
X126379160Y-101554085D01*
X126379160Y-101554085D02*
X126407731Y-101611227D01*
X126407731Y-101611227D02*
X126407731Y-101782656D01*
X126407731Y-101782656D02*
X126379160Y-101839799D01*
X126379160Y-101839799D02*
X126350588Y-101868370D01*
X165952571Y-97299331D02*
X165752571Y-97013617D01*
X165609714Y-97299331D02*
X165609714Y-96699331D01*
X165609714Y-96699331D02*
X165838285Y-96699331D01*
X165838285Y-96699331D02*
X165895428Y-96727902D01*
X165895428Y-96727902D02*
X165923999Y-96756474D01*
X165923999Y-96756474D02*
X165952571Y-96813617D01*
X165952571Y-96813617D02*
X165952571Y-96899331D01*
X165952571Y-96899331D02*
X165923999Y-96956474D01*
X165923999Y-96956474D02*
X165895428Y-96985045D01*
X165895428Y-96985045D02*
X165838285Y-97013617D01*
X165838285Y-97013617D02*
X165609714Y-97013617D01*
X166152571Y-96699331D02*
X166523999Y-96699331D01*
X166523999Y-96699331D02*
X166323999Y-96927902D01*
X166323999Y-96927902D02*
X166409714Y-96927902D01*
X166409714Y-96927902D02*
X166466857Y-96956474D01*
X166466857Y-96956474D02*
X166495428Y-96985045D01*
X166495428Y-96985045D02*
X166523999Y-97042188D01*
X166523999Y-97042188D02*
X166523999Y-97185045D01*
X166523999Y-97185045D02*
X166495428Y-97242188D01*
X166495428Y-97242188D02*
X166466857Y-97270760D01*
X166466857Y-97270760D02*
X166409714Y-97299331D01*
X166409714Y-97299331D02*
X166238285Y-97299331D01*
X166238285Y-97299331D02*
X166181142Y-97270760D01*
X166181142Y-97270760D02*
X166152571Y-97242188D01*
X166895428Y-96699331D02*
X166952571Y-96699331D01*
X166952571Y-96699331D02*
X167009714Y-96727902D01*
X167009714Y-96727902D02*
X167038286Y-96756474D01*
X167038286Y-96756474D02*
X167066857Y-96813617D01*
X167066857Y-96813617D02*
X167095428Y-96927902D01*
X167095428Y-96927902D02*
X167095428Y-97070760D01*
X167095428Y-97070760D02*
X167066857Y-97185045D01*
X167066857Y-97185045D02*
X167038286Y-97242188D01*
X167038286Y-97242188D02*
X167009714Y-97270760D01*
X167009714Y-97270760D02*
X166952571Y-97299331D01*
X166952571Y-97299331D02*
X166895428Y-97299331D01*
X166895428Y-97299331D02*
X166838286Y-97270760D01*
X166838286Y-97270760D02*
X166809714Y-97242188D01*
X166809714Y-97242188D02*
X166781143Y-97185045D01*
X166781143Y-97185045D02*
X166752571Y-97070760D01*
X166752571Y-97070760D02*
X166752571Y-96927902D01*
X166752571Y-96927902D02*
X166781143Y-96813617D01*
X166781143Y-96813617D02*
X166809714Y-96756474D01*
X166809714Y-96756474D02*
X166838286Y-96727902D01*
X166838286Y-96727902D02*
X166895428Y-96699331D01*
X167666857Y-97299331D02*
X167324000Y-97299331D01*
X167495429Y-97299331D02*
X167495429Y-96699331D01*
X167495429Y-96699331D02*
X167438286Y-96785045D01*
X167438286Y-96785045D02*
X167381143Y-96842188D01*
X167381143Y-96842188D02*
X167324000Y-96870760D01*
X126407731Y-107668885D02*
X125807731Y-107668885D01*
X126407731Y-107326028D02*
X126064874Y-107583171D01*
X125807731Y-107326028D02*
X126150588Y-107668885D01*
X126007731Y-106811743D02*
X126407731Y-106811743D01*
X125779160Y-106954600D02*
X126207731Y-107097457D01*
X126207731Y-107097457D02*
X126207731Y-106726028D01*
X126407731Y-106183171D02*
X126407731Y-106526028D01*
X126407731Y-106354599D02*
X125807731Y-106354599D01*
X125807731Y-106354599D02*
X125893445Y-106411742D01*
X125893445Y-106411742D02*
X125950588Y-106468885D01*
X125950588Y-106468885D02*
X125979160Y-106526028D01*
X126007731Y-105668885D02*
X126407731Y-105668885D01*
X125779160Y-105811742D02*
X126207731Y-105954599D01*
X126207731Y-105954599D02*
X126207731Y-105583170D01*
X132805571Y-116984331D02*
X132605571Y-116698617D01*
X132462714Y-116984331D02*
X132462714Y-116384331D01*
X132462714Y-116384331D02*
X132691285Y-116384331D01*
X132691285Y-116384331D02*
X132748428Y-116412902D01*
X132748428Y-116412902D02*
X132776999Y-116441474D01*
X132776999Y-116441474D02*
X132805571Y-116498617D01*
X132805571Y-116498617D02*
X132805571Y-116584331D01*
X132805571Y-116584331D02*
X132776999Y-116641474D01*
X132776999Y-116641474D02*
X132748428Y-116670045D01*
X132748428Y-116670045D02*
X132691285Y-116698617D01*
X132691285Y-116698617D02*
X132462714Y-116698617D01*
X133319857Y-116584331D02*
X133319857Y-116984331D01*
X133176999Y-116355760D02*
X133034142Y-116784331D01*
X133034142Y-116784331D02*
X133405571Y-116784331D01*
X133748428Y-116384331D02*
X133805571Y-116384331D01*
X133805571Y-116384331D02*
X133862714Y-116412902D01*
X133862714Y-116412902D02*
X133891286Y-116441474D01*
X133891286Y-116441474D02*
X133919857Y-116498617D01*
X133919857Y-116498617D02*
X133948428Y-116612902D01*
X133948428Y-116612902D02*
X133948428Y-116755760D01*
X133948428Y-116755760D02*
X133919857Y-116870045D01*
X133919857Y-116870045D02*
X133891286Y-116927188D01*
X133891286Y-116927188D02*
X133862714Y-116955760D01*
X133862714Y-116955760D02*
X133805571Y-116984331D01*
X133805571Y-116984331D02*
X133748428Y-116984331D01*
X133748428Y-116984331D02*
X133691286Y-116955760D01*
X133691286Y-116955760D02*
X133662714Y-116927188D01*
X133662714Y-116927188D02*
X133634143Y-116870045D01*
X133634143Y-116870045D02*
X133605571Y-116755760D01*
X133605571Y-116755760D02*
X133605571Y-116612902D01*
X133605571Y-116612902D02*
X133634143Y-116498617D01*
X133634143Y-116498617D02*
X133662714Y-116441474D01*
X133662714Y-116441474D02*
X133691286Y-116412902D01*
X133691286Y-116412902D02*
X133748428Y-116384331D01*
X134462715Y-116584331D02*
X134462715Y-116984331D01*
X134319857Y-116355760D02*
X134177000Y-116784331D01*
X134177000Y-116784331D02*
X134548429Y-116784331D01*
X118000331Y-95248285D02*
X117400331Y-95248285D01*
X118000331Y-94905428D02*
X117657474Y-95162571D01*
X117400331Y-94905428D02*
X117743188Y-95248285D01*
X117600331Y-94391143D02*
X118000331Y-94391143D01*
X117371760Y-94534000D02*
X117800331Y-94676857D01*
X117800331Y-94676857D02*
X117800331Y-94305428D01*
X117400331Y-93962571D02*
X117400331Y-93905428D01*
X117400331Y-93905428D02*
X117428902Y-93848285D01*
X117428902Y-93848285D02*
X117457474Y-93819714D01*
X117457474Y-93819714D02*
X117514617Y-93791142D01*
X117514617Y-93791142D02*
X117628902Y-93762571D01*
X117628902Y-93762571D02*
X117771760Y-93762571D01*
X117771760Y-93762571D02*
X117886045Y-93791142D01*
X117886045Y-93791142D02*
X117943188Y-93819714D01*
X117943188Y-93819714D02*
X117971760Y-93848285D01*
X117971760Y-93848285D02*
X118000331Y-93905428D01*
X118000331Y-93905428D02*
X118000331Y-93962571D01*
X118000331Y-93962571D02*
X117971760Y-94019714D01*
X117971760Y-94019714D02*
X117943188Y-94048285D01*
X117943188Y-94048285D02*
X117886045Y-94076856D01*
X117886045Y-94076856D02*
X117771760Y-94105428D01*
X117771760Y-94105428D02*
X117628902Y-94105428D01*
X117628902Y-94105428D02*
X117514617Y-94076856D01*
X117514617Y-94076856D02*
X117457474Y-94048285D01*
X117457474Y-94048285D02*
X117428902Y-94019714D01*
X117428902Y-94019714D02*
X117400331Y-93962571D01*
X117400331Y-93248285D02*
X117400331Y-93362570D01*
X117400331Y-93362570D02*
X117428902Y-93419713D01*
X117428902Y-93419713D02*
X117457474Y-93448285D01*
X117457474Y-93448285D02*
X117543188Y-93505427D01*
X117543188Y-93505427D02*
X117657474Y-93533999D01*
X117657474Y-93533999D02*
X117886045Y-93533999D01*
X117886045Y-93533999D02*
X117943188Y-93505427D01*
X117943188Y-93505427D02*
X117971760Y-93476856D01*
X117971760Y-93476856D02*
X118000331Y-93419713D01*
X118000331Y-93419713D02*
X118000331Y-93305427D01*
X118000331Y-93305427D02*
X117971760Y-93248285D01*
X117971760Y-93248285D02*
X117943188Y-93219713D01*
X117943188Y-93219713D02*
X117886045Y-93191142D01*
X117886045Y-93191142D02*
X117743188Y-93191142D01*
X117743188Y-93191142D02*
X117686045Y-93219713D01*
X117686045Y-93219713D02*
X117657474Y-93248285D01*
X117657474Y-93248285D02*
X117628902Y-93305427D01*
X117628902Y-93305427D02*
X117628902Y-93419713D01*
X117628902Y-93419713D02*
X117657474Y-93476856D01*
X117657474Y-93476856D02*
X117686045Y-93505427D01*
X117686045Y-93505427D02*
X117743188Y-93533999D01*
X147915188Y-116241428D02*
X147943760Y-116270000D01*
X147943760Y-116270000D02*
X147972331Y-116355714D01*
X147972331Y-116355714D02*
X147972331Y-116412857D01*
X147972331Y-116412857D02*
X147943760Y-116498571D01*
X147943760Y-116498571D02*
X147886617Y-116555714D01*
X147886617Y-116555714D02*
X147829474Y-116584285D01*
X147829474Y-116584285D02*
X147715188Y-116612857D01*
X147715188Y-116612857D02*
X147629474Y-116612857D01*
X147629474Y-116612857D02*
X147515188Y-116584285D01*
X147515188Y-116584285D02*
X147458045Y-116555714D01*
X147458045Y-116555714D02*
X147400902Y-116498571D01*
X147400902Y-116498571D02*
X147372331Y-116412857D01*
X147372331Y-116412857D02*
X147372331Y-116355714D01*
X147372331Y-116355714D02*
X147400902Y-116270000D01*
X147400902Y-116270000D02*
X147429474Y-116241428D01*
X147572331Y-115727143D02*
X147972331Y-115727143D01*
X147343760Y-115870000D02*
X147772331Y-116012857D01*
X147772331Y-116012857D02*
X147772331Y-115641428D01*
X147372331Y-115298571D02*
X147372331Y-115241428D01*
X147372331Y-115241428D02*
X147400902Y-115184285D01*
X147400902Y-115184285D02*
X147429474Y-115155714D01*
X147429474Y-115155714D02*
X147486617Y-115127142D01*
X147486617Y-115127142D02*
X147600902Y-115098571D01*
X147600902Y-115098571D02*
X147743760Y-115098571D01*
X147743760Y-115098571D02*
X147858045Y-115127142D01*
X147858045Y-115127142D02*
X147915188Y-115155714D01*
X147915188Y-115155714D02*
X147943760Y-115184285D01*
X147943760Y-115184285D02*
X147972331Y-115241428D01*
X147972331Y-115241428D02*
X147972331Y-115298571D01*
X147972331Y-115298571D02*
X147943760Y-115355714D01*
X147943760Y-115355714D02*
X147915188Y-115384285D01*
X147915188Y-115384285D02*
X147858045Y-115412856D01*
X147858045Y-115412856D02*
X147743760Y-115441428D01*
X147743760Y-115441428D02*
X147600902Y-115441428D01*
X147600902Y-115441428D02*
X147486617Y-115412856D01*
X147486617Y-115412856D02*
X147429474Y-115384285D01*
X147429474Y-115384285D02*
X147400902Y-115355714D01*
X147400902Y-115355714D02*
X147372331Y-115298571D01*
X147372331Y-114898570D02*
X147372331Y-114527142D01*
X147372331Y-114527142D02*
X147600902Y-114727142D01*
X147600902Y-114727142D02*
X147600902Y-114641427D01*
X147600902Y-114641427D02*
X147629474Y-114584285D01*
X147629474Y-114584285D02*
X147658045Y-114555713D01*
X147658045Y-114555713D02*
X147715188Y-114527142D01*
X147715188Y-114527142D02*
X147858045Y-114527142D01*
X147858045Y-114527142D02*
X147915188Y-114555713D01*
X147915188Y-114555713D02*
X147943760Y-114584285D01*
X147943760Y-114584285D02*
X147972331Y-114641427D01*
X147972331Y-114641427D02*
X147972331Y-114812856D01*
X147972331Y-114812856D02*
X147943760Y-114869999D01*
X147943760Y-114869999D02*
X147915188Y-114898570D01*
X164793331Y-87431429D02*
X165221902Y-87431429D01*
X165221902Y-87431429D02*
X165307617Y-87460000D01*
X165307617Y-87460000D02*
X165364760Y-87517143D01*
X165364760Y-87517143D02*
X165393331Y-87602857D01*
X165393331Y-87602857D02*
X165393331Y-87660000D01*
X165393331Y-87145714D02*
X164793331Y-87145714D01*
X164793331Y-87145714D02*
X164793331Y-86917143D01*
X164793331Y-86917143D02*
X164821902Y-86860000D01*
X164821902Y-86860000D02*
X164850474Y-86831429D01*
X164850474Y-86831429D02*
X164907617Y-86802857D01*
X164907617Y-86802857D02*
X164993331Y-86802857D01*
X164993331Y-86802857D02*
X165050474Y-86831429D01*
X165050474Y-86831429D02*
X165079045Y-86860000D01*
X165079045Y-86860000D02*
X165107617Y-86917143D01*
X165107617Y-86917143D02*
X165107617Y-87145714D01*
X164850474Y-86574286D02*
X164821902Y-86545714D01*
X164821902Y-86545714D02*
X164793331Y-86488572D01*
X164793331Y-86488572D02*
X164793331Y-86345714D01*
X164793331Y-86345714D02*
X164821902Y-86288572D01*
X164821902Y-86288572D02*
X164850474Y-86260000D01*
X164850474Y-86260000D02*
X164907617Y-86231429D01*
X164907617Y-86231429D02*
X164964760Y-86231429D01*
X164964760Y-86231429D02*
X165050474Y-86260000D01*
X165050474Y-86260000D02*
X165393331Y-86602857D01*
X165393331Y-86602857D02*
X165393331Y-86231429D01*
X164793331Y-85860000D02*
X164793331Y-85802857D01*
X164793331Y-85802857D02*
X164821902Y-85745714D01*
X164821902Y-85745714D02*
X164850474Y-85717143D01*
X164850474Y-85717143D02*
X164907617Y-85688571D01*
X164907617Y-85688571D02*
X165021902Y-85660000D01*
X165021902Y-85660000D02*
X165164760Y-85660000D01*
X165164760Y-85660000D02*
X165279045Y-85688571D01*
X165279045Y-85688571D02*
X165336188Y-85717143D01*
X165336188Y-85717143D02*
X165364760Y-85745714D01*
X165364760Y-85745714D02*
X165393331Y-85802857D01*
X165393331Y-85802857D02*
X165393331Y-85860000D01*
X165393331Y-85860000D02*
X165364760Y-85917143D01*
X165364760Y-85917143D02*
X165336188Y-85945714D01*
X165336188Y-85945714D02*
X165279045Y-85974285D01*
X165279045Y-85974285D02*
X165164760Y-86002857D01*
X165164760Y-86002857D02*
X165021902Y-86002857D01*
X165021902Y-86002857D02*
X164907617Y-85974285D01*
X164907617Y-85974285D02*
X164850474Y-85945714D01*
X164850474Y-85945714D02*
X164821902Y-85917143D01*
X164821902Y-85917143D02*
X164793331Y-85860000D01*
X165393331Y-85088571D02*
X165393331Y-85431428D01*
X165393331Y-85259999D02*
X164793331Y-85259999D01*
X164793331Y-85259999D02*
X164879045Y-85317142D01*
X164879045Y-85317142D02*
X164936188Y-85374285D01*
X164936188Y-85374285D02*
X164964760Y-85431428D01*
X182389331Y-119886285D02*
X181789331Y-119886285D01*
X181789331Y-119886285D02*
X181789331Y-119743428D01*
X181789331Y-119743428D02*
X181817902Y-119657714D01*
X181817902Y-119657714D02*
X181875045Y-119600571D01*
X181875045Y-119600571D02*
X181932188Y-119572000D01*
X181932188Y-119572000D02*
X182046474Y-119543428D01*
X182046474Y-119543428D02*
X182132188Y-119543428D01*
X182132188Y-119543428D02*
X182246474Y-119572000D01*
X182246474Y-119572000D02*
X182303617Y-119600571D01*
X182303617Y-119600571D02*
X182360760Y-119657714D01*
X182360760Y-119657714D02*
X182389331Y-119743428D01*
X182389331Y-119743428D02*
X182389331Y-119886285D01*
X181789331Y-119000571D02*
X181789331Y-119286285D01*
X181789331Y-119286285D02*
X182075045Y-119314857D01*
X182075045Y-119314857D02*
X182046474Y-119286285D01*
X182046474Y-119286285D02*
X182017902Y-119229143D01*
X182017902Y-119229143D02*
X182017902Y-119086285D01*
X182017902Y-119086285D02*
X182046474Y-119029143D01*
X182046474Y-119029143D02*
X182075045Y-119000571D01*
X182075045Y-119000571D02*
X182132188Y-118972000D01*
X182132188Y-118972000D02*
X182275045Y-118972000D01*
X182275045Y-118972000D02*
X182332188Y-119000571D01*
X182332188Y-119000571D02*
X182360760Y-119029143D01*
X182360760Y-119029143D02*
X182389331Y-119086285D01*
X182389331Y-119086285D02*
X182389331Y-119229143D01*
X182389331Y-119229143D02*
X182360760Y-119286285D01*
X182360760Y-119286285D02*
X182332188Y-119314857D01*
X181789331Y-118600571D02*
X181789331Y-118543428D01*
X181789331Y-118543428D02*
X181817902Y-118486285D01*
X181817902Y-118486285D02*
X181846474Y-118457714D01*
X181846474Y-118457714D02*
X181903617Y-118429142D01*
X181903617Y-118429142D02*
X182017902Y-118400571D01*
X182017902Y-118400571D02*
X182160760Y-118400571D01*
X182160760Y-118400571D02*
X182275045Y-118429142D01*
X182275045Y-118429142D02*
X182332188Y-118457714D01*
X182332188Y-118457714D02*
X182360760Y-118486285D01*
X182360760Y-118486285D02*
X182389331Y-118543428D01*
X182389331Y-118543428D02*
X182389331Y-118600571D01*
X182389331Y-118600571D02*
X182360760Y-118657714D01*
X182360760Y-118657714D02*
X182332188Y-118686285D01*
X182332188Y-118686285D02*
X182275045Y-118714856D01*
X182275045Y-118714856D02*
X182160760Y-118743428D01*
X182160760Y-118743428D02*
X182017902Y-118743428D01*
X182017902Y-118743428D02*
X181903617Y-118714856D01*
X181903617Y-118714856D02*
X181846474Y-118686285D01*
X181846474Y-118686285D02*
X181817902Y-118657714D01*
X181817902Y-118657714D02*
X181789331Y-118600571D01*
X181846474Y-118171999D02*
X181817902Y-118143427D01*
X181817902Y-118143427D02*
X181789331Y-118086285D01*
X181789331Y-118086285D02*
X181789331Y-117943427D01*
X181789331Y-117943427D02*
X181817902Y-117886285D01*
X181817902Y-117886285D02*
X181846474Y-117857713D01*
X181846474Y-117857713D02*
X181903617Y-117829142D01*
X181903617Y-117829142D02*
X181960760Y-117829142D01*
X181960760Y-117829142D02*
X182046474Y-117857713D01*
X182046474Y-117857713D02*
X182389331Y-118200570D01*
X182389331Y-118200570D02*
X182389331Y-117829142D01*
X157851570Y-101398331D02*
X157851570Y-101826902D01*
X157851570Y-101826902D02*
X157822999Y-101912617D01*
X157822999Y-101912617D02*
X157765856Y-101969760D01*
X157765856Y-101969760D02*
X157680142Y-101998331D01*
X157680142Y-101998331D02*
X157622999Y-101998331D01*
X158108713Y-101455474D02*
X158137285Y-101426902D01*
X158137285Y-101426902D02*
X158194428Y-101398331D01*
X158194428Y-101398331D02*
X158337285Y-101398331D01*
X158337285Y-101398331D02*
X158394428Y-101426902D01*
X158394428Y-101426902D02*
X158422999Y-101455474D01*
X158422999Y-101455474D02*
X158451570Y-101512617D01*
X158451570Y-101512617D02*
X158451570Y-101569760D01*
X158451570Y-101569760D02*
X158422999Y-101655474D01*
X158422999Y-101655474D02*
X158080142Y-101998331D01*
X158080142Y-101998331D02*
X158451570Y-101998331D01*
X158822999Y-101398331D02*
X158880142Y-101398331D01*
X158880142Y-101398331D02*
X158937285Y-101426902D01*
X158937285Y-101426902D02*
X158965857Y-101455474D01*
X158965857Y-101455474D02*
X158994428Y-101512617D01*
X158994428Y-101512617D02*
X159022999Y-101626902D01*
X159022999Y-101626902D02*
X159022999Y-101769760D01*
X159022999Y-101769760D02*
X158994428Y-101884045D01*
X158994428Y-101884045D02*
X158965857Y-101941188D01*
X158965857Y-101941188D02*
X158937285Y-101969760D01*
X158937285Y-101969760D02*
X158880142Y-101998331D01*
X158880142Y-101998331D02*
X158822999Y-101998331D01*
X158822999Y-101998331D02*
X158765857Y-101969760D01*
X158765857Y-101969760D02*
X158737285Y-101941188D01*
X158737285Y-101941188D02*
X158708714Y-101884045D01*
X158708714Y-101884045D02*
X158680142Y-101769760D01*
X158680142Y-101769760D02*
X158680142Y-101626902D01*
X158680142Y-101626902D02*
X158708714Y-101512617D01*
X158708714Y-101512617D02*
X158737285Y-101455474D01*
X158737285Y-101455474D02*
X158765857Y-101426902D01*
X158765857Y-101426902D02*
X158822999Y-101398331D01*
X159594428Y-101998331D02*
X159251571Y-101998331D01*
X159423000Y-101998331D02*
X159423000Y-101398331D01*
X159423000Y-101398331D02*
X159365857Y-101484045D01*
X159365857Y-101484045D02*
X159308714Y-101541188D01*
X159308714Y-101541188D02*
X159251571Y-101569760D01*
X144108571Y-107238331D02*
X143908571Y-106952617D01*
X143765714Y-107238331D02*
X143765714Y-106638331D01*
X143765714Y-106638331D02*
X143994285Y-106638331D01*
X143994285Y-106638331D02*
X144051428Y-106666902D01*
X144051428Y-106666902D02*
X144079999Y-106695474D01*
X144079999Y-106695474D02*
X144108571Y-106752617D01*
X144108571Y-106752617D02*
X144108571Y-106838331D01*
X144108571Y-106838331D02*
X144079999Y-106895474D01*
X144079999Y-106895474D02*
X144051428Y-106924045D01*
X144051428Y-106924045D02*
X143994285Y-106952617D01*
X143994285Y-106952617D02*
X143765714Y-106952617D01*
X144622857Y-106838331D02*
X144622857Y-107238331D01*
X144479999Y-106609760D02*
X144337142Y-107038331D01*
X144337142Y-107038331D02*
X144708571Y-107038331D01*
X145051428Y-106638331D02*
X145108571Y-106638331D01*
X145108571Y-106638331D02*
X145165714Y-106666902D01*
X145165714Y-106666902D02*
X145194286Y-106695474D01*
X145194286Y-106695474D02*
X145222857Y-106752617D01*
X145222857Y-106752617D02*
X145251428Y-106866902D01*
X145251428Y-106866902D02*
X145251428Y-107009760D01*
X145251428Y-107009760D02*
X145222857Y-107124045D01*
X145222857Y-107124045D02*
X145194286Y-107181188D01*
X145194286Y-107181188D02*
X145165714Y-107209760D01*
X145165714Y-107209760D02*
X145108571Y-107238331D01*
X145108571Y-107238331D02*
X145051428Y-107238331D01*
X145051428Y-107238331D02*
X144994286Y-107209760D01*
X144994286Y-107209760D02*
X144965714Y-107181188D01*
X144965714Y-107181188D02*
X144937143Y-107124045D01*
X144937143Y-107124045D02*
X144908571Y-107009760D01*
X144908571Y-107009760D02*
X144908571Y-106866902D01*
X144908571Y-106866902D02*
X144937143Y-106752617D01*
X144937143Y-106752617D02*
X144965714Y-106695474D01*
X144965714Y-106695474D02*
X144994286Y-106666902D01*
X144994286Y-106666902D02*
X145051428Y-106638331D01*
X145794286Y-106638331D02*
X145508572Y-106638331D01*
X145508572Y-106638331D02*
X145480000Y-106924045D01*
X145480000Y-106924045D02*
X145508572Y-106895474D01*
X145508572Y-106895474D02*
X145565715Y-106866902D01*
X145565715Y-106866902D02*
X145708572Y-106866902D01*
X145708572Y-106866902D02*
X145765715Y-106895474D01*
X145765715Y-106895474D02*
X145794286Y-106924045D01*
X145794286Y-106924045D02*
X145822857Y-106981188D01*
X145822857Y-106981188D02*
X145822857Y-107124045D01*
X145822857Y-107124045D02*
X145794286Y-107181188D01*
X145794286Y-107181188D02*
X145765715Y-107209760D01*
X145765715Y-107209760D02*
X145708572Y-107238331D01*
X145708572Y-107238331D02*
X145565715Y-107238331D01*
X145565715Y-107238331D02*
X145508572Y-107209760D01*
X145508572Y-107209760D02*
X145480000Y-107181188D01*
X137504571Y-107205331D02*
X137304571Y-106919617D01*
X137161714Y-107205331D02*
X137161714Y-106605331D01*
X137161714Y-106605331D02*
X137390285Y-106605331D01*
X137390285Y-106605331D02*
X137447428Y-106633902D01*
X137447428Y-106633902D02*
X137475999Y-106662474D01*
X137475999Y-106662474D02*
X137504571Y-106719617D01*
X137504571Y-106719617D02*
X137504571Y-106805331D01*
X137504571Y-106805331D02*
X137475999Y-106862474D01*
X137475999Y-106862474D02*
X137447428Y-106891045D01*
X137447428Y-106891045D02*
X137390285Y-106919617D01*
X137390285Y-106919617D02*
X137161714Y-106919617D01*
X138018857Y-106805331D02*
X138018857Y-107205331D01*
X137875999Y-106576760D02*
X137733142Y-107005331D01*
X137733142Y-107005331D02*
X138104571Y-107005331D01*
X138447428Y-106605331D02*
X138504571Y-106605331D01*
X138504571Y-106605331D02*
X138561714Y-106633902D01*
X138561714Y-106633902D02*
X138590286Y-106662474D01*
X138590286Y-106662474D02*
X138618857Y-106719617D01*
X138618857Y-106719617D02*
X138647428Y-106833902D01*
X138647428Y-106833902D02*
X138647428Y-106976760D01*
X138647428Y-106976760D02*
X138618857Y-107091045D01*
X138618857Y-107091045D02*
X138590286Y-107148188D01*
X138590286Y-107148188D02*
X138561714Y-107176760D01*
X138561714Y-107176760D02*
X138504571Y-107205331D01*
X138504571Y-107205331D02*
X138447428Y-107205331D01*
X138447428Y-107205331D02*
X138390286Y-107176760D01*
X138390286Y-107176760D02*
X138361714Y-107148188D01*
X138361714Y-107148188D02*
X138333143Y-107091045D01*
X138333143Y-107091045D02*
X138304571Y-106976760D01*
X138304571Y-106976760D02*
X138304571Y-106833902D01*
X138304571Y-106833902D02*
X138333143Y-106719617D01*
X138333143Y-106719617D02*
X138361714Y-106662474D01*
X138361714Y-106662474D02*
X138390286Y-106633902D01*
X138390286Y-106633902D02*
X138447428Y-106605331D01*
X139161715Y-106605331D02*
X139047429Y-106605331D01*
X139047429Y-106605331D02*
X138990286Y-106633902D01*
X138990286Y-106633902D02*
X138961715Y-106662474D01*
X138961715Y-106662474D02*
X138904572Y-106748188D01*
X138904572Y-106748188D02*
X138876000Y-106862474D01*
X138876000Y-106862474D02*
X138876000Y-107091045D01*
X138876000Y-107091045D02*
X138904572Y-107148188D01*
X138904572Y-107148188D02*
X138933143Y-107176760D01*
X138933143Y-107176760D02*
X138990286Y-107205331D01*
X138990286Y-107205331D02*
X139104572Y-107205331D01*
X139104572Y-107205331D02*
X139161715Y-107176760D01*
X139161715Y-107176760D02*
X139190286Y-107148188D01*
X139190286Y-107148188D02*
X139218857Y-107091045D01*
X139218857Y-107091045D02*
X139218857Y-106948188D01*
X139218857Y-106948188D02*
X139190286Y-106891045D01*
X139190286Y-106891045D02*
X139161715Y-106862474D01*
X139161715Y-106862474D02*
X139104572Y-106833902D01*
X139104572Y-106833902D02*
X138990286Y-106833902D01*
X138990286Y-106833902D02*
X138933143Y-106862474D01*
X138933143Y-106862474D02*
X138904572Y-106891045D01*
X138904572Y-106891045D02*
X138876000Y-106948188D01*
X118000331Y-115822285D02*
X117400331Y-115822285D01*
X118000331Y-115479428D02*
X117657474Y-115736571D01*
X117400331Y-115479428D02*
X117743188Y-115822285D01*
X117600331Y-114965143D02*
X118000331Y-114965143D01*
X117371760Y-115108000D02*
X117800331Y-115250857D01*
X117800331Y-115250857D02*
X117800331Y-114879428D01*
X117400331Y-114536571D02*
X117400331Y-114479428D01*
X117400331Y-114479428D02*
X117428902Y-114422285D01*
X117428902Y-114422285D02*
X117457474Y-114393714D01*
X117457474Y-114393714D02*
X117514617Y-114365142D01*
X117514617Y-114365142D02*
X117628902Y-114336571D01*
X117628902Y-114336571D02*
X117771760Y-114336571D01*
X117771760Y-114336571D02*
X117886045Y-114365142D01*
X117886045Y-114365142D02*
X117943188Y-114393714D01*
X117943188Y-114393714D02*
X117971760Y-114422285D01*
X117971760Y-114422285D02*
X118000331Y-114479428D01*
X118000331Y-114479428D02*
X118000331Y-114536571D01*
X118000331Y-114536571D02*
X117971760Y-114593714D01*
X117971760Y-114593714D02*
X117943188Y-114622285D01*
X117943188Y-114622285D02*
X117886045Y-114650856D01*
X117886045Y-114650856D02*
X117771760Y-114679428D01*
X117771760Y-114679428D02*
X117628902Y-114679428D01*
X117628902Y-114679428D02*
X117514617Y-114650856D01*
X117514617Y-114650856D02*
X117457474Y-114622285D01*
X117457474Y-114622285D02*
X117428902Y-114593714D01*
X117428902Y-114593714D02*
X117400331Y-114536571D01*
X118000331Y-113765142D02*
X118000331Y-114107999D01*
X118000331Y-113936570D02*
X117400331Y-113936570D01*
X117400331Y-113936570D02*
X117486045Y-113993713D01*
X117486045Y-113993713D02*
X117543188Y-114050856D01*
X117543188Y-114050856D02*
X117571760Y-114107999D01*
X168052856Y-88631617D02*
X168052856Y-88917331D01*
X167852856Y-88317331D02*
X168052856Y-88631617D01*
X168052856Y-88631617D02*
X168252856Y-88317331D01*
X168395714Y-88317331D02*
X168767142Y-88317331D01*
X168767142Y-88317331D02*
X168567142Y-88545902D01*
X168567142Y-88545902D02*
X168652857Y-88545902D01*
X168652857Y-88545902D02*
X168710000Y-88574474D01*
X168710000Y-88574474D02*
X168738571Y-88603045D01*
X168738571Y-88603045D02*
X168767142Y-88660188D01*
X168767142Y-88660188D02*
X168767142Y-88803045D01*
X168767142Y-88803045D02*
X168738571Y-88860188D01*
X168738571Y-88860188D02*
X168710000Y-88888760D01*
X168710000Y-88888760D02*
X168652857Y-88917331D01*
X168652857Y-88917331D02*
X168481428Y-88917331D01*
X168481428Y-88917331D02*
X168424285Y-88888760D01*
X168424285Y-88888760D02*
X168395714Y-88860188D01*
X169138571Y-88317331D02*
X169195714Y-88317331D01*
X169195714Y-88317331D02*
X169252857Y-88345902D01*
X169252857Y-88345902D02*
X169281429Y-88374474D01*
X169281429Y-88374474D02*
X169310000Y-88431617D01*
X169310000Y-88431617D02*
X169338571Y-88545902D01*
X169338571Y-88545902D02*
X169338571Y-88688760D01*
X169338571Y-88688760D02*
X169310000Y-88803045D01*
X169310000Y-88803045D02*
X169281429Y-88860188D01*
X169281429Y-88860188D02*
X169252857Y-88888760D01*
X169252857Y-88888760D02*
X169195714Y-88917331D01*
X169195714Y-88917331D02*
X169138571Y-88917331D01*
X169138571Y-88917331D02*
X169081429Y-88888760D01*
X169081429Y-88888760D02*
X169052857Y-88860188D01*
X169052857Y-88860188D02*
X169024286Y-88803045D01*
X169024286Y-88803045D02*
X168995714Y-88688760D01*
X168995714Y-88688760D02*
X168995714Y-88545902D01*
X168995714Y-88545902D02*
X169024286Y-88431617D01*
X169024286Y-88431617D02*
X169052857Y-88374474D01*
X169052857Y-88374474D02*
X169081429Y-88345902D01*
X169081429Y-88345902D02*
X169138571Y-88317331D01*
X169910000Y-88917331D02*
X169567143Y-88917331D01*
X169738572Y-88917331D02*
X169738572Y-88317331D01*
X169738572Y-88317331D02*
X169681429Y-88403045D01*
X169681429Y-88403045D02*
X169624286Y-88460188D01*
X169624286Y-88460188D02*
X169567143Y-88488760D01*
X160361188Y-120559428D02*
X160389760Y-120588000D01*
X160389760Y-120588000D02*
X160418331Y-120673714D01*
X160418331Y-120673714D02*
X160418331Y-120730857D01*
X160418331Y-120730857D02*
X160389760Y-120816571D01*
X160389760Y-120816571D02*
X160332617Y-120873714D01*
X160332617Y-120873714D02*
X160275474Y-120902285D01*
X160275474Y-120902285D02*
X160161188Y-120930857D01*
X160161188Y-120930857D02*
X160075474Y-120930857D01*
X160075474Y-120930857D02*
X159961188Y-120902285D01*
X159961188Y-120902285D02*
X159904045Y-120873714D01*
X159904045Y-120873714D02*
X159846902Y-120816571D01*
X159846902Y-120816571D02*
X159818331Y-120730857D01*
X159818331Y-120730857D02*
X159818331Y-120673714D01*
X159818331Y-120673714D02*
X159846902Y-120588000D01*
X159846902Y-120588000D02*
X159875474Y-120559428D01*
X159818331Y-120016571D02*
X159818331Y-120302285D01*
X159818331Y-120302285D02*
X160104045Y-120330857D01*
X160104045Y-120330857D02*
X160075474Y-120302285D01*
X160075474Y-120302285D02*
X160046902Y-120245143D01*
X160046902Y-120245143D02*
X160046902Y-120102285D01*
X160046902Y-120102285D02*
X160075474Y-120045143D01*
X160075474Y-120045143D02*
X160104045Y-120016571D01*
X160104045Y-120016571D02*
X160161188Y-119988000D01*
X160161188Y-119988000D02*
X160304045Y-119988000D01*
X160304045Y-119988000D02*
X160361188Y-120016571D01*
X160361188Y-120016571D02*
X160389760Y-120045143D01*
X160389760Y-120045143D02*
X160418331Y-120102285D01*
X160418331Y-120102285D02*
X160418331Y-120245143D01*
X160418331Y-120245143D02*
X160389760Y-120302285D01*
X160389760Y-120302285D02*
X160361188Y-120330857D01*
X160418331Y-119416571D02*
X160418331Y-119759428D01*
X160418331Y-119587999D02*
X159818331Y-119587999D01*
X159818331Y-119587999D02*
X159904045Y-119645142D01*
X159904045Y-119645142D02*
X159961188Y-119702285D01*
X159961188Y-119702285D02*
X159989760Y-119759428D01*
X159875474Y-119187999D02*
X159846902Y-119159427D01*
X159846902Y-119159427D02*
X159818331Y-119102285D01*
X159818331Y-119102285D02*
X159818331Y-118959427D01*
X159818331Y-118959427D02*
X159846902Y-118902285D01*
X159846902Y-118902285D02*
X159875474Y-118873713D01*
X159875474Y-118873713D02*
X159932617Y-118845142D01*
X159932617Y-118845142D02*
X159989760Y-118845142D01*
X159989760Y-118845142D02*
X160075474Y-118873713D01*
X160075474Y-118873713D02*
X160418331Y-119216570D01*
X160418331Y-119216570D02*
X160418331Y-118845142D01*
X126407731Y-82954685D02*
X125807731Y-82954685D01*
X126407731Y-82611828D02*
X126064874Y-82868971D01*
X125807731Y-82611828D02*
X126150588Y-82954685D01*
X126007731Y-82097543D02*
X126407731Y-82097543D01*
X125779160Y-82240400D02*
X126207731Y-82383257D01*
X126207731Y-82383257D02*
X126207731Y-82011828D01*
X126407731Y-81468971D02*
X126407731Y-81811828D01*
X126407731Y-81640399D02*
X125807731Y-81640399D01*
X125807731Y-81640399D02*
X125893445Y-81697542D01*
X125893445Y-81697542D02*
X125950588Y-81754685D01*
X125950588Y-81754685D02*
X125979160Y-81811828D01*
X125807731Y-81268970D02*
X125807731Y-80868970D01*
X125807731Y-80868970D02*
X126407731Y-81126113D01*
G04 #@! TO.C,FB301*
X170001000Y-100808758D02*
X170001000Y-101629242D01*
X171121000Y-100808758D02*
X171121000Y-101629242D01*
G04 #@! TO.C,R302*
X163448276Y-97648500D02*
X163957724Y-97648500D01*
X163448276Y-98693500D02*
X163957724Y-98693500D01*
G04 #@! TO.C,C212*
X158476733Y-90422000D02*
X158769267Y-90422000D01*
X158476733Y-91442000D02*
X158769267Y-91442000D01*
G04 #@! TO.C,R503*
X152004500Y-118999724D02*
X152004500Y-118490276D01*
X153049500Y-118999724D02*
X153049500Y-118490276D01*
G04 #@! TO.C,Q502*
X185384000Y-118872000D02*
X185384000Y-118222000D01*
X185384000Y-118872000D02*
X185384000Y-119522000D01*
X188504000Y-118872000D02*
X188504000Y-118222000D01*
X188504000Y-118872000D02*
X188504000Y-119522000D01*
X185434000Y-120034500D02*
X185104000Y-120274500D01*
X185104000Y-119794500D01*
X185434000Y-120034500D01*
G36*
X185434000Y-120034500D02*
G01*
X185104000Y-120274500D01*
X185104000Y-119794500D01*
X185434000Y-120034500D01*
G37*
G04 #@! TO.C,U201*
X130647000Y-86741000D02*
X130647000Y-85941000D01*
X130647000Y-86741000D02*
X130647000Y-87541000D01*
X133767000Y-86741000D02*
X133767000Y-85941000D01*
X133767000Y-86741000D02*
X133767000Y-87541000D01*
X130697000Y-88041000D02*
X130367000Y-88281000D01*
X130367000Y-87801000D01*
X130697000Y-88041000D01*
G36*
X130697000Y-88041000D02*
G01*
X130367000Y-88281000D01*
X130367000Y-87801000D01*
X130697000Y-88041000D01*
G37*
G04 #@! TO.C,C405*
X141624267Y-107567000D02*
X141331733Y-107567000D01*
X141624267Y-108587000D02*
X141331733Y-108587000D01*
G04 #@! TO.C,R401*
X133122936Y-111787000D02*
X133577064Y-111787000D01*
X133122936Y-113257000D02*
X133577064Y-113257000D01*
G04 #@! TO.C,R504*
X150099500Y-118490276D02*
X150099500Y-118999724D01*
X151144500Y-118490276D02*
X151144500Y-118999724D01*
G04 #@! TO.C,R506*
X152004500Y-113919724D02*
X152004500Y-113410276D01*
X153049500Y-113919724D02*
X153049500Y-113410276D01*
G04 #@! TO.C,RN301*
X164103000Y-92006000D02*
X163303000Y-92006000D01*
X164103000Y-95446000D02*
X163303000Y-95446000D01*
G04 #@! TO.C,R202*
X158877724Y-92060500D02*
X158368276Y-92060500D01*
X158877724Y-93105500D02*
X158368276Y-93105500D01*
G04 #@! TO.C,K415*
X118234000Y-108744800D02*
X119084000Y-108744800D01*
X118234000Y-109594800D02*
X118234000Y-108744800D01*
X118434000Y-108944800D02*
X125384000Y-108944800D01*
X118434000Y-112644800D02*
X118434000Y-108944800D01*
X125384000Y-108944800D02*
X125384000Y-112644800D01*
X125384000Y-112644800D02*
X118434000Y-112644800D01*
G04 #@! TO.C,R402*
X133249936Y-114581000D02*
X133704064Y-114581000D01*
X133249936Y-116051000D02*
X133704064Y-116051000D01*
G04 #@! TO.C,C307*
X167384000Y-100818733D02*
X167384000Y-101111267D01*
X168404000Y-100818733D02*
X168404000Y-101111267D01*
G04 #@! TO.C,U202*
X137797000Y-86235000D02*
X138497000Y-86235000D01*
X137797000Y-86935000D02*
X137797000Y-86235000D01*
X137797000Y-99755000D02*
X137797000Y-100455000D01*
X137797000Y-100455000D02*
X138497000Y-100455000D01*
X152017000Y-86235000D02*
X151317000Y-86235000D01*
X152017000Y-86935000D02*
X152017000Y-86235000D01*
X152017000Y-99755000D02*
X152017000Y-100455000D01*
X152017000Y-100455000D02*
X151317000Y-100455000D01*
X151787000Y-85947500D02*
X151317000Y-85607500D01*
X151787000Y-85267500D01*
X151787000Y-85947500D01*
G36*
X151787000Y-85947500D02*
G01*
X151317000Y-85607500D01*
X151787000Y-85267500D01*
X151787000Y-85947500D01*
G37*
G04 #@! TO.C,L501*
D15*
X183193000Y-114256000D02*
X187393000Y-114256000D01*
X187393000Y-108756000D01*
X183193000Y-108756000D01*
X183193000Y-114256000D01*
D11*
G04 #@! TO.C,J401*
X91040000Y-81417000D02*
X100700000Y-77947000D01*
X91040000Y-85607000D02*
X91040000Y-81417000D01*
X91040000Y-115307000D02*
X94600000Y-114677000D01*
X91040000Y-119497000D02*
X91040000Y-115307000D01*
X94600000Y-86237000D02*
X91040000Y-85607000D01*
X94600000Y-114677000D02*
X94600000Y-86237000D01*
X100700000Y-77947000D02*
X108030000Y-77947000D01*
X100700000Y-122967000D02*
X91040000Y-119497000D01*
X108030000Y-79122000D02*
X108030000Y-77947000D01*
X108030000Y-113792000D02*
X108030000Y-87122000D01*
X108030000Y-122967000D02*
X100700000Y-122967000D01*
X108030000Y-122967000D02*
X108030000Y-121792000D01*
X108420000Y-111887000D02*
X109420000Y-112387000D01*
X109420000Y-111387000D02*
X108420000Y-111887000D01*
X109420000Y-112387000D02*
X109420000Y-111387000D01*
G04 #@! TO.C,K404*
X109856000Y-100515200D02*
X110706000Y-100515200D01*
X109856000Y-101365200D02*
X109856000Y-100515200D01*
X110056000Y-100715200D02*
X117006000Y-100715200D01*
X110056000Y-104415200D02*
X110056000Y-100715200D01*
X117006000Y-100715200D02*
X117006000Y-104415200D01*
X117006000Y-104415200D02*
X110056000Y-104415200D01*
G04 #@! TO.C,C513*
X156387748Y-111612000D02*
X157810252Y-111612000D01*
X156387748Y-113432000D02*
X157810252Y-113432000D01*
G04 #@! TO.C,K402*
X109856000Y-108744800D02*
X110706000Y-108744800D01*
X109856000Y-109594800D02*
X109856000Y-108744800D01*
X110056000Y-108944800D02*
X117006000Y-108944800D01*
X110056000Y-112644800D02*
X110056000Y-108944800D01*
X117006000Y-108944800D02*
X117006000Y-112644800D01*
X117006000Y-112644800D02*
X110056000Y-112644800D01*
D16*
G04 #@! TO.C,U502*
X161371000Y-105187000D02*
X181021000Y-105187000D01*
X161371000Y-112237000D02*
X161371000Y-105187000D01*
X181021000Y-105187000D02*
X181021000Y-112237000D01*
X181021000Y-112237000D02*
X161371000Y-112237000D01*
D11*
G04 #@! TO.C,U504*
X155474000Y-114805000D02*
X155474000Y-114580000D01*
X155474000Y-117605000D02*
X155474000Y-117830000D01*
X156449000Y-114580000D02*
X155474000Y-114580000D01*
X156449000Y-117830000D02*
X155474000Y-117830000D01*
X158419000Y-117830000D02*
X157749000Y-117830000D01*
X158724000Y-114580000D02*
X157749000Y-114580000D01*
X158724000Y-114580000D02*
X158724000Y-114805000D01*
X159179000Y-117955000D02*
X158699000Y-117955000D01*
X158939000Y-117625000D01*
X159179000Y-117955000D01*
G36*
X159179000Y-117955000D02*
G01*
X158699000Y-117955000D01*
X158939000Y-117625000D01*
X159179000Y-117955000D01*
G37*
G04 #@! TO.C,J501*
X189557000Y-104327000D02*
X199478000Y-104327000D01*
X189557000Y-114447000D02*
X189557000Y-104327000D01*
X189557000Y-114447000D02*
X199478000Y-114447000D01*
X192517000Y-114447000D02*
X192517000Y-104327000D01*
X193543000Y-105817000D02*
X193579000Y-105852000D01*
X193749000Y-105612000D02*
X193795000Y-105659000D01*
X195841000Y-108114000D02*
X195887000Y-108161000D01*
X196057000Y-107921000D02*
X196092000Y-107956000D01*
X197418000Y-114447000D02*
X197418000Y-104327000D01*
X198918000Y-114447000D02*
X198918000Y-104327000D01*
X198978000Y-114687000D02*
X199718000Y-114687000D01*
X199478000Y-114447000D02*
X199478000Y-104327000D01*
X199718000Y-114687000D02*
X199718000Y-114187000D01*
X193282574Y-112570042D02*
G75*
G02*
X193283001Y-111203001I1535419J683041D01*
G01*
X194134958Y-110351574D02*
G75*
G02*
X195502000Y-110352000I683042J-1535426D01*
G01*
X195501042Y-113422426D02*
G75*
G02*
X194134001Y-113421999I-683041J1535419D01*
G01*
X196352755Y-111203682D02*
G75*
G02*
X196497999Y-111887000I-1534755J-683318D01*
G01*
X196498252Y-111858195D02*
G75*
G02*
X196352999Y-112571000I-1680253J-28806D01*
G01*
X196498000Y-106887000D02*
G75*
G02*
X193138000Y-106887000I-1680000J0D01*
G01*
X193138000Y-106887000D02*
G75*
G02*
X196498000Y-106887000I1680000J0D01*
G01*
G04 #@! TO.C,Q501*
X189067000Y-118872000D02*
X189067000Y-118222000D01*
X189067000Y-118872000D02*
X189067000Y-119522000D01*
X192187000Y-118872000D02*
X192187000Y-118222000D01*
X192187000Y-118872000D02*
X192187000Y-119522000D01*
X189117000Y-120034500D02*
X188787000Y-120274500D01*
X188787000Y-119794500D01*
X189117000Y-120034500D01*
G36*
X189117000Y-120034500D02*
G01*
X188787000Y-120274500D01*
X188787000Y-119794500D01*
X189117000Y-120034500D01*
G37*
G04 #@! TO.C,RN201*
X130487000Y-94596000D02*
X130487000Y-95396000D01*
X133927000Y-94596000D02*
X133927000Y-95396000D01*
G04 #@! TO.C,K412*
X118234000Y-96400400D02*
X119084000Y-96400400D01*
X118234000Y-97250400D02*
X118234000Y-96400400D01*
X118434000Y-96600400D02*
X125384000Y-96600400D01*
X118434000Y-100300400D02*
X118434000Y-96600400D01*
X125384000Y-96600400D02*
X125384000Y-100300400D01*
X125384000Y-100300400D02*
X118434000Y-100300400D01*
G04 #@! TO.C,R403*
X133577064Y-108993000D02*
X133122936Y-108993000D01*
X133577064Y-110463000D02*
X133122936Y-110463000D01*
G04 #@! TO.C,U503*
X153284000Y-103778000D02*
X153284000Y-105038000D01*
X153284000Y-110598000D02*
X153284000Y-109338000D01*
X157044000Y-103778000D02*
X153284000Y-103778000D01*
X157044000Y-110598000D02*
X153284000Y-110598000D01*
X158564000Y-110828000D02*
X158084000Y-110828000D01*
X158324000Y-110498000D01*
X158564000Y-110828000D01*
G36*
X158564000Y-110828000D02*
G01*
X158084000Y-110828000D01*
X158324000Y-110498000D01*
X158564000Y-110828000D01*
G37*
G04 #@! TO.C,K407*
X109856000Y-88179800D02*
X110706000Y-88179800D01*
X109856000Y-89029800D02*
X109856000Y-88179800D01*
X110056000Y-88379800D02*
X117006000Y-88379800D01*
X110056000Y-92079800D02*
X110056000Y-88379800D01*
X117006000Y-88379800D02*
X117006000Y-92079800D01*
X117006000Y-92079800D02*
X110056000Y-92079800D01*
D16*
G04 #@! TO.C,U501*
X161345200Y-114221000D02*
X161345200Y-120221000D01*
X161345200Y-114221000D02*
X180945200Y-114221000D01*
X180945200Y-120221000D02*
X161345200Y-120221000D01*
X180945200Y-120221000D02*
X180945200Y-114221000D01*
G04 #@! TO.C,HS101*
D15*
X161507000Y-103145000D02*
X128307000Y-103145000D01*
X128307000Y-83545000D01*
X161507000Y-83545000D01*
X161507000Y-103145000D01*
D11*
G04 #@! TO.C,D201*
X129706956Y-90194000D02*
X134157000Y-90194000D01*
X129707000Y-90994000D02*
X129707000Y-90194000D01*
X130257000Y-93194000D02*
X134157000Y-93194000D01*
G04 #@! TO.C,U401*
X141478000Y-109503000D02*
X139278000Y-109503000D01*
X141478000Y-109503000D02*
X143678000Y-109503000D01*
X141478000Y-117573000D02*
X139278000Y-117573000D01*
X141478000Y-117573000D02*
X143678000Y-117573000D01*
X137618000Y-109963000D02*
X137288000Y-110203000D01*
X137288000Y-109723000D01*
X137618000Y-109963000D01*
G36*
X137618000Y-109963000D02*
G01*
X137288000Y-110203000D01*
X137288000Y-109723000D01*
X137618000Y-109963000D01*
G37*
G04 #@! TO.C,U301*
X167308000Y-91662000D02*
X167783000Y-91662000D01*
X167308000Y-92137000D02*
X167308000Y-91662000D01*
X167308000Y-95407000D02*
X167308000Y-95882000D01*
X167308000Y-95882000D02*
X167783000Y-95882000D01*
X171053000Y-91662000D02*
X171288000Y-91662000D01*
X171528000Y-92137000D02*
X171528000Y-91962000D01*
X171528000Y-95407000D02*
X171528000Y-95882000D01*
X171528000Y-95882000D02*
X171053000Y-95882000D01*
X171858000Y-91902000D02*
X171528000Y-91662000D01*
X171858000Y-91422000D01*
X171858000Y-91902000D01*
G36*
X171858000Y-91902000D02*
G01*
X171528000Y-91662000D01*
X171858000Y-91422000D01*
X171858000Y-91902000D01*
G37*
G04 #@! TO.C,R505*
X150099500Y-113919724D02*
X150099500Y-113410276D01*
X151144500Y-113919724D02*
X151144500Y-113410276D01*
G04 #@! TO.C,C306*
X163849267Y-89533000D02*
X163556733Y-89533000D01*
X163849267Y-90553000D02*
X163556733Y-90553000D01*
G04 #@! TO.C,J301*
X173970000Y-85770000D02*
X173970000Y-87835000D01*
X173970000Y-90375000D02*
X173970000Y-89195000D01*
X173970000Y-96225000D02*
X173970000Y-91735000D01*
X173970000Y-98765000D02*
X173970000Y-97585000D01*
X173970000Y-100125000D02*
X173970000Y-102190000D01*
X173970000Y-102190000D02*
X184160000Y-102190000D01*
X178690000Y-85535000D02*
X180690000Y-85535000D01*
X184160000Y-85770000D02*
X173970000Y-85770000D01*
X186900000Y-102190000D02*
X199490000Y-102190000D01*
X199490000Y-85770000D02*
X186900000Y-85770000D01*
X199490000Y-102190000D02*
X199490000Y-85770000D01*
G04 #@! TO.C,K403*
X109856000Y-104630000D02*
X110706000Y-104630000D01*
X109856000Y-105480000D02*
X109856000Y-104630000D01*
X110056000Y-104830000D02*
X117006000Y-104830000D01*
X110056000Y-108530000D02*
X110056000Y-104830000D01*
X117006000Y-104830000D02*
X117006000Y-108530000D01*
X117006000Y-108530000D02*
X110056000Y-108530000D01*
G04 #@! TO.C,K416*
X118237600Y-112859600D02*
X119087600Y-112859600D01*
X118237600Y-113709600D02*
X118237600Y-112859600D01*
X118437600Y-113059600D02*
X125387600Y-113059600D01*
X118437600Y-116759600D02*
X118437600Y-113059600D01*
X125387600Y-113059600D02*
X125387600Y-116759600D01*
X125387600Y-116759600D02*
X118437600Y-116759600D01*
G04 #@! TO.C,K405*
X109856000Y-96400400D02*
X110706000Y-96400400D01*
X109856000Y-97250400D02*
X109856000Y-96400400D01*
X110056000Y-96600400D02*
X117006000Y-96600400D01*
X110056000Y-100300400D02*
X110056000Y-96600400D01*
X117006000Y-96600400D02*
X117006000Y-100300400D01*
X117006000Y-100300400D02*
X110056000Y-100300400D01*
G04 #@! TO.C,K410*
X118234000Y-88170800D02*
X119084000Y-88170800D01*
X118234000Y-89020800D02*
X118234000Y-88170800D01*
X118434000Y-88370800D02*
X125384000Y-88370800D01*
X118434000Y-92070800D02*
X118434000Y-88370800D01*
X125384000Y-88370800D02*
X125384000Y-92070800D01*
X125384000Y-92070800D02*
X118434000Y-92070800D01*
G04 #@! TO.C,K409*
X118234000Y-84056000D02*
X119084000Y-84056000D01*
X118234000Y-84906000D02*
X118234000Y-84056000D01*
X118434000Y-84256000D02*
X125384000Y-84256000D01*
X118434000Y-87956000D02*
X118434000Y-84256000D01*
X125384000Y-84256000D02*
X125384000Y-87956000D01*
X125384000Y-87956000D02*
X118434000Y-87956000D01*
G04 #@! TO.C,K411*
X118237600Y-92285600D02*
X119087600Y-92285600D01*
X118237600Y-93135600D02*
X118237600Y-92285600D01*
X118437600Y-92485600D02*
X125387600Y-92485600D01*
X118437600Y-96185600D02*
X118437600Y-92485600D01*
X125387600Y-92485600D02*
X125387600Y-96185600D01*
X125387600Y-96185600D02*
X118437600Y-96185600D01*
G04 #@! TO.C,K418*
X118262500Y-116991900D02*
X119112500Y-116991900D01*
X118262500Y-117841900D02*
X118262500Y-116991900D01*
X118462500Y-117191900D02*
X125412500Y-117191900D01*
X118462500Y-120891900D02*
X118462500Y-117191900D01*
X125412500Y-117191900D02*
X125412500Y-120891900D01*
X125412500Y-120891900D02*
X118462500Y-120891900D01*
G04 #@! TO.C,K408*
X109856000Y-84056000D02*
X110706000Y-84056000D01*
X109856000Y-84906000D02*
X109856000Y-84056000D01*
X110056000Y-84256000D02*
X117006000Y-84256000D01*
X110056000Y-87956000D02*
X110056000Y-84256000D01*
X117006000Y-84256000D02*
X117006000Y-87956000D01*
X117006000Y-87956000D02*
X110056000Y-87956000D01*
G04 #@! TO.C,K413*
X118234000Y-100515200D02*
X119084000Y-100515200D01*
X118234000Y-101365200D02*
X118234000Y-100515200D01*
X118434000Y-100715200D02*
X125384000Y-100715200D01*
X118434000Y-104415200D02*
X118434000Y-100715200D01*
X125384000Y-100715200D02*
X125384000Y-104415200D01*
X125384000Y-104415200D02*
X118434000Y-104415200D01*
G04 #@! TO.C,R301*
X163448276Y-95997500D02*
X163957724Y-95997500D01*
X163448276Y-97042500D02*
X163957724Y-97042500D01*
G04 #@! TO.C,K414*
X118237600Y-104630000D02*
X119087600Y-104630000D01*
X118237600Y-105480000D02*
X118237600Y-104630000D01*
X118437600Y-104830000D02*
X125387600Y-104830000D01*
X118437600Y-108530000D02*
X118437600Y-104830000D01*
X125387600Y-104830000D02*
X125387600Y-108530000D01*
X125387600Y-108530000D02*
X118437600Y-108530000D01*
G04 #@! TO.C,R404*
X133704064Y-117375000D02*
X133249936Y-117375000D01*
X133704064Y-118845000D02*
X133249936Y-118845000D01*
G04 #@! TO.C,K406*
X109856000Y-92285600D02*
X110706000Y-92285600D01*
X109856000Y-93135600D02*
X109856000Y-92285600D01*
X110056000Y-92485600D02*
X117006000Y-92485600D01*
X110056000Y-96185600D02*
X110056000Y-92485600D01*
X117006000Y-92485600D02*
X117006000Y-96185600D01*
X117006000Y-96185600D02*
X110056000Y-96185600D01*
G04 #@! TO.C,C403*
X145921000Y-115716267D02*
X145921000Y-115423733D01*
X146941000Y-115716267D02*
X146941000Y-115423733D01*
G04 #@! TO.C,JP201*
X162322000Y-84960000D02*
X164322000Y-84960000D01*
X162322000Y-87760000D02*
X162322000Y-84960000D01*
X164322000Y-84960000D02*
X164322000Y-87760000D01*
X164322000Y-87760000D02*
X162322000Y-87760000D01*
G04 #@! TO.C,D502*
X182769000Y-121232000D02*
X182769000Y-117222000D01*
X182769000Y-121232000D02*
X184769000Y-121232000D01*
X184769000Y-121232000D02*
X184769000Y-117222000D01*
G04 #@! TO.C,J201*
X156848000Y-100884500D02*
X156848000Y-94414500D01*
X157670470Y-94414500D02*
X156848000Y-94414500D01*
X157670470Y-100884500D02*
X156848000Y-100884500D01*
X158488000Y-99482971D02*
X158488000Y-99626029D01*
X158488000Y-100752971D02*
X158488000Y-100884500D01*
X158488000Y-100884500D02*
X158285530Y-100884500D01*
X158684529Y-99429500D02*
X158541471Y-99429500D01*
X158940470Y-94414500D02*
X158285530Y-94414500D01*
X160378000Y-94414500D02*
X159555530Y-94414500D01*
X160378000Y-99429500D02*
X159811471Y-99429500D01*
X160378000Y-99429500D02*
X160378000Y-94414500D01*
X160378000Y-100189500D02*
X160378000Y-100949500D01*
X160378000Y-100949500D02*
X159248000Y-100949500D01*
G04 #@! TO.C,R405*
X145034724Y-107554500D02*
X144525276Y-107554500D01*
X145034724Y-108599500D02*
X144525276Y-108599500D01*
G04 #@! TO.C,R406*
X137921276Y-107554500D02*
X138430724Y-107554500D01*
X137921276Y-108599500D02*
X138430724Y-108599500D01*
G04 #@! TO.C,K401*
X109856000Y-112859600D02*
X110706000Y-112859600D01*
X109856000Y-113709600D02*
X109856000Y-112859600D01*
X110056000Y-113059600D02*
X117006000Y-113059600D01*
X110056000Y-116759600D02*
X110056000Y-113059600D01*
X117006000Y-113059600D02*
X117006000Y-116759600D01*
X117006000Y-116759600D02*
X110056000Y-116759600D01*
G04 #@! TO.C,Y301*
X166410000Y-84760000D02*
X166410000Y-84960000D01*
X166410000Y-87960000D02*
X166410000Y-87760000D01*
X171410000Y-84760000D02*
X166410000Y-84760000D01*
X171410000Y-84760000D02*
X171410000Y-84960000D01*
X171410000Y-87960000D02*
X166410000Y-87960000D01*
X171410000Y-87960000D02*
X171410000Y-87760000D01*
G04 #@! TO.C,C512*
X156387748Y-118978000D02*
X157810252Y-118978000D01*
X156387748Y-120798000D02*
X157810252Y-120798000D01*
G04 #@! TO.C,K417*
X118211700Y-79907900D02*
X119061700Y-79907900D01*
X118211700Y-80757900D02*
X118211700Y-79907900D01*
X118411700Y-80107900D02*
X125361700Y-80107900D01*
X118411700Y-83807900D02*
X118411700Y-80107900D01*
X125361700Y-80107900D02*
X125361700Y-83807900D01*
X125361700Y-83807900D02*
X118411700Y-83807900D01*
G04 #@! TD*
M02*
