%TF.GenerationSoftware,KiCad,Pcbnew,8.0.1*%
%TF.CreationDate,2024-04-14T22:29:58+02:00*%
%TF.ProjectId,ETH16CDAQ1,45544831-3643-4444-9151-312e6b696361,rev?*%
%TF.SameCoordinates,Original*%
%TF.FileFunction,Drillmap*%
%TF.FilePolarity,Positive*%
%FSLAX45Y45*%
G04 Gerber Fmt 4.5, Leading zero omitted, Abs format (unit mm)*
G04 Created by KiCad (PCBNEW 8.0.1) date 2024-04-14 22:29:58*
%MOMM*%
%LPD*%
G01*
G04 APERTURE LIST*
%ADD10C,0.050000*%
%ADD11C,0.200000*%
%ADD12C,0.220000*%
%ADD13C,0.325000*%
G04 APERTURE END LIST*
D10*
X10000000Y-7800000D02*
X20000000Y-7800000D01*
X20000000Y-12300000D01*
X10000000Y-12300000D01*
X10000000Y-7800000D01*
D11*
D12*
X11240000Y-8040000D02*
X11460000Y-8260000D01*
X11460000Y-8040000D02*
X11240000Y-8260000D01*
X11240000Y-11840000D02*
X11460000Y-12060000D01*
X11460000Y-11840000D02*
X11240000Y-12060000D01*
D13*
X19020500Y-8826500D02*
G75*
G02*
X18695500Y-8826500I-162500J0D01*
G01*
X18695500Y-8826500D02*
G75*
G02*
X19020500Y-8826500I162500J0D01*
G01*
X19020500Y-9969500D02*
G75*
G02*
X18695500Y-9969500I-162500J0D01*
G01*
X18695500Y-9969500D02*
G75*
G02*
X19020500Y-9969500I162500J0D01*
G01*
D11*
X10258277Y-12613984D02*
X10258277Y-12413984D01*
X10258277Y-12413984D02*
X10305896Y-12413984D01*
X10305896Y-12413984D02*
X10334467Y-12423508D01*
X10334467Y-12423508D02*
X10353515Y-12442555D01*
X10353515Y-12442555D02*
X10363039Y-12461603D01*
X10363039Y-12461603D02*
X10372563Y-12499698D01*
X10372563Y-12499698D02*
X10372563Y-12528269D01*
X10372563Y-12528269D02*
X10363039Y-12566365D01*
X10363039Y-12566365D02*
X10353515Y-12585412D01*
X10353515Y-12585412D02*
X10334467Y-12604460D01*
X10334467Y-12604460D02*
X10305896Y-12613984D01*
X10305896Y-12613984D02*
X10258277Y-12613984D01*
X10458277Y-12613984D02*
X10458277Y-12480650D01*
X10458277Y-12518746D02*
X10467801Y-12499698D01*
X10467801Y-12499698D02*
X10477324Y-12490174D01*
X10477324Y-12490174D02*
X10496372Y-12480650D01*
X10496372Y-12480650D02*
X10515420Y-12480650D01*
X10582086Y-12613984D02*
X10582086Y-12480650D01*
X10582086Y-12413984D02*
X10572563Y-12423508D01*
X10572563Y-12423508D02*
X10582086Y-12433031D01*
X10582086Y-12433031D02*
X10591610Y-12423508D01*
X10591610Y-12423508D02*
X10582086Y-12413984D01*
X10582086Y-12413984D02*
X10582086Y-12433031D01*
X10705896Y-12613984D02*
X10686848Y-12604460D01*
X10686848Y-12604460D02*
X10677324Y-12585412D01*
X10677324Y-12585412D02*
X10677324Y-12413984D01*
X10810658Y-12613984D02*
X10791610Y-12604460D01*
X10791610Y-12604460D02*
X10782086Y-12585412D01*
X10782086Y-12585412D02*
X10782086Y-12413984D01*
X11039229Y-12613984D02*
X11039229Y-12413984D01*
X11039229Y-12413984D02*
X11105896Y-12556841D01*
X11105896Y-12556841D02*
X11172563Y-12413984D01*
X11172563Y-12413984D02*
X11172563Y-12613984D01*
X11353515Y-12613984D02*
X11353515Y-12509222D01*
X11353515Y-12509222D02*
X11343991Y-12490174D01*
X11343991Y-12490174D02*
X11324943Y-12480650D01*
X11324943Y-12480650D02*
X11286848Y-12480650D01*
X11286848Y-12480650D02*
X11267801Y-12490174D01*
X11353515Y-12604460D02*
X11334467Y-12613984D01*
X11334467Y-12613984D02*
X11286848Y-12613984D01*
X11286848Y-12613984D02*
X11267801Y-12604460D01*
X11267801Y-12604460D02*
X11258277Y-12585412D01*
X11258277Y-12585412D02*
X11258277Y-12566365D01*
X11258277Y-12566365D02*
X11267801Y-12547317D01*
X11267801Y-12547317D02*
X11286848Y-12537793D01*
X11286848Y-12537793D02*
X11334467Y-12537793D01*
X11334467Y-12537793D02*
X11353515Y-12528269D01*
X11448753Y-12480650D02*
X11448753Y-12680650D01*
X11448753Y-12490174D02*
X11467801Y-12480650D01*
X11467801Y-12480650D02*
X11505896Y-12480650D01*
X11505896Y-12480650D02*
X11524943Y-12490174D01*
X11524943Y-12490174D02*
X11534467Y-12499698D01*
X11534467Y-12499698D02*
X11543991Y-12518746D01*
X11543991Y-12518746D02*
X11543991Y-12575888D01*
X11543991Y-12575888D02*
X11534467Y-12594936D01*
X11534467Y-12594936D02*
X11524943Y-12604460D01*
X11524943Y-12604460D02*
X11505896Y-12613984D01*
X11505896Y-12613984D02*
X11467801Y-12613984D01*
X11467801Y-12613984D02*
X11448753Y-12604460D01*
X11629705Y-12594936D02*
X11639229Y-12604460D01*
X11639229Y-12604460D02*
X11629705Y-12613984D01*
X11629705Y-12613984D02*
X11620182Y-12604460D01*
X11620182Y-12604460D02*
X11629705Y-12594936D01*
X11629705Y-12594936D02*
X11629705Y-12613984D01*
X11629705Y-12490174D02*
X11639229Y-12499698D01*
X11639229Y-12499698D02*
X11629705Y-12509222D01*
X11629705Y-12509222D02*
X11620182Y-12499698D01*
X11620182Y-12499698D02*
X11629705Y-12490174D01*
X11629705Y-12490174D02*
X11629705Y-12509222D01*
X9797500Y-12842500D02*
X9997500Y-13042500D01*
X9997500Y-12842500D02*
X9797500Y-13042500D01*
X10248753Y-12853031D02*
X10258277Y-12843508D01*
X10258277Y-12843508D02*
X10277324Y-12833984D01*
X10277324Y-12833984D02*
X10324944Y-12833984D01*
X10324944Y-12833984D02*
X10343991Y-12843508D01*
X10343991Y-12843508D02*
X10353515Y-12853031D01*
X10353515Y-12853031D02*
X10363039Y-12872079D01*
X10363039Y-12872079D02*
X10363039Y-12891127D01*
X10363039Y-12891127D02*
X10353515Y-12919698D01*
X10353515Y-12919698D02*
X10239229Y-13033984D01*
X10239229Y-13033984D02*
X10363039Y-13033984D01*
X10448753Y-13014936D02*
X10458277Y-13024460D01*
X10458277Y-13024460D02*
X10448753Y-13033984D01*
X10448753Y-13033984D02*
X10439229Y-13024460D01*
X10439229Y-13024460D02*
X10448753Y-13014936D01*
X10448753Y-13014936D02*
X10448753Y-13033984D01*
X10534467Y-12853031D02*
X10543991Y-12843508D01*
X10543991Y-12843508D02*
X10563039Y-12833984D01*
X10563039Y-12833984D02*
X10610658Y-12833984D01*
X10610658Y-12833984D02*
X10629705Y-12843508D01*
X10629705Y-12843508D02*
X10639229Y-12853031D01*
X10639229Y-12853031D02*
X10648753Y-12872079D01*
X10648753Y-12872079D02*
X10648753Y-12891127D01*
X10648753Y-12891127D02*
X10639229Y-12919698D01*
X10639229Y-12919698D02*
X10524944Y-13033984D01*
X10524944Y-13033984D02*
X10648753Y-13033984D01*
X10772563Y-12833984D02*
X10791610Y-12833984D01*
X10791610Y-12833984D02*
X10810658Y-12843508D01*
X10810658Y-12843508D02*
X10820182Y-12853031D01*
X10820182Y-12853031D02*
X10829705Y-12872079D01*
X10829705Y-12872079D02*
X10839229Y-12910174D01*
X10839229Y-12910174D02*
X10839229Y-12957793D01*
X10839229Y-12957793D02*
X10829705Y-12995888D01*
X10829705Y-12995888D02*
X10820182Y-13014936D01*
X10820182Y-13014936D02*
X10810658Y-13024460D01*
X10810658Y-13024460D02*
X10791610Y-13033984D01*
X10791610Y-13033984D02*
X10772563Y-13033984D01*
X10772563Y-13033984D02*
X10753515Y-13024460D01*
X10753515Y-13024460D02*
X10743991Y-13014936D01*
X10743991Y-13014936D02*
X10734467Y-12995888D01*
X10734467Y-12995888D02*
X10724944Y-12957793D01*
X10724944Y-12957793D02*
X10724944Y-12910174D01*
X10724944Y-12910174D02*
X10734467Y-12872079D01*
X10734467Y-12872079D02*
X10743991Y-12853031D01*
X10743991Y-12853031D02*
X10753515Y-12843508D01*
X10753515Y-12843508D02*
X10772563Y-12833984D01*
X10963039Y-12833984D02*
X10982086Y-12833984D01*
X10982086Y-12833984D02*
X11001134Y-12843508D01*
X11001134Y-12843508D02*
X11010658Y-12853031D01*
X11010658Y-12853031D02*
X11020182Y-12872079D01*
X11020182Y-12872079D02*
X11029705Y-12910174D01*
X11029705Y-12910174D02*
X11029705Y-12957793D01*
X11029705Y-12957793D02*
X11020182Y-12995888D01*
X11020182Y-12995888D02*
X11010658Y-13014936D01*
X11010658Y-13014936D02*
X11001134Y-13024460D01*
X11001134Y-13024460D02*
X10982086Y-13033984D01*
X10982086Y-13033984D02*
X10963039Y-13033984D01*
X10963039Y-13033984D02*
X10943991Y-13024460D01*
X10943991Y-13024460D02*
X10934467Y-13014936D01*
X10934467Y-13014936D02*
X10924944Y-12995888D01*
X10924944Y-12995888D02*
X10915420Y-12957793D01*
X10915420Y-12957793D02*
X10915420Y-12910174D01*
X10915420Y-12910174D02*
X10924944Y-12872079D01*
X10924944Y-12872079D02*
X10934467Y-12853031D01*
X10934467Y-12853031D02*
X10943991Y-12843508D01*
X10943991Y-12843508D02*
X10963039Y-12833984D01*
X11115420Y-13033984D02*
X11115420Y-12900650D01*
X11115420Y-12919698D02*
X11124944Y-12910174D01*
X11124944Y-12910174D02*
X11143991Y-12900650D01*
X11143991Y-12900650D02*
X11172563Y-12900650D01*
X11172563Y-12900650D02*
X11191610Y-12910174D01*
X11191610Y-12910174D02*
X11201134Y-12929222D01*
X11201134Y-12929222D02*
X11201134Y-13033984D01*
X11201134Y-12929222D02*
X11210658Y-12910174D01*
X11210658Y-12910174D02*
X11229705Y-12900650D01*
X11229705Y-12900650D02*
X11258277Y-12900650D01*
X11258277Y-12900650D02*
X11277324Y-12910174D01*
X11277324Y-12910174D02*
X11286848Y-12929222D01*
X11286848Y-12929222D02*
X11286848Y-13033984D01*
X11382086Y-13033984D02*
X11382086Y-12900650D01*
X11382086Y-12919698D02*
X11391610Y-12910174D01*
X11391610Y-12910174D02*
X11410658Y-12900650D01*
X11410658Y-12900650D02*
X11439229Y-12900650D01*
X11439229Y-12900650D02*
X11458277Y-12910174D01*
X11458277Y-12910174D02*
X11467801Y-12929222D01*
X11467801Y-12929222D02*
X11467801Y-13033984D01*
X11467801Y-12929222D02*
X11477324Y-12910174D01*
X11477324Y-12910174D02*
X11496372Y-12900650D01*
X11496372Y-12900650D02*
X11524943Y-12900650D01*
X11524943Y-12900650D02*
X11543991Y-12910174D01*
X11543991Y-12910174D02*
X11553515Y-12929222D01*
X11553515Y-12929222D02*
X11553515Y-13033984D01*
X11943991Y-12824460D02*
X11772563Y-13081603D01*
X12201134Y-12833984D02*
X12220182Y-12833984D01*
X12220182Y-12833984D02*
X12239229Y-12843508D01*
X12239229Y-12843508D02*
X12248753Y-12853031D01*
X12248753Y-12853031D02*
X12258277Y-12872079D01*
X12258277Y-12872079D02*
X12267801Y-12910174D01*
X12267801Y-12910174D02*
X12267801Y-12957793D01*
X12267801Y-12957793D02*
X12258277Y-12995888D01*
X12258277Y-12995888D02*
X12248753Y-13014936D01*
X12248753Y-13014936D02*
X12239229Y-13024460D01*
X12239229Y-13024460D02*
X12220182Y-13033984D01*
X12220182Y-13033984D02*
X12201134Y-13033984D01*
X12201134Y-13033984D02*
X12182086Y-13024460D01*
X12182086Y-13024460D02*
X12172563Y-13014936D01*
X12172563Y-13014936D02*
X12163039Y-12995888D01*
X12163039Y-12995888D02*
X12153515Y-12957793D01*
X12153515Y-12957793D02*
X12153515Y-12910174D01*
X12153515Y-12910174D02*
X12163039Y-12872079D01*
X12163039Y-12872079D02*
X12172563Y-12853031D01*
X12172563Y-12853031D02*
X12182086Y-12843508D01*
X12182086Y-12843508D02*
X12201134Y-12833984D01*
X12353515Y-13014936D02*
X12363039Y-13024460D01*
X12363039Y-13024460D02*
X12353515Y-13033984D01*
X12353515Y-13033984D02*
X12343991Y-13024460D01*
X12343991Y-13024460D02*
X12353515Y-13014936D01*
X12353515Y-13014936D02*
X12353515Y-13033984D01*
X12486848Y-12833984D02*
X12505896Y-12833984D01*
X12505896Y-12833984D02*
X12524944Y-12843508D01*
X12524944Y-12843508D02*
X12534467Y-12853031D01*
X12534467Y-12853031D02*
X12543991Y-12872079D01*
X12543991Y-12872079D02*
X12553515Y-12910174D01*
X12553515Y-12910174D02*
X12553515Y-12957793D01*
X12553515Y-12957793D02*
X12543991Y-12995888D01*
X12543991Y-12995888D02*
X12534467Y-13014936D01*
X12534467Y-13014936D02*
X12524944Y-13024460D01*
X12524944Y-13024460D02*
X12505896Y-13033984D01*
X12505896Y-13033984D02*
X12486848Y-13033984D01*
X12486848Y-13033984D02*
X12467801Y-13024460D01*
X12467801Y-13024460D02*
X12458277Y-13014936D01*
X12458277Y-13014936D02*
X12448753Y-12995888D01*
X12448753Y-12995888D02*
X12439229Y-12957793D01*
X12439229Y-12957793D02*
X12439229Y-12910174D01*
X12439229Y-12910174D02*
X12448753Y-12872079D01*
X12448753Y-12872079D02*
X12458277Y-12853031D01*
X12458277Y-12853031D02*
X12467801Y-12843508D01*
X12467801Y-12843508D02*
X12486848Y-12833984D01*
X12667801Y-12919698D02*
X12648753Y-12910174D01*
X12648753Y-12910174D02*
X12639229Y-12900650D01*
X12639229Y-12900650D02*
X12629706Y-12881603D01*
X12629706Y-12881603D02*
X12629706Y-12872079D01*
X12629706Y-12872079D02*
X12639229Y-12853031D01*
X12639229Y-12853031D02*
X12648753Y-12843508D01*
X12648753Y-12843508D02*
X12667801Y-12833984D01*
X12667801Y-12833984D02*
X12705896Y-12833984D01*
X12705896Y-12833984D02*
X12724944Y-12843508D01*
X12724944Y-12843508D02*
X12734467Y-12853031D01*
X12734467Y-12853031D02*
X12743991Y-12872079D01*
X12743991Y-12872079D02*
X12743991Y-12881603D01*
X12743991Y-12881603D02*
X12734467Y-12900650D01*
X12734467Y-12900650D02*
X12724944Y-12910174D01*
X12724944Y-12910174D02*
X12705896Y-12919698D01*
X12705896Y-12919698D02*
X12667801Y-12919698D01*
X12667801Y-12919698D02*
X12648753Y-12929222D01*
X12648753Y-12929222D02*
X12639229Y-12938746D01*
X12639229Y-12938746D02*
X12629706Y-12957793D01*
X12629706Y-12957793D02*
X12629706Y-12995888D01*
X12629706Y-12995888D02*
X12639229Y-13014936D01*
X12639229Y-13014936D02*
X12648753Y-13024460D01*
X12648753Y-13024460D02*
X12667801Y-13033984D01*
X12667801Y-13033984D02*
X12705896Y-13033984D01*
X12705896Y-13033984D02*
X12724944Y-13024460D01*
X12724944Y-13024460D02*
X12734467Y-13014936D01*
X12734467Y-13014936D02*
X12743991Y-12995888D01*
X12743991Y-12995888D02*
X12743991Y-12957793D01*
X12743991Y-12957793D02*
X12734467Y-12938746D01*
X12734467Y-12938746D02*
X12724944Y-12929222D01*
X12724944Y-12929222D02*
X12705896Y-12919698D01*
X12915420Y-12833984D02*
X12877325Y-12833984D01*
X12877325Y-12833984D02*
X12858277Y-12843508D01*
X12858277Y-12843508D02*
X12848753Y-12853031D01*
X12848753Y-12853031D02*
X12829706Y-12881603D01*
X12829706Y-12881603D02*
X12820182Y-12919698D01*
X12820182Y-12919698D02*
X12820182Y-12995888D01*
X12820182Y-12995888D02*
X12829706Y-13014936D01*
X12829706Y-13014936D02*
X12839229Y-13024460D01*
X12839229Y-13024460D02*
X12858277Y-13033984D01*
X12858277Y-13033984D02*
X12896372Y-13033984D01*
X12896372Y-13033984D02*
X12915420Y-13024460D01*
X12915420Y-13024460D02*
X12924944Y-13014936D01*
X12924944Y-13014936D02*
X12934467Y-12995888D01*
X12934467Y-12995888D02*
X12934467Y-12948269D01*
X12934467Y-12948269D02*
X12924944Y-12929222D01*
X12924944Y-12929222D02*
X12915420Y-12919698D01*
X12915420Y-12919698D02*
X12896372Y-12910174D01*
X12896372Y-12910174D02*
X12858277Y-12910174D01*
X12858277Y-12910174D02*
X12839229Y-12919698D01*
X12839229Y-12919698D02*
X12829706Y-12929222D01*
X12829706Y-12929222D02*
X12820182Y-12948269D01*
X13105896Y-12833984D02*
X13067801Y-12833984D01*
X13067801Y-12833984D02*
X13048753Y-12843508D01*
X13048753Y-12843508D02*
X13039229Y-12853031D01*
X13039229Y-12853031D02*
X13020182Y-12881603D01*
X13020182Y-12881603D02*
X13010658Y-12919698D01*
X13010658Y-12919698D02*
X13010658Y-12995888D01*
X13010658Y-12995888D02*
X13020182Y-13014936D01*
X13020182Y-13014936D02*
X13029706Y-13024460D01*
X13029706Y-13024460D02*
X13048753Y-13033984D01*
X13048753Y-13033984D02*
X13086848Y-13033984D01*
X13086848Y-13033984D02*
X13105896Y-13024460D01*
X13105896Y-13024460D02*
X13115420Y-13014936D01*
X13115420Y-13014936D02*
X13124944Y-12995888D01*
X13124944Y-12995888D02*
X13124944Y-12948269D01*
X13124944Y-12948269D02*
X13115420Y-12929222D01*
X13115420Y-12929222D02*
X13105896Y-12919698D01*
X13105896Y-12919698D02*
X13086848Y-12910174D01*
X13086848Y-12910174D02*
X13048753Y-12910174D01*
X13048753Y-12910174D02*
X13029706Y-12919698D01*
X13029706Y-12919698D02*
X13020182Y-12929222D01*
X13020182Y-12929222D02*
X13010658Y-12948269D01*
X13201134Y-12833984D02*
X13201134Y-12872079D01*
X13277325Y-12833984D02*
X13277325Y-12872079D01*
X13572563Y-13110174D02*
X13563039Y-13100650D01*
X13563039Y-13100650D02*
X13543991Y-13072079D01*
X13543991Y-13072079D02*
X13534468Y-13053031D01*
X13534468Y-13053031D02*
X13524944Y-13024460D01*
X13524944Y-13024460D02*
X13515420Y-12976841D01*
X13515420Y-12976841D02*
X13515420Y-12938746D01*
X13515420Y-12938746D02*
X13524944Y-12891127D01*
X13524944Y-12891127D02*
X13534468Y-12862555D01*
X13534468Y-12862555D02*
X13543991Y-12843508D01*
X13543991Y-12843508D02*
X13563039Y-12814936D01*
X13563039Y-12814936D02*
X13572563Y-12805412D01*
X13639229Y-12853031D02*
X13648753Y-12843508D01*
X13648753Y-12843508D02*
X13667801Y-12833984D01*
X13667801Y-12833984D02*
X13715420Y-12833984D01*
X13715420Y-12833984D02*
X13734468Y-12843508D01*
X13734468Y-12843508D02*
X13743991Y-12853031D01*
X13743991Y-12853031D02*
X13753515Y-12872079D01*
X13753515Y-12872079D02*
X13753515Y-12891127D01*
X13753515Y-12891127D02*
X13743991Y-12919698D01*
X13743991Y-12919698D02*
X13629706Y-13033984D01*
X13629706Y-13033984D02*
X13753515Y-13033984D01*
X13991610Y-13033984D02*
X13991610Y-12833984D01*
X14077325Y-13033984D02*
X14077325Y-12929222D01*
X14077325Y-12929222D02*
X14067801Y-12910174D01*
X14067801Y-12910174D02*
X14048753Y-12900650D01*
X14048753Y-12900650D02*
X14020182Y-12900650D01*
X14020182Y-12900650D02*
X14001134Y-12910174D01*
X14001134Y-12910174D02*
X13991610Y-12919698D01*
X14201134Y-13033984D02*
X14182087Y-13024460D01*
X14182087Y-13024460D02*
X14172563Y-13014936D01*
X14172563Y-13014936D02*
X14163039Y-12995888D01*
X14163039Y-12995888D02*
X14163039Y-12938746D01*
X14163039Y-12938746D02*
X14172563Y-12919698D01*
X14172563Y-12919698D02*
X14182087Y-12910174D01*
X14182087Y-12910174D02*
X14201134Y-12900650D01*
X14201134Y-12900650D02*
X14229706Y-12900650D01*
X14229706Y-12900650D02*
X14248753Y-12910174D01*
X14248753Y-12910174D02*
X14258277Y-12919698D01*
X14258277Y-12919698D02*
X14267801Y-12938746D01*
X14267801Y-12938746D02*
X14267801Y-12995888D01*
X14267801Y-12995888D02*
X14258277Y-13014936D01*
X14258277Y-13014936D02*
X14248753Y-13024460D01*
X14248753Y-13024460D02*
X14229706Y-13033984D01*
X14229706Y-13033984D02*
X14201134Y-13033984D01*
X14382087Y-13033984D02*
X14363039Y-13024460D01*
X14363039Y-13024460D02*
X14353515Y-13005412D01*
X14353515Y-13005412D02*
X14353515Y-12833984D01*
X14534468Y-13024460D02*
X14515420Y-13033984D01*
X14515420Y-13033984D02*
X14477325Y-13033984D01*
X14477325Y-13033984D02*
X14458277Y-13024460D01*
X14458277Y-13024460D02*
X14448753Y-13005412D01*
X14448753Y-13005412D02*
X14448753Y-12929222D01*
X14448753Y-12929222D02*
X14458277Y-12910174D01*
X14458277Y-12910174D02*
X14477325Y-12900650D01*
X14477325Y-12900650D02*
X14515420Y-12900650D01*
X14515420Y-12900650D02*
X14534468Y-12910174D01*
X14534468Y-12910174D02*
X14543991Y-12929222D01*
X14543991Y-12929222D02*
X14543991Y-12948269D01*
X14543991Y-12948269D02*
X14448753Y-12967317D01*
X14620182Y-13024460D02*
X14639230Y-13033984D01*
X14639230Y-13033984D02*
X14677325Y-13033984D01*
X14677325Y-13033984D02*
X14696372Y-13024460D01*
X14696372Y-13024460D02*
X14705896Y-13005412D01*
X14705896Y-13005412D02*
X14705896Y-12995888D01*
X14705896Y-12995888D02*
X14696372Y-12976841D01*
X14696372Y-12976841D02*
X14677325Y-12967317D01*
X14677325Y-12967317D02*
X14648753Y-12967317D01*
X14648753Y-12967317D02*
X14629706Y-12957793D01*
X14629706Y-12957793D02*
X14620182Y-12938746D01*
X14620182Y-12938746D02*
X14620182Y-12929222D01*
X14620182Y-12929222D02*
X14629706Y-12910174D01*
X14629706Y-12910174D02*
X14648753Y-12900650D01*
X14648753Y-12900650D02*
X14677325Y-12900650D01*
X14677325Y-12900650D02*
X14696372Y-12910174D01*
X14772563Y-13110174D02*
X14782087Y-13100650D01*
X14782087Y-13100650D02*
X14801134Y-13072079D01*
X14801134Y-13072079D02*
X14810658Y-13053031D01*
X14810658Y-13053031D02*
X14820182Y-13024460D01*
X14820182Y-13024460D02*
X14829706Y-12976841D01*
X14829706Y-12976841D02*
X14829706Y-12938746D01*
X14829706Y-12938746D02*
X14820182Y-12891127D01*
X14820182Y-12891127D02*
X14810658Y-12862555D01*
X14810658Y-12862555D02*
X14801134Y-12843508D01*
X14801134Y-12843508D02*
X14782087Y-12814936D01*
X14782087Y-12814936D02*
X14772563Y-12805412D01*
X15134468Y-13110174D02*
X15124944Y-13100650D01*
X15124944Y-13100650D02*
X15105896Y-13072079D01*
X15105896Y-13072079D02*
X15096372Y-13053031D01*
X15096372Y-13053031D02*
X15086849Y-13024460D01*
X15086849Y-13024460D02*
X15077325Y-12976841D01*
X15077325Y-12976841D02*
X15077325Y-12938746D01*
X15077325Y-12938746D02*
X15086849Y-12891127D01*
X15086849Y-12891127D02*
X15096372Y-12862555D01*
X15096372Y-12862555D02*
X15105896Y-12843508D01*
X15105896Y-12843508D02*
X15124944Y-12814936D01*
X15124944Y-12814936D02*
X15134468Y-12805412D01*
X15210658Y-12900650D02*
X15210658Y-13033984D01*
X15210658Y-12919698D02*
X15220182Y-12910174D01*
X15220182Y-12910174D02*
X15239230Y-12900650D01*
X15239230Y-12900650D02*
X15267801Y-12900650D01*
X15267801Y-12900650D02*
X15286849Y-12910174D01*
X15286849Y-12910174D02*
X15296372Y-12929222D01*
X15296372Y-12929222D02*
X15296372Y-13033984D01*
X15420182Y-13033984D02*
X15401134Y-13024460D01*
X15401134Y-13024460D02*
X15391611Y-13014936D01*
X15391611Y-13014936D02*
X15382087Y-12995888D01*
X15382087Y-12995888D02*
X15382087Y-12938746D01*
X15382087Y-12938746D02*
X15391611Y-12919698D01*
X15391611Y-12919698D02*
X15401134Y-12910174D01*
X15401134Y-12910174D02*
X15420182Y-12900650D01*
X15420182Y-12900650D02*
X15448753Y-12900650D01*
X15448753Y-12900650D02*
X15467801Y-12910174D01*
X15467801Y-12910174D02*
X15477325Y-12919698D01*
X15477325Y-12919698D02*
X15486849Y-12938746D01*
X15486849Y-12938746D02*
X15486849Y-12995888D01*
X15486849Y-12995888D02*
X15477325Y-13014936D01*
X15477325Y-13014936D02*
X15467801Y-13024460D01*
X15467801Y-13024460D02*
X15448753Y-13033984D01*
X15448753Y-13033984D02*
X15420182Y-13033984D01*
X15543992Y-12900650D02*
X15620182Y-12900650D01*
X15572563Y-12833984D02*
X15572563Y-13005412D01*
X15572563Y-13005412D02*
X15582087Y-13024460D01*
X15582087Y-13024460D02*
X15601134Y-13033984D01*
X15601134Y-13033984D02*
X15620182Y-13033984D01*
X15839230Y-12900650D02*
X15839230Y-13100650D01*
X15839230Y-12910174D02*
X15858277Y-12900650D01*
X15858277Y-12900650D02*
X15896373Y-12900650D01*
X15896373Y-12900650D02*
X15915420Y-12910174D01*
X15915420Y-12910174D02*
X15924944Y-12919698D01*
X15924944Y-12919698D02*
X15934468Y-12938746D01*
X15934468Y-12938746D02*
X15934468Y-12995888D01*
X15934468Y-12995888D02*
X15924944Y-13014936D01*
X15924944Y-13014936D02*
X15915420Y-13024460D01*
X15915420Y-13024460D02*
X15896373Y-13033984D01*
X15896373Y-13033984D02*
X15858277Y-13033984D01*
X15858277Y-13033984D02*
X15839230Y-13024460D01*
X16048753Y-13033984D02*
X16029706Y-13024460D01*
X16029706Y-13024460D02*
X16020182Y-13005412D01*
X16020182Y-13005412D02*
X16020182Y-12833984D01*
X16210658Y-13033984D02*
X16210658Y-12929222D01*
X16210658Y-12929222D02*
X16201134Y-12910174D01*
X16201134Y-12910174D02*
X16182087Y-12900650D01*
X16182087Y-12900650D02*
X16143992Y-12900650D01*
X16143992Y-12900650D02*
X16124944Y-12910174D01*
X16210658Y-13024460D02*
X16191611Y-13033984D01*
X16191611Y-13033984D02*
X16143992Y-13033984D01*
X16143992Y-13033984D02*
X16124944Y-13024460D01*
X16124944Y-13024460D02*
X16115420Y-13005412D01*
X16115420Y-13005412D02*
X16115420Y-12986365D01*
X16115420Y-12986365D02*
X16124944Y-12967317D01*
X16124944Y-12967317D02*
X16143992Y-12957793D01*
X16143992Y-12957793D02*
X16191611Y-12957793D01*
X16191611Y-12957793D02*
X16210658Y-12948269D01*
X16277325Y-12900650D02*
X16353515Y-12900650D01*
X16305896Y-12833984D02*
X16305896Y-13005412D01*
X16305896Y-13005412D02*
X16315420Y-13024460D01*
X16315420Y-13024460D02*
X16334468Y-13033984D01*
X16334468Y-13033984D02*
X16353515Y-13033984D01*
X16496373Y-13024460D02*
X16477325Y-13033984D01*
X16477325Y-13033984D02*
X16439230Y-13033984D01*
X16439230Y-13033984D02*
X16420182Y-13024460D01*
X16420182Y-13024460D02*
X16410658Y-13005412D01*
X16410658Y-13005412D02*
X16410658Y-12929222D01*
X16410658Y-12929222D02*
X16420182Y-12910174D01*
X16420182Y-12910174D02*
X16439230Y-12900650D01*
X16439230Y-12900650D02*
X16477325Y-12900650D01*
X16477325Y-12900650D02*
X16496373Y-12910174D01*
X16496373Y-12910174D02*
X16505896Y-12929222D01*
X16505896Y-12929222D02*
X16505896Y-12948269D01*
X16505896Y-12948269D02*
X16410658Y-12967317D01*
X16677325Y-13033984D02*
X16677325Y-12833984D01*
X16677325Y-13024460D02*
X16658277Y-13033984D01*
X16658277Y-13033984D02*
X16620182Y-13033984D01*
X16620182Y-13033984D02*
X16601134Y-13024460D01*
X16601134Y-13024460D02*
X16591611Y-13014936D01*
X16591611Y-13014936D02*
X16582087Y-12995888D01*
X16582087Y-12995888D02*
X16582087Y-12938746D01*
X16582087Y-12938746D02*
X16591611Y-12919698D01*
X16591611Y-12919698D02*
X16601134Y-12910174D01*
X16601134Y-12910174D02*
X16620182Y-12900650D01*
X16620182Y-12900650D02*
X16658277Y-12900650D01*
X16658277Y-12900650D02*
X16677325Y-12910174D01*
X16753515Y-13110174D02*
X16763039Y-13100650D01*
X16763039Y-13100650D02*
X16782087Y-13072079D01*
X16782087Y-13072079D02*
X16791611Y-13053031D01*
X16791611Y-13053031D02*
X16801135Y-13024460D01*
X16801135Y-13024460D02*
X16810658Y-12976841D01*
X16810658Y-12976841D02*
X16810658Y-12938746D01*
X16810658Y-12938746D02*
X16801135Y-12891127D01*
X16801135Y-12891127D02*
X16791611Y-12862555D01*
X16791611Y-12862555D02*
X16782087Y-12843508D01*
X16782087Y-12843508D02*
X16763039Y-12814936D01*
X16763039Y-12814936D02*
X16753515Y-12805412D01*
X9997500Y-13262500D02*
G75*
G02*
X9797500Y-13262500I-100000J0D01*
G01*
X9797500Y-13262500D02*
G75*
G02*
X9997500Y-13262500I100000J0D01*
G01*
X10239229Y-13153984D02*
X10363039Y-13153984D01*
X10363039Y-13153984D02*
X10296372Y-13230174D01*
X10296372Y-13230174D02*
X10324944Y-13230174D01*
X10324944Y-13230174D02*
X10343991Y-13239698D01*
X10343991Y-13239698D02*
X10353515Y-13249222D01*
X10353515Y-13249222D02*
X10363039Y-13268269D01*
X10363039Y-13268269D02*
X10363039Y-13315888D01*
X10363039Y-13315888D02*
X10353515Y-13334936D01*
X10353515Y-13334936D02*
X10343991Y-13344460D01*
X10343991Y-13344460D02*
X10324944Y-13353984D01*
X10324944Y-13353984D02*
X10267801Y-13353984D01*
X10267801Y-13353984D02*
X10248753Y-13344460D01*
X10248753Y-13344460D02*
X10239229Y-13334936D01*
X10448753Y-13334936D02*
X10458277Y-13344460D01*
X10458277Y-13344460D02*
X10448753Y-13353984D01*
X10448753Y-13353984D02*
X10439229Y-13344460D01*
X10439229Y-13344460D02*
X10448753Y-13334936D01*
X10448753Y-13334936D02*
X10448753Y-13353984D01*
X10534467Y-13173031D02*
X10543991Y-13163508D01*
X10543991Y-13163508D02*
X10563039Y-13153984D01*
X10563039Y-13153984D02*
X10610658Y-13153984D01*
X10610658Y-13153984D02*
X10629705Y-13163508D01*
X10629705Y-13163508D02*
X10639229Y-13173031D01*
X10639229Y-13173031D02*
X10648753Y-13192079D01*
X10648753Y-13192079D02*
X10648753Y-13211127D01*
X10648753Y-13211127D02*
X10639229Y-13239698D01*
X10639229Y-13239698D02*
X10524944Y-13353984D01*
X10524944Y-13353984D02*
X10648753Y-13353984D01*
X10829705Y-13153984D02*
X10734467Y-13153984D01*
X10734467Y-13153984D02*
X10724944Y-13249222D01*
X10724944Y-13249222D02*
X10734467Y-13239698D01*
X10734467Y-13239698D02*
X10753515Y-13230174D01*
X10753515Y-13230174D02*
X10801134Y-13230174D01*
X10801134Y-13230174D02*
X10820182Y-13239698D01*
X10820182Y-13239698D02*
X10829705Y-13249222D01*
X10829705Y-13249222D02*
X10839229Y-13268269D01*
X10839229Y-13268269D02*
X10839229Y-13315888D01*
X10839229Y-13315888D02*
X10829705Y-13334936D01*
X10829705Y-13334936D02*
X10820182Y-13344460D01*
X10820182Y-13344460D02*
X10801134Y-13353984D01*
X10801134Y-13353984D02*
X10753515Y-13353984D01*
X10753515Y-13353984D02*
X10734467Y-13344460D01*
X10734467Y-13344460D02*
X10724944Y-13334936D01*
X10963039Y-13153984D02*
X10982086Y-13153984D01*
X10982086Y-13153984D02*
X11001134Y-13163508D01*
X11001134Y-13163508D02*
X11010658Y-13173031D01*
X11010658Y-13173031D02*
X11020182Y-13192079D01*
X11020182Y-13192079D02*
X11029705Y-13230174D01*
X11029705Y-13230174D02*
X11029705Y-13277793D01*
X11029705Y-13277793D02*
X11020182Y-13315888D01*
X11020182Y-13315888D02*
X11010658Y-13334936D01*
X11010658Y-13334936D02*
X11001134Y-13344460D01*
X11001134Y-13344460D02*
X10982086Y-13353984D01*
X10982086Y-13353984D02*
X10963039Y-13353984D01*
X10963039Y-13353984D02*
X10943991Y-13344460D01*
X10943991Y-13344460D02*
X10934467Y-13334936D01*
X10934467Y-13334936D02*
X10924944Y-13315888D01*
X10924944Y-13315888D02*
X10915420Y-13277793D01*
X10915420Y-13277793D02*
X10915420Y-13230174D01*
X10915420Y-13230174D02*
X10924944Y-13192079D01*
X10924944Y-13192079D02*
X10934467Y-13173031D01*
X10934467Y-13173031D02*
X10943991Y-13163508D01*
X10943991Y-13163508D02*
X10963039Y-13153984D01*
X11115420Y-13353984D02*
X11115420Y-13220650D01*
X11115420Y-13239698D02*
X11124944Y-13230174D01*
X11124944Y-13230174D02*
X11143991Y-13220650D01*
X11143991Y-13220650D02*
X11172563Y-13220650D01*
X11172563Y-13220650D02*
X11191610Y-13230174D01*
X11191610Y-13230174D02*
X11201134Y-13249222D01*
X11201134Y-13249222D02*
X11201134Y-13353984D01*
X11201134Y-13249222D02*
X11210658Y-13230174D01*
X11210658Y-13230174D02*
X11229705Y-13220650D01*
X11229705Y-13220650D02*
X11258277Y-13220650D01*
X11258277Y-13220650D02*
X11277324Y-13230174D01*
X11277324Y-13230174D02*
X11286848Y-13249222D01*
X11286848Y-13249222D02*
X11286848Y-13353984D01*
X11382086Y-13353984D02*
X11382086Y-13220650D01*
X11382086Y-13239698D02*
X11391610Y-13230174D01*
X11391610Y-13230174D02*
X11410658Y-13220650D01*
X11410658Y-13220650D02*
X11439229Y-13220650D01*
X11439229Y-13220650D02*
X11458277Y-13230174D01*
X11458277Y-13230174D02*
X11467801Y-13249222D01*
X11467801Y-13249222D02*
X11467801Y-13353984D01*
X11467801Y-13249222D02*
X11477324Y-13230174D01*
X11477324Y-13230174D02*
X11496372Y-13220650D01*
X11496372Y-13220650D02*
X11524943Y-13220650D01*
X11524943Y-13220650D02*
X11543991Y-13230174D01*
X11543991Y-13230174D02*
X11553515Y-13249222D01*
X11553515Y-13249222D02*
X11553515Y-13353984D01*
X11943991Y-13144460D02*
X11772563Y-13401603D01*
X12201134Y-13153984D02*
X12220182Y-13153984D01*
X12220182Y-13153984D02*
X12239229Y-13163508D01*
X12239229Y-13163508D02*
X12248753Y-13173031D01*
X12248753Y-13173031D02*
X12258277Y-13192079D01*
X12258277Y-13192079D02*
X12267801Y-13230174D01*
X12267801Y-13230174D02*
X12267801Y-13277793D01*
X12267801Y-13277793D02*
X12258277Y-13315888D01*
X12258277Y-13315888D02*
X12248753Y-13334936D01*
X12248753Y-13334936D02*
X12239229Y-13344460D01*
X12239229Y-13344460D02*
X12220182Y-13353984D01*
X12220182Y-13353984D02*
X12201134Y-13353984D01*
X12201134Y-13353984D02*
X12182086Y-13344460D01*
X12182086Y-13344460D02*
X12172563Y-13334936D01*
X12172563Y-13334936D02*
X12163039Y-13315888D01*
X12163039Y-13315888D02*
X12153515Y-13277793D01*
X12153515Y-13277793D02*
X12153515Y-13230174D01*
X12153515Y-13230174D02*
X12163039Y-13192079D01*
X12163039Y-13192079D02*
X12172563Y-13173031D01*
X12172563Y-13173031D02*
X12182086Y-13163508D01*
X12182086Y-13163508D02*
X12201134Y-13153984D01*
X12353515Y-13334936D02*
X12363039Y-13344460D01*
X12363039Y-13344460D02*
X12353515Y-13353984D01*
X12353515Y-13353984D02*
X12343991Y-13344460D01*
X12343991Y-13344460D02*
X12353515Y-13334936D01*
X12353515Y-13334936D02*
X12353515Y-13353984D01*
X12553515Y-13353984D02*
X12439229Y-13353984D01*
X12496372Y-13353984D02*
X12496372Y-13153984D01*
X12496372Y-13153984D02*
X12477325Y-13182555D01*
X12477325Y-13182555D02*
X12458277Y-13201603D01*
X12458277Y-13201603D02*
X12439229Y-13211127D01*
X12629706Y-13173031D02*
X12639229Y-13163508D01*
X12639229Y-13163508D02*
X12658277Y-13153984D01*
X12658277Y-13153984D02*
X12705896Y-13153984D01*
X12705896Y-13153984D02*
X12724944Y-13163508D01*
X12724944Y-13163508D02*
X12734467Y-13173031D01*
X12734467Y-13173031D02*
X12743991Y-13192079D01*
X12743991Y-13192079D02*
X12743991Y-13211127D01*
X12743991Y-13211127D02*
X12734467Y-13239698D01*
X12734467Y-13239698D02*
X12620182Y-13353984D01*
X12620182Y-13353984D02*
X12743991Y-13353984D01*
X12858277Y-13239698D02*
X12839229Y-13230174D01*
X12839229Y-13230174D02*
X12829706Y-13220650D01*
X12829706Y-13220650D02*
X12820182Y-13201603D01*
X12820182Y-13201603D02*
X12820182Y-13192079D01*
X12820182Y-13192079D02*
X12829706Y-13173031D01*
X12829706Y-13173031D02*
X12839229Y-13163508D01*
X12839229Y-13163508D02*
X12858277Y-13153984D01*
X12858277Y-13153984D02*
X12896372Y-13153984D01*
X12896372Y-13153984D02*
X12915420Y-13163508D01*
X12915420Y-13163508D02*
X12924944Y-13173031D01*
X12924944Y-13173031D02*
X12934467Y-13192079D01*
X12934467Y-13192079D02*
X12934467Y-13201603D01*
X12934467Y-13201603D02*
X12924944Y-13220650D01*
X12924944Y-13220650D02*
X12915420Y-13230174D01*
X12915420Y-13230174D02*
X12896372Y-13239698D01*
X12896372Y-13239698D02*
X12858277Y-13239698D01*
X12858277Y-13239698D02*
X12839229Y-13249222D01*
X12839229Y-13249222D02*
X12829706Y-13258746D01*
X12829706Y-13258746D02*
X12820182Y-13277793D01*
X12820182Y-13277793D02*
X12820182Y-13315888D01*
X12820182Y-13315888D02*
X12829706Y-13334936D01*
X12829706Y-13334936D02*
X12839229Y-13344460D01*
X12839229Y-13344460D02*
X12858277Y-13353984D01*
X12858277Y-13353984D02*
X12896372Y-13353984D01*
X12896372Y-13353984D02*
X12915420Y-13344460D01*
X12915420Y-13344460D02*
X12924944Y-13334936D01*
X12924944Y-13334936D02*
X12934467Y-13315888D01*
X12934467Y-13315888D02*
X12934467Y-13277793D01*
X12934467Y-13277793D02*
X12924944Y-13258746D01*
X12924944Y-13258746D02*
X12915420Y-13249222D01*
X12915420Y-13249222D02*
X12896372Y-13239698D01*
X13058277Y-13153984D02*
X13077325Y-13153984D01*
X13077325Y-13153984D02*
X13096372Y-13163508D01*
X13096372Y-13163508D02*
X13105896Y-13173031D01*
X13105896Y-13173031D02*
X13115420Y-13192079D01*
X13115420Y-13192079D02*
X13124944Y-13230174D01*
X13124944Y-13230174D02*
X13124944Y-13277793D01*
X13124944Y-13277793D02*
X13115420Y-13315888D01*
X13115420Y-13315888D02*
X13105896Y-13334936D01*
X13105896Y-13334936D02*
X13096372Y-13344460D01*
X13096372Y-13344460D02*
X13077325Y-13353984D01*
X13077325Y-13353984D02*
X13058277Y-13353984D01*
X13058277Y-13353984D02*
X13039229Y-13344460D01*
X13039229Y-13344460D02*
X13029706Y-13334936D01*
X13029706Y-13334936D02*
X13020182Y-13315888D01*
X13020182Y-13315888D02*
X13010658Y-13277793D01*
X13010658Y-13277793D02*
X13010658Y-13230174D01*
X13010658Y-13230174D02*
X13020182Y-13192079D01*
X13020182Y-13192079D02*
X13029706Y-13173031D01*
X13029706Y-13173031D02*
X13039229Y-13163508D01*
X13039229Y-13163508D02*
X13058277Y-13153984D01*
X13201134Y-13153984D02*
X13201134Y-13192079D01*
X13277325Y-13153984D02*
X13277325Y-13192079D01*
X13572563Y-13430174D02*
X13563039Y-13420650D01*
X13563039Y-13420650D02*
X13543991Y-13392079D01*
X13543991Y-13392079D02*
X13534468Y-13373031D01*
X13534468Y-13373031D02*
X13524944Y-13344460D01*
X13524944Y-13344460D02*
X13515420Y-13296841D01*
X13515420Y-13296841D02*
X13515420Y-13258746D01*
X13515420Y-13258746D02*
X13524944Y-13211127D01*
X13524944Y-13211127D02*
X13534468Y-13182555D01*
X13534468Y-13182555D02*
X13543991Y-13163508D01*
X13543991Y-13163508D02*
X13563039Y-13134936D01*
X13563039Y-13134936D02*
X13572563Y-13125412D01*
X13639229Y-13173031D02*
X13648753Y-13163508D01*
X13648753Y-13163508D02*
X13667801Y-13153984D01*
X13667801Y-13153984D02*
X13715420Y-13153984D01*
X13715420Y-13153984D02*
X13734468Y-13163508D01*
X13734468Y-13163508D02*
X13743991Y-13173031D01*
X13743991Y-13173031D02*
X13753515Y-13192079D01*
X13753515Y-13192079D02*
X13753515Y-13211127D01*
X13753515Y-13211127D02*
X13743991Y-13239698D01*
X13743991Y-13239698D02*
X13629706Y-13353984D01*
X13629706Y-13353984D02*
X13753515Y-13353984D01*
X13991610Y-13353984D02*
X13991610Y-13153984D01*
X14077325Y-13353984D02*
X14077325Y-13249222D01*
X14077325Y-13249222D02*
X14067801Y-13230174D01*
X14067801Y-13230174D02*
X14048753Y-13220650D01*
X14048753Y-13220650D02*
X14020182Y-13220650D01*
X14020182Y-13220650D02*
X14001134Y-13230174D01*
X14001134Y-13230174D02*
X13991610Y-13239698D01*
X14201134Y-13353984D02*
X14182087Y-13344460D01*
X14182087Y-13344460D02*
X14172563Y-13334936D01*
X14172563Y-13334936D02*
X14163039Y-13315888D01*
X14163039Y-13315888D02*
X14163039Y-13258746D01*
X14163039Y-13258746D02*
X14172563Y-13239698D01*
X14172563Y-13239698D02*
X14182087Y-13230174D01*
X14182087Y-13230174D02*
X14201134Y-13220650D01*
X14201134Y-13220650D02*
X14229706Y-13220650D01*
X14229706Y-13220650D02*
X14248753Y-13230174D01*
X14248753Y-13230174D02*
X14258277Y-13239698D01*
X14258277Y-13239698D02*
X14267801Y-13258746D01*
X14267801Y-13258746D02*
X14267801Y-13315888D01*
X14267801Y-13315888D02*
X14258277Y-13334936D01*
X14258277Y-13334936D02*
X14248753Y-13344460D01*
X14248753Y-13344460D02*
X14229706Y-13353984D01*
X14229706Y-13353984D02*
X14201134Y-13353984D01*
X14382087Y-13353984D02*
X14363039Y-13344460D01*
X14363039Y-13344460D02*
X14353515Y-13325412D01*
X14353515Y-13325412D02*
X14353515Y-13153984D01*
X14534468Y-13344460D02*
X14515420Y-13353984D01*
X14515420Y-13353984D02*
X14477325Y-13353984D01*
X14477325Y-13353984D02*
X14458277Y-13344460D01*
X14458277Y-13344460D02*
X14448753Y-13325412D01*
X14448753Y-13325412D02*
X14448753Y-13249222D01*
X14448753Y-13249222D02*
X14458277Y-13230174D01*
X14458277Y-13230174D02*
X14477325Y-13220650D01*
X14477325Y-13220650D02*
X14515420Y-13220650D01*
X14515420Y-13220650D02*
X14534468Y-13230174D01*
X14534468Y-13230174D02*
X14543991Y-13249222D01*
X14543991Y-13249222D02*
X14543991Y-13268269D01*
X14543991Y-13268269D02*
X14448753Y-13287317D01*
X14620182Y-13344460D02*
X14639230Y-13353984D01*
X14639230Y-13353984D02*
X14677325Y-13353984D01*
X14677325Y-13353984D02*
X14696372Y-13344460D01*
X14696372Y-13344460D02*
X14705896Y-13325412D01*
X14705896Y-13325412D02*
X14705896Y-13315888D01*
X14705896Y-13315888D02*
X14696372Y-13296841D01*
X14696372Y-13296841D02*
X14677325Y-13287317D01*
X14677325Y-13287317D02*
X14648753Y-13287317D01*
X14648753Y-13287317D02*
X14629706Y-13277793D01*
X14629706Y-13277793D02*
X14620182Y-13258746D01*
X14620182Y-13258746D02*
X14620182Y-13249222D01*
X14620182Y-13249222D02*
X14629706Y-13230174D01*
X14629706Y-13230174D02*
X14648753Y-13220650D01*
X14648753Y-13220650D02*
X14677325Y-13220650D01*
X14677325Y-13220650D02*
X14696372Y-13230174D01*
X14772563Y-13430174D02*
X14782087Y-13420650D01*
X14782087Y-13420650D02*
X14801134Y-13392079D01*
X14801134Y-13392079D02*
X14810658Y-13373031D01*
X14810658Y-13373031D02*
X14820182Y-13344460D01*
X14820182Y-13344460D02*
X14829706Y-13296841D01*
X14829706Y-13296841D02*
X14829706Y-13258746D01*
X14829706Y-13258746D02*
X14820182Y-13211127D01*
X14820182Y-13211127D02*
X14810658Y-13182555D01*
X14810658Y-13182555D02*
X14801134Y-13163508D01*
X14801134Y-13163508D02*
X14782087Y-13134936D01*
X14782087Y-13134936D02*
X14772563Y-13125412D01*
X15134468Y-13430174D02*
X15124944Y-13420650D01*
X15124944Y-13420650D02*
X15105896Y-13392079D01*
X15105896Y-13392079D02*
X15096372Y-13373031D01*
X15096372Y-13373031D02*
X15086849Y-13344460D01*
X15086849Y-13344460D02*
X15077325Y-13296841D01*
X15077325Y-13296841D02*
X15077325Y-13258746D01*
X15077325Y-13258746D02*
X15086849Y-13211127D01*
X15086849Y-13211127D02*
X15096372Y-13182555D01*
X15096372Y-13182555D02*
X15105896Y-13163508D01*
X15105896Y-13163508D02*
X15124944Y-13134936D01*
X15124944Y-13134936D02*
X15134468Y-13125412D01*
X15210658Y-13220650D02*
X15210658Y-13353984D01*
X15210658Y-13239698D02*
X15220182Y-13230174D01*
X15220182Y-13230174D02*
X15239230Y-13220650D01*
X15239230Y-13220650D02*
X15267801Y-13220650D01*
X15267801Y-13220650D02*
X15286849Y-13230174D01*
X15286849Y-13230174D02*
X15296372Y-13249222D01*
X15296372Y-13249222D02*
X15296372Y-13353984D01*
X15420182Y-13353984D02*
X15401134Y-13344460D01*
X15401134Y-13344460D02*
X15391611Y-13334936D01*
X15391611Y-13334936D02*
X15382087Y-13315888D01*
X15382087Y-13315888D02*
X15382087Y-13258746D01*
X15382087Y-13258746D02*
X15391611Y-13239698D01*
X15391611Y-13239698D02*
X15401134Y-13230174D01*
X15401134Y-13230174D02*
X15420182Y-13220650D01*
X15420182Y-13220650D02*
X15448753Y-13220650D01*
X15448753Y-13220650D02*
X15467801Y-13230174D01*
X15467801Y-13230174D02*
X15477325Y-13239698D01*
X15477325Y-13239698D02*
X15486849Y-13258746D01*
X15486849Y-13258746D02*
X15486849Y-13315888D01*
X15486849Y-13315888D02*
X15477325Y-13334936D01*
X15477325Y-13334936D02*
X15467801Y-13344460D01*
X15467801Y-13344460D02*
X15448753Y-13353984D01*
X15448753Y-13353984D02*
X15420182Y-13353984D01*
X15543992Y-13220650D02*
X15620182Y-13220650D01*
X15572563Y-13153984D02*
X15572563Y-13325412D01*
X15572563Y-13325412D02*
X15582087Y-13344460D01*
X15582087Y-13344460D02*
X15601134Y-13353984D01*
X15601134Y-13353984D02*
X15620182Y-13353984D01*
X15839230Y-13220650D02*
X15839230Y-13420650D01*
X15839230Y-13230174D02*
X15858277Y-13220650D01*
X15858277Y-13220650D02*
X15896373Y-13220650D01*
X15896373Y-13220650D02*
X15915420Y-13230174D01*
X15915420Y-13230174D02*
X15924944Y-13239698D01*
X15924944Y-13239698D02*
X15934468Y-13258746D01*
X15934468Y-13258746D02*
X15934468Y-13315888D01*
X15934468Y-13315888D02*
X15924944Y-13334936D01*
X15924944Y-13334936D02*
X15915420Y-13344460D01*
X15915420Y-13344460D02*
X15896373Y-13353984D01*
X15896373Y-13353984D02*
X15858277Y-13353984D01*
X15858277Y-13353984D02*
X15839230Y-13344460D01*
X16048753Y-13353984D02*
X16029706Y-13344460D01*
X16029706Y-13344460D02*
X16020182Y-13325412D01*
X16020182Y-13325412D02*
X16020182Y-13153984D01*
X16210658Y-13353984D02*
X16210658Y-13249222D01*
X16210658Y-13249222D02*
X16201134Y-13230174D01*
X16201134Y-13230174D02*
X16182087Y-13220650D01*
X16182087Y-13220650D02*
X16143992Y-13220650D01*
X16143992Y-13220650D02*
X16124944Y-13230174D01*
X16210658Y-13344460D02*
X16191611Y-13353984D01*
X16191611Y-13353984D02*
X16143992Y-13353984D01*
X16143992Y-13353984D02*
X16124944Y-13344460D01*
X16124944Y-13344460D02*
X16115420Y-13325412D01*
X16115420Y-13325412D02*
X16115420Y-13306365D01*
X16115420Y-13306365D02*
X16124944Y-13287317D01*
X16124944Y-13287317D02*
X16143992Y-13277793D01*
X16143992Y-13277793D02*
X16191611Y-13277793D01*
X16191611Y-13277793D02*
X16210658Y-13268269D01*
X16277325Y-13220650D02*
X16353515Y-13220650D01*
X16305896Y-13153984D02*
X16305896Y-13325412D01*
X16305896Y-13325412D02*
X16315420Y-13344460D01*
X16315420Y-13344460D02*
X16334468Y-13353984D01*
X16334468Y-13353984D02*
X16353515Y-13353984D01*
X16496373Y-13344460D02*
X16477325Y-13353984D01*
X16477325Y-13353984D02*
X16439230Y-13353984D01*
X16439230Y-13353984D02*
X16420182Y-13344460D01*
X16420182Y-13344460D02*
X16410658Y-13325412D01*
X16410658Y-13325412D02*
X16410658Y-13249222D01*
X16410658Y-13249222D02*
X16420182Y-13230174D01*
X16420182Y-13230174D02*
X16439230Y-13220650D01*
X16439230Y-13220650D02*
X16477325Y-13220650D01*
X16477325Y-13220650D02*
X16496373Y-13230174D01*
X16496373Y-13230174D02*
X16505896Y-13249222D01*
X16505896Y-13249222D02*
X16505896Y-13268269D01*
X16505896Y-13268269D02*
X16410658Y-13287317D01*
X16677325Y-13353984D02*
X16677325Y-13153984D01*
X16677325Y-13344460D02*
X16658277Y-13353984D01*
X16658277Y-13353984D02*
X16620182Y-13353984D01*
X16620182Y-13353984D02*
X16601134Y-13344460D01*
X16601134Y-13344460D02*
X16591611Y-13334936D01*
X16591611Y-13334936D02*
X16582087Y-13315888D01*
X16582087Y-13315888D02*
X16582087Y-13258746D01*
X16582087Y-13258746D02*
X16591611Y-13239698D01*
X16591611Y-13239698D02*
X16601134Y-13230174D01*
X16601134Y-13230174D02*
X16620182Y-13220650D01*
X16620182Y-13220650D02*
X16658277Y-13220650D01*
X16658277Y-13220650D02*
X16677325Y-13230174D01*
X16753515Y-13430174D02*
X16763039Y-13420650D01*
X16763039Y-13420650D02*
X16782087Y-13392079D01*
X16782087Y-13392079D02*
X16791611Y-13373031D01*
X16791611Y-13373031D02*
X16801135Y-13344460D01*
X16801135Y-13344460D02*
X16810658Y-13296841D01*
X16810658Y-13296841D02*
X16810658Y-13258746D01*
X16810658Y-13258746D02*
X16801135Y-13211127D01*
X16801135Y-13211127D02*
X16791611Y-13182555D01*
X16791611Y-13182555D02*
X16782087Y-13163508D01*
X16782087Y-13163508D02*
X16763039Y-13134936D01*
X16763039Y-13134936D02*
X16753515Y-13125412D01*
M02*
